<svg width="130" height="51" viewBox="0 0 130 51" fill="none" xmlns="http://www.w3.org/2000/svg">
<rect x="29" width="72" height="51" fill="#756FB3"/>
<line y1="25.5" x2="130" y2="25.5" stroke="#756FB3" stroke-width="13"/>
<path d="M65.7553 43.6C63.1219 43.6 60.8886 43.1167 59.0553 42.15C57.2553 41.1833 55.8053 39.8833 54.7053 38.25C53.6386 36.6167 52.8553 34.8 52.3553 32.8C51.8886 30.7667 51.6553 28.7167 51.6553 26.65C51.6553 22.7167 52.2053 19.3167 53.3053 16.45C54.4053 13.5833 55.9886 11.3667 58.0553 9.8C60.1219 8.2 62.6219 7.4 65.5553 7.4C68.0219 7.4 70.1053 7.88333 71.8053 8.85C73.5053 9.78333 74.8219 11.0167 75.7553 12.55C76.6886 14.0833 77.2386 15.7333 77.4053 17.5H71.1053C70.8386 16.0333 70.2219 14.9167 69.2553 14.15C68.2886 13.35 67.0386 12.95 65.5053 12.95C64.0719 12.95 62.8219 13.3833 61.7553 14.25C60.6886 15.1167 59.8553 16.4167 59.2553 18.15C58.6886 19.8833 58.3553 22.0667 58.2553 24.7C58.2553 24.7333 58.2553 24.7833 58.2553 24.85C58.2553 24.9167 58.2553 24.9667 58.2553 25C58.7886 24.1 59.4886 23.3 60.3553 22.6C61.2219 21.9 62.2219 21.35 63.3553 20.95C64.4886 20.55 65.6886 20.35 66.9553 20.35C68.8886 20.35 70.6886 20.8167 72.3553 21.75C74.0219 22.6833 75.3719 24 76.4053 25.7C77.4386 27.4 77.9553 29.4167 77.9553 31.75C77.9553 33.85 77.4386 35.8167 76.4053 37.65C75.4053 39.45 73.9886 40.9 72.1553 42C70.3219 43.0667 68.1886 43.6 65.7553 43.6ZM65.3553 37.8C66.5553 37.8 67.6053 37.55 68.5053 37.05C69.4386 36.55 70.1719 35.8667 70.7053 35C71.2386 34.1 71.5053 33.0833 71.5053 31.95C71.5053 30.75 71.2386 29.7167 70.7053 28.85C70.1719 27.9833 69.4386 27.3 68.5053 26.8C67.5719 26.3 66.5053 26.05 65.3053 26.05C64.1386 26.05 63.0886 26.3 62.1553 26.8C61.2219 27.3 60.4719 28 59.9053 28.9C59.3719 29.7667 59.1053 30.7667 59.1053 31.9C59.1053 33.0667 59.3719 34.1 59.9053 35C60.4719 35.8667 61.2219 36.55 62.1553 37.05C63.1219 37.55 64.1886 37.8 65.3553 37.8Z" fill="white"/>
</svg>
