<svg width="74" height="74" viewBox="0 0 74 74" fill="none" xmlns="http://www.w3.org/2000/svg">
<g filter="url(#filter0_b_1085_31)">
<rect y="0.00012207" width="74" height="74" rx="8" fill="url(#paint0_linear_1085_31)" fill-opacity="0.14"/>
<rect x="0.5" y="0.500122" width="73" height="73" rx="7.5" stroke="#231F34"/>
</g>
<path d="M28.6667 25.3335C28.6667 21.6516 31.6514 18.6668 35.3333 18.6668C39.0152 18.6668 42 21.6516 42 25.3335H50.3333C51.2538 25.3335 52 26.0797 52 27.0001V33.9513C52 34.4923 51.7373 34.9996 51.2957 35.3121C50.8538 35.6245 50.288 35.703 49.778 35.5226C49.4325 35.4006 49.0592 35.3335 48.6667 35.3335C46.8257 35.3335 45.3333 36.8258 45.3333 38.6668C45.3333 40.5078 46.8257 42.0001 48.6667 42.0001C49.0592 42.0001 49.4325 41.933 49.778 41.811C50.288 41.6306 50.8538 41.7091 51.2957 42.0215C51.7373 42.334 52 42.8413 52 43.3823V50.3335C52 51.254 51.2538 52.0001 50.3333 52.0001H23.6667C22.7462 52.0001 22 51.254 22 50.3335V27.0001C22 26.0797 22.7462 25.3335 23.6667 25.3335H28.6667ZM35.3333 22.0001C33.4924 22.0001 32 23.4925 32 25.3335C32 25.726 32.0672 26.0993 32.1893 26.4447C32.3695 26.9548 32.291 27.5207 31.9786 27.9625C31.6662 28.4042 31.1589 28.6668 30.6178 28.6668H25.3333V48.6668H48.6667V45.3335C44.9848 45.3335 42 42.3486 42 38.6668C42 34.985 44.9848 32.0001 48.6667 32.0001V28.6668H40.0488C39.5078 28.6668 39.0005 28.4042 38.688 27.9625C38.3757 27.5207 38.2972 26.9548 38.4775 26.4447C38.5995 26.0993 38.6667 25.7261 38.6667 25.3335C38.6667 23.4925 37.1743 22.0001 35.3333 22.0001Z" fill="white"/>
<defs>
<filter id="filter0_b_1085_31" x="-39" y="-38.9999" width="152" height="152" filterUnits="userSpaceOnUse" color-interpolation-filters="sRGB">
<feFlood flood-opacity="0" result="BackgroundImageFix"/>
<feGaussianBlur in="BackgroundImageFix" stdDeviation="19.5"/>
<feComposite in2="SourceAlpha" operator="in" result="effect1_backgroundBlur_1085_31"/>
<feBlend mode="normal" in="SourceGraphic" in2="effect1_backgroundBlur_1085_31" result="shape"/>
</filter>
<linearGradient id="paint0_linear_1085_31" x1="37" y1="0.00012207" x2="37" y2="74.0001" gradientUnits="userSpaceOnUse">
<stop stop-color="white"/>
<stop offset="1" stop-color="white" stop-opacity="0.51"/>
</linearGradient>
</defs>
</svg>
