<svg width="74" height="74" viewBox="0 0 74 74" fill="none" xmlns="http://www.w3.org/2000/svg">
<g filter="url(#filter0_b_1085_3)">
<rect y="0.00012207" width="74" height="74" rx="8" fill="url(#paint0_linear_1085_3)" fill-opacity="0.14"/>
<rect x="0.5" y="0.500122" width="73" height="73" rx="7.5" stroke="#231F34"/>
</g>
<path d="M36.1667 34.5001C40.769 34.5001 44.5 38.2311 44.5 42.8335V51.1668C44.5 52.0873 43.7538 52.8335 42.8333 52.8335V52.8335C41.9129 52.8335 41.1667 52.0873 41.1667 51.1668V42.8335C41.1667 40.1706 39.0852 37.994 36.4605 37.842L36.1667 37.8335C33.5038 37.8335 31.3272 39.915 31.1752 42.5396L31.1667 42.8335V51.1668C31.1667 52.0873 30.4205 52.8335 29.5 52.8335V52.8335C28.5795 52.8335 27.8333 52.0873 27.8333 51.1668V42.8335C27.8333 38.2311 31.5643 34.5001 36.1667 34.5001ZM25.3333 39.5001C25.7981 39.5001 26.2502 39.5545 26.6835 39.6571C26.4034 40.4901 26.2312 41.3701 26.1816 42.2823L26.1667 42.8335L26.1678 42.9761C25.9793 42.9095 25.7804 42.8646 25.5741 42.845L25.3333 42.8335C24.0338 42.8335 22.9659 43.825 22.8448 45.0926L22.8333 45.3335V51.1668C22.8333 52.0873 22.0871 52.8335 21.1667 52.8335V52.8335C20.2462 52.8335 19.5 52.0873 19.5 51.1668V45.3335C19.5 42.1118 22.1117 39.5001 25.3333 39.5001ZM47 39.5001C50.2217 39.5001 52.8333 42.1118 52.8333 45.3335V51.1668C52.8333 52.0873 52.0871 52.8335 51.1667 52.8335V52.8335C50.2462 52.8335 49.5 52.0873 49.5 51.1668V45.3335C49.5 44.034 48.5085 42.9661 47.2408 42.845L47 42.8335C46.708 42.8335 46.4277 42.8835 46.1672 42.9755L46.1667 42.8335C46.1667 41.724 45.986 40.6568 45.6525 39.6595C46.0832 39.5545 46.5352 39.5001 47 39.5001ZM25.3333 29.5001C27.6345 29.5001 29.5 31.3656 29.5 33.6668C29.5 35.968 27.6345 37.8335 25.3333 37.8335C23.0322 37.8335 21.1667 35.968 21.1667 33.6668C21.1667 31.3656 23.0322 29.5001 25.3333 29.5001ZM47 29.5001C49.3012 29.5001 51.1667 31.3656 51.1667 33.6668C51.1667 35.968 49.3012 37.8335 47 37.8335C44.6988 37.8335 42.8333 35.968 42.8333 33.6668C42.8333 31.3656 44.6988 29.5001 47 29.5001ZM25.3333 32.8335C24.8731 32.8335 24.5 33.2066 24.5 33.6668C24.5 34.127 24.8731 34.5001 25.3333 34.5001C25.7936 34.5001 26.1667 34.127 26.1667 33.6668C26.1667 33.2066 25.7936 32.8335 25.3333 32.8335ZM47 32.8335C46.5398 32.8335 46.1667 33.2066 46.1667 33.6668C46.1667 34.127 46.5398 34.5001 47 34.5001C47.4602 34.5001 47.8333 34.127 47.8333 33.6668C47.8333 33.2066 47.4602 32.8335 47 32.8335ZM36.1667 19.5001C39.8485 19.5001 42.8333 22.4849 42.8333 26.1668C42.8333 29.8487 39.8485 32.8335 36.1667 32.8335C32.4848 32.8335 29.5 29.8487 29.5 26.1668C29.5 22.4849 32.4848 19.5001 36.1667 19.5001ZM36.1667 22.8335C34.3257 22.8335 32.8333 24.3258 32.8333 26.1668C32.8333 28.0077 34.3257 29.5001 36.1667 29.5001C38.0077 29.5001 39.5 28.0077 39.5 26.1668C39.5 24.3258 38.0077 22.8335 36.1667 22.8335Z" fill="white"/>
<defs>
<filter id="filter0_b_1085_3" x="-39" y="-38.9999" width="152" height="152" filterUnits="userSpaceOnUse" color-interpolation-filters="sRGB">
<feFlood flood-opacity="0" result="BackgroundImageFix"/>
<feGaussianBlur in="BackgroundImageFix" stdDeviation="19.5"/>
<feComposite in2="SourceAlpha" operator="in" result="effect1_backgroundBlur_1085_3"/>
<feBlend mode="normal" in="SourceGraphic" in2="effect1_backgroundBlur_1085_3" result="shape"/>
</filter>
<linearGradient id="paint0_linear_1085_3" x1="37" y1="0.00012207" x2="37" y2="74.0001" gradientUnits="userSpaceOnUse">
<stop stop-color="white"/>
<stop offset="1" stop-color="white" stop-opacity="0.51"/>
</linearGradient>
</defs>
</svg>
