<svg width="74" height="74" viewBox="0 0 74 74" fill="none" xmlns="http://www.w3.org/2000/svg">
<g filter="url(#filter0_b_1085_45)">
<rect y="0.00012207" width="74" height="74" rx="8" fill="url(#paint0_linear_1085_45)" fill-opacity="0.14"/>
<rect x="0.5" y="0.500122" width="73" height="73" rx="7.5" stroke="#231F34"/>
</g>
<path d="M27 47.0001H47V27.0001H27V47.0001ZM40.3333 50.3334H33.6666V52.0001C33.6666 52.9206 32.9205 53.6668 32 53.6668V53.6668C31.0795 53.6668 30.3333 52.9206 30.3333 52.0001V50.3334H25.3333C24.4128 50.3334 23.6666 49.5873 23.6666 48.6668V43.6668H22C21.0795 43.6668 20.3333 42.9206 20.3333 42.0001V42.0001C20.3333 41.0796 21.0795 40.3334 22 40.3334H23.6666V33.6668H22C21.0795 33.6668 20.3333 32.9206 20.3333 32.0001V32.0001C20.3333 31.0796 21.0795 30.3334 22 30.3334H23.6666V25.3334C23.6666 24.413 24.4128 23.6668 25.3333 23.6668H30.3333V22.0001C30.3333 21.0796 31.0795 20.3334 32 20.3334V20.3334C32.9205 20.3334 33.6666 21.0796 33.6666 22.0001V23.6668H40.3333V22.0001C40.3333 21.0796 41.0795 20.3334 42 20.3334V20.3334C42.9205 20.3334 43.6666 21.0796 43.6666 22.0001V23.6668H48.6666C49.5871 23.6668 50.3333 24.413 50.3333 25.3334V30.3334H52C52.9205 30.3334 53.6666 31.0796 53.6666 32.0001V32.0001C53.6666 32.9206 52.9205 33.6668 52 33.6668H50.3333V40.3334H52C52.9205 40.3334 53.6666 41.0796 53.6666 42.0001V42.0001C53.6666 42.9206 52.9205 43.6668 52 43.6668H50.3333V48.6668C50.3333 49.5873 49.5871 50.3334 48.6666 50.3334H43.6666V52.0001C43.6666 52.9206 42.9205 53.6668 42 53.6668V53.6668C41.0795 53.6668 40.3333 52.9206 40.3333 52.0001V50.3334ZM30.3333 30.8334C30.3333 30.5573 30.5572 30.3334 30.8333 30.3334H43.1666C43.4428 30.3334 43.6666 30.5573 43.6666 30.8334V43.1668C43.6666 43.4429 43.4428 43.6668 43.1666 43.6668H30.8333C30.5572 43.6668 30.3333 43.4429 30.3333 43.1668V30.8334Z" fill="white"/>
<defs>
<filter id="filter0_b_1085_45" x="-39" y="-38.9999" width="152" height="152" filterUnits="userSpaceOnUse" color-interpolation-filters="sRGB">
<feFlood flood-opacity="0" result="BackgroundImageFix"/>
<feGaussianBlur in="BackgroundImageFix" stdDeviation="19.5"/>
<feComposite in2="SourceAlpha" operator="in" result="effect1_backgroundBlur_1085_45"/>
<feBlend mode="normal" in="SourceGraphic" in2="effect1_backgroundBlur_1085_45" result="shape"/>
</filter>
<linearGradient id="paint0_linear_1085_45" x1="37" y1="0.00012207" x2="37" y2="74.0001" gradientUnits="userSpaceOnUse">
<stop stop-color="white"/>
<stop offset="1" stop-color="white" stop-opacity="0.51"/>
</linearGradient>
</defs>
</svg>
