<svg width="75" height="74" viewBox="0 0 75 74" fill="none" xmlns="http://www.w3.org/2000/svg">
<g filter="url(#filter0_b_1085_55)">
<rect x="0.5" width="74" height="74" rx="8" fill="url(#paint0_linear_1085_55)" fill-opacity="0.14"/>
<rect x="1" y="0.5" width="73" height="73" rx="7.5" stroke="#231F34"/>
</g>
<path d="M37.5 47.0001C31.9771 47.0001 27.5 42.5229 27.5 37.0001C27.5 31.4772 31.9771 27.0001 37.5 27.0001C43.0228 27.0001 47.5 31.4772 47.5 37.0001C47.5 42.5229 43.0228 47.0001 37.5 47.0001ZM37.5 43.6667C41.1818 43.6667 44.1666 40.6819 44.1666 37.0001C44.1666 33.3182 41.1818 30.3334 37.5 30.3334C33.8181 30.3334 30.8333 33.3182 30.8333 37.0001C30.8333 40.6819 33.8181 43.6667 37.5 43.6667ZM35.8333 20.3334C35.8333 19.4129 36.5795 18.6667 37.5 18.6667V18.6667C38.4204 18.6667 39.1666 19.4129 39.1666 20.3334V22.0001C39.1666 22.9206 38.4204 23.6667 37.5 23.6667V23.6667C36.5795 23.6667 35.8333 22.9206 35.8333 22.0001V20.3334ZM35.8333 52.0001C35.8333 51.0796 36.5795 50.3334 37.5 50.3334V50.3334C38.4204 50.3334 39.1666 51.0796 39.1666 52.0001V53.6667C39.1666 54.5872 38.4204 55.3334 37.5 55.3334V55.3334C36.5795 55.3334 35.8333 54.5872 35.8333 53.6667V52.0001ZM24.5363 26.3935C23.8855 25.7426 23.8855 24.6873 24.5363 24.0365V24.0365C25.1872 23.3856 26.2425 23.3856 26.8934 24.0365L28.0719 25.215C28.7228 25.8658 28.7228 26.9211 28.0719 27.572V27.572C27.421 28.2229 26.3657 28.2229 25.7149 27.572L24.5363 26.3935ZM46.9281 48.7853C46.2772 48.1344 46.2771 47.0791 46.9281 46.4282V46.4282C47.579 45.7773 48.6343 45.7773 49.2852 46.4282L50.4637 47.6067C51.1145 48.2576 51.1145 49.3129 50.4636 49.9637V49.9637C49.8128 50.6146 48.7575 50.6146 48.1066 49.9638L46.9281 48.7853ZM48.1066 24.0364C48.7575 23.3856 49.8128 23.3856 50.4636 24.0365V24.0365C51.1145 24.6873 51.1145 25.7426 50.4636 26.3935L49.2851 27.572C48.6343 28.2229 47.579 28.2229 46.9281 27.572V27.572C46.2772 26.9211 46.2772 25.8658 46.9281 25.2149L48.1066 24.0364ZM25.7148 46.4282C26.3657 45.7773 27.421 45.7773 28.0719 46.4282V46.4282C28.7228 47.0791 28.7228 48.1344 28.0719 48.7852L26.8934 49.9637C26.2425 50.6146 25.1872 50.6146 24.5363 49.9637V49.9637C23.8855 49.3129 23.8855 48.2576 24.5363 47.6067L25.7148 46.4282ZM54.1666 35.3334C55.0871 35.3334 55.8333 36.0796 55.8333 37.0001V37.0001C55.8333 37.9206 55.0871 38.6667 54.1666 38.6667H52.5C51.5795 38.6667 50.8333 37.9206 50.8333 37.0001V37.0001C50.8333 36.0796 51.5795 35.3334 52.5 35.3334H54.1666ZM22.5 35.3334C23.4204 35.3334 24.1666 36.0796 24.1666 37.0001V37.0001C24.1666 37.9206 23.4204 38.6667 22.5 38.6667H20.8333C19.9128 38.6667 19.1666 37.9206 19.1666 37.0001V37.0001C19.1666 36.0796 19.9128 35.3334 20.8333 35.3334H22.5Z" fill="white"/>
<defs>
<filter id="filter0_b_1085_55" x="-38.5" y="-39" width="152" height="152" filterUnits="userSpaceOnUse" color-interpolation-filters="sRGB">
<feFlood flood-opacity="0" result="BackgroundImageFix"/>
<feGaussianBlur in="BackgroundImageFix" stdDeviation="19.5"/>
<feComposite in2="SourceAlpha" operator="in" result="effect1_backgroundBlur_1085_55"/>
<feBlend mode="normal" in="SourceGraphic" in2="effect1_backgroundBlur_1085_55" result="shape"/>
</filter>
<linearGradient id="paint0_linear_1085_55" x1="37.5" y1="0" x2="37.5" y2="74" gradientUnits="userSpaceOnUse">
<stop stop-color="white"/>
<stop offset="1" stop-color="white" stop-opacity="0.51"/>
</linearGradient>
</defs>
</svg>
