<svg width="96" height="96" viewBox="0 0 96 96" fill="none" xmlns="http://www.w3.org/2000/svg">
<circle cx="48" cy="48" r="48" fill="#35A084"/>
<circle cx="48" cy="48" r="43.6364" fill="#35A084"/>
<path d="M32.4927 70.3636V63.9286C35.266 61.7186 37.9527 59.5086 40.5527 57.2986C43.196 55.0886 45.5577 52.9003 47.6377 50.7336C49.7177 48.5236 51.3644 46.3786 52.5777 44.2986C53.791 42.2186 54.3977 40.2036 54.3977 38.2536C54.3977 37.0403 54.181 35.9353 53.7477 34.9386C53.3144 33.8986 52.621 33.0753 51.6677 32.4686C50.7577 31.8186 49.5444 31.4936 48.0277 31.4936C46.511 31.4936 45.2327 31.8403 44.1927 32.5336C43.1527 33.227 42.3727 34.1586 41.8527 35.3286C41.3327 36.4553 41.0727 37.7336 41.0727 39.1636H32.5577C32.6877 35.827 33.446 33.032 34.8327 30.7786C36.2194 28.5253 38.0827 26.857 40.4227 25.7736C42.7627 24.647 45.3844 24.0836 48.2877 24.0836C51.4944 24.0836 54.2027 24.6903 56.4127 25.9036C58.6227 27.0736 60.291 28.677 61.4177 30.7136C62.5877 32.7503 63.1727 35.0903 63.1727 37.7336C63.1727 39.727 62.8044 41.677 62.0677 43.5836C61.3744 45.4903 60.3777 47.3536 59.0777 49.1736C57.821 50.9503 56.391 52.662 54.7877 54.3086C53.1844 55.9553 51.516 57.537 49.7827 59.0536C48.0494 60.527 46.3594 61.9136 44.7127 63.2136H64.2777V70.3636H32.4927Z" fill="white"/>
</svg>
