<svg width="329" height="58" viewBox="0 0 329 58" fill="none" xmlns="http://www.w3.org/2000/svg">
<path d="M0.128 47L16.192 0.343998H28.096L44.16 47H35.392L31.872 36.76H12.416L8.96 47H0.128ZM14.464 30.232H29.888L25.28 17.112L22.336 8.088H22.016L19.008 17.112L14.464 30.232ZM48.6005 8.152V0.343998H56.6005V8.152H48.6005ZM48.6005 47V12.952H56.6005V47H48.6005ZM85.6415 47L85.5775 36.056H63.4975V29.976L83.4655 0.855999H93.6415V29.464H99.7855L99.7215 36.056H93.6415V47H85.6415ZM71.5615 29.464H85.6415V9.24L71.5615 29.464ZM107.689 47V0.343998H127.081C132.073 0.343998 136.062 1.66666 139.049 4.312C142.078 6.91467 143.593 10.6053 143.593 15.384C143.593 18.4133 142.931 21.08 141.609 23.384C140.286 25.6453 138.387 27.416 135.913 28.696C133.481 29.976 130.537 30.616 127.081 30.616L116.137 30.552V47H107.689ZM125.673 7.576H116.137V23.896L125.673 23.96C128.318 23.96 130.515 23.32 132.265 22.04C134.057 20.76 134.953 18.648 134.953 15.704C134.953 12.76 134.057 10.6693 132.265 9.432C130.473 8.19466 128.275 7.576 125.673 7.576ZM149.413 47V12.952H156.645L157.029 18.648H157.285C158.053 16.472 159.29 14.9147 160.997 13.976C162.746 12.9947 164.73 12.504 166.949 12.504C167.333 12.504 167.674 12.504 167.973 12.504C168.314 12.504 168.634 12.504 168.933 12.504V20.056C168.677 20.056 168.357 20.056 167.973 20.056C167.632 20.0133 167.248 19.992 166.821 19.992C163.706 19.992 161.381 20.7387 159.845 22.232C158.352 23.6827 157.541 25.7307 157.413 28.376V47H149.413ZM174.163 8.152V0.343998H182.163V8.152H174.163ZM174.163 47V12.952H182.163V47H174.163ZM198.276 47L186.372 12.888H195.012L200.964 32.472L203.076 40.28H203.332L205.444 32.536L211.396 12.888H220.036L208.196 47H198.276ZM234.935 47.576C230.839 47.576 227.532 46.0827 225.015 43.096C222.497 40.1093 221.239 35.736 221.239 29.976C221.239 24.1733 222.497 19.7787 225.015 16.792C227.532 13.8053 230.839 12.312 234.935 12.312C237.708 12.312 240.076 12.952 242.039 14.232C244.001 15.4693 245.388 17.1333 246.199 19.224H246.647L246.967 12.952H254.647V47H246.647V40.664H246.199C245.388 42.712 244.001 44.376 242.039 45.656C240.076 46.936 237.708 47.576 234.935 47.576ZM237.943 41.048C239.82 41.048 241.399 40.6 242.679 39.704C243.959 38.808 244.919 37.656 245.559 36.248C246.199 34.84 246.519 33.3253 246.519 31.704V28.184C246.519 26.5627 246.199 25.048 245.559 23.64C244.919 22.1893 243.959 21.0373 242.679 20.184C241.399 19.288 239.82 18.84 237.943 18.84C235.383 18.84 233.313 19.7573 231.735 21.592C230.156 23.4267 229.367 26.2213 229.367 29.976C229.367 33.688 230.156 36.4613 231.735 38.296C233.313 40.1307 235.383 41.048 237.943 41.048ZM277.443 47.576C274.072 47.576 271.128 46.8507 268.611 45.4C266.093 43.9493 264.152 41.9013 262.786 39.256C261.421 36.6107 260.739 33.5173 260.739 29.976C260.739 26.4347 261.421 23.3413 262.786 20.696C264.195 18.0507 266.157 16.0027 268.675 14.552C271.235 13.0587 274.243 12.312 277.699 12.312C280.557 12.312 283.096 12.8453 285.315 13.912C287.533 14.9787 289.304 16.472 290.627 18.392C291.992 20.312 292.739 22.5093 292.867 24.984H285.059C284.717 22.9787 283.843 21.464 282.435 20.44C281.069 19.416 279.427 18.904 277.507 18.904C274.691 18.904 272.536 19.928 271.043 21.976C269.549 23.9813 268.803 26.648 268.803 29.976C268.803 33.6027 269.592 36.3547 271.171 38.232C272.749 40.0667 274.84 40.984 277.443 40.984C279.661 40.984 281.453 40.408 282.819 39.256C284.184 38.0613 284.973 36.5253 285.187 34.648H292.995C292.824 37.2507 292.056 39.5333 290.691 41.496C289.325 43.416 287.491 44.9093 285.187 45.976C282.925 47.0427 280.344 47.576 277.443 47.576ZM297.626 57.688V51.096H301.402C302.895 51.096 304.047 50.7973 304.858 50.2C305.711 49.6027 306.372 48.664 306.842 47.384L307.994 44.44L294.809 12.952H303.578L310.554 32.408L311.833 36.248H312.154L313.306 32.408L319.898 12.952H328.41L314.65 49.24C313.455 52.5253 311.898 54.744 309.978 55.896C308.058 57.0907 305.69 57.688 302.874 57.688H297.626Z" fill="url(#paint0_linear_1153_313)"/>
<defs>
<linearGradient id="paint0_linear_1153_313" x1="164.5" y1="-15" x2="164.5" y2="62" gradientUnits="userSpaceOnUse">
<stop stop-color="white"/>
<stop offset="1" stop-color="white" stop-opacity="0.51"/>
</linearGradient>
</defs>
</svg>
