<svg width="180" height="40" viewBox="0 0 180 40" fill="none" xmlns="http://www.w3.org/2000/svg">
<g clip-path="url(#clip0_102_104)">
<path fill-rule="evenodd" clip-rule="evenodd" d="M76.9256 19.3321C78.0046 18.9146 78.9302 18.1775 79.5788 17.2195C80.2273 16.2614 80.5677 15.1281 80.5545 13.9713C80.5545 9.14653 77.1318 6.75478 72.4307 6.75478H60.1008V32.9898H73.5029C77.6266 32.9898 81.6679 30.1032 81.6679 25.6909C81.6679 20.4455 76.9256 19.3816 76.9256 19.3321ZM66.5338 12.1981H71.3173C71.6236 12.1791 71.9307 12.2207 72.2209 12.3205C72.5111 12.4203 72.7788 12.5764 73.0086 12.7798C73.2384 12.9832 73.4259 13.2299 73.5602 13.5058C73.6946 13.7817 73.7732 14.0814 73.7916 14.3878C73.7916 14.4812 73.7916 14.5761 73.7916 14.6723C73.7786 15.3173 73.5112 15.931 73.0478 16.3797C72.5844 16.8285 71.9624 17.0759 71.3173 17.0682H66.4926L66.5338 12.1981ZM71.3586 27.497H66.5751V22.3424H71.2349C73.5854 22.3424 74.6988 23.3733 74.6988 24.8991C74.6988 26.8043 73.2967 27.497 71.3586 27.497Z" fill="url(#paint0_linear_102_104)"/>
<path fill-rule="evenodd" clip-rule="evenodd" d="M95.8534 6.09499C88.2658 6.09499 83.8122 12.1568 83.8122 19.8269C83.8122 27.497 88.2658 33.5589 95.8534 33.5589C103.441 33.5589 107.895 27.5383 107.895 19.8269C107.895 12.1156 103.482 6.09499 95.8534 6.09499ZM95.8534 27.2909C92.1421 27.2909 90.2864 23.9507 90.2864 19.8269C90.2864 15.7032 92.1421 12.4043 95.8534 12.4043C99.5648 12.4043 101.462 15.7445 101.462 19.8269C101.462 23.9919 99.5648 27.2909 95.8534 27.2909Z" fill="url(#paint1_linear_102_104)"/>
<path fill-rule="evenodd" clip-rule="evenodd" d="M121.874 17.0641L120.967 16.8579C118.74 16.4043 116.967 15.8269 116.967 14.2187C116.967 12.4867 118.658 11.7857 120.142 11.7857C121.155 11.8008 122.154 12.0246 123.076 12.4433C123.999 12.8619 124.825 13.4663 125.503 14.2187L129.585 10.1775C127.73 8.07436 124.719 6.05374 120.018 6.05374C114.493 6.05374 110.286 9.14652 110.286 14.3012C110.286 19.0022 113.668 21.3115 117.792 22.1775L118.699 22.3836C122.121 23.0847 123.4 23.6208 123.4 25.2702C123.4 26.8372 121.998 27.8682 119.853 27.8682C117.297 27.8682 114.987 26.7548 113.214 24.4867L109.049 28.6104C111.359 31.3733 114.286 33.5177 119.936 33.5177C124.843 33.5177 130.08 30.7135 130.08 24.9816C130.163 19.0022 125.627 17.8476 121.874 17.0641Z" fill="url(#paint2_linear_102_104)"/>
<path fill-rule="evenodd" clip-rule="evenodd" d="M144.761 27.2909C141.874 27.2909 138.864 24.8991 138.864 19.662C138.864 15.0022 141.668 12.4043 144.596 12.4043C146.905 12.4043 148.266 13.4764 149.338 15.3321L154.616 11.8269C151.977 7.82694 148.843 6.13622 144.513 6.13622C136.596 6.13622 132.307 12.2805 132.307 19.7032C132.307 27.497 137.049 33.6001 144.431 33.6001C149.627 33.6001 152.101 31.7857 154.781 27.9094L149.462 24.33C148.39 26.0537 147.235 27.2909 144.761 27.2909Z" fill="url(#paint3_linear_102_104)"/>
<path fill-rule="evenodd" clip-rule="evenodd" d="M172.225 6.75478V16.4043H164.266V6.75478H157.379V32.9816H164.266V22.6311H172.225V32.9816H179.111V6.75478H172.225Z" fill="url(#paint4_linear_102_104)"/>
<path d="M20.4307 0.0743561C16.4996 0.0743561 12.6567 1.24008 9.38807 3.42411C6.11943 5.60815 3.57183 8.7124 2.06744 12.3443C0.563055 15.9762 0.169439 19.9727 0.93637 23.8283C1.7033 27.6839 3.59633 31.2256 6.37608 34.0053C9.15583 36.7851 12.6974 38.6781 16.5531 39.445C20.4087 40.2119 24.4051 39.8183 28.0371 38.3139C31.669 36.8096 34.7732 34.262 36.9573 30.9933C39.1413 27.7247 40.307 23.8818 40.307 19.9506C40.307 14.6791 38.2129 9.62351 34.4854 5.89599C30.7579 2.16846 25.7023 0.0743561 20.4307 0.0743561ZM20.4307 37.9713C16.8666 37.9713 13.3825 36.9144 10.419 34.9342C7.45555 32.9541 5.1458 30.1397 3.78186 26.8468C2.41792 23.554 2.06105 19.9307 2.75638 16.435C3.45171 12.9393 5.16801 9.72837 7.68824 7.20814C10.2085 4.68791 13.4194 2.97162 16.9151 2.27629C20.4108 1.58096 24.0341 1.93783 27.3269 3.30176C30.6198 4.6657 33.4342 6.97545 35.4143 9.93893C37.3945 12.9024 38.4514 16.3865 38.4514 19.9506C38.4503 24.7297 36.5513 29.3127 33.172 32.6919C29.7928 36.0712 25.2098 37.9702 20.4307 37.9713Z" fill="url(#paint5_linear_102_104)"/>
<path d="M28.6369 7.53827H27.2761V14.3424H13.6266V7.53827H12.2245C10.171 8.89303 8.48562 10.7361 7.31952 12.9024C6.15343 15.0687 5.54303 17.4904 5.54303 19.9506C5.54303 22.4108 6.15343 24.8326 7.31952 26.9989C8.48562 29.1651 10.171 31.0082 12.2245 32.363H13.6266V25.5671H27.2761V32.3713H28.6369C30.6914 31.0172 32.3776 29.1743 33.5443 27.0079C34.711 24.8415 35.3218 22.4195 35.3218 19.9589C35.3218 17.4983 34.711 15.0762 33.5443 12.9099C32.3776 10.7435 30.6914 8.90062 28.6369 7.54652V7.53827ZM11.7297 29.6908C10.4508 28.5545 9.40823 27.1773 8.66158 25.6381C7.91492 24.0988 7.47879 22.4275 7.37807 20.7196C7.27736 19.0117 7.51405 17.3008 8.07462 15.6844C8.63519 14.068 9.50866 12.5779 10.6452 11.2991C10.9858 10.9186 11.3479 10.5579 11.7297 10.2187V29.6908ZM27.2761 23.6702H13.6266V16.1981H27.2761V23.6702ZM29.1318 29.6496V25.5259V14.3424V10.2187C30.4075 11.3643 31.4451 12.75 32.1851 14.2967C32.9251 15.8435 33.3532 17.5208 33.4447 19.233C33.5362 20.9452 33.2895 22.6587 32.7185 24.2755C32.1476 25.8923 31.2637 27.3807 30.1173 28.6558C29.8055 29.0006 29.4766 29.3295 29.1318 29.6414V29.6496Z" fill="url(#paint6_linear_102_104)"/>
</g>
<defs>
<linearGradient id="paint0_linear_102_104" x1="70.8844" y1="6.75478" x2="70.8844" y2="32.9898" gradientUnits="userSpaceOnUse">
<stop stop-color="white"/>
<stop offset="1" stop-color="white" stop-opacity="0.51"/>
</linearGradient>
<linearGradient id="paint1_linear_102_104" x1="95.8534" y1="6.09499" x2="95.8534" y2="33.5589" gradientUnits="userSpaceOnUse">
<stop stop-color="white"/>
<stop offset="1" stop-color="white" stop-opacity="0.51"/>
</linearGradient>
<linearGradient id="paint2_linear_102_104" x1="119.565" y1="6.05374" x2="119.565" y2="33.5177" gradientUnits="userSpaceOnUse">
<stop stop-color="white"/>
<stop offset="1" stop-color="white" stop-opacity="0.51"/>
</linearGradient>
<linearGradient id="paint3_linear_102_104" x1="143.544" y1="6.13622" x2="143.544" y2="33.6001" gradientUnits="userSpaceOnUse">
<stop stop-color="white"/>
<stop offset="1" stop-color="white" stop-opacity="0.51"/>
</linearGradient>
<linearGradient id="paint4_linear_102_104" x1="168.245" y1="6.75478" x2="168.245" y2="32.9816" gradientUnits="userSpaceOnUse">
<stop stop-color="white"/>
<stop offset="1" stop-color="white" stop-opacity="0.51"/>
</linearGradient>
<linearGradient id="paint5_linear_102_104" x1="20.4307" y1="0.0743561" x2="20.4307" y2="39.8269" gradientUnits="userSpaceOnUse">
<stop stop-color="white"/>
<stop offset="1" stop-color="white" stop-opacity="0.51"/>
</linearGradient>
<linearGradient id="paint6_linear_102_104" x1="20.4324" y1="7.53827" x2="20.4324" y2="32.3713" gradientUnits="userSpaceOnUse">
<stop stop-color="white"/>
<stop offset="1" stop-color="white" stop-opacity="0.51"/>
</linearGradient>
<clipPath id="clip0_102_104">
<rect width="178.557" height="40" fill="white" transform="translate(0.554443 0.00012207)"/>
</clipPath>
</defs>
</svg>
