<svg width="219" height="42" viewBox="0 0 219 42" fill="none" xmlns="http://www.w3.org/2000/svg">
<g clip-path="url(#clip0_1152_216)">
<path d="M128.292 38.0759C126.139 38.0884 124.006 37.6684 122.018 36.8406C120.031 36.0129 118.23 34.7943 116.723 33.2573L119.079 30.5237C120.275 31.7883 121.709 32.8038 123.299 33.5117C124.889 34.2195 126.603 34.6058 128.342 34.6482C132.699 34.6482 135.514 32.4355 135.514 29.0134C135.514 25.4927 133.023 24.368 129.87 22.9443L125.024 20.8302C120.503 18.9336 118.306 16.152 118.306 12.3177C118.306 7.24431 122.678 3.56177 128.701 3.56177C132.343 3.5622 135.838 5.00035 138.426 7.56357L136.317 10.0924C134.288 8.09264 131.55 6.97657 128.701 6.98764C124.811 6.98764 122.297 8.97843 122.297 12.0598C122.297 15.3838 125.307 16.6565 127.962 17.7792L132.736 19.8332C136.276 21.3714 139.556 23.5038 139.556 28.653C139.556 34.2018 134.924 38.0759 128.292 38.0759Z" fill="url(#paint0_linear_1152_216)"/>
<path d="M72.2981 34.7114C70.0427 34.7116 67.8221 34.1555 65.8329 33.0924C63.8438 32.0293 62.1475 30.4921 60.8944 28.6168C59.6413 26.7415 58.8701 24.5862 58.649 22.3416C58.4279 20.0971 58.7638 17.8326 59.6269 15.7489C60.49 13.6652 61.8537 11.8265 63.5972 10.3957C65.3407 8.96495 67.4102 7.98626 69.6222 7.54635C71.8343 7.10644 74.1208 7.21889 76.279 7.87373C78.4373 8.52858 80.4007 9.70561 81.9954 11.3006L84.552 8.74396C82.1284 6.32022 79.0406 4.66959 75.6789 4.00081C72.3172 3.33204 68.8327 3.67515 65.666 4.98676C62.4994 6.29837 59.7927 8.51958 57.8885 11.3695C55.9842 14.2194 54.9678 17.57 54.9678 20.9975C54.9678 24.4251 55.9842 27.7757 57.8885 30.6256C59.7927 33.4754 62.4994 35.6967 65.666 37.0083C68.8327 38.3199 72.3172 38.663 75.6789 37.9942C79.0406 37.3254 82.1284 35.6748 84.552 33.2511L81.9954 30.6951C80.7233 31.9704 79.2118 32.9818 77.5476 33.671C75.8834 34.3603 74.0994 34.7139 72.2981 34.7114Z" fill="url(#paint1_linear_1152_216)"/>
<path d="M218.795 37.5037V33.8288H202.493V22.7445H215.916V19.0695H202.493V7.90238H218.795V4.29443H198.55V37.5037H218.795Z" fill="url(#paint2_linear_1152_216)"/>
<path d="M194.419 37.5037V33.7327H178.054V4.29443H174.111V37.5037H194.419Z" fill="url(#paint3_linear_1152_216)"/>
<path d="M155.621 2.9834L140.547 37.5013H144.835L149.141 27.3204H162.11L166.416 37.5039H170.704L155.621 2.9834ZM150.374 23.9426L155.659 11.7115L160.907 23.9426H150.374Z" fill="url(#paint4_linear_1152_216)"/>
<path d="M100.593 2.9834L85.5293 37.5013H89.8169L94.0943 27.3179H107.101L111.408 37.5013H115.695L100.593 2.9834ZM95.3454 23.9426L100.593 11.7115L105.876 23.9426H95.3454Z" fill="url(#paint5_linear_1152_216)"/>
<path d="M22.7515 15.8043C24.0257 15.5592 25.3454 15.8063 26.4448 16.4956C27.5441 17.1849 28.3413 18.2653 28.6758 19.5191H47.3028L36.6623 1.08928C36.471 0.758117 36.1959 0.483132 35.8646 0.291933C35.5334 0.100735 35.1577 5.30254e-05 34.7752 0H13.627L22.7515 15.8043Z" fill="url(#paint6_linear_1152_216)"/>
<path d="M28.6573 22.2958C28.3136 23.5124 27.5313 24.5584 26.4614 25.2319C25.3916 25.9054 24.1101 26.1585 22.8645 25.9423L13.5952 42.0001H34.7738C35.1563 42.0001 35.5321 41.8993 35.8634 41.708C36.1946 41.5167 36.4697 41.2415 36.6609 40.9102L47.4083 22.2952L28.6573 22.2958Z" fill="url(#paint7_linear_1152_216)"/>
<path d="M20.3409 24.7626C19.7869 24.2861 19.3409 23.6969 19.0327 23.0343C18.7244 22.3718 18.561 21.6511 18.5534 20.9204C18.5457 20.1897 18.694 19.4658 18.9883 18.7969C19.2826 18.1281 19.7161 17.5296 20.26 17.0416L11.1026 1.18042L0.292052 19.9105C0.100727 20.2418 0 20.6176 0 21.0001C0 21.3826 0.100727 21.7584 0.292052 22.0897L11.0862 40.792L20.3409 24.7626Z" fill="url(#paint8_linear_1152_216)"/>
</g>
<defs>
<linearGradient id="paint0_linear_1152_216" x1="128.14" y1="3.56177" x2="128.14" y2="38.0762" gradientUnits="userSpaceOnUse">
<stop stop-color="white"/>
<stop offset="1" stop-color="white" stop-opacity="0.51"/>
</linearGradient>
<linearGradient id="paint1_linear_1152_216" x1="69.7599" y1="3.66772" x2="69.7599" y2="38.3273" gradientUnits="userSpaceOnUse">
<stop stop-color="white"/>
<stop offset="1" stop-color="white" stop-opacity="0.51"/>
</linearGradient>
<linearGradient id="paint2_linear_1152_216" x1="208.673" y1="4.29443" x2="208.673" y2="37.5037" gradientUnits="userSpaceOnUse">
<stop stop-color="white"/>
<stop offset="1" stop-color="white" stop-opacity="0.51"/>
</linearGradient>
<linearGradient id="paint3_linear_1152_216" x1="184.265" y1="4.29443" x2="184.265" y2="37.5037" gradientUnits="userSpaceOnUse">
<stop stop-color="white"/>
<stop offset="1" stop-color="white" stop-opacity="0.51"/>
</linearGradient>
<linearGradient id="paint4_linear_1152_216" x1="155.625" y1="2.9834" x2="155.625" y2="37.5039" gradientUnits="userSpaceOnUse">
<stop stop-color="white"/>
<stop offset="1" stop-color="white" stop-opacity="0.51"/>
</linearGradient>
<linearGradient id="paint5_linear_1152_216" x1="100.612" y1="2.9834" x2="100.612" y2="37.5013" gradientUnits="userSpaceOnUse">
<stop stop-color="white"/>
<stop offset="1" stop-color="white" stop-opacity="0.51"/>
</linearGradient>
<linearGradient id="paint6_linear_1152_216" x1="30.4649" y1="0" x2="30.4649" y2="19.5191" gradientUnits="userSpaceOnUse">
<stop stop-color="white"/>
<stop offset="1" stop-color="white" stop-opacity="0.51"/>
</linearGradient>
<linearGradient id="paint7_linear_1152_216" x1="30.5018" y1="22.2952" x2="30.5018" y2="42.0001" gradientUnits="userSpaceOnUse">
<stop stop-color="white"/>
<stop offset="1" stop-color="white" stop-opacity="0.51"/>
</linearGradient>
<linearGradient id="paint8_linear_1152_216" x1="10.1705" y1="1.18042" x2="10.1705" y2="40.792" gradientUnits="userSpaceOnUse">
<stop stop-color="white"/>
<stop offset="1" stop-color="white" stop-opacity="0.51"/>
</linearGradient>
<clipPath id="clip0_1152_216">
<rect width="219" height="42" fill="white"/>
</clipPath>
</defs>
</svg>
