<svg width="235" height="64" viewBox="0 0 235 64" fill="none" xmlns="http://www.w3.org/2000/svg">
<g clip-path="url(#clip0_1152_278)">
<path d="M125.8 27.9C130 27.9 133.4 25.3 133.8 21.8H131.4C131.1 24.1 128.7 25.8 125.7 25.8C122.7 25.8 118.9 23.1 118.9 18.2C118.9 13.3 121.7 10.6 125.7 10.6C129.7 10.6 131 12.3 131.3 14.6H133.7C133.2 11 129.8 8.5 125.7 8.5C121.6 8.5 116.5 11.6 116.5 18.2C116.5 24.8 120.9 27.9 125.7 27.9H125.8Z" fill="url(#paint0_linear_1152_278)"/>
<path d="M143 27.9C147.1 27.9 150 24.9 150 20.8C150 16.7 147.1 13.7 143 13.7C138.9 13.7 136 16.6 136 20.8C136 25 138.9 27.9 143 27.9ZM138.3 20.9C138.3 17.9 140.2 15.8 143 15.8C145.8 15.8 147.8 17.9 147.8 20.9C147.8 23.9 145.9 26 143 26C140.1 26 138.3 23.9 138.3 20.9Z" fill="url(#paint1_linear_1152_278)"/>
<path d="M153.1 27.7H155.3V20.3C155.3 17.6 157 15.8 159.3 15.8C161.6 15.8 162.7 17.4 162.7 19.7V27.7H164.9V19.3C164.9 16 162.9 13.8 159.8 13.8C156.7 13.8 156 14.7 155.3 16.7V14.1H153.1V27.8V27.7Z" fill="url(#paint2_linear_1152_278)"/>
<path d="M170.1 27.6999H172.3V15.8999H176.5V13.9999H172.3V10.2999H176.5V8.3999H172.4C171 8.3999 170.1 9.1999 170.1 10.6999V13.9999H167.3V15.8999H170.1V27.6999Z" fill="url(#paint3_linear_1152_278)"/>
<path d="M178.8 27.6999H181V13.9999H178.8V27.6999ZM178.6 11.3999H181.1V8.3999H178.6V11.3999Z" fill="url(#paint4_linear_1152_278)"/>
<path d="M185.1 27.7H187.3V20.3C187.3 17.6 189 15.8 191.3 15.8C193.6 15.8 194.7 17.4 194.7 19.7V27.7H196.9V19.3C196.9 16 194.9 13.8 191.8 13.8C188.7 13.8 188 14.7 187.3 16.7V14.1H185.1V27.8V27.7Z" fill="url(#paint5_linear_1152_278)"/>
<path d="M205 27.9C207.1 27.9 208.9 26.9 209.7 25.3V27.7H211.9V18.9C211.9 15.9 209.7 13.8 206.1 13.8C202.5 13.8 200.5 15.8 200.3 18.4H202.4C202.5 16.9 204.1 15.7 206.1 15.7C208.1 15.7 209.8 17 209.8 18.9C209.8 20.8 209.5 19.6 208.9 19.6H205.8C202.5 19.6 200.3 21.3 200.3 23.9C200.3 26.5 202.2 28 205.1 28L205 27.9ZM202.4 23.8C202.4 22.2 203.7 21.2 205.8 21.2H209.6V21.6C209.6 24.4 208 26.1 205.3 26.1C202.6 26.1 202.4 25.2 202.4 23.8Z" fill="url(#paint6_linear_1152_278)"/>
<path d="M218 27.6999H220.4V25.7999H217.8V8.3999H215.6V25.3999C215.6 26.7999 216.5 27.6999 217.9 27.6999H218Z" fill="url(#paint7_linear_1152_278)"/>
<path d="M222 20.7999C222 24.6999 224.7 27.8999 228.8 27.8999C232.9 27.8999 234.6 26.0999 235.1 23.2999H232.9C232.5 24.9999 231.1 25.9999 228.8 25.9999C226.5 25.9999 224.3 23.9999 224.2 21.1999H234.9C234.9 20.9999 234.9 20.5999 234.9 20.2999C234.9 16.6999 232.5 13.8999 228.5 13.8999C224.5 13.8999 222 16.8999 222 20.8999V20.7999ZM224.2 19.3999C224.6 16.9999 226.2 15.5999 228.5 15.5999C230.8 15.5999 232.5 17.0999 232.7 19.3999H224.3H224.2Z" fill="url(#paint8_linear_1152_278)"/>
<path d="M5.9 55.2999H7.7L12.7 39.1999L17.6 55.2999H19.5L25.4 36.3999H23.5L18.5 52.4999L13.5 36.3999H11.9L6.9 52.4999L1.9 36.3999H0L5.9 55.2999Z" fill="url(#paint9_linear_1152_278)"/>
<path d="M27.2 48.3999C27.2 52.3999 30 55.4999 33.9 55.4999C37.8 55.4999 39.6 53.6999 40 50.9999H38.2C37.7 52.8999 36.1999 53.8999 33.7999 53.8999C31.3999 53.8999 29 51.6999 28.9 48.5999H39.7999C39.7999 48.3999 39.7999 47.9999 39.7999 47.6999C39.7999 43.8999 37.2999 41.3999 33.5999 41.3999C29.8999 41.3999 27.2 44.1999 27.2 48.2999V48.3999ZM29 47.0999C29.4 44.5999 31.0999 43.0999 33.5999 43.0999C36.0999 43.0999 37.8999 44.5999 38.0999 47.0999H29.1H29Z" fill="url(#paint10_linear_1152_278)"/>
<path d="M47.5 55.5C49.7 55.5 51.6 54.4 52.4 52.8V55.3H54.0999V46.5C54.0999 43.5 52 41.5 48.4 41.5C44.8 41.5 43 43.4 42.7 46H44.4C44.5 44.4 46.3 43.1 48.4 43.1C50.5 43.1 52.4 44.5 52.4 46.6C52.4 48.7 52.1999 47.2 51.5999 47.2H48.2999C44.8999 47.2 42.7999 48.8 42.7999 51.4C42.7999 54 44.6999 55.5 47.5999 55.5H47.5ZM47.5999 53.9C45.6999 53.9 44.5 52.9 44.5 51.4C44.5 49.9 46 48.6 48.2 48.6H52.2999V49C52.2999 52.1 50.4999 53.9 47.5999 53.9Z" fill="url(#paint11_linear_1152_278)"/>
<path d="M60.2999 55.2999H62.5V53.7H59.9V36.2H58.2V53.2C58.2 54.5 58.9999 55.2999 60.2999 55.2999Z" fill="url(#paint12_linear_1152_278)"/>
<path d="M68.3001 55.3001H72.2V53.7001H67.9001V43.2001H72.2V41.6001H67.9001V37.1001H66.2V41.6001H63.3V43.2001H66.2V53.1001C66.2 54.4001 67.0001 55.2001 68.3001 55.2001V55.3001Z" fill="url(#paint13_linear_1152_278)"/>
<path d="M74.9999 55.3001H76.6999V48.0001C76.6999 45.1001 78.4999 43.1001 80.9999 43.1001C83.4999 43.1001 84.5999 44.8001 84.5999 47.3001V55.3001H86.2999V47.0001C86.2999 43.6001 84.2999 41.4001 81.1999 41.4001C78.0999 41.4001 77.2999 42.4001 76.5999 44.4001V36.1001H74.8999V55.2001L74.9999 55.3001Z" fill="url(#paint14_linear_1152_278)"/>
<path d="M103.3 55.5C107.2 55.5 110.2 53.6 110.2 50.2C110.2 43.2 98.7001 46.1999 98.7001 41.0999C98.7001 35.9999 100.4 37.9 103.2 37.9C106 37.9 107.7 39.4 108 41.7H109.8C109.5 38.4 106.9 36.2 103.2 36.2C99.5001 36.2 96.8001 38.1999 96.8001 41.0999C96.8001 47.6999 108.2 45 108.2 50.2C108.2 55.4 106.1 53.7999 103.2 53.7999C100.3 53.7999 98.2001 51.9999 97.9001 49.0999H96.1001C96.4001 52.8999 99.0001 55.4 103.2 55.4L103.3 55.5Z" fill="url(#paint15_linear_1152_278)"/>
<path d="M119.4 55.5C123.4 55.5 126.2 52.6 126.2 48.5C126.2 44.4 123.3 41.5 119.4 41.5C115.5 41.5 112.6 44.4 112.6 48.5C112.6 52.6 115.5 55.5 119.4 55.5ZM119.4 53.9C116.4 53.9 114.3 51.6 114.3 48.5C114.3 45.4 116.4 43 119.4 43C122.4 43 124.5 45.3 124.5 48.5C124.5 51.7 122.5 53.9 119.4 53.9Z" fill="url(#paint16_linear_1152_278)"/>
<path d="M131.7 55.2999H133.9V53.7H131.3V36.2H129.6V53.2C129.6 54.5 130.4 55.2999 131.7 55.2999Z" fill="url(#paint17_linear_1152_278)"/>
<path d="M147.7 41.7H146V49C146 51.9 144.2 53.9 141.7 53.9C139.2 53.9 138.1 52.2 138.1 49.7V41.7H136.4V49.9C136.4 53.3 138.4 55.5 141.5 55.5C144.6 55.5 145.4 54.5 146.1 52.5V55.2999H147.8V41.7H147.7Z" fill="url(#paint18_linear_1152_278)"/>
<path d="M155.3 55.3001H159.2V53.7001H154.9V43.2001H159.2V41.6001H154.9V37.1001H153.2V41.6001H150.3V43.2001H153.2V53.1001C153.2 54.4001 154 55.2001 155.3 55.2001V55.3001Z" fill="url(#paint19_linear_1152_278)"/>
<path d="M162 55.2999H163.7V41.7H162V55.2999ZM161.8 36.2V38.9H163.9V36.2H161.8Z" fill="url(#paint20_linear_1152_278)"/>
<path d="M173.9 55.5C177.9 55.5 180.7 52.6 180.7 48.5C180.7 44.4 177.8 41.5 173.9 41.5C170 41.5 167.1 44.4 167.1 48.5C167.1 52.6 170 55.5 173.9 55.5ZM173.9 53.9C170.9 53.9 168.8 51.6 168.8 48.5C168.8 45.4 170.9 43 173.9 43C176.9 43 179 45.3 179 48.5C179 51.7 177 53.9 173.9 53.9Z" fill="url(#paint21_linear_1152_278)"/>
<path d="M184.2 55.2999H185.9V47.9999C185.9 45.0999 187.7 43.0999 190.2 43.0999C192.7 43.0999 193.8 44.7999 193.8 47.2999V55.2999H195.5V46.9999C195.5 43.5999 193.5 41.3999 190.4 41.3999C187.3 41.3999 186.5 42.3999 185.8 44.3999V41.5999H184.1V55.1999L184.2 55.2999Z" fill="url(#paint22_linear_1152_278)"/>
<path d="M204 55.4999C206.9 55.4999 208.9 53.9999 208.9 51.5999C208.9 45.2999 200.8 49.0999 200.8 45.1999C200.8 41.2999 202 42.9999 203.7 42.9999C205.4 42.9999 206.9 43.5999 207.1 45.4999H208.8C208.6 42.9999 206.7 41.3999 203.8 41.3999C200.9 41.3999 199 42.8999 199 45.0999C199 50.9999 207.1 47.0999 207.1 51.4999C207.1 55.8999 205.9 53.7999 204 53.7999C202.1 53.7999 200.6 52.7999 200.4 50.8999H198.7C198.9 53.6999 200.9 55.3999 204 55.3999V55.4999Z" fill="url(#paint23_linear_1152_278)"/>
<path d="M14.5 9.19995V17.3H4.49995V9.19995H2.19995V28.2H4.49995V19.4H14.5V28.2H16.8V9.19995H14.5Z" fill="url(#paint24_linear_1152_278)"/>
<path d="M29.4999 28.4C33.6999 28.4 37.0999 25.8 37.4999 22.3H35.0999C34.7999 24.6 32.3999 26.3 29.4999 26.3C26.5999 26.3 22.6999 23.6 22.6999 18.7C22.6999 13.8 25.4999 11.1 29.4999 11.1C33.4999 11.1 34.7999 12.8 35.0999 15.1H37.4999C36.9999 11.5 33.5999 9 29.4999 9C25.3999 9 20.3999 12.1 20.3999 18.7C20.3999 25.3 24.7999 28.4 29.4999 28.4Z" fill="url(#paint25_linear_1152_278)"/>
<path d="M43.2999 28.2H52.6999V26.1H43.1999V9.19995H40.8999V25.7999C40.8999 27.2999 41.7999 28.2 43.2999 28.2Z" fill="url(#paint26_linear_1152_278)"/>
<path d="M56.7001 28.2H59.0001V11.3H65.1001V9.19995H50.6001V11.3H56.7001V28.2Z" fill="url(#paint27_linear_1152_278)"/>
<path d="M63.6001 21.2C63.6001 25.1 66.3001 28.3 70.4001 28.3C74.5001 28.3 76.2001 26.5 76.7001 23.7H74.5001C74.1001 25.4 72.7001 26.4 70.4001 26.4C68.1001 26.4 66.0001 24.4 65.8001 21.6H76.5001C76.5001 21.4 76.5001 21 76.5001 20.7C76.5001 17.1 74.1001 14.3 70.1001 14.3C66.1001 14.3 63.6001 17.3 63.6001 21.3V21.2ZM65.9001 19.9C66.3001 17.5 67.9001 16.1 70.2001 16.1C72.5001 16.1 74.2001 17.6 74.4001 19.9H66.0001H65.9001Z" fill="url(#paint28_linear_1152_278)"/>
<path d="M85.4999 28.3999C88.9999 28.3999 91.1999 26.5999 91.6999 23.7999H89.5999C89.0999 25.4999 87.5999 26.4999 85.5999 26.4999C82.5999 26.4999 81.1999 24.1999 81.1999 21.3999C81.1999 18.5999 82.5999 16.2999 85.5999 16.2999C88.5999 16.2999 89.3999 17.4999 89.5999 19.1999H91.6999C91.2999 16.1999 88.5999 14.3999 85.4999 14.3999C82.3999 14.3999 78.8999 17.7999 78.8999 21.3999C78.8999 24.9999 81.1999 28.4999 85.4999 28.4999V28.3999Z" fill="url(#paint29_linear_1152_278)"/>
<path d="M94.7 28.1999H96.9V20.7999C96.9 18.0999 98.6 16.2999 100.9 16.2999C103.2 16.2999 104.3 17.8999 104.3 20.1999V28.1999H106.5V19.7999C106.5 16.4999 104.5 14.2999 101.4 14.2999C98.3 14.2999 97.6 15.1999 96.9 17.0999V8.8999H94.7V28.1999Z" fill="url(#paint30_linear_1152_278)"/>
</g>
<defs>
<linearGradient id="paint0_linear_1152_278" x1="125.15" y1="8.5" x2="125.15" y2="27.9" gradientUnits="userSpaceOnUse">
<stop stop-color="white"/>
<stop offset="1" stop-color="white" stop-opacity="0.51"/>
</linearGradient>
<linearGradient id="paint1_linear_1152_278" x1="143" y1="13.7" x2="143" y2="27.9" gradientUnits="userSpaceOnUse">
<stop stop-color="white"/>
<stop offset="1" stop-color="white" stop-opacity="0.51"/>
</linearGradient>
<linearGradient id="paint2_linear_1152_278" x1="159" y1="13.8" x2="159" y2="27.8" gradientUnits="userSpaceOnUse">
<stop stop-color="white"/>
<stop offset="1" stop-color="white" stop-opacity="0.51"/>
</linearGradient>
<linearGradient id="paint3_linear_1152_278" x1="171.9" y1="8.3999" x2="171.9" y2="27.6999" gradientUnits="userSpaceOnUse">
<stop stop-color="white"/>
<stop offset="1" stop-color="white" stop-opacity="0.51"/>
</linearGradient>
<linearGradient id="paint4_linear_1152_278" x1="179.85" y1="8.3999" x2="179.85" y2="27.6999" gradientUnits="userSpaceOnUse">
<stop stop-color="white"/>
<stop offset="1" stop-color="white" stop-opacity="0.51"/>
</linearGradient>
<linearGradient id="paint5_linear_1152_278" x1="191" y1="13.8" x2="191" y2="27.8" gradientUnits="userSpaceOnUse">
<stop stop-color="white"/>
<stop offset="1" stop-color="white" stop-opacity="0.51"/>
</linearGradient>
<linearGradient id="paint6_linear_1152_278" x1="206.1" y1="13.8" x2="206.1" y2="28" gradientUnits="userSpaceOnUse">
<stop stop-color="white"/>
<stop offset="1" stop-color="white" stop-opacity="0.51"/>
</linearGradient>
<linearGradient id="paint7_linear_1152_278" x1="218" y1="8.3999" x2="218" y2="27.6999" gradientUnits="userSpaceOnUse">
<stop stop-color="white"/>
<stop offset="1" stop-color="white" stop-opacity="0.51"/>
</linearGradient>
<linearGradient id="paint8_linear_1152_278" x1="228.55" y1="13.8999" x2="228.55" y2="27.8999" gradientUnits="userSpaceOnUse">
<stop stop-color="white"/>
<stop offset="1" stop-color="white" stop-opacity="0.51"/>
</linearGradient>
<linearGradient id="paint9_linear_1152_278" x1="12.7" y1="36.3999" x2="12.7" y2="55.2999" gradientUnits="userSpaceOnUse">
<stop stop-color="white"/>
<stop offset="1" stop-color="white" stop-opacity="0.51"/>
</linearGradient>
<linearGradient id="paint10_linear_1152_278" x1="33.6" y1="41.3999" x2="33.6" y2="55.4999" gradientUnits="userSpaceOnUse">
<stop stop-color="white"/>
<stop offset="1" stop-color="white" stop-opacity="0.51"/>
</linearGradient>
<linearGradient id="paint11_linear_1152_278" x1="48.4" y1="41.5" x2="48.4" y2="55.5" gradientUnits="userSpaceOnUse">
<stop stop-color="white"/>
<stop offset="1" stop-color="white" stop-opacity="0.51"/>
</linearGradient>
<linearGradient id="paint12_linear_1152_278" x1="60.35" y1="36.2" x2="60.35" y2="55.2999" gradientUnits="userSpaceOnUse">
<stop stop-color="white"/>
<stop offset="1" stop-color="white" stop-opacity="0.51"/>
</linearGradient>
<linearGradient id="paint13_linear_1152_278" x1="67.75" y1="37.1001" x2="67.75" y2="55.3001" gradientUnits="userSpaceOnUse">
<stop stop-color="white"/>
<stop offset="1" stop-color="white" stop-opacity="0.51"/>
</linearGradient>
<linearGradient id="paint14_linear_1152_278" x1="80.5999" y1="36.1001" x2="80.5999" y2="55.3001" gradientUnits="userSpaceOnUse">
<stop stop-color="white"/>
<stop offset="1" stop-color="white" stop-opacity="0.51"/>
</linearGradient>
<linearGradient id="paint15_linear_1152_278" x1="103.15" y1="36.2" x2="103.15" y2="55.5" gradientUnits="userSpaceOnUse">
<stop stop-color="white"/>
<stop offset="1" stop-color="white" stop-opacity="0.51"/>
</linearGradient>
<linearGradient id="paint16_linear_1152_278" x1="119.4" y1="41.5" x2="119.4" y2="55.5" gradientUnits="userSpaceOnUse">
<stop stop-color="white"/>
<stop offset="1" stop-color="white" stop-opacity="0.51"/>
</linearGradient>
<linearGradient id="paint17_linear_1152_278" x1="131.75" y1="36.2" x2="131.75" y2="55.2999" gradientUnits="userSpaceOnUse">
<stop stop-color="white"/>
<stop offset="1" stop-color="white" stop-opacity="0.51"/>
</linearGradient>
<linearGradient id="paint18_linear_1152_278" x1="142.1" y1="41.7" x2="142.1" y2="55.5" gradientUnits="userSpaceOnUse">
<stop stop-color="white"/>
<stop offset="1" stop-color="white" stop-opacity="0.51"/>
</linearGradient>
<linearGradient id="paint19_linear_1152_278" x1="154.75" y1="37.1001" x2="154.75" y2="55.3001" gradientUnits="userSpaceOnUse">
<stop stop-color="white"/>
<stop offset="1" stop-color="white" stop-opacity="0.51"/>
</linearGradient>
<linearGradient id="paint20_linear_1152_278" x1="162.85" y1="36.2" x2="162.85" y2="55.2999" gradientUnits="userSpaceOnUse">
<stop stop-color="white"/>
<stop offset="1" stop-color="white" stop-opacity="0.51"/>
</linearGradient>
<linearGradient id="paint21_linear_1152_278" x1="173.9" y1="41.5" x2="173.9" y2="55.5" gradientUnits="userSpaceOnUse">
<stop stop-color="white"/>
<stop offset="1" stop-color="white" stop-opacity="0.51"/>
</linearGradient>
<linearGradient id="paint22_linear_1152_278" x1="189.8" y1="41.3999" x2="189.8" y2="55.2999" gradientUnits="userSpaceOnUse">
<stop stop-color="white"/>
<stop offset="1" stop-color="white" stop-opacity="0.51"/>
</linearGradient>
<linearGradient id="paint23_linear_1152_278" x1="203.8" y1="41.3999" x2="203.8" y2="55.4999" gradientUnits="userSpaceOnUse">
<stop stop-color="white"/>
<stop offset="1" stop-color="white" stop-opacity="0.51"/>
</linearGradient>
<linearGradient id="paint24_linear_1152_278" x1="9.49995" y1="9.19995" x2="9.49995" y2="28.2" gradientUnits="userSpaceOnUse">
<stop stop-color="white"/>
<stop offset="1" stop-color="white" stop-opacity="0.51"/>
</linearGradient>
<linearGradient id="paint25_linear_1152_278" x1="28.9499" y1="9" x2="28.9499" y2="28.4" gradientUnits="userSpaceOnUse">
<stop stop-color="white"/>
<stop offset="1" stop-color="white" stop-opacity="0.51"/>
</linearGradient>
<linearGradient id="paint26_linear_1152_278" x1="46.7999" y1="9.19995" x2="46.7999" y2="28.2" gradientUnits="userSpaceOnUse">
<stop stop-color="white"/>
<stop offset="1" stop-color="white" stop-opacity="0.51"/>
</linearGradient>
<linearGradient id="paint27_linear_1152_278" x1="57.8501" y1="9.19995" x2="57.8501" y2="28.2" gradientUnits="userSpaceOnUse">
<stop stop-color="white"/>
<stop offset="1" stop-color="white" stop-opacity="0.51"/>
</linearGradient>
<linearGradient id="paint28_linear_1152_278" x1="70.1501" y1="14.3" x2="70.1501" y2="28.3" gradientUnits="userSpaceOnUse">
<stop stop-color="white"/>
<stop offset="1" stop-color="white" stop-opacity="0.51"/>
</linearGradient>
<linearGradient id="paint29_linear_1152_278" x1="85.2999" y1="14.3999" x2="85.2999" y2="28.4999" gradientUnits="userSpaceOnUse">
<stop stop-color="white"/>
<stop offset="1" stop-color="white" stop-opacity="0.51"/>
</linearGradient>
<linearGradient id="paint30_linear_1152_278" x1="100.6" y1="8.8999" x2="100.6" y2="28.1999" gradientUnits="userSpaceOnUse">
<stop stop-color="white"/>
<stop offset="1" stop-color="white" stop-opacity="0.51"/>
</linearGradient>
<clipPath id="clip0_1152_278">
<rect width="235" height="63.9" fill="white"/>
</clipPath>
</defs>
</svg>
