<svg width="264" height="54" viewBox="0 0 264 54" fill="none" xmlns="http://www.w3.org/2000/svg">
<g clip-path="url(#clip0_1023_95)">
<path d="M26.182 0L15.953 10.228H24.136L34.364 0H26.182Z" fill="url(#paint0_linear_1023_95)"/>
<path d="M29.904 16H26.1992L24 18.278L15.953 10.228H24.136L29.904 16Z" fill="url(#paint1_linear_1023_95)"/>
<path d="M10.228 15.959L0 26.188H8.182L18.411 15.959H10.228Z" fill="url(#paint2_linear_1023_95)"/>
<path d="M18.411 36.4151H10.228L0 26.1841L8.182 26.1881L18.411 36.4151Z" fill="url(#paint3_linear_1023_95)"/>
<path d="M23.9258 34.1523L15.953 42.1432H24.136L29.8767 36.4023H26.1836L23.9258 34.1523Z" fill="url(#paint4_linear_1023_95)"/>
<path d="M34.364 52.3751H26.182L15.953 42.1431H24.136L34.364 52.3751Z" fill="url(#paint5_linear_1023_95)"/>
<path d="M40.1059 10.2344L50.3193 0.0181624L60.5355 10.2315L50.3221 20.4477L40.1059 10.2344Z" fill="url(#paint6_linear_1023_95)" stroke="white" stroke-width="0.02"/>
<path d="M42.135 0L31.911 10.228H40.093L50.321 0H42.135Z" fill="url(#paint7_linear_1023_95)"/>
<path d="M50.321 20.46H42.14L31.911 10.228H40.093L50.321 20.46Z" fill="url(#paint8_linear_1023_95)"/>
<path d="M56.0596 26.1887L66.2736 15.9747L76.4877 26.1887L66.2736 36.4028L56.0596 26.1887Z" fill="url(#paint9_linear_1023_95)" stroke="white" stroke-width="0.02"/>
<path d="M58.095 15.959L47.866 26.188H56.048L66.276 15.959H58.095Z" fill="url(#paint10_linear_1023_95)"/>
<path d="M66.276 36.4151H58.095L47.866 26.1841L56.048 26.1881L66.276 36.4151Z" fill="url(#paint11_linear_1023_95)"/>
<path d="M24.1476 26.1865L34.3595 15.9717L44.5743 26.1836L34.3624 36.3984L24.1476 26.1865Z" fill="url(#paint12_linear_1023_95)" stroke="white" stroke-width="0.02"/>
<path d="M26.182 15.959L15.953 26.188H24.136L34.364 15.959H26.182Z" fill="url(#paint13_linear_1023_95)"/>
<path d="M34.364 36.4151H26.182L15.953 26.1841L24.136 26.1881L34.364 36.4151Z" fill="url(#paint14_linear_1023_95)"/>
<path d="M40.1037 42.1497L50.3171 31.9334L60.5333 42.1468L50.32 52.363L40.1037 42.1497Z" fill="url(#paint15_linear_1023_95)" stroke="white" stroke-width="0.02"/>
<path d="M42.14 31.915L31.911 42.143H40.093L50.321 31.915H42.14Z" fill="url(#paint16_linear_1023_95)"/>
<path d="M50.321 52.3751H42.14L31.911 42.1431H40.093L50.321 52.3751Z" fill="url(#paint17_linear_1023_95)"/>
<path fill-rule="evenodd" clip-rule="evenodd" d="M110.751 16.632C108.996 16.632 107.45 15.858 107.45 13.873H104.273C104.232 17.551 107.324 19.181 110.625 19.181C114.679 19.181 116.832 17.132 116.832 14.395C116.832 11.1338 113.729 10.3741 112.53 10.0806L112.461 10.0636L112.402 10.049L112.064 9.96221C108.618 9.07708 107.95 8.90557 107.95 7.79205C107.95 6.53805 109.162 6.09905 110.207 6.09905C111.774 6.09905 113.049 6.55905 113.153 8.35605H116.33C116.33 4.90805 113.466 3.55005 110.353 3.55005C107.657 3.55005 104.774 5.01305 104.774 8.06405C104.774 10.864 107.01 11.72 109.225 12.305C109.546 12.3906 109.868 12.4695 110.184 12.5469C112.026 12.9983 113.656 13.3975 113.656 14.771C113.656 16.297 111.901 16.632 110.751 16.632ZM95.37 6.30905C97.001 6.30905 98.421 7.43705 98.63 8.92105H101.806C101.409 5.47405 98.65 3.55105 95.37 3.55105C90.753 3.55105 88.036 6.99805 88.036 11.429C88.036 15.734 90.753 19.182 95.37 19.182C99.026 19.182 101.597 16.799 101.931 13.08H98.755C98.505 15.044 97.376 16.423 95.37 16.423C92.424 16.423 91.316 13.916 91.316 11.429C91.316 8.81705 92.424 6.30905 95.37 6.30905ZM129.768 8.92105C129.559 7.43705 128.139 6.30905 126.508 6.30905C123.562 6.30905 122.454 8.81705 122.454 11.429C122.454 13.916 123.562 16.423 126.508 16.423C128.514 16.423 129.643 15.044 129.894 13.08H133.069C132.736 16.799 130.165 19.182 126.508 19.182C121.891 19.182 119.174 15.734 119.174 11.429C119.174 6.99805 121.891 3.55105 126.508 3.55105C129.79 3.55105 132.547 5.47405 132.944 8.92105H129.768ZM141.889 16.632C140.133 16.632 138.587 15.858 138.587 13.873H135.415C135.373 17.551 138.465 19.181 141.765 19.181C145.818 19.181 147.972 17.132 147.972 14.395C147.972 11.1346 144.869 10.3745 143.671 10.0808C143.625 10.0696 143.582 10.059 143.542 10.049L143.207 9.96288C139.757 9.07716 139.09 8.90585 139.09 7.79205C139.09 6.53805 140.302 6.09905 141.346 6.09905C142.913 6.09905 144.188 6.55905 144.292 8.35605H147.469C147.469 4.90805 144.606 3.55005 141.492 3.55005C138.797 3.55005 135.914 5.01305 135.914 8.06405C135.914 10.864 138.15 11.72 140.364 12.305C140.685 12.3907 141.007 12.4696 141.323 12.547L141.323 12.547C143.165 12.9983 144.794 13.3976 144.794 14.771C144.794 16.297 143.037 16.632 141.889 16.632ZM93.938 34.438C93.845 36.013 93.227 37.459 91.407 37.459C89.039 37.459 88.724 35.231 88.724 33.132C88.724 31.033 89.109 28.804 91.407 28.804C93.11 28.804 93.821 29.761 93.868 31.394H92.795C92.771 30.451 92.469 29.644 91.407 29.644C89.983 29.644 89.797 31.207 89.797 33.132C89.797 35.056 89.983 36.619 91.407 36.619C92.655 36.619 92.83 35.453 92.865 34.438H93.938ZM97.111 36.6879C95.91 36.6879 95.91 35.2409 95.91 34.2849H99.2V33.8879C99.2 32.5469 99.025 30.8789 97.112 30.8789C95.187 30.8789 94.884 32.6879 94.884 34.2499C94.884 36.3959 95.526 37.4579 97.054 37.4579C98.757 37.4579 99.153 35.9049 99.153 35.2409H98.173C98.173 35.7079 98.044 36.6879 97.111 36.6879ZM98.172 33.1779V33.5149L95.945 33.5159V33.2829C95.945 32.9089 96.061 31.6499 97.088 31.6499C97.951 31.6499 98.172 32.4769 98.172 33.1779ZM100.504 31.0429H101.437V31.7779H101.461C101.717 31.2069 102.37 30.8799 102.977 30.8799C104.622 30.8799 104.622 32.1289 104.622 32.8629V37.2959H103.642V32.9799C103.642 32.5019 103.607 31.7209 102.72 31.7209C102.195 31.7209 101.484 32.0699 101.484 32.9799V37.2959H100.504V31.0429ZM107.41 29.2241H106.43L106.429 31.0431H105.52V31.8121H106.429V36.1281C106.429 36.9451 106.673 37.3641 107.689 37.3641C108.082 37.3641 108.335 37.3204 108.468 37.2976L108.482 37.2951V36.4901C108.457 36.4928 108.431 36.4962 108.403 36.4998L108.403 36.4998C108.316 36.5113 108.21 36.5251 108.051 36.5251C107.538 36.5251 107.41 36.3271 107.41 35.8241V31.8121H108.495V31.0431H107.41V29.2241ZM109.393 31.0429H110.373V31.9769H110.397C110.677 31.3819 111.05 30.8799 111.751 30.8799C111.948 30.8799 112.089 30.9029 112.182 30.9499V31.9059C112.162 31.9033 112.141 31.8997 112.117 31.8956C112.03 31.8805 111.904 31.8589 111.657 31.8589C111.168 31.8589 110.373 32.3029 110.373 33.3409V37.2949H109.393V31.0429ZM117.278 34.1689C117.278 32.4079 116.836 30.8799 115.027 30.8799C113.23 30.8799 112.775 32.4079 112.776 34.1689C112.776 35.9299 113.219 37.4579 115.027 37.4579C116.823 37.4579 117.278 35.9299 117.278 34.1689ZM115.003 31.6499C116.052 31.6499 116.251 32.8159 116.251 34.1689C116.251 35.5219 116.042 36.6879 115.003 36.6879C114 36.6879 113.802 35.5219 113.802 34.1689C113.802 32.8159 114.012 31.6499 115.003 31.6499ZM125.093 31.125C125.093 30.249 124.778 29.643 123.798 29.643C122.934 29.643 122.421 30.11 122.421 30.996C122.421 32.0915 123.28 32.3694 124.195 32.6655C125.238 33.0028 126.353 33.3637 126.353 34.985C126.353 36.909 124.942 37.458 123.763 37.458C121.814 37.458 121.243 36.455 121.243 34.681H122.27C122.27 35.615 122.328 36.617 123.832 36.617C124.649 36.617 125.279 36.035 125.279 35.149C125.279 34.0469 124.42 33.7584 123.504 33.4511C122.462 33.1012 121.348 32.7271 121.348 31.1C121.348 30.331 121.675 28.802 123.786 28.802C125.373 28.802 126.095 29.596 126.119 31.124L125.093 31.125ZM128.136 31.043H127.063L128.754 37.295H129.874L131.565 31.043H130.492L129.325 36.058H129.302L128.136 31.043ZM132.615 28.9661H133.595V30.0861H132.615V28.9661ZM132.615 31.0431H133.595V37.2951H132.615V31.0431ZM138.751 31.043H134.984V31.884H137.678L134.843 36.526V37.295H138.728V36.455H135.952L138.751 31.859V31.043ZM139.754 31.043H143.521V31.859L140.722 36.455H143.498V37.295H139.614V36.526L142.448 31.884H139.754V31.043ZM146.729 36.6879C145.528 36.6879 145.528 35.2409 145.528 34.2849H148.817V33.8879C148.817 32.5469 148.642 30.8789 146.729 30.8789C144.805 30.8789 144.501 32.6879 144.501 34.2499C144.501 36.3959 145.143 37.4579 146.671 37.4579C148.374 37.4579 148.77 35.9049 148.77 35.2409H147.791C147.791 35.7079 147.663 36.6879 146.729 36.6879ZM147.79 33.1779V33.5149L145.563 33.5159V33.2829C145.563 32.9089 145.679 31.6499 146.706 31.6499C147.568 31.6499 147.79 32.4769 147.79 33.1779ZM150.123 31.0429H151.102V31.9769H151.126C151.405 31.3819 151.778 30.8799 152.479 30.8799C152.677 30.8799 152.816 30.9029 152.91 30.9499V31.9059C152.89 31.9033 152.868 31.8996 152.844 31.8954C152.756 31.8803 152.632 31.8589 152.385 31.8589C151.896 31.8589 151.101 32.3029 151.101 33.3409V37.2949H150.122L150.123 31.0429ZM158.009 34.1689C158.009 32.4079 157.566 30.8799 155.757 30.8799C153.96 30.8799 153.506 32.4079 153.506 34.1689C153.506 35.9299 153.949 37.4579 155.757 37.4579C157.554 37.4579 158.009 35.9299 158.009 34.1689ZM155.734 31.6499C156.784 31.6499 156.982 32.8159 156.982 34.1689C156.982 35.5219 156.771 36.6879 155.734 36.6879C154.731 36.6879 154.533 35.5219 154.533 34.1689C154.533 32.8159 154.743 31.6499 155.734 31.6499ZM166.371 37.295H165.437V36.526H165.414C165.285 36.992 164.738 37.459 164.061 37.459C162.58 37.459 162.02 36.141 162.02 34.17C162.02 32.863 162.23 30.881 163.992 30.881C164.552 30.881 165.147 31.218 165.368 31.756H165.391V28.968H166.371V37.295ZM164.189 36.617C165.274 36.617 165.449 35.592 165.449 34.168C165.449 32.954 165.239 31.719 164.189 31.719C163.28 31.719 163.046 32.674 163.046 34.168C163.046 35.661 163.28 36.617 164.189 36.617ZM168.926 28.9661H167.947V30.0861H168.926V28.9661ZM168.926 31.0431H167.947V37.2951H168.926V31.0431ZM178.666 34.438C178.572 36.013 177.954 37.459 176.135 37.459C173.766 37.459 173.453 35.231 173.453 33.132C173.453 31.033 173.837 28.804 176.135 28.804C177.838 28.804 178.55 29.761 178.596 31.394H177.523C177.499 30.451 177.195 29.644 176.134 29.644C174.71 29.644 174.525 31.207 174.525 33.132C174.525 35.056 174.711 36.619 176.134 36.619C177.382 36.619 177.557 35.453 177.592 34.438H178.666ZM181.766 30.8789C180.273 30.8789 179.667 31.5079 179.667 32.9319L179.668 32.9349H180.648V32.8769C180.648 32.6549 180.648 31.6519 181.721 31.6519C182.374 31.6519 182.724 31.9889 182.724 32.5729C182.724 33.0979 182.724 33.2959 182.012 33.5169L180.694 33.9139C179.89 34.1579 179.517 34.7649 179.517 35.6399C179.517 36.7589 180.053 37.4599 181.219 37.4599C181.802 37.4599 182.408 37.1209 182.724 36.5619H182.747C182.795 37.3649 183.26 37.3649 183.634 37.3649C183.852 37.3649 184.078 37.3278 184.175 37.3118L184.206 37.3069V36.6069C184.158 36.6419 184.1 36.6649 183.971 36.6649C183.668 36.6649 183.668 36.4189 183.668 36.1629V32.6749C183.668 32.0219 183.668 30.8789 181.766 30.8789ZM181.713 34.3541C182.086 34.2371 182.475 34.1154 182.689 33.8879V35.4969C182.689 36.1399 182.071 36.6879 181.43 36.6879C180.765 36.6879 180.543 36.2449 180.543 35.6149C180.543 35.0669 180.707 34.8199 181.021 34.6239C181.202 34.5138 181.454 34.4351 181.713 34.3541ZM185.291 28.9661H186.27V37.2951H185.291V28.9661ZM189.828 31.6489C190.574 31.6489 190.818 32.3369 190.818 32.9439L191.8 32.9429C191.8 32.2189 191.507 30.8779 189.804 30.8779C187.88 30.8779 187.576 32.6869 187.576 34.2489C187.576 36.3949 188.218 37.4569 189.746 37.4569C191.309 37.4569 191.8 36.1169 191.8 35.1239H190.818C190.818 35.7999 190.632 36.6869 189.793 36.6869C188.614 36.6869 188.602 35.0539 188.602 34.2379C188.602 31.9519 189.221 31.6489 189.828 31.6489ZM194.994 30.8799C196.803 30.8799 197.246 32.4079 197.246 34.1689C197.246 35.9299 196.791 37.4579 194.994 37.4579C193.187 37.4579 192.743 35.9299 192.743 34.1689C192.743 32.4079 193.198 30.8799 194.994 30.8799ZM196.218 34.1689C196.218 32.8159 196.02 31.6499 194.97 31.6499C193.979 31.6499 193.769 32.8159 193.769 34.1689C193.769 35.5219 193.967 36.6879 194.97 36.6879C196.009 36.6879 196.218 35.5219 196.218 34.1689ZM199.497 28.9661H198.517V37.2951H199.497V28.9661ZM203.019 30.8799C204.828 30.8799 205.271 32.4079 205.271 34.1689C205.271 35.9299 204.816 37.4579 203.019 37.4579C201.211 37.4579 200.77 35.9299 200.77 34.1689C200.769 32.4079 201.223 30.8799 203.019 30.8799ZM204.245 34.1689C204.245 32.8159 204.047 31.6499 202.996 31.6499C202.005 31.6499 201.795 32.8159 201.795 34.1689C201.795 35.5219 201.994 36.6879 202.996 36.6879C204.034 36.6879 204.245 35.5219 204.245 34.1689ZM211.79 29.643C212.769 29.643 213.085 30.249 213.085 31.125L214.113 31.124C214.09 29.596 213.366 28.802 211.781 28.802C209.668 28.802 209.341 30.331 209.341 31.1C209.341 32.7271 210.456 33.1012 211.498 33.4511C212.413 33.7584 213.273 34.0469 213.273 35.149C213.273 36.035 212.642 36.617 211.826 36.617C210.321 36.617 210.263 35.615 210.263 34.681H209.236C209.236 36.455 209.808 37.458 211.755 37.458C212.934 37.458 214.345 36.909 214.345 34.985C214.345 33.3637 213.23 33.0028 212.187 32.6655C211.273 32.3694 210.414 32.0915 210.414 30.996C210.414 30.11 210.928 29.643 211.79 29.643ZM218.557 32.9439C218.557 32.3369 218.311 31.6489 217.564 31.6489C216.958 31.6489 216.339 31.9519 216.339 34.2379C216.339 35.0539 216.35 36.6869 217.528 36.6869C218.369 36.6869 218.555 35.7999 218.555 35.1239H219.534C219.534 36.1169 219.045 37.4569 217.481 37.4569C215.953 37.4569 215.311 36.3949 215.311 34.2489C215.311 32.6869 215.615 30.8779 217.539 30.8779C219.242 30.8779 219.534 32.2189 219.534 32.9429L218.557 32.9439ZM221.821 28.9661H220.841V30.0861H221.821V28.9661ZM221.821 31.0431H220.841V37.2951H221.821V31.0431ZM224.213 34.2849C224.213 35.2409 224.213 36.6879 225.414 36.6879C226.347 36.6879 226.474 35.7079 226.474 35.2409H227.454C227.454 35.9049 227.057 37.4579 225.354 37.4579C223.826 37.4579 223.184 36.3959 223.184 34.2499C223.184 32.6879 223.488 30.8789 225.413 30.8789C227.325 30.8789 227.5 32.5469 227.5 33.8879V34.2849H224.213ZM226.475 33.5149V33.1779C226.475 32.4769 226.254 31.6499 225.391 31.6499C224.366 31.6499 224.248 32.9089 224.248 33.2829V33.5159L226.475 33.5149ZM229.741 31.0429H228.808L228.809 37.2959H229.789V32.9799C229.789 32.0699 230.5 31.7209 231.025 31.7209C231.912 31.7209 231.946 32.5019 231.946 32.9799V37.2959H232.926V32.8629C232.926 32.1289 232.926 30.8799 231.281 30.8799C230.674 30.8799 230.021 31.2069 229.765 31.7779H229.741V31.0429ZM234.733 29.2241H235.713V31.0431H236.799V31.8121H235.713V35.8241C235.713 36.3271 235.841 36.5251 236.356 36.5251C236.515 36.5251 236.621 36.5112 236.708 36.4997L236.734 36.4963C236.752 36.494 236.769 36.4919 236.786 36.4901V37.2951L236.771 37.2977C236.638 37.3206 236.386 37.3641 235.994 37.3641C234.978 37.3641 234.733 36.9451 234.733 36.1281V31.8121H233.824V31.0431H234.733V29.2241ZM238.734 28.9661H237.754V30.0861H238.734V28.9661ZM238.734 31.0431H237.754V37.2951H238.734V31.0431ZM240.6 31.8121H239.69V31.0431H240.6V30.3081C240.6 29.3621 241.008 28.8721 241.953 28.8721H242.665V29.7131H242.21C241.791 29.7131 241.581 29.8751 241.581 30.3081V31.0431H242.654V31.8121H241.581V37.2951H240.601L240.6 31.8121ZM243.388 28.9661H244.368V30.0861H243.388V28.9661ZM243.388 31.0431H244.368V37.2951H243.388V31.0431ZM247.926 31.6489C248.673 31.6489 248.917 32.3369 248.917 32.9439L249.897 32.9429C249.897 32.2189 249.605 30.8779 247.902 30.8779C245.976 30.8779 245.674 32.6869 245.674 34.2489C245.674 36.3949 246.314 37.4569 247.842 37.4569C249.405 37.4569 249.896 36.1169 249.896 35.1239H248.916C248.916 35.7999 248.729 36.6869 247.89 36.6869C246.712 36.6869 246.701 35.0539 246.701 34.2379C246.701 31.9519 247.319 31.6489 247.926 31.6489ZM253.093 30.8799C254.902 30.8799 255.345 32.4079 255.345 34.1689C255.345 35.9299 254.89 37.4579 253.093 37.4579C251.286 37.4579 250.842 35.9299 250.842 34.1689C250.842 32.4079 251.296 30.8799 253.093 30.8799ZM254.317 34.1689C254.317 32.8159 254.119 31.6499 253.069 31.6499C252.078 31.6499 251.867 32.8159 251.867 34.1689C251.867 35.5219 252.065 36.6879 253.069 36.6879C254.108 36.6879 254.317 35.5219 254.317 34.1689ZM91.081 43.2509C92.061 43.2509 92.376 43.8569 92.376 44.7329L93.402 44.7319C93.378 43.2039 92.656 42.4099 91.069 42.4099C88.957 42.4099 88.631 43.9389 88.631 44.7079C88.631 46.3348 89.7451 46.7088 90.7871 47.0585C91.7024 47.3657 92.562 47.6542 92.562 48.7569C92.562 49.6429 91.933 50.2249 91.116 50.2249C89.611 50.2249 89.553 49.2219 89.553 48.2889H88.526C88.526 50.0629 89.097 51.0659 91.046 51.0659C92.225 51.0659 93.636 50.5169 93.636 48.5929C93.636 46.9716 92.5206 46.6107 91.4779 46.2734C90.5629 45.9774 89.704 45.6995 89.704 44.6039C89.704 43.7179 90.217 43.2509 91.081 43.2509ZM94.347 44.6509H95.373L96.376 49.7589H96.4L97.462 44.6509H98.616L99.655 49.7589H99.678L100.646 44.6509H101.673L100.191 50.9029H99.118L98.022 45.7939H97.998L96.948 50.9029H95.805L94.347 44.6509ZM103.7 42.574H102.72V43.694H103.7V42.574ZM103.7 44.651H102.72V50.903H103.7V44.651ZM107.958 46.4821C107.958 45.6881 107.748 45.2571 107.036 45.2571C106.721 45.2571 106.022 45.3381 106.022 46.2131C106.022 46.8578 106.615 47.0447 107.279 47.2543L107.28 47.2545C107.372 47.2838 107.467 47.3136 107.561 47.3451C108.32 47.6011 109.089 47.8701 109.089 49.1051C109.089 50.4231 108.238 51.0661 107.072 51.0661C104.95 51.0661 104.926 49.4911 104.926 48.8491H105.906C105.906 49.6081 106.116 50.2961 107.073 50.2961C107.388 50.2961 108.112 50.1441 108.112 49.2571C108.112 48.4906 107.469 48.2783 106.78 48.0506C106.715 48.0291 106.65 48.0074 106.584 47.9851L106.515 47.9617C105.779 47.7145 105.044 47.4675 105.044 46.2131C105.044 45.0471 105.953 44.4871 107.039 44.4871C108.859 44.4871 108.929 45.7461 108.94 46.4821H107.958ZM112.017 45.2571C112.728 45.2571 112.938 45.6881 112.938 46.4821H113.92C113.909 45.7461 113.839 44.4871 112.019 44.4871C110.933 44.4871 110.024 45.0471 110.024 46.2131C110.024 47.4678 110.758 47.7146 111.494 47.9618L111.563 47.9851C111.628 48.0072 111.694 48.0288 111.758 48.0502C112.449 48.278 113.091 48.4902 113.091 49.2571C113.091 50.1441 112.367 50.2961 112.052 50.2961C111.096 50.2961 110.886 49.6081 110.886 48.8491H109.906C109.906 49.4911 109.93 51.0661 112.052 51.0661C113.218 51.0661 114.07 50.4231 114.07 49.1051C114.07 47.8701 113.3 47.6011 112.542 47.3451C112.448 47.3136 112.353 47.2838 112.26 47.2546L112.26 47.2546L112.26 47.2545L112.26 47.2545C111.595 47.0448 111.002 46.858 111.002 46.2131C111.002 45.3381 111.702 45.2571 112.017 45.2571ZM118.304 42.574H119.633L122.386 49.526H122.409V42.574H123.436V50.902H122.025L119.354 44.16H119.33V50.902H118.304V42.574ZM126.935 44.4871C125.442 44.4871 124.836 45.1161 124.836 46.5401L124.835 46.5411H125.816V46.4831C125.816 46.2611 125.816 45.2581 126.889 45.2581C127.541 45.2581 127.892 45.5951 127.892 46.1791C127.892 46.7041 127.892 46.9021 127.18 47.1231L125.862 47.5191C125.058 47.7641 124.684 48.3711 124.684 49.2461C124.684 50.3651 125.22 51.0661 126.387 51.0661C126.969 51.0661 127.576 50.7281 127.891 50.1681H127.915C127.962 50.9721 128.428 50.9721 128.802 50.9721C129.021 50.9721 129.249 50.9344 129.345 50.9186L129.373 50.9141V50.2141C129.327 50.2501 129.268 50.2721 129.14 50.2721C128.837 50.2721 128.837 50.0271 128.837 49.7711V46.2831C128.837 45.6301 128.837 44.4871 126.935 44.4871ZM126.881 47.9622C127.254 47.8452 127.643 47.7235 127.857 47.4961V49.1061C127.857 49.7491 127.239 50.2971 126.598 50.2971C125.933 50.2971 125.711 49.8531 125.711 49.2231C125.711 48.6761 125.874 48.4291 126.189 48.2321C126.37 48.122 126.622 48.0432 126.881 47.9622ZM130.808 42.8311H131.788V44.6511H132.872V45.4201H131.788V49.4321C131.788 49.9341 131.916 50.1331 132.429 50.1331C132.588 50.1331 132.693 50.1192 132.781 50.1078L132.781 50.1078C132.809 50.1041 132.835 50.1007 132.86 50.0981V50.9021L132.856 50.9028C132.726 50.9261 132.471 50.9721 132.067 50.9721C131.053 50.9721 130.808 50.5531 130.808 49.7361V45.4201H129.898V44.6511H130.808V42.8311ZM134.807 42.574H133.828V43.694H134.807V42.574ZM134.807 44.651H133.828V50.903H134.807V44.651ZM138.33 44.4871C140.139 44.4871 140.582 46.0151 140.582 47.7761C140.582 49.5381 140.127 51.0661 138.33 51.0661C136.522 51.0661 136.079 49.5381 136.079 47.7761C136.079 46.0161 136.535 44.4871 138.33 44.4871ZM139.556 47.7761C139.556 46.4241 139.358 45.2571 138.307 45.2571C137.316 45.2571 137.106 46.4231 137.106 47.7761C137.106 49.1301 137.304 50.2961 138.307 50.2961C139.345 50.2961 139.556 49.1311 139.556 47.7761ZM142.728 44.651H141.795L141.797 50.903H142.777V46.588C142.777 45.678 143.488 45.329 144.013 45.329C144.899 45.329 144.934 46.11 144.934 46.588V50.903H145.914V46.47C145.914 45.736 145.914 44.488 144.269 44.488C143.661 44.488 143.009 44.815 142.751 45.386H142.728V44.651ZM147.277 46.5401C147.277 45.1161 147.884 44.4871 149.377 44.4871C151.278 44.4871 151.278 45.6301 151.278 46.2831V49.7711C151.278 50.0271 151.278 50.2721 151.582 50.2721C151.71 50.2721 151.768 50.2501 151.814 50.2141V50.9141L151.789 50.9181L151.789 50.9182L151.789 50.9182L151.789 50.9182L151.789 50.9182L151.789 50.9183C151.695 50.9338 151.464 50.9721 151.243 50.9721C150.87 50.9721 150.402 50.9721 150.356 50.1681H150.333C150.019 50.7281 149.412 51.0661 148.828 51.0661C147.662 51.0661 147.125 50.3651 147.125 49.2461C147.125 48.3711 147.498 47.7641 148.303 47.5191L149.621 47.1231C150.333 46.9021 150.333 46.7041 150.333 46.1791C150.333 45.5951 149.983 45.2581 149.33 45.2581C148.257 45.2581 148.257 46.2611 148.257 46.4831V46.5411L147.277 46.5401ZM150.298 47.4961C150.085 47.7236 149.696 47.8453 149.322 47.9623C149.063 48.0433 148.811 48.122 148.63 48.2321C148.316 48.4291 148.152 48.6761 148.152 49.2231C148.152 49.8531 148.373 50.2971 149.039 50.2971C149.679 50.2971 150.297 49.7491 150.297 49.1061L150.298 47.4961ZM153.879 42.574H152.899V50.902H153.879V42.574ZM162.055 44.7329C162.055 43.8569 161.739 43.2509 160.76 43.2509C159.898 43.2509 159.384 43.7179 159.384 44.6039C159.384 45.6995 160.243 45.9774 161.158 46.2734C162.2 46.6107 163.315 46.9716 163.315 48.5929C163.315 50.5169 161.904 51.0659 160.725 51.0659C158.778 51.0659 158.206 50.0629 158.206 48.2889H159.233C159.233 49.2219 159.291 50.2249 160.796 50.2249C161.612 50.2249 162.243 49.6429 162.243 48.7569C162.243 47.6542 161.383 47.3657 160.468 47.0585C159.425 46.7088 158.311 46.3348 158.311 44.7079C158.311 43.9389 158.638 42.4099 160.749 42.4099C162.335 42.4099 163.059 43.2039 163.082 44.7319L162.055 44.7329ZM167.735 50.9019H168.668L168.667 44.6489H167.688V48.9639C167.688 49.8729 166.977 50.2229 166.452 50.2229C165.565 50.2229 165.53 49.4419 165.53 48.9639V44.6489H164.551V49.0819C164.551 49.8159 164.551 51.0649 166.196 51.0649C166.802 51.0649 167.456 50.7379 167.712 50.1669H167.735V50.9019ZM170.185 44.6511H171.118V45.4201H171.141C171.27 44.9531 171.819 44.4871 172.494 44.4871C173.976 44.4871 174.536 45.8051 174.536 47.6591C174.536 49.0831 174.116 51.0661 172.494 51.0661C171.935 51.0661 171.41 50.7271 171.188 50.1901H171.164V52.9551H170.185V44.6511ZM172.366 50.2261C173.277 50.2261 173.51 49.2701 173.51 47.6601C173.51 46.2841 173.277 45.3281 172.366 45.3281C171.282 45.3281 171.108 46.3541 171.108 47.7771C171.107 48.9891 171.316 50.2261 172.366 50.2261ZM177.837 50.2961C176.636 50.2961 176.636 48.8491 176.636 47.8931H179.925V47.4961C179.925 46.1551 179.75 44.4871 177.837 44.4871C175.913 44.4871 175.609 46.2951 175.609 47.8581C175.609 50.0041 176.251 51.0661 177.779 51.0661C179.482 51.0661 179.878 49.5131 179.878 48.8491H178.899C178.899 49.3161 178.77 50.2961 177.837 50.2961ZM178.899 46.7871V47.1241L176.671 47.1251V46.8921C176.671 46.5181 176.788 45.2591 177.814 45.2591C178.677 45.2591 178.899 46.0861 178.899 46.7871ZM181.231 44.651H182.211V45.584H182.234C182.513 44.99 182.887 44.488 183.587 44.488C183.785 44.488 183.924 44.511 184.018 44.559V45.515C183.998 45.5124 183.976 45.5087 183.952 45.5045C183.864 45.4895 183.74 45.468 183.493 45.468C183.004 45.468 182.21 45.911 182.21 46.95V50.904H181.23L181.231 44.651ZM186.901 45.258C187.646 45.258 187.892 45.945 187.892 46.552L188.873 46.553C188.873 45.829 188.58 44.488 186.877 44.488C184.953 44.488 184.649 46.296 184.649 47.859C184.649 50.005 185.292 51.067 186.82 51.067C188.384 51.067 188.873 49.727 188.873 48.734H187.893C187.893 49.41 187.705 50.297 186.866 50.297C185.688 50.297 185.675 48.663 185.675 47.847C185.675 45.561 186.295 45.258 186.901 45.258ZM192.068 44.4871C193.875 44.4871 194.319 46.0151 194.319 47.7761C194.319 49.5381 193.864 51.0661 192.068 51.0661C190.259 51.0661 189.816 49.5381 189.816 47.7761C189.816 46.0161 190.271 44.4871 192.068 44.4871ZM193.292 47.7761C193.292 46.4241 193.093 45.2571 192.043 45.2571C191.052 45.2571 190.843 46.4231 190.843 47.7761C190.843 49.1301 191.039 50.2961 192.043 50.2961C193.082 50.2961 193.292 49.1311 193.292 47.7761ZM196.558 44.651H195.625L195.627 50.903H196.607V46.588C196.607 45.609 197.318 45.329 197.773 45.329C198.578 45.329 198.612 46.11 198.612 46.588V50.903H199.592V46.588C199.592 45.609 200.303 45.329 200.758 45.329C201.563 45.329 201.597 46.11 201.597 46.588V50.903H202.577V46.47C202.577 45.736 202.577 44.488 200.932 44.488C200.291 44.488 199.73 44.931 199.45 45.479C199.252 44.768 198.821 44.488 198.098 44.488C197.49 44.488 196.839 44.815 196.581 45.386H196.558V44.651ZM204.186 44.6511H205.119V45.4201H205.142C205.271 44.9531 205.819 44.4871 206.495 44.4871C207.977 44.4871 208.535 45.8051 208.535 47.6591C208.535 49.0831 208.116 51.0661 206.495 51.0661C205.935 51.0661 205.41 50.7271 205.189 50.1901H205.166V52.9551H204.186V44.6511ZM206.368 50.2261C207.277 50.2261 207.511 49.2701 207.511 47.6601C207.511 46.2841 207.276 45.3281 206.368 45.3281C205.284 45.3281 205.107 46.3541 205.107 47.7771C205.107 48.9891 205.319 50.2261 206.368 50.2261ZM213.004 50.9019H213.937L213.936 44.6489H212.957V48.9639C212.957 49.8729 212.246 50.2229 211.721 50.2229C210.834 50.2229 210.799 49.4419 210.799 48.9639V44.6489H209.82V49.0819C209.82 49.8159 209.82 51.0649 211.465 51.0649C212.072 51.0649 212.725 50.7379 212.981 50.1669H213.004V50.9019ZM215.745 42.8311H216.725V44.6511H217.809V45.4201H216.725V49.4321C216.725 49.9341 216.853 50.1331 217.366 50.1331C217.526 50.1331 217.632 50.1191 217.72 50.1076C217.747 50.104 217.772 50.1007 217.797 50.0981V50.9021L217.79 50.9033C217.659 50.9267 217.405 50.9721 217.003 50.9721C215.987 50.9721 215.744 50.5531 215.744 49.7361V45.4201H214.834V44.6511H215.744L215.745 42.8311ZM219.746 42.574H218.767V43.694H219.746V42.574ZM219.746 44.651H218.767V50.903H219.746V44.651ZM221.321 44.651H222.254V45.386H222.277C222.533 44.815 223.187 44.488 223.793 44.488C225.438 44.488 225.438 45.736 225.438 46.47V50.903H224.459V46.588C224.459 46.11 224.424 45.329 223.537 45.329C223.012 45.329 222.301 45.678 222.301 46.588V50.903H221.322L221.321 44.651ZM228.95 53.049C230.21 53.049 231.072 52.373 231.072 50.507L231.073 44.651H230.14V45.444H230.117C229.989 44.955 229.441 44.488 228.764 44.488C227.178 44.488 226.723 46.085 226.723 47.777C226.723 48.606 226.839 50.903 228.659 50.903C229.276 50.903 229.86 50.589 230.07 50.064H230.093V50.88L230.093 50.9234C230.095 51.3734 230.097 52.28 228.879 52.28C228.366 52.28 227.923 52.057 227.877 51.486H226.897C227.061 53.049 228.565 53.049 228.95 53.049ZM228.879 50.063C227.9 50.063 227.748 48.791 227.748 47.776C227.748 46.283 227.982 45.328 228.891 45.327C229.941 45.327 230.151 46.563 230.151 47.776C230.151 49.06 229.94 50.063 228.879 50.063ZM240.754 48.0461C240.662 49.6211 240.042 51.0671 238.223 51.0671C235.854 51.0671 235.54 48.8391 235.54 46.7401C235.54 44.6411 235.925 42.4121 238.223 42.4121C239.925 42.4121 240.637 43.3691 240.684 45.0011H239.611C239.587 44.0571 239.283 43.2521 238.222 43.2521C236.798 43.2521 236.611 44.8151 236.611 46.7401C236.611 48.6641 236.798 50.2271 238.222 50.2271C239.47 50.2271 239.645 49.0611 239.68 48.0461H240.754ZM243.926 50.2961C242.725 50.2961 242.725 48.8491 242.725 47.8931H246.014V47.4961C246.014 46.1551 245.839 44.4871 243.926 44.4871C242.001 44.4871 241.698 46.2951 241.698 47.8581C241.698 50.0041 242.34 51.0661 243.868 51.0661C245.571 51.0661 245.968 49.5131 245.968 48.8491H244.986C244.986 49.3161 244.859 50.2961 243.926 50.2961ZM244.987 46.7871V47.1241L242.761 47.1251V46.8921C242.761 46.5181 242.877 45.2591 243.904 45.2591C244.766 45.2591 244.987 46.0861 244.987 46.7871ZM247.321 44.651H248.254V45.386H248.278C248.534 44.815 249.187 44.488 249.794 44.488C251.439 44.488 251.439 45.736 251.439 46.47V50.903H250.459V46.588C250.459 46.11 250.424 45.329 249.538 45.329C249.012 45.329 248.3 45.678 248.3 46.588V50.903H247.321V44.651ZM254.226 42.8311H253.246H253.245V44.6511H252.335V45.4201H253.245V49.7361C253.245 50.5531 253.49 50.9721 254.504 50.9721C254.909 50.9721 255.164 50.9261 255.294 50.9028L255.298 50.9021V50.0981C255.273 50.1007 255.248 50.104 255.221 50.1076C255.133 50.1191 255.026 50.1331 254.867 50.1331C254.354 50.1331 254.226 49.9341 254.226 49.4321V45.4201H255.31V44.6511H254.226V42.8311ZM256.208 44.651H257.187V45.584H257.211C257.49 44.99 257.863 44.488 258.564 44.488C258.762 44.488 258.901 44.511 258.995 44.559V45.515C258.981 45.5132 258.966 45.5108 258.95 45.5081L258.929 45.5046C258.841 45.4895 258.717 45.468 258.47 45.468C257.979 45.468 257.186 45.911 257.186 46.95V50.904H256.207L256.208 44.651ZM261.913 50.2961C260.712 50.2961 260.712 48.8491 260.712 47.8931H263.999V47.4961C263.999 46.1551 263.824 44.4871 261.912 44.4871C259.987 44.4871 259.683 46.2951 259.683 47.8581C259.683 50.0041 260.325 51.0661 261.853 51.0661C263.556 51.0661 263.953 49.5131 263.953 48.8491H262.973C262.973 49.3161 262.846 50.2961 261.913 50.2961ZM262.974 46.7871V47.1241L260.748 47.1251V46.8921C260.748 46.5181 260.865 45.2591 261.89 45.2591C262.753 45.2591 262.974 46.0861 262.974 46.7871Z" fill="url(#paint18_linear_1023_95)"/>
</g>
<defs>
<linearGradient id="paint0_linear_1023_95" x1="25.1585" y1="0" x2="25.1585" y2="10.228" gradientUnits="userSpaceOnUse">
<stop stop-color="white"/>
<stop offset="1" stop-color="white" stop-opacity="0.51"/>
</linearGradient>
<linearGradient id="paint1_linear_1023_95" x1="22.9285" y1="10.228" x2="22.9285" y2="18.278" gradientUnits="userSpaceOnUse">
<stop stop-color="white"/>
<stop offset="1" stop-color="white" stop-opacity="0.51"/>
</linearGradient>
<linearGradient id="paint2_linear_1023_95" x1="9.2055" y1="15.959" x2="9.2055" y2="26.188" gradientUnits="userSpaceOnUse">
<stop stop-color="white"/>
<stop offset="1" stop-color="white" stop-opacity="0.51"/>
</linearGradient>
<linearGradient id="paint3_linear_1023_95" x1="9.2055" y1="26.1841" x2="9.2055" y2="36.4151" gradientUnits="userSpaceOnUse">
<stop stop-color="white"/>
<stop offset="1" stop-color="white" stop-opacity="0.51"/>
</linearGradient>
<linearGradient id="paint4_linear_1023_95" x1="22.9149" y1="34.1523" x2="22.9149" y2="42.1432" gradientUnits="userSpaceOnUse">
<stop stop-color="white"/>
<stop offset="1" stop-color="white" stop-opacity="0.51"/>
</linearGradient>
<linearGradient id="paint5_linear_1023_95" x1="25.1585" y1="42.1431" x2="25.1585" y2="52.3751" gradientUnits="userSpaceOnUse">
<stop stop-color="white"/>
<stop offset="1" stop-color="white" stop-opacity="0.51"/>
</linearGradient>
<linearGradient id="paint6_linear_1023_95" x1="45.2055" y1="5.1192" x2="55.4359" y2="15.3467" gradientUnits="userSpaceOnUse">
<stop stop-color="white"/>
<stop offset="1" stop-color="white" stop-opacity="0.51"/>
</linearGradient>
<linearGradient id="paint7_linear_1023_95" x1="41.116" y1="0" x2="41.116" y2="10.228" gradientUnits="userSpaceOnUse">
<stop stop-color="white"/>
<stop offset="1" stop-color="white" stop-opacity="0.51"/>
</linearGradient>
<linearGradient id="paint8_linear_1023_95" x1="41.116" y1="10.228" x2="41.116" y2="20.46" gradientUnits="userSpaceOnUse">
<stop stop-color="white"/>
<stop offset="1" stop-color="white" stop-opacity="0.51"/>
</linearGradient>
<linearGradient id="paint9_linear_1023_95" x1="61.1595" y1="21.0746" x2="71.3877" y2="31.3028" gradientUnits="userSpaceOnUse">
<stop stop-color="white"/>
<stop offset="1" stop-color="white" stop-opacity="0.51"/>
</linearGradient>
<linearGradient id="paint10_linear_1023_95" x1="57.071" y1="15.959" x2="57.071" y2="26.188" gradientUnits="userSpaceOnUse">
<stop stop-color="white"/>
<stop offset="1" stop-color="white" stop-opacity="0.51"/>
</linearGradient>
<linearGradient id="paint11_linear_1023_95" x1="57.071" y1="26.1841" x2="57.071" y2="36.4151" gradientUnits="userSpaceOnUse">
<stop stop-color="white"/>
<stop offset="1" stop-color="white" stop-opacity="0.51"/>
</linearGradient>
<linearGradient id="paint12_linear_1023_95" x1="29.2464" y1="21.0721" x2="39.4754" y2="31.2981" gradientUnits="userSpaceOnUse">
<stop stop-color="white"/>
<stop offset="1" stop-color="white" stop-opacity="0.51"/>
</linearGradient>
<linearGradient id="paint13_linear_1023_95" x1="25.1585" y1="15.959" x2="25.1585" y2="26.188" gradientUnits="userSpaceOnUse">
<stop stop-color="white"/>
<stop offset="1" stop-color="white" stop-opacity="0.51"/>
</linearGradient>
<linearGradient id="paint14_linear_1023_95" x1="25.1585" y1="26.1841" x2="25.1585" y2="36.4151" gradientUnits="userSpaceOnUse">
<stop stop-color="white"/>
<stop offset="1" stop-color="white" stop-opacity="0.51"/>
</linearGradient>
<linearGradient id="paint15_linear_1023_95" x1="45.2033" y1="37.0345" x2="55.4337" y2="47.2619" gradientUnits="userSpaceOnUse">
<stop stop-color="white"/>
<stop offset="1" stop-color="white" stop-opacity="0.51"/>
</linearGradient>
<linearGradient id="paint16_linear_1023_95" x1="41.116" y1="31.915" x2="41.116" y2="42.143" gradientUnits="userSpaceOnUse">
<stop stop-color="white"/>
<stop offset="1" stop-color="white" stop-opacity="0.51"/>
</linearGradient>
<linearGradient id="paint17_linear_1023_95" x1="41.116" y1="42.1431" x2="41.116" y2="52.3751" gradientUnits="userSpaceOnUse">
<stop stop-color="white"/>
<stop offset="1" stop-color="white" stop-opacity="0.51"/>
</linearGradient>
<linearGradient id="paint18_linear_1023_95" x1="176.017" y1="3.55005" x2="176.017" y2="53.049" gradientUnits="userSpaceOnUse">
<stop stop-color="white"/>
<stop offset="1" stop-color="white" stop-opacity="0.51"/>
</linearGradient>
<clipPath id="clip0_1023_95">
<rect width="264" height="53.049" fill="white"/>
</clipPath>
</defs>
</svg>
