<svg width="755" height="149" viewBox="0 0 755 149" fill="none" xmlns="http://www.w3.org/2000/svg">
<path fill-rule="evenodd" clip-rule="evenodd" d="M0 145.902H61.8118C101.125 145.902 129.306 120.613 129.306 80.6976C129.306 31.3605 94.7417 11.5901 49.6674 11.5901H0V145.902ZM48.8111 53.6341H51.8471C69.5966 53.6341 80.4954 61.6368 80.4954 80.5201C80.4954 98.1616 68.0396 105.632 51.8471 105.632H48.8111" fill="url(#paint0_linear_1125_72)"/>
<path d="M141.062 51.3082V104.745C141.062 134.667 167.063 148.031 194.466 148.031C221.868 148.031 247.948 134.667 247.948 104.745V51.3082H202.328V100.113C202.328 105.632 201.939 111.526 194.466 111.526C186.992 111.526 186.603 105.632 186.603 100.113V51.3082" fill="url(#paint1_linear_1125_72)"/>
<path d="M273.326 52.9047L260.87 51.3082V88.1878L273.326 86.9459V145.902H319.335V86.9459L334.126 88.1878V51.3082L318.634 53.2793V49.7116C318.634 43.4829 320.347 37.057 328.21 37.057C330.389 37.057 332.18 37.7666 334.437 38.6733V2.14845C327.665 1.08406 321.125 0 314.352 0C285.86 0 273.326 15.3353 273.326 42.931" fill="url(#paint2_linear_1125_72)"/>
<path fill-rule="evenodd" clip-rule="evenodd" d="M451.288 106.362C453.624 70.9012 427.077 49.1793 393.369 49.1793C363.319 49.1793 339.031 68.7723 339.031 100.113C339.031 132.715 366.355 148.031 396.094 148.031C417.813 148.031 443.27 137.525 449.342 114.719H404.657C403.723 119.174 400.142 122.564 395.393 122.564C385.74 122.564 384.494 114.01 384.494 106.362H451.288ZM384.494 86.7686C384.494 80.1653 387.842 74.4689 394.848 74.4689C401.387 74.4689 406.058 80.3427 406.058 86.7686" fill="url(#paint3_linear_1125_72)"/>
<path d="M544.084 49.1792C528.592 48.8244 520.262 51.4854 512.01 63.9626H510.998L512.01 51.3081H466.079V145.902H512.01V109.555C512.01 97.8068 518.082 90.6714 529.993 90.6714C535.91 90.6714 539.257 92.9972 544.084 95.8356" fill="url(#paint4_linear_1125_72)"/>
<path d="M628.471 53.989C619.208 50.9535 609.243 49.1793 599.668 49.1793C571.331 49.1793 550.856 71.0786 550.856 99.0487C550.856 130.764 572.732 148.031 603.404 148.031C611.423 148.031 619.441 145.902 626.525 143.576L628.471 104.745C623.178 108.49 617.806 112.058 610.722 112.058C603.171 112.058 597.176 106.007 597.176 98.5165C597.176 89.9618 603.171 84.4427 611.578 84.4427C618.195 84.4427 623.723 88.1878 628.471 92.2877" fill="url(#paint5_linear_1125_72)"/>
<path fill-rule="evenodd" clip-rule="evenodd" d="M697.056 49.1793C665.917 49.1793 639.682 66.6237 639.682 99.7582C639.682 131.119 667.474 148.031 697.056 148.031C726.638 148.031 754.43 131.119 754.43 99.7582C754.43 66.6237 728.195 49.1793 697.056 49.1793ZM697.056 85.1524C704.685 85.1524 709.901 91.3811 709.901 99.0487C709.901 106.539 704.218 112.058 697.056 112.058C689.894 112.058 684.211 106.539 684.211 99.0487C684.211 91.3811 689.427 85.1524 697.056 85.1524Z" fill="url(#paint6_linear_1125_72)"/>
<defs>
<linearGradient id="paint0_linear_1125_72" x1="64.6532" y1="11.5901" x2="64.6532" y2="145.902" gradientUnits="userSpaceOnUse">
<stop stop-color="white"/>
<stop offset="1" stop-color="white" stop-opacity="0.51"/>
</linearGradient>
<linearGradient id="paint1_linear_1125_72" x1="194.505" y1="51.3082" x2="194.505" y2="148.031" gradientUnits="userSpaceOnUse">
<stop stop-color="white"/>
<stop offset="1" stop-color="white" stop-opacity="0.51"/>
</linearGradient>
<linearGradient id="paint2_linear_1125_72" x1="297.654" y1="0" x2="297.654" y2="145.902" gradientUnits="userSpaceOnUse">
<stop stop-color="white"/>
<stop offset="1" stop-color="white" stop-opacity="0.51"/>
</linearGradient>
<linearGradient id="paint3_linear_1125_72" x1="395.231" y1="49.1793" x2="395.231" y2="148.031" gradientUnits="userSpaceOnUse">
<stop stop-color="white"/>
<stop offset="1" stop-color="white" stop-opacity="0.51"/>
</linearGradient>
<linearGradient id="paint4_linear_1125_72" x1="505.081" y1="49.1492" x2="505.081" y2="145.902" gradientUnits="userSpaceOnUse">
<stop stop-color="white"/>
<stop offset="1" stop-color="white" stop-opacity="0.51"/>
</linearGradient>
<linearGradient id="paint5_linear_1125_72" x1="589.664" y1="49.1793" x2="589.664" y2="148.031" gradientUnits="userSpaceOnUse">
<stop stop-color="white"/>
<stop offset="1" stop-color="white" stop-opacity="0.51"/>
</linearGradient>
<linearGradient id="paint6_linear_1125_72" x1="697.056" y1="49.1793" x2="697.056" y2="148.031" gradientUnits="userSpaceOnUse">
<stop stop-color="white"/>
<stop offset="1" stop-color="white" stop-opacity="0.51"/>
</linearGradient>
</defs>
</svg>
