<svg width="1277" height="113" viewBox="0 0 1277 113" fill="none" xmlns="http://www.w3.org/2000/svg">
<g clip-path="url(#clip0_1152_260)">
<path d="M82.79 109.67H53.54V66.45H29.36V109.63H0V2.48999H29.21V43.14H53.29V2.53999H82.78V109.67H82.79Z" fill="url(#paint0_linear_1152_260)"/>
<path d="M527.99 56.8599C535.02 58.8099 538.11 64.4499 540.17 70.5599C544.43 83.2099 548.25 96.0099 552.24 108.75C552.31 108.99 552.22 109.28 552.2 109.71H521.77C519.94 103.12 518.11 96.4699 516.24 89.8399C514.93 85.2099 513.69 80.5499 512.19 75.9799C510.08 69.5599 506.63 67.4999 499.38 68.2399V109.68H470.25V2.66991C470.51 2.57991 470.75 2.40991 471 2.40991C486.18 2.59991 501.38 2.54991 516.55 3.10991C524.01 3.37991 531.34 5.13991 537.72 9.43991C546.05 15.0599 548.32 23.4599 547.7 32.8099C546.91 44.7999 540.79 52.8099 529.01 56.1399C528.76 56.2099 528.52 56.3699 528.29 56.4999C528.22 56.5399 528.17 56.6399 528 56.8499L527.99 56.8599ZM498.88 48.5799C503.71 48.8599 508.31 48.6799 512.57 46.5899C517.21 44.3099 518.65 40.2099 518.6 35.2899C518.55 30.4999 516.83 26.7899 512.27 24.8099C507.99 22.9599 503.49 23.0399 498.88 23.2599V48.5799Z" fill="url(#paint1_linear_1152_260)"/>
<path d="M195.63 109.88C185.57 109.88 175.85 109.91 166.13 109.8C165.53 109.8 164.6 108.71 164.4 107.97C162.89 102.45 161.4 96.9199 160.18 91.3399C159.62 88.7999 158.68 87.7899 155.9 87.8699C148.18 88.0899 140.44 87.9999 132.71 87.9099C130.93 87.8899 130.22 88.4699 129.78 90.2199C128.29 96.1199 126.63 101.97 124.9 107.81C124.66 108.62 123.64 109.79 122.97 109.8C113.89 109.93 104.8 109.89 95.4099 109.89C95.6099 108.86 95.6799 108.07 95.9199 107.33C103.21 84.1099 110.52 60.8999 117.82 37.6799C121.22 26.8499 124.66 16.0299 127.93 5.15993C128.55 3.10993 129.28 2.25993 131.6 2.29993C141.06 2.45993 150.51 2.41993 159.97 2.32993C161.88 2.30993 162.8 2.76993 163.4 4.74993C169.47 24.7299 175.67 44.6799 181.83 64.6399C185.98 78.0899 190.14 91.5399 194.28 104.99C194.75 106.53 195.14 108.09 195.64 109.9L195.63 109.88ZM154.07 66.2499C151.12 52.6299 148.21 39.1799 145.24 25.4599C141.92 39.2399 138.69 52.6599 135.42 66.2499H154.07Z" fill="url(#paint2_linear_1152_260)"/>
<path d="M377.09 109.68V2.59009H443.64V24.3001H406.42V44.9601H441.24V66.3801H406.44V87.5501H446.13V109.67H377.09V109.68Z" fill="url(#paint3_linear_1152_260)"/>
<path d="M208.17 84.13C214.68 85.81 220.76 87.69 226.97 88.85C230.66 89.54 234.6 89.41 238.37 89.05C242.42 88.66 246 86.95 247.14 82.48C248.3 77.94 246.61 74.19 242.79 71.91C236.95 68.44 230.79 65.49 224.79 62.29C217.98 58.66 211.62 54.53 208.02 47.28C200.18 31.49 207.66 11.58 223.85 4.73003C234.08 0.400034 244.72 0.130034 255.48 1.10003C260.26 1.53003 264.97 2.68003 269.7 3.53003C271.44 3.84003 272.23 4.64003 272.04 6.69003C271.43 13.09 271.08 19.51 270.63 26.06C266.97 24.92 263.72 23.76 260.39 22.92C254.88 21.53 249.26 21.12 243.62 22.1C242.39 22.32 241.15 22.74 240.01 23.27C233.87 26.18 233.01 33.26 238.71 36.98C243.47 40.09 248.81 42.3 253.87 44.96C256.84 46.52 259.82 48.1 262.7 49.82C275.05 57.17 279.29 68.27 277.43 82.1C275.43 97.01 264.69 107.49 248.66 110.35C235.22 112.74 222.05 111.25 208.98 107.86C206.82 107.3 206.17 106.36 206.43 104.06C207.18 97.39 207.62 90.68 208.17 84.13Z" fill="url(#paint4_linear_1152_260)"/>
<path d="M298.08 109.76V2.51001H327.86V87.64H360.61V109.76H298.08Z" fill="url(#paint5_linear_1152_260)"/>
<path d="M1079.9 109.67V2.55006C1080.71 2.49006 1081.5 2.39006 1082.28 2.39006C1092.92 2.38006 1103.57 2.42006 1114.21 2.35006C1115.87 2.34006 1116.79 2.69006 1117.42 4.41006C1125.18 25.7501 1133.05 47.0501 1140.84 68.3801C1141.86 71.1701 1142.55 74.0901 1143.61 77.6801V2.58006H1168.28V109.7C1167.54 109.76 1166.77 109.88 1165.99 109.88C1155.35 109.89 1144.7 109.84 1134.06 109.94C1132.19 109.96 1131.33 109.34 1130.68 107.63C1123.93 89.8901 1117.01 72.2101 1110.37 54.4301C1108.38 49.0901 1107.13 43.4601 1105.54 37.9601C1105.15 36.5901 1104.77 35.2201 1104.4 33.8601C1104.83 59.0901 1105.25 84.2701 1105.68 109.68H1079.89L1079.9 109.67Z" fill="url(#paint6_linear_1152_260)"/>
<path d="M972.03 2.47998H1002V5.72998C1002 27.02 1001.92 48.31 1002.07 69.6C1002.1 73.91 1002.57 78.34 1003.68 82.49C1005.14 87.91 1008.84 90.14 1014.28 90.01C1019.83 89.87 1023.6 87.32 1025.11 82.14C1025.96 79.2 1026.59 76.08 1026.61 73.04C1026.76 50.66 1026.73 28.28 1026.76 5.89998C1026.76 4.82998 1026.76 3.75998 1026.76 2.53998H1055.49C1055.49 3.48998 1055.49 4.44998 1055.49 5.40998C1055.49 27.43 1055.63 49.45 1055.39 71.46C1055.33 76.95 1054.65 82.6 1053.13 87.86C1049.89 99.11 1042 106.24 1030.89 109.54C1019.09 113.04 1007.19 113 995.47 108.99C981.84 104.33 974.64 94.41 972.63 80.43C972.26 77.83 972.06 75.18 972.05 72.55C972 49.99 972.02 27.42 972.02 4.85998V2.47998H972.03Z" fill="url(#paint7_linear_1152_260)"/>
<path d="M1270.51 25.58C1263.3 23.16 1256.34 21.93 1249.19 22.38C1231.93 23.47 1220.97 34.02 1219.32 51.28C1218.4 60.85 1219.11 70.23 1224.47 78.63C1229.9 87.15 1238.14 90.13 1247.83 90.03C1249.8 90.01 1250.66 89.32 1250.6 87.11C1250.44 80.85 1250.54 74.58 1250.54 68.02H1235.22V47.48H1276.44C1276.49 48.44 1276.57 49.32 1276.57 50.21C1276.57 68.49 1276.54 86.78 1276.62 105.06C1276.62 107.16 1276.05 108.04 1273.95 108.55C1257.15 112.68 1240.32 113.7 1223.58 108.66C1204.89 103.02 1193.69 90.32 1189.99 71.19C1187.13 56.42 1188.23 41.99 1195.29 28.45C1202 15.58 1212.83 7.56002 1226.5 3.30002C1240.64 -1.09998 1255.02 -0.599982 1269.44 1.75002C1270.21 1.87002 1270.65 2.29002 1270.91 2.88002C1271.35 3.89002 1271.22 5.42002 1271.17 6.84002C1270.94 13.56 1271.03 18.51 1270.5 25.57L1270.51 25.58Z" fill="url(#paint8_linear_1152_260)"/>
<path d="M570.29 83.8099C574.91 85.2299 579.16 87.0099 583.58 87.7699C589 88.6899 594.59 89.3099 600.06 89.0599C607.27 88.7299 611.18 83.3599 609.02 77.2999C608.26 75.1599 606.49 72.8899 604.55 71.7299C598.8 68.2899 592.71 65.3999 586.79 62.2399C580.07 58.6499 573.81 54.5499 570.2 47.4199C562.28 31.7499 569.68 11.6999 585.81 4.79991C596.02 0.429915 606.67 0.139915 617.43 1.08991C622.21 1.50991 626.92 2.65991 631.65 3.49991C633.48 3.82991 634.37 4.63991 634.15 6.80991C633.53 13.1299 633.18 19.4699 632.71 26.0999C629.66 25.1099 626.96 24.1499 624.2 23.3599C618.28 21.6699 612.24 21.0699 606.13 22.0499C604.8 22.2599 603.46 22.6599 602.25 23.2299C595.96 26.1499 595.11 33.2899 600.93 37.0799C605.62 40.1299 610.89 42.2799 615.86 44.9299C619.46 46.8499 623.13 48.7199 626.51 50.9799C638.64 59.0999 642.17 70.3199 638.84 85.4299C635.56 100.31 624.83 107.57 610.63 110.32C597.33 112.9 584.21 111.23 571.23 107.88C568.99 107.3 568.3 106.3 568.57 103.9C569.32 97.2299 569.75 90.5299 570.3 83.7999L570.29 83.8099Z" fill="url(#paint9_linear_1152_260)"/>
<path d="M831.36 109.74H801.7V2.58008H866.19V24.2401H831.49V45.2101H864.64V67.2601H831.36V109.74Z" fill="url(#paint10_linear_1152_260)"/>
<path d="M932.75 109.73H902.91V24.4199H880.04V2.40991H955.49V24.3899H932.76V109.73H932.75Z" fill="url(#paint11_linear_1152_260)"/>
<path d="M701.34 24.42V109.66H671.69V24.42H648.84V2.44995H724.33V24.42H701.33H701.34Z" fill="url(#paint12_linear_1152_260)"/>
<path d="M742.89 2.51001H772.29V109.74H742.89V2.51001Z" fill="url(#paint13_linear_1152_260)"/>
</g>
<defs>
<linearGradient id="paint0_linear_1152_260" x1="41.395" y1="2.48999" x2="41.395" y2="109.67" gradientUnits="userSpaceOnUse">
<stop stop-color="white"/>
<stop offset="1" stop-color="white" stop-opacity="0.51"/>
</linearGradient>
<linearGradient id="paint1_linear_1152_260" x1="511.258" y1="2.40991" x2="511.258" y2="109.71" gradientUnits="userSpaceOnUse">
<stop stop-color="white"/>
<stop offset="1" stop-color="white" stop-opacity="0.51"/>
</linearGradient>
<linearGradient id="paint2_linear_1152_260" x1="145.525" y1="2.29858" x2="145.525" y2="109.9" gradientUnits="userSpaceOnUse">
<stop stop-color="white"/>
<stop offset="1" stop-color="white" stop-opacity="0.51"/>
</linearGradient>
<linearGradient id="paint3_linear_1152_260" x1="411.61" y1="2.59009" x2="411.61" y2="109.68" gradientUnits="userSpaceOnUse">
<stop stop-color="white"/>
<stop offset="1" stop-color="white" stop-opacity="0.51"/>
</linearGradient>
<linearGradient id="paint4_linear_1152_260" x1="241.369" y1="0.637695" x2="241.369" y2="111.52" gradientUnits="userSpaceOnUse">
<stop stop-color="white"/>
<stop offset="1" stop-color="white" stop-opacity="0.51"/>
</linearGradient>
<linearGradient id="paint5_linear_1152_260" x1="329.345" y1="2.51001" x2="329.345" y2="109.76" gradientUnits="userSpaceOnUse">
<stop stop-color="white"/>
<stop offset="1" stop-color="white" stop-opacity="0.51"/>
</linearGradient>
<linearGradient id="paint6_linear_1152_260" x1="1124.08" y1="2.34985" x2="1124.08" y2="109.941" gradientUnits="userSpaceOnUse">
<stop stop-color="#BBBBBB"/>
<stop offset="1" stop-color="#BBBBBB" stop-opacity="0.51"/>
</linearGradient>
<linearGradient id="paint7_linear_1152_260" x1="1013.77" y1="2.47998" x2="1013.77" y2="112.086" gradientUnits="userSpaceOnUse">
<stop stop-color="#BBBBBB"/>
<stop offset="1" stop-color="#BBBBBB" stop-opacity="0.51"/>
</linearGradient>
<linearGradient id="paint8_linear_1152_260" x1="1232.57" y1="-0.0217285" x2="1232.57" y2="112.057" gradientUnits="userSpaceOnUse">
<stop stop-color="#BBBBBB"/>
<stop offset="1" stop-color="#BBBBBB" stop-opacity="0.51"/>
</linearGradient>
<linearGradient id="paint9_linear_1152_260" x1="603.517" y1="0.645508" x2="603.517" y2="111.579" gradientUnits="userSpaceOnUse">
<stop stop-color="#BBBBBB"/>
<stop offset="1" stop-color="#BBBBBB" stop-opacity="0.51"/>
</linearGradient>
<linearGradient id="paint10_linear_1152_260" x1="833.945" y1="2.58008" x2="833.945" y2="109.74" gradientUnits="userSpaceOnUse">
<stop stop-color="#BBBBBB"/>
<stop offset="1" stop-color="#BBBBBB" stop-opacity="0.51"/>
</linearGradient>
<linearGradient id="paint11_linear_1152_260" x1="917.765" y1="2.40991" x2="917.765" y2="109.73" gradientUnits="userSpaceOnUse">
<stop stop-color="#BBBBBB"/>
<stop offset="1" stop-color="#BBBBBB" stop-opacity="0.51"/>
</linearGradient>
<linearGradient id="paint12_linear_1152_260" x1="686.585" y1="2.44995" x2="686.585" y2="109.66" gradientUnits="userSpaceOnUse">
<stop stop-color="#BBBBBB"/>
<stop offset="1" stop-color="#BBBBBB" stop-opacity="0.51"/>
</linearGradient>
<linearGradient id="paint13_linear_1152_260" x1="757.59" y1="2.51001" x2="757.59" y2="109.74" gradientUnits="userSpaceOnUse">
<stop stop-color="#BBBBBB"/>
<stop offset="1" stop-color="#BBBBBB" stop-opacity="0.51"/>
</linearGradient>
<clipPath id="clip0_1152_260">
<rect width="1276.63" height="112.07" fill="white"/>
</clipPath>
</defs>
</svg>
