<svg width="300" height="73" viewBox="0 0 300 73" fill="none" xmlns="http://www.w3.org/2000/svg">
<path d="M29.0045 1.00163L1.32511 17.512C0.922206 17.7529 0.587732 18.0988 0.355176 18.515C0.12262 18.9312 0.00015034 19.403 0 19.8834V52.9085C0.00015034 53.3889 0.12262 53.8608 0.355176 54.277C0.587732 54.6931 0.922206 55.0389 1.32511 55.2799L29.0045 71.7879C29.4087 72.0286 29.8672 72.1554 30.334 72.1554C30.8007 72.1554 31.2592 72.0286 31.6634 71.7879L59.3428 55.2799C59.7457 55.0389 60.0802 54.6931 60.3127 54.277C60.5453 53.8608 60.6677 53.3889 60.6679 52.9085V19.8834C60.6677 19.403 60.5453 18.9312 60.3127 18.515C60.0802 18.0988 59.7457 17.7529 59.3428 17.512L31.6634 1.00163C31.2592 0.760943 30.8007 0.634277 30.334 0.634277C29.8672 0.634277 29.4087 0.760943 29.0045 1.00163ZM24.493 56.0531L27.7796 41.6132C27.8031 41.5086 27.8003 41.3995 27.7713 41.2964C27.7423 41.1933 27.6882 41.0995 27.614 41.0242L19.6327 33.0107C19.5756 32.9528 19.5302 32.8837 19.4992 32.8075C19.4682 32.7312 19.4523 32.6494 19.4523 32.5668C19.4523 32.4841 19.4682 32.4023 19.4992 32.3261C19.5302 32.2499 19.5756 32.1808 19.6327 32.1228L35.2094 16.1453C35.302 16.0494 35.4223 15.9874 35.5522 15.9686C35.6821 15.9498 35.8144 15.9753 35.9289 16.0413C36.0434 16.1072 36.1339 16.2099 36.1866 16.3338C36.2393 16.4577 36.2513 16.5959 36.2207 16.7275L32.9297 31.2035C32.905 31.308 32.9073 31.4174 32.9364 31.5207C32.9655 31.624 33.0203 31.7177 33.0953 31.7924L41.0156 39.7632C41.0726 39.821 41.118 39.8899 41.1489 39.9659C41.1799 40.042 41.1958 40.1235 41.1958 40.206C41.1958 40.2884 41.1799 40.3701 41.1489 40.4461C41.118 40.5222 41.0726 40.5911 41.0156 40.6488L25.4911 56.6376C25.3977 56.731 25.2777 56.7908 25.1487 56.8081C25.0197 56.8253 24.8887 56.7992 24.7753 56.7335C24.6619 56.6678 24.572 56.5661 24.5192 56.4436C24.4664 56.321 24.4533 56.184 24.482 56.0531H24.493Z" fill="url(#paint0_linear_1067_142)"/>
<mask id="mask0_1067_142" style="mask-type:luminance" maskUnits="userSpaceOnUse" x="78" y="20" width="223" height="42">
<path d="M78.3628 20.6343H300.003V61.3071H78.3628V20.6343Z" fill="white"/>
</mask>
<g mask="url(#mask0_1067_142)">
<path fill-rule="evenodd" clip-rule="evenodd" d="M146.766 30.5686C145.534 30.5372 144.315 30.8246 143.227 31.4028C142.487 31.7836 141.806 32.2688 141.204 32.8437V21.6707H136.149V52.3332H141.204V40.4271C141.142 39.1128 141.575 37.823 142.418 36.8123C142.827 36.3603 143.333 36.0054 143.897 35.7736C144.461 35.5418 145.07 35.439 145.679 35.4726C146.271 35.4326 146.865 35.5305 147.413 35.7586C147.961 35.9867 148.449 36.3387 148.839 36.7871C149.591 37.7037 149.987 38.8623 149.951 40.048V52.3332H155.006V39.4666C155.075 38.2736 154.906 37.0788 154.512 35.951C154.117 34.8231 153.503 33.7843 152.706 32.8942C151.922 32.1289 150.992 31.5287 149.972 31.1293C148.951 30.7298 147.861 30.5391 146.766 30.5686Z" fill="url(#paint1_linear_1067_142)"/>
<path fill-rule="evenodd" clip-rule="evenodd" d="M126.391 32.6416C125.721 32.0854 124.982 31.6181 124.192 31.2513C123.118 30.7765 121.953 30.5435 120.78 30.5687C119.361 30.563 117.957 30.8559 116.659 31.4282C115.415 31.9806 114.29 32.7706 113.348 33.7538C112.42 34.7485 111.699 35.9169 111.224 37.1917C110.648 38.5256 110.338 39.96 110.314 41.4131C110.357 42.8396 110.666 44.2455 111.224 45.5588C111.684 46.8182 112.369 47.9832 113.247 48.9966C114.188 49.9989 115.323 50.7988 116.583 51.3475C117.907 51.9223 119.336 52.215 120.78 52.207C122.817 52.2419 124.803 51.5622 126.391 50.2858V51.5244C126.463 52.1885 126.388 52.8602 126.173 53.4923C125.957 54.1244 125.606 54.7016 125.143 55.1835C124.681 55.6653 124.118 56.04 123.495 56.2813C122.873 56.5225 122.204 56.6245 121.538 56.5801C120.428 56.6245 119.324 56.3898 118.328 55.8976C117.492 55.4133 116.829 54.6796 116.432 53.7995V53.6225H110.997C111.122 55.1564 111.703 56.6179 112.665 57.8187C113.794 58.9995 115.177 59.9072 116.71 60.473C118.223 61.0351 119.823 61.3261 121.437 61.3324C122.777 61.4243 124.123 61.2482 125.395 60.8141C126.666 60.3801 127.839 59.6969 128.843 58.8046C129.736 57.9007 130.429 56.8193 130.878 55.6306C131.327 54.4418 131.52 53.1721 131.447 51.9036V30.9479H126.391V32.6416ZM125.128 45.584C124.617 46.1425 123.998 46.5899 123.307 46.8985C122.616 47.2045 121.864 47.3513 121.108 47.3282C120.361 47.3475 119.618 47.2008 118.934 46.8985C118.24 46.5965 117.619 46.1481 117.114 45.584C116.077 44.444 115.508 42.9544 115.522 41.4131C115.495 40.6429 115.621 39.875 115.895 39.1544C116.168 38.4338 116.583 37.7751 117.114 37.2169C117.62 36.6662 118.242 36.2346 118.934 35.953C119.624 35.6707 120.364 35.533 121.108 35.5486C121.855 35.5395 122.595 35.6859 123.282 35.9783C123.966 36.2652 124.585 36.6864 125.102 37.2169C125.635 37.7715 126.056 38.4238 126.341 39.1381C126.636 39.8591 126.774 40.6347 126.745 41.4131C126.752 42.9578 126.174 44.4479 125.128 45.584Z" fill="url(#paint2_linear_1067_142)"/>
<path fill-rule="evenodd" clip-rule="evenodd" d="M166.584 23.8447L161.781 25.5889V30.9226H157.332V35.5233H161.452V45.2302C161.389 46.2248 161.546 47.2212 161.913 48.1477C162.28 49.0743 162.848 49.9081 163.576 50.5891C164.982 51.7925 166.781 52.4399 168.631 52.4092H170.072H171.159H171.437V47.7833H169.364C168.987 47.8096 168.609 47.7579 168.252 47.6316C167.908 47.4837 167.592 47.2785 167.317 47.0249C167.036 46.7154 166.822 46.3516 166.687 45.9559C166.552 45.5603 166.5 45.1412 166.533 44.7246V35.5233H172.145V30.9226H166.584V23.8447Z" fill="url(#paint3_linear_1067_142)"/>
<path d="M106.447 30.9478H101.315V52.3332H106.447V30.9478Z" fill="url(#paint4_linear_1067_142)"/>
<path d="M181.7 36.1299H176.569V52.5355H181.7V36.1299Z" fill="url(#paint5_linear_1067_142)"/>
<path d="M106.422 21.696H101.29V26.9034H106.422V21.696Z" fill="url(#paint6_linear_1067_142)"/>
<path fill-rule="evenodd" clip-rule="evenodd" d="M83.6712 21.696H78.3628V52.3586H97.2204V47.2777H83.6712V21.696Z" fill="url(#paint7_linear_1067_142)"/>
<path fill-rule="evenodd" clip-rule="evenodd" d="M221.488 30.8972H216.433V36.1298H220.401C221.031 36.1308 221.655 36.2563 222.236 36.4993C222.818 36.7422 223.345 37.0978 223.789 37.5454C224.671 38.4739 225.168 39.7026 225.179 40.9833V52.5101H230.235V39.871C230.248 37.523 229.34 35.2633 227.707 33.5767C226.903 32.7358 225.938 32.0652 224.87 31.6048C223.802 31.1445 222.652 30.9039 221.488 30.8972Z" fill="url(#paint8_linear_1067_142)"/>
<path d="M216.357 36.1299H211.225V52.5355H216.357V36.1299Z" fill="url(#paint9_linear_1067_142)"/>
<path fill-rule="evenodd" clip-rule="evenodd" d="M186.832 30.8972H181.776V36.1298H185.745C186.371 36.1285 186.992 36.2531 187.57 36.4963C188.147 36.7395 188.67 37.0962 189.107 37.5454C189.554 37.9985 189.907 38.5355 190.145 39.1255C190.384 39.7155 190.503 40.3469 190.497 40.9833V52.5101H195.553V39.871C195.566 37.523 194.659 35.2633 193.025 33.5767C192.224 32.7388 191.263 32.07 190.2 31.6097C189.136 31.1495 187.991 30.9072 186.832 30.8972Z" fill="url(#paint10_linear_1067_142)"/>
<path fill-rule="evenodd" clip-rule="evenodd" d="M249.851 32.6162C249.201 32.0907 248.487 31.649 247.727 31.3017C246.661 30.828 245.506 30.5867 244.34 30.5939C242.922 30.5984 241.521 30.8908 240.22 31.4534C238.967 32.0057 237.834 32.7955 236.883 33.779C235.928 34.7717 235.173 35.9389 234.658 37.2168C234.103 38.5467 233.811 39.9718 233.799 41.413C233.779 42.858 234.046 44.2927 234.582 45.6345C235.077 46.8823 235.806 48.0236 236.731 48.9965C237.665 50.0844 238.831 50.9484 240.144 51.5243C241.473 52.1107 242.913 52.4039 244.365 52.3838C245.532 52.3268 246.676 52.0344 247.727 51.5243C248.524 51.1914 249.265 50.7397 249.926 50.1846V51.5243C250.003 52.1893 249.931 52.8629 249.717 53.497C249.503 54.1312 249.152 54.7103 248.688 55.1932C248.225 55.676 247.66 56.0506 247.035 56.2903C246.411 56.5301 245.74 56.629 245.073 56.58C243.962 56.6276 242.858 56.3928 241.863 55.8975C241.027 55.4131 240.364 54.6795 239.967 53.7994V53.6224H234.456C234.643 55.1411 235.218 56.5861 236.124 57.8186C237.249 58.987 238.623 59.8858 240.144 60.4476C241.662 61.0217 243.273 61.313 244.896 61.307C246.232 61.3955 247.573 61.2177 248.84 60.7837C250.107 60.3498 251.276 59.6684 252.277 58.7792C253.144 57.8758 253.816 56.8037 254.251 55.6295C254.686 54.4554 254.875 53.2043 254.805 51.9541V30.8972H249.749L249.851 32.6162ZM248.587 45.5587C248.09 46.1323 247.467 46.5824 246.767 46.8731C246.079 47.1915 245.324 47.3389 244.567 47.3029C243.82 47.3221 243.077 47.1754 242.393 46.8731C241.699 46.5711 241.078 46.1227 240.573 45.5587C239.552 44.4186 238.986 42.9434 238.981 41.413C238.934 39.8584 239.507 38.349 240.573 37.2168C241.097 36.6869 241.714 36.2584 242.393 35.9529C243.086 35.6826 243.824 35.5454 244.567 35.5485C245.313 35.5516 246.051 35.6975 246.741 35.9782C247.425 36.265 248.044 36.6863 248.561 37.2168C249.102 37.7704 249.531 38.4226 249.825 39.138C250.12 39.8598 250.266 40.6335 250.255 41.413C250.242 42.9558 249.646 44.4366 248.587 45.5587Z" fill="url(#paint11_linear_1067_142)"/>
<path d="M205.791 21.6707H200.659V26.9033H205.791V21.6707Z" fill="url(#paint12_linear_1067_142)"/>
<path d="M205.791 30.9226H200.659V52.3333H205.791V30.9226Z" fill="url(#paint13_linear_1067_142)"/>
<path fill-rule="evenodd" clip-rule="evenodd" d="M272.197 20.6343L267.318 35.8012H271.919L272.601 33.2734H279.249L279.957 35.8012H284.684L279.78 20.6343H272.197ZM273.764 29.2289L274.977 24.8305H276.873L278.086 29.2289H273.764Z" fill="url(#paint14_linear_1067_142)"/>
<path fill-rule="evenodd" clip-rule="evenodd" d="M300.003 24.8305V20.6343H286.807V24.8305H291.282V31.6809H286.807V35.9024H300.003V31.6809H295.528V24.8305H300.003Z" fill="url(#paint15_linear_1067_142)"/>
</g>
<defs>
<linearGradient id="paint0_linear_1067_142" x1="30.334" y1="0.634277" x2="30.334" y2="72.1554" gradientUnits="userSpaceOnUse">
<stop stop-color="white"/>
<stop offset="1" stop-color="white" stop-opacity="0.51"/>
</linearGradient>
<linearGradient id="paint1_linear_1067_142" x1="145.585" y1="21.6707" x2="145.585" y2="52.3332" gradientUnits="userSpaceOnUse">
<stop stop-color="white"/>
<stop offset="1" stop-color="white" stop-opacity="0.51"/>
</linearGradient>
<linearGradient id="paint2_linear_1067_142" x1="120.888" y1="30.5669" x2="120.888" y2="61.3561" gradientUnits="userSpaceOnUse">
<stop stop-color="white"/>
<stop offset="1" stop-color="white" stop-opacity="0.51"/>
</linearGradient>
<linearGradient id="paint3_linear_1067_142" x1="164.739" y1="23.8447" x2="164.739" y2="52.4102" gradientUnits="userSpaceOnUse">
<stop stop-color="white"/>
<stop offset="1" stop-color="white" stop-opacity="0.51"/>
</linearGradient>
<linearGradient id="paint4_linear_1067_142" x1="103.881" y1="30.9478" x2="103.881" y2="52.3332" gradientUnits="userSpaceOnUse">
<stop stop-color="white"/>
<stop offset="1" stop-color="white" stop-opacity="0.51"/>
</linearGradient>
<linearGradient id="paint5_linear_1067_142" x1="179.134" y1="36.1299" x2="179.134" y2="52.5355" gradientUnits="userSpaceOnUse">
<stop stop-color="white"/>
<stop offset="1" stop-color="white" stop-opacity="0.51"/>
</linearGradient>
<linearGradient id="paint6_linear_1067_142" x1="103.856" y1="21.696" x2="103.856" y2="26.9034" gradientUnits="userSpaceOnUse">
<stop stop-color="white"/>
<stop offset="1" stop-color="white" stop-opacity="0.51"/>
</linearGradient>
<linearGradient id="paint7_linear_1067_142" x1="87.7916" y1="21.696" x2="87.7916" y2="52.3586" gradientUnits="userSpaceOnUse">
<stop stop-color="white"/>
<stop offset="1" stop-color="white" stop-opacity="0.51"/>
</linearGradient>
<linearGradient id="paint8_linear_1067_142" x1="223.334" y1="30.8972" x2="223.334" y2="52.5101" gradientUnits="userSpaceOnUse">
<stop stop-color="white"/>
<stop offset="1" stop-color="white" stop-opacity="0.51"/>
</linearGradient>
<linearGradient id="paint9_linear_1067_142" x1="213.791" y1="36.1299" x2="213.791" y2="52.5355" gradientUnits="userSpaceOnUse">
<stop stop-color="white"/>
<stop offset="1" stop-color="white" stop-opacity="0.51"/>
</linearGradient>
<linearGradient id="paint10_linear_1067_142" x1="188.665" y1="30.8972" x2="188.665" y2="52.5101" gradientUnits="userSpaceOnUse">
<stop stop-color="white"/>
<stop offset="1" stop-color="white" stop-opacity="0.51"/>
</linearGradient>
<linearGradient id="paint11_linear_1067_142" x1="244.309" y1="30.5937" x2="244.309" y2="61.3291" gradientUnits="userSpaceOnUse">
<stop stop-color="white"/>
<stop offset="1" stop-color="white" stop-opacity="0.51"/>
</linearGradient>
<linearGradient id="paint12_linear_1067_142" x1="203.225" y1="21.6707" x2="203.225" y2="26.9033" gradientUnits="userSpaceOnUse">
<stop stop-color="white"/>
<stop offset="1" stop-color="white" stop-opacity="0.51"/>
</linearGradient>
<linearGradient id="paint13_linear_1067_142" x1="203.225" y1="30.9226" x2="203.225" y2="52.3333" gradientUnits="userSpaceOnUse">
<stop stop-color="white"/>
<stop offset="1" stop-color="white" stop-opacity="0.51"/>
</linearGradient>
<linearGradient id="paint14_linear_1067_142" x1="276.001" y1="20.6343" x2="276.001" y2="35.8012" gradientUnits="userSpaceOnUse">
<stop stop-color="white"/>
<stop offset="1" stop-color="white" stop-opacity="0.51"/>
</linearGradient>
<linearGradient id="paint15_linear_1067_142" x1="293.405" y1="20.6343" x2="293.405" y2="35.9024" gradientUnits="userSpaceOnUse">
<stop stop-color="white"/>
<stop offset="1" stop-color="white" stop-opacity="0.51"/>
</linearGradient>
</defs>
</svg>
