<svg width="542" height="294" viewBox="0 0 542 294" fill="none" xmlns="http://www.w3.org/2000/svg">
<path fill-rule="evenodd" clip-rule="evenodd" d="M395.516 0H390C390 0.298998 389.86 1.32226 389.562 1.3221C389.264 1.32194 389.02 2.05573 389.02 2.95278C389.019 3.84982 388.776 4.58364 388.477 4.58348C388.18 4.58332 387.936 5.31715 387.935 6.21419C387.935 7.11123 387.691 7.84505 387.393 7.8449C387.095 7.84474 386.851 8.82321 386.851 10.0193C386.85 11.2153 386.606 12.1938 386.308 12.1936C385.971 12.1934 385.765 15.2741 385.762 20.3483C385.76 25.4224 385.553 28.5031 385.217 28.5029C384.916 28.5028 384.675 29.9524 384.674 31.7646C384.673 33.5768 384.431 35.0264 384.131 35.0263C383.821 35.0261 383.588 36.657 383.587 38.8316C383.586 41.0063 383.353 42.6371 383.044 42.637C382.723 42.6368 382.501 44.6301 382.5 47.5296C382.498 50.4291 382.277 52.4225 381.956 52.4223C381.625 52.4221 381.413 54.9591 381.411 58.946C381.409 62.9328 381.197 65.4698 380.866 65.4697C380.527 65.4695 380.323 68.9126 380.32 74.7116C380.317 80.5107 380.113 83.9538 379.774 83.9536C379.424 83.9534 379.229 90.4773 379.223 102.438C379.215 114.398 379.404 120.922 379.754 120.923C380.093 120.923 380.294 124.185 380.291 129.622C380.288 135.058 380.489 138.32 380.828 138.32C381.156 138.321 381.368 140.677 381.366 144.301C381.364 147.925 381.576 150.281 381.904 150.282C382.225 150.282 382.444 152.275 382.443 155.175C382.441 158.074 382.661 160.068 382.982 160.068C383.282 160.068 383.522 161.518 383.521 163.33C383.52 165.143 383.76 166.592 384.061 166.593C384.359 166.593 384.602 167.571 384.601 168.768C384.6 169.964 384.843 170.942 385.141 170.943C385.439 170.943 385.682 171.677 385.682 172.574C385.681 173.471 385.924 174.205 386.222 174.205C386.52 174.205 386.763 174.695 386.763 175.293C386.763 175.891 387.006 176.38 387.304 176.38C387.602 176.38 387.845 177.115 387.844 178.012C387.844 178.909 388.087 179.643 388.385 179.643C388.683 179.643 388.926 180.132 388.925 180.73C388.925 181.328 389.168 181.818 389.466 181.818C389.764 181.818 390.007 182.308 390.007 182.906C390.007 183.504 390.25 183.993 390.548 183.993C390.846 183.993 391.089 184.429 391.089 184.961C391.088 185.493 391.575 186.281 392.17 186.712C392.766 187.144 393.252 187.834 393.252 188.246C393.252 188.658 393.982 189.681 394.875 190.519C395.768 191.358 396.498 192.33 396.498 192.68C396.497 193.544 397.876 194.87 398.775 194.871C399.177 194.871 399.857 195.361 400.286 195.959C400.714 196.557 401.499 197.047 402.029 197.047C402.558 197.048 402.992 197.292 402.991 197.591C402.991 197.924 405.517 198.136 409.487 198.138C413.457 198.141 415.983 197.931 415.984 197.598C415.984 197.299 416.471 197.055 417.067 197.055C417.662 197.056 418.149 196.811 418.15 196.512C418.15 196.213 418.637 195.969 419.233 195.969C419.828 195.969 420.315 195.725 420.316 195.426C420.316 195.127 420.749 194.883 421.279 194.883C421.809 194.883 422.594 194.394 423.023 193.796C423.453 193.199 424.119 192.71 424.504 192.71C425.418 192.71 434.397 183.702 434.397 182.785C434.397 182.398 434.885 181.729 435.481 181.299C436.076 180.868 436.564 180.134 436.564 179.668C436.564 179.202 437.052 178.469 437.648 178.038C438.243 177.607 438.731 176.82 438.731 176.288C438.732 175.756 438.975 175.32 439.273 175.32C439.571 175.321 439.815 174.885 439.815 174.353C439.815 173.821 440.303 173.034 440.899 172.603C441.535 172.143 441.982 171.196 441.983 170.309C441.983 169.478 442.227 168.798 442.525 168.798C442.823 168.798 443.066 168.309 443.067 167.711C443.067 167.113 443.31 166.624 443.609 166.624C443.906 166.624 444.15 166.135 444.151 165.537C444.151 164.939 444.394 164.45 444.692 164.45C444.99 164.45 445.234 163.961 445.234 163.363C445.235 162.765 445.478 162.276 445.776 162.276C446.074 162.276 446.318 161.542 446.318 160.645C446.319 159.748 446.563 159.014 446.861 159.015C447.158 159.015 447.402 158.526 447.403 157.928C447.403 157.33 447.647 156.84 447.945 156.841C448.242 156.841 448.486 156.107 448.487 155.21C448.487 154.313 448.731 153.579 449.029 153.579C449.327 153.579 449.571 152.845 449.571 151.948C449.572 151.051 449.815 150.318 450.113 150.318C450.411 150.318 450.655 149.339 450.656 148.143C450.656 146.947 450.901 145.969 451.198 145.969C451.496 145.969 451.74 144.991 451.741 143.795C451.741 142.599 451.986 141.62 452.283 141.62C452.608 141.62 452.826 139.446 452.828 136.184C452.829 132.922 453.047 130.747 453.372 130.748C453.681 130.748 453.914 129.117 453.915 126.942C453.916 124.768 453.685 123.136 453.376 123.136C453.055 123.136 452.835 121.143 452.837 118.243C452.839 115.344 452.619 113.35 452.298 113.35C452.001 113.35 451.758 112.126 451.758 110.631C451.759 109.136 451.516 107.913 451.219 107.913C450.921 107.912 450.677 107.178 450.678 106.281C450.678 105.384 450.435 104.65 450.138 104.65C449.84 104.65 449.597 103.916 449.597 103.019C449.598 102.122 449.354 101.388 449.057 101.388C448.759 101.387 448.516 100.653 448.516 99.7563C448.517 98.8592 448.273 98.1251 447.976 98.125C447.678 98.1248 447.435 97.6894 447.435 97.1574C447.435 96.6254 446.948 95.8371 446.353 95.4058C445.758 94.9745 445.271 94.1863 445.271 93.6543C445.272 93.1222 445.028 92.6868 444.73 92.6866C444.433 92.6865 444.189 92.2952 444.19 91.8172C444.19 91.3391 443.46 90.2619 442.567 89.4235C441.674 88.5851 440.944 87.6221 440.944 87.2836C440.944 86.4832 437.377 82.8968 436.58 82.8964C436.243 82.8962 435.285 82.1618 434.451 81.2643C433.617 80.3668 432.545 79.6323 432.069 79.632C431.593 79.6318 431.204 79.3871 431.204 79.0879C431.204 78.789 430.717 78.544 430.122 78.5436C429.526 78.5433 429.039 78.2987 429.039 77.9994C429.039 77.7004 428.552 77.4555 427.957 77.4552C427.361 77.4549 426.874 77.2099 426.874 76.911C426.875 76.612 426.144 76.3669 425.251 76.3664C424.358 76.366 423.627 76.1211 423.627 75.8219C423.627 75.523 422.897 75.2778 422.003 75.2774C421.11 75.2769 420.379 75.0321 420.38 74.7329C420.38 74.4339 419.649 74.1888 418.756 74.1884C417.863 74.1879 417.132 73.9431 417.132 73.6438C417.132 73.3448 416.158 73.0997 414.967 73.099C413.776 73.0984 412.802 72.8533 412.802 72.5542C412.802 72.2552 411.828 72.01 410.637 72.0094C409.446 72.0087 408.472 71.7637 408.472 71.4646C408.472 71.1657 407.498 70.9204 406.307 70.9197C405.116 70.9191 404.141 71.1632 404.141 71.4623C404.141 71.7613 403.654 72.0057 403.058 72.0054C402.177 72.0049 401.975 72.3671 401.974 73.9465C401.973 76.0024 402.96 77.4419 404.37 77.4427C404.838 77.4429 405.22 77.6876 405.22 77.9868C405.22 78.2857 405.707 78.5307 406.303 78.531C406.898 78.5314 407.385 78.7763 407.385 79.0753C407.385 79.3742 408.116 79.6194 409.009 79.6198C409.902 79.6203 410.633 79.8651 410.632 80.1643C410.632 80.4633 411.119 80.7082 411.715 80.7085C412.31 80.7089 412.797 80.9538 412.797 81.2528C412.797 81.5518 413.528 81.7969 414.421 81.7973C415.314 81.7978 416.045 82.0426 416.045 82.3419C416.045 82.6408 416.532 82.8858 417.127 82.8861C417.723 82.8864 418.21 83.131 418.21 83.4303C418.209 83.7292 418.696 83.9742 419.292 83.9746C419.887 83.9749 420.375 84.2195 420.374 84.5188C420.374 84.8177 420.861 85.0627 421.457 85.063C422.052 85.0633 422.539 85.3083 422.539 85.6072C422.539 85.9062 423.026 86.1512 423.622 86.1515C424.217 86.1518 424.704 86.3964 424.704 86.6957C424.704 86.9947 425.191 87.2396 425.786 87.24C426.382 87.2403 426.869 87.4853 426.869 87.7842C426.869 88.0832 427.24 88.3281 427.695 88.3283C428.702 88.3288 433.362 92.9153 433.362 93.9054C433.361 94.2958 433.848 94.9681 434.443 95.3995C435.039 95.8308 435.525 96.619 435.525 97.1511C435.525 97.6831 435.768 98.1185 436.066 98.1187C436.364 98.1188 436.607 98.6083 436.607 99.2063C436.607 99.8043 436.85 100.294 437.148 100.294C437.445 100.294 437.689 100.784 437.688 101.382C437.688 101.98 437.931 102.469 438.229 102.469C438.527 102.469 438.77 103.203 438.77 104.1C438.769 104.997 439.013 105.732 439.31 105.732C439.608 105.732 439.851 106.221 439.851 106.819C439.851 107.417 440.094 107.907 440.392 107.907C440.689 107.907 440.932 108.886 440.932 110.082C440.931 111.278 441.174 112.257 441.472 112.257C441.812 112.257 442.012 115.7 442.008 121.499C442.005 127.298 441.802 130.742 441.462 130.741C441.164 130.741 440.92 131.964 440.919 133.459C440.919 134.954 440.674 136.178 440.377 136.177C440.079 136.177 439.835 136.911 439.834 137.808C439.834 138.705 439.59 139.439 439.292 139.439C438.994 139.439 438.75 140.172 438.75 141.069C438.75 141.967 438.506 142.7 438.208 142.7C437.91 142.7 437.666 143.434 437.666 144.331C437.665 145.228 437.421 145.962 437.123 145.962C436.826 145.961 436.582 146.695 436.581 147.592C436.581 148.489 436.337 149.223 436.039 149.223C435.741 149.223 435.497 149.712 435.497 150.31C435.497 150.908 435.253 151.397 434.955 151.397C434.657 151.397 434.414 151.886 434.413 152.484C434.413 153.082 434.169 153.571 433.871 153.571C433.574 153.571 433.33 154.06 433.329 154.658C433.329 155.256 433.085 155.745 432.787 155.745C432.49 155.745 432.246 156.234 432.246 156.832C432.245 157.43 432.001 157.919 431.704 157.919C431.406 157.919 431.162 158.354 431.162 158.886C431.162 159.418 430.674 160.206 430.078 160.637C429.482 161.067 428.995 161.757 428.995 162.169C428.994 162.581 428.263 163.604 427.369 164.441C426.476 165.278 425.744 166.237 425.744 166.571C425.744 167.421 418.878 174.222 418.02 174.222C417.634 174.222 416.966 174.711 416.537 175.308C416.107 175.906 415.343 176.395 414.838 176.395C414.333 176.395 413.777 176.7 413.604 177.074C413.351 177.617 413.224 177.617 412.972 177.073C412.799 176.699 411.703 176.393 410.536 176.393C409.37 176.392 408.416 176.147 408.416 175.848C408.416 175.549 408.04 175.304 407.58 175.304C406.497 175.303 404.087 172.88 404.088 171.793C404.088 171.331 403.845 170.952 403.547 170.952C403.249 170.952 403.006 170.517 403.006 169.985C403.006 169.453 402.52 168.665 401.924 168.233C401.289 167.773 400.842 166.825 400.843 165.938C400.843 165.107 400.6 164.427 400.302 164.427C400.004 164.426 399.761 163.937 399.762 163.339C399.762 162.741 399.519 162.252 399.221 162.251C398.923 162.251 398.68 161.273 398.681 160.076C398.681 158.88 398.438 157.902 398.14 157.901C397.843 157.901 397.6 156.923 397.6 155.727C397.601 154.531 397.358 153.552 397.06 153.552C396.759 153.551 396.519 152.102 396.52 150.289C396.521 148.477 396.282 147.027 395.981 147.027C395.665 147.027 395.44 145.215 395.442 142.678C395.443 140.14 395.218 138.328 394.903 138.328C394.578 138.328 394.363 136.153 394.364 132.891C394.366 129.629 394.151 127.454 393.826 127.454C393.492 127.454 393.286 124.736 393.288 120.386C393.29 116.037 393.084 113.318 392.751 113.318C392.415 113.318 392.211 110.418 392.213 105.707C392.216 100.995 392.011 98.0953 391.676 98.0952C391.338 98.095 391.136 94.8329 391.139 89.3963C391.142 83.9597 390.941 80.6976 390.602 80.6974C390.26 80.6972 390.063 76.8915 390.067 70.3676C390.07 63.8436 390.271 60.038 390.613 60.0382C390.941 60.0384 391.156 57.6827 391.158 54.0583C391.16 50.4338 391.374 48.0781 391.702 48.0782C392.031 48.0784 392.245 45.7227 392.247 42.0982C392.249 38.4738 392.037 36.1178 391.709 36.1176C391.372 36.1175 391.169 33.0366 391.172 27.9624C391.174 22.8882 391.38 19.8076 391.717 19.8078C392.015 19.8079 392.259 18.5848 392.26 17.0897C392.261 15.5947 392.506 14.3716 392.803 14.3717C393.101 14.3719 393.345 13.6381 393.345 12.741C393.346 11.844 393.589 11.1102 393.887 11.1103C394.185 11.1105 394.429 9.88735 394.43 8.39228C394.431 6.8972 394.675 5.67409 394.973 5.67424C395.271 5.6744 395.515 4.45131 395.516 2.95624V0ZM141.007 3.57628e-06H228.641C202.575 0.0138005 173.361 0.0171493 141.007 3.57628e-06ZM367.212 292.713C365.408 292.712 363.964 292.953 363.964 293.255C363.964 293.555 363.477 293.799 362.881 293.798C362.286 293.798 361.798 293.553 361.799 293.254C361.799 292.952 360.355 292.71 358.551 292.709C356.746 292.708 355.303 292.465 355.303 292.163C355.303 291.864 354.816 291.62 354.221 291.619C353.625 291.619 353.138 291.374 353.138 291.075C353.138 290.776 352.769 290.531 352.318 290.531C351.866 290.531 349.675 288.699 347.448 286.46C345.221 284.221 343.399 282.018 343.399 281.564C343.399 281.111 343.156 280.74 342.858 280.74C342.56 280.74 342.317 280.006 342.318 279.109C342.318 278.212 342.075 277.478 341.777 277.477C341.479 277.477 341.236 276.498 341.237 275.302C341.238 274.106 340.995 273.128 340.697 273.128C340.369 273.127 340.157 270.771 340.159 267.147C340.161 263.522 340.375 261.167 340.703 261.167C341.001 261.167 341.245 260.433 341.245 259.536C341.246 258.639 341.49 257.905 341.788 257.906C342.085 257.906 342.329 257.172 342.33 256.275C342.33 255.378 342.574 254.644 342.872 254.644C343.17 254.644 343.414 254.209 343.414 253.677C343.414 253.145 343.902 252.357 344.498 251.927C345.093 251.496 345.581 250.824 345.581 250.434C345.582 249.444 350.247 244.862 351.254 244.863C351.708 244.863 352.08 244.618 352.08 244.319C352.081 244.02 352.568 243.776 353.163 243.776C353.759 243.777 354.246 243.532 354.246 243.233C354.247 242.934 354.977 242.69 355.871 242.69C356.764 242.691 357.495 242.447 357.495 242.148C357.495 241.815 360.022 241.605 363.991 241.607C367.961 241.61 370.487 241.822 370.487 242.155C370.487 242.453 370.974 242.698 371.57 242.699C372.165 242.699 372.652 242.944 372.652 243.243C372.652 243.542 373.139 243.787 373.734 243.787C374.33 243.788 374.817 244.032 374.817 244.331C374.817 244.631 375.187 244.875 375.64 244.876C376.712 244.876 382.392 250.586 382.392 251.663C382.392 252.118 382.635 252.491 382.933 252.491C383.23 252.491 383.474 252.98 383.473 253.578C383.473 254.176 383.716 254.666 384.014 254.666C384.312 254.666 384.555 255.4 384.555 256.297C384.554 257.194 384.797 257.928 385.095 257.928C385.404 257.929 385.636 259.56 385.634 261.734C385.633 263.909 385.864 265.54 386.174 265.54C386.472 265.54 386.715 266.275 386.714 267.172C386.714 268.069 386.47 268.802 386.172 268.802C385.863 268.802 385.63 270.433 385.629 272.608C385.628 274.782 385.395 276.413 385.085 276.413C384.787 276.413 384.544 277.147 384.543 278.044C384.543 278.941 384.299 279.675 384.001 279.674C383.703 279.674 383.459 280.163 383.459 280.761C383.459 281.359 383.215 281.849 382.917 281.848C382.619 281.848 382.376 282.221 382.375 282.676C382.375 283.683 376.722 289.456 375.736 289.456C375.349 289.456 374.681 289.945 374.251 290.542C373.792 291.181 372.849 291.629 371.966 291.629C371.138 291.628 370.461 291.872 370.461 292.171C370.461 292.474 369.017 292.714 367.212 292.713ZM356.645 286.184C357.1 286.184 357.471 286.429 357.471 286.728C357.471 287.054 359.636 287.273 362.884 287.274C366.133 287.276 368.298 287.06 368.298 286.734C368.298 286.434 368.786 286.19 369.381 286.191C369.977 286.191 370.464 285.946 370.464 285.647C370.464 285.348 370.841 285.104 371.301 285.104C372.324 285.105 374.796 282.709 374.797 281.717C374.797 281.321 375.285 280.645 375.88 280.214C376.517 279.754 376.964 278.807 376.964 277.92C376.965 277.089 377.209 276.409 377.507 276.409C377.805 276.409 378.048 275.675 378.049 274.778C378.049 273.881 378.293 273.147 378.591 273.148C378.916 273.148 379.133 270.973 379.135 267.711C379.137 264.449 378.921 262.274 378.597 262.274C378.299 262.274 378.056 261.296 378.056 260.099C378.057 258.903 377.814 257.925 377.516 257.924C377.219 257.924 376.975 257.308 376.976 256.555C376.977 255.017 370.573 248.135 369.141 248.134C368.689 248.134 368.319 247.889 368.319 247.59C368.319 247.268 366.334 247.045 363.447 247.044C360.56 247.042 358.575 247.263 358.575 247.585C358.575 247.884 358.141 248.128 357.611 248.128C357.082 248.128 356.297 248.617 355.867 249.214C355.438 249.812 354.757 250.301 354.355 250.301C353.413 250.3 352.076 251.641 352.076 252.587C352.076 252.991 351.588 253.674 350.992 254.105C350.397 254.535 349.909 255.323 349.909 255.855C349.909 256.387 349.665 256.822 349.367 256.822C349.069 256.822 348.825 257.801 348.825 258.997C348.824 260.193 348.58 261.171 348.282 261.171C347.951 261.171 347.739 263.708 347.737 267.695C347.735 271.682 347.944 274.219 348.275 274.219C348.573 274.219 348.816 274.953 348.816 275.85C348.815 276.747 349.058 277.481 349.356 277.481C349.654 277.482 349.897 277.971 349.897 278.569C349.897 279.167 350.14 279.656 350.438 279.657C350.735 279.657 350.979 280.03 350.978 280.487C350.978 280.943 352.067 282.412 353.399 283.75C354.73 285.088 356.191 286.184 356.645 286.184ZM334.5 291.609C334.032 291.608 333.65 291.853 333.649 292.152C333.649 292.493 330.221 292.694 324.446 292.691C318.672 292.688 315.244 292.483 315.244 292.142C315.244 291.843 314.757 291.598 314.162 291.598C313.566 291.598 313.079 291.353 313.079 291.054C313.079 290.754 312.402 290.51 311.575 290.509C310.691 290.509 309.749 290.059 309.291 289.421C308.862 288.822 308.182 288.333 307.78 288.333C306.881 288.332 305.503 287.006 305.503 286.142C305.503 285.792 304.773 284.82 303.88 283.981C302.987 283.143 302.257 282.066 302.257 281.588C302.258 281.11 302.014 280.718 301.716 280.718C301.419 280.718 301.175 280.229 301.176 279.63C301.176 279.032 300.933 278.543 300.635 278.543C300.337 278.543 300.094 277.564 300.095 276.368C300.095 275.172 299.852 274.193 299.554 274.193C299.224 274.193 299.015 271.656 299.017 267.669C299.019 263.682 299.231 261.145 299.561 261.145C299.859 261.145 300.103 260.167 300.104 258.971C300.105 257.775 300.349 256.796 300.646 256.796C300.944 256.796 301.188 256.307 301.188 255.709C301.189 255.111 301.432 254.622 301.73 254.622C302.028 254.622 302.272 254.187 302.272 253.655C302.272 253.123 302.76 252.336 303.356 251.905C303.951 251.474 304.439 250.798 304.439 250.402C304.44 249.468 306.886 247.014 307.816 247.014C308.21 247.014 308.884 246.526 309.314 245.928C309.743 245.33 310.528 244.841 311.058 244.841C311.588 244.842 312.021 244.597 312.021 244.298C312.021 243.999 312.509 243.755 313.104 243.755C313.7 243.755 314.187 243.511 314.187 243.212C314.187 242.913 314.918 242.669 315.812 242.669C316.705 242.67 317.436 242.425 317.436 242.126C317.436 241.79 320.323 241.584 325.015 241.587C329.707 241.589 332.594 241.798 332.593 242.134C332.593 242.434 333.22 242.678 333.985 242.679C335.675 242.68 336.923 243.83 336.922 245.385C336.922 246.752 334.136 249.784 333.803 248.779C333.682 248.414 332.872 248.115 332.004 248.114C331.135 248.114 330.425 247.869 330.425 247.57C330.425 247.244 328.26 247.025 325.012 247.023C321.764 247.022 319.598 247.238 319.598 247.564C319.598 247.863 318.867 248.107 317.974 248.107C317.081 248.107 316.35 248.351 316.35 248.65C316.35 248.949 315.979 249.193 315.526 249.193C314.453 249.192 308.768 254.897 308.767 255.973C308.767 256.428 308.523 256.801 308.225 256.8C307.928 256.8 307.683 257.534 307.683 258.431C307.683 259.328 307.439 260.062 307.141 260.062C306.806 260.062 306.598 262.961 306.595 267.673C306.593 272.385 306.797 275.284 307.133 275.284C307.431 275.285 307.674 275.965 307.673 276.796C307.673 277.683 308.119 278.63 308.755 279.091C309.35 279.522 309.837 280.199 309.837 280.595C309.836 281.588 312.306 283.986 313.329 283.986C313.789 283.986 314.165 284.231 314.165 284.53C314.165 284.829 314.652 285.074 315.248 285.075C315.843 285.075 316.33 285.32 316.33 285.619C316.33 285.918 316.817 286.163 317.413 286.163C318.008 286.163 318.495 286.408 318.495 286.707C318.495 287.04 321.021 287.252 324.991 287.254C328.961 287.257 331.487 287.046 331.487 286.714C331.487 286.415 332.462 286.171 333.653 286.172C335.457 286.173 335.818 286.354 335.818 287.26C335.817 287.858 336.061 288.348 336.358 288.348C337.162 288.348 337.012 289.942 336.125 290.833C335.699 291.26 334.968 291.609 334.5 291.609ZM401.561 270.674C400.943 271.294 400.785 273.594 400.781 282.091L400.775 292.727L398.204 292.708C396.685 292.695 395.356 292.37 394.956 291.914C393.892 290.698 394.009 243.473 395.079 242.399C395.703 241.773 398.173 241.626 407.84 241.629C417.216 241.634 420.097 241.627 420.981 242.951C421.379 243.548 421.372 244.415 421.371 245.675L421.37 248.161L411.858 248.157C404.336 248.153 402.184 248.314 401.572 248.928C400.46 250.043 400.454 262.568 401.564 263.684C402.172 264.295 404.255 264.463 411.308 264.466L420.279 264.47L420.277 267.188L420.276 269.907L411.305 269.903C404.252 269.899 402.169 270.064 401.561 270.674ZM437.593 280.557C437.589 289.054 437.432 291.354 436.814 291.974C435.813 292.977 431.573 292.949 430.682 291.933C429.618 290.717 429.735 243.492 430.805 242.418C431.43 241.791 433.93 241.645 443.798 241.648C451.583 241.653 456.017 241.852 456.016 242.199C456.016 242.498 456.503 242.743 457.099 242.743C457.979 242.743 458.181 243.106 458.181 244.685C458.179 248.04 457.736 248.178 447.12 248.174L437.608 248.17L437.604 256.325L437.6 264.48L446.803 264.484L456.006 264.488L456.004 267.206L456.003 269.924L446.8 269.921L437.597 269.917L437.593 280.557ZM494.069 286.902C494.649 287.486 494.972 288.699 494.971 290.296L494.97 292.78L480.895 292.773L466.82 292.765L466.831 267.99C466.842 247.242 466.97 243.088 467.618 242.438C468.242 241.812 470.712 241.664 480.379 241.668C493.572 241.675 493.912 241.757 493.911 244.937C493.909 248.034 493.347 248.197 482.85 248.193L473.338 248.189L473.334 255.801L473.33 263.412L483.075 263.416L492.819 263.419L492.817 266.138L492.816 268.856L483.072 268.852L473.328 268.849L473.324 277.314C473.32 283.926 473.489 285.95 474.092 286.557C475.141 287.611 492.593 287.715 492.941 286.669C493.104 286.178 493.412 286.242 494.069 286.902ZM531.783 289.306C531.782 290.374 531.433 291.597 531.008 292.024C529.871 293.162 504.226 293.115 503.224 291.971C502.159 290.755 502.277 243.53 503.347 242.456C503.973 241.828 506.513 241.683 516.649 241.687C530.433 241.694 530.724 241.762 530.722 244.956C530.72 248.053 530.159 248.216 519.661 248.212L510.149 248.209L510.146 255.82L510.142 263.431L519.113 263.435C529.136 263.44 529.63 263.604 529.628 266.935L529.627 268.877L519.883 268.873L510.139 268.87L510.135 277.335C510.132 283.947 510.3 285.971 510.904 286.578C511.518 287.195 513.739 287.356 521.73 287.36L531.784 287.364L531.783 289.306ZM266.57 203.252C266.57 203.714 265.971 204.693 265.24 205.426C263.736 206.935 260.775 207.211 259.666 205.945C258.863 205.027 258.756 201.321 259.533 201.321C259.832 201.321 260.075 200.886 260.075 200.354C260.076 199.822 260.563 199.034 261.159 198.604C261.755 198.173 262.242 197.483 262.242 197.071C262.243 196.659 262.974 195.637 263.868 194.8C264.761 193.962 265.493 192.886 265.493 192.408C265.493 191.93 265.737 191.538 266.035 191.539C266.332 191.539 266.576 191.05 266.577 190.452C266.577 189.854 266.821 189.365 267.119 189.365C267.416 189.365 267.66 188.876 267.661 188.278C267.661 187.68 267.905 187.19 268.202 187.191C268.5 187.191 268.744 186.457 268.745 185.56C268.745 184.663 268.989 183.929 269.287 183.929C269.585 183.929 269.829 183.196 269.829 182.298C269.83 181.401 270.073 180.668 270.371 180.668C270.669 180.668 270.913 179.445 270.914 177.95C270.915 176.455 271.159 175.232 271.457 175.232C271.766 175.232 271.999 173.601 272 171.426C272.001 169.252 272.234 167.621 272.544 167.621C272.859 167.621 273.086 165.809 273.087 163.272C273.089 160.735 272.864 158.923 272.548 158.922C272.247 158.922 272.008 157.472 272.009 155.66C272.01 153.848 271.77 152.398 271.469 152.398C271.171 152.398 270.928 151.419 270.929 150.223C270.929 149.027 270.686 148.048 270.389 148.048C270.09 148.048 269.847 147.558 269.848 146.96C269.848 146.362 269.605 145.873 269.307 145.873C269.01 145.873 268.766 145.437 268.766 144.905C268.766 144.373 268.28 143.585 267.684 143.154C267.089 142.722 266.602 141.934 266.603 141.402C266.603 140.87 266.36 140.435 266.062 140.434C265.764 140.434 265.521 139.999 265.521 139.467C265.521 138.935 265.034 138.147 264.439 137.715C263.844 137.284 263.357 136.594 263.357 136.182C263.358 135.77 262.627 134.747 261.735 133.908C260.842 133.07 260.111 132.112 260.112 131.779C260.112 130.931 249.999 120.854 249.146 120.854C248.762 120.853 248.096 120.364 247.667 119.766C247.238 119.167 246.454 118.678 245.924 118.677C245.394 118.677 244.961 118.432 244.961 118.133C244.961 117.834 244.474 117.589 243.879 117.589C243.283 117.588 242.796 117.344 242.796 117.045C242.797 116.746 242.31 116.501 241.714 116.5C241.119 116.5 240.632 116.255 240.632 115.956C240.632 115.657 240.145 115.412 239.549 115.412C238.954 115.412 238.467 115.167 238.467 114.868C238.467 114.568 237.79 114.324 236.963 114.323C236.079 114.323 235.136 113.873 234.678 113.235C234.249 112.636 233.465 112.147 232.935 112.146C232.406 112.146 231.972 111.901 231.972 111.602C231.973 111.303 231.539 111.058 231.01 111.058C230.48 111.058 229.696 110.568 229.267 109.97C228.838 109.372 228.171 108.882 227.786 108.882C226.801 108.881 218.986 100.918 218.986 99.9153C218.987 99.462 218.743 99.0909 218.446 99.0908C218.13 99.0906 217.905 97.2783 217.906 94.7412C217.908 92.2041 218.134 90.392 218.45 90.3922C218.748 90.3924 218.992 89.4139 218.993 88.2178C218.993 87.0217 219.237 86.0433 219.535 86.0434C219.833 86.0436 220.077 85.5545 220.077 84.9565C220.077 84.3584 220.321 83.8692 220.619 83.8694C220.917 83.8695 221.161 83.2389 221.161 82.4679C221.162 81.5432 221.899 80.3555 223.328 78.9779C224.52 77.8293 225.495 76.6084 225.495 76.2645C225.496 75.4523 226.864 74.0868 227.676 74.0872C228.025 74.0874 228.993 73.354 229.828 72.4573C230.663 71.5608 231.735 70.8274 232.211 70.8276C232.687 70.8279 233.077 70.5834 233.077 70.2844C233.077 69.9854 233.511 69.741 234.041 69.7413C234.57 69.7416 235.355 69.2527 235.785 68.6549C236.214 68.0571 236.999 67.5682 237.529 67.5685C238.059 67.5688 238.492 67.3243 238.492 67.0253C238.492 66.7263 239.223 66.482 240.117 66.4825C241.01 66.483 241.741 66.2387 241.741 65.9397C241.741 65.6404 242.228 65.3963 242.824 65.3966C243.419 65.3969 243.907 65.1525 243.907 64.8536C243.907 64.5545 244.638 64.3103 245.531 64.3107C246.424 64.3112 247.155 64.0669 247.155 63.7679C247.156 63.4688 248.13 63.2248 249.321 63.2254C250.512 63.226 251.487 62.9819 251.487 62.6829C251.487 62.3838 252.462 62.1398 253.652 62.1404C254.843 62.141 255.818 61.8968 255.818 61.5979C255.818 61.2989 256.549 61.0546 257.442 61.0551C258.336 61.0556 259.067 60.8112 259.067 60.5123C259.067 60.2131 260.285 59.9692 261.774 59.97C263.262 59.9708 264.481 59.7268 264.481 59.4278C264.481 58.6026 267.16 58.7794 268.038 59.6625C268.463 60.0899 268.811 61.2085 268.81 62.1483C268.809 63.9965 267.769 65.4097 266.411 65.409C265.943 65.4087 265.56 65.6532 265.56 65.9522C265.56 66.2515 265.073 66.4956 264.477 66.4953C263.882 66.495 263.394 66.7394 263.394 67.0384C263.394 67.3373 262.907 67.5818 262.311 67.5815C261.716 67.5811 261.228 67.8256 261.228 68.1246C261.228 68.4238 260.741 68.6679 260.145 68.6676C259.55 68.6673 259.062 68.9118 259.062 69.2107C259.062 69.5098 258.087 69.7539 256.896 69.7532C255.705 69.7526 254.731 69.9968 254.731 70.2958C254.731 70.5948 254 70.839 253.107 70.8386C252.213 70.8381 251.482 71.0824 251.482 71.3814C251.482 71.6807 250.995 71.9248 250.399 71.9245C249.804 71.9241 249.316 72.1686 249.316 72.4675C249.316 72.7666 248.945 73.011 248.492 73.0108C247.42 73.0102 241.734 78.7144 241.734 79.7911C241.733 80.2463 241.49 80.6183 241.192 80.6182C240.894 80.618 240.65 81.3518 240.65 82.2489C240.649 83.1459 240.405 83.8798 240.107 83.8796C239.81 83.8794 239.565 84.8579 239.565 86.0539C239.564 87.25 239.32 88.2284 239.022 88.2283C238.725 88.2281 238.481 88.7173 238.48 89.3154C238.48 89.9134 238.723 90.4028 239.021 90.4029C239.319 90.4031 239.562 91.5095 239.561 92.8615C239.56 95.1152 239.807 95.5679 242.524 98.2997C244.154 99.9387 245.859 101.28 246.312 101.28C246.765 101.28 247.135 101.525 247.135 101.824C247.135 102.123 247.622 102.368 248.218 102.368C248.813 102.369 249.3 102.614 249.3 102.913C249.3 103.212 249.977 103.457 250.804 103.457C251.688 103.458 252.631 103.907 253.089 104.546C253.517 105.144 254.302 105.634 254.832 105.634C255.361 105.634 255.795 105.879 255.794 106.178C255.794 106.477 256.281 106.722 256.877 106.722C257.472 106.723 257.959 106.968 257.959 107.267C257.959 107.566 258.392 107.81 258.922 107.811C259.452 107.811 260.236 108.301 260.665 108.899C261.094 109.497 261.825 109.987 262.289 109.987C262.753 109.987 263.483 110.477 263.912 111.075C264.341 111.674 265.023 112.163 265.427 112.163C265.831 112.164 267.097 113.143 268.241 114.34C269.385 115.536 270.594 116.515 270.929 116.516C271.718 116.516 274.193 119.004 274.193 119.797C274.193 120.133 275.167 121.349 276.357 122.499C277.547 123.649 278.521 124.922 278.521 125.327C278.521 125.733 279.007 126.418 279.603 126.85C280.198 127.281 280.685 128.069 280.684 128.601C280.684 129.133 280.927 129.569 281.225 129.569C281.523 129.569 281.766 130.059 281.766 130.657C281.766 131.255 282.009 131.744 282.307 131.744C282.605 131.744 282.848 132.234 282.848 132.832C282.847 133.43 283.09 133.919 283.388 133.919C283.686 133.92 283.929 134.654 283.929 135.551C283.928 136.448 284.171 137.182 284.469 137.182C284.767 137.182 285.01 138.161 285.009 139.357C285.009 140.553 285.252 141.532 285.55 141.532C285.892 141.532 286.089 145.338 286.085 151.862C286.082 158.386 285.881 162.191 285.539 162.191C285.238 162.191 284.997 163.641 284.996 165.453C284.995 167.265 284.753 168.715 284.453 168.714C284.155 168.714 283.911 169.693 283.91 170.889C283.909 172.085 283.665 173.063 283.368 173.063C283.07 173.063 282.826 173.797 282.825 174.694C282.825 175.591 282.581 176.325 282.283 176.325C281.985 176.324 281.741 177.058 281.741 177.955C281.74 178.852 281.497 179.586 281.199 179.586C280.901 179.586 280.657 180.075 280.657 180.673C280.656 181.271 280.413 181.76 280.115 181.76C279.818 181.76 279.573 182.249 279.573 182.847C279.573 183.445 279.329 183.934 279.031 183.934C278.733 183.934 278.489 184.423 278.489 185.021C278.489 185.619 278.245 186.108 277.947 186.108C277.65 186.108 277.406 186.597 277.405 187.195C277.405 187.793 277.161 188.282 276.863 188.282C276.566 188.282 276.322 188.771 276.321 189.369C276.321 189.967 276.077 190.457 275.78 190.456C275.482 190.456 275.238 190.839 275.238 191.307C275.237 191.775 274.019 193.348 272.529 194.804C271.04 196.259 269.821 197.779 269.821 198.181C269.82 198.583 269.333 199.264 268.737 199.695C268.141 200.126 267.654 200.913 267.654 201.445C267.653 201.977 267.41 202.413 267.112 202.412C266.814 202.412 266.57 202.79 266.57 203.252ZM191.867 198.32C191.867 199.081 191.268 200.304 190.537 201.037C189.806 201.771 188.892 202.357 188.506 202.338C187.325 202.281 185.37 199.77 185.371 198.311C185.371 197.553 185.128 196.933 184.83 196.932C184.533 196.932 184.289 195.954 184.29 194.757C184.291 193.561 184.535 192.583 184.833 192.583C185.133 192.583 185.375 191.134 185.376 189.321L185.377 186.059L183.753 186.059C182.86 186.058 182.129 185.813 182.13 185.514C182.13 185.212 180.686 184.97 178.882 184.969C177.077 184.968 175.634 184.725 175.634 184.423C175.634 184.124 175.147 183.879 174.552 183.879C173.956 183.879 173.469 183.634 173.469 183.335C173.469 183.036 172.739 182.791 171.846 182.79C170.952 182.79 170.222 182.545 170.222 182.246C170.222 181.947 169.735 181.702 169.139 181.702C168.544 181.701 168.057 181.456 168.057 181.157C168.057 180.858 167.57 180.613 166.975 180.613C166.379 180.613 165.892 180.368 165.892 180.069C165.892 179.77 165.405 179.525 164.81 179.525C164.214 179.524 163.727 179.279 163.727 178.98C163.728 178.681 163.241 178.436 162.645 178.436C162.05 178.436 161.562 178.191 161.563 177.892C161.563 177.593 161.076 177.348 160.48 177.348C159.885 177.347 159.398 177.102 159.398 176.803C159.398 176.504 158.911 176.26 158.315 176.259C157.72 176.259 157.233 176.014 157.233 175.715C157.233 175.416 156.746 175.171 156.151 175.171C155.555 175.17 155.068 174.925 155.068 174.626C155.068 174.328 154.581 174.083 153.986 174.082C153.39 174.082 152.903 173.837 152.903 173.538C152.904 173.239 152.47 172.994 151.941 172.994C151.411 172.994 150.626 172.504 150.198 171.906C149.769 171.307 149.038 170.818 148.574 170.817C148.11 170.817 147.38 170.327 146.951 169.729C146.522 169.131 145.835 168.641 145.425 168.641C145.015 168.641 143.997 167.906 143.163 167.009C142.329 166.111 141.371 165.377 141.034 165.377C140.121 165.376 136.669 161.734 136.67 160.771C136.67 160.313 136.427 159.938 136.129 159.938C135.831 159.937 135.588 158.959 135.589 157.763C135.589 156.567 135.346 155.588 135.049 155.588C134.728 155.588 134.508 153.594 134.51 150.694C134.511 147.795 134.292 145.801 133.971 145.801C133.662 145.801 133.431 144.17 133.432 141.995C133.433 139.821 133.202 138.189 132.892 138.189C132.595 138.189 132.352 137.21 132.352 136.014C132.353 134.818 132.11 133.84 131.812 133.839C131.514 133.839 131.271 132.616 131.272 131.121C131.273 129.626 131.517 128.403 131.815 128.403C132.113 128.403 132.357 127.669 132.357 126.772C132.358 125.875 132.602 125.141 132.899 125.141C133.197 125.142 133.441 124.652 133.441 124.054C133.442 123.456 133.685 122.967 133.983 122.967C134.281 122.967 134.525 122.532 134.525 122C134.525 121.468 135.013 120.681 135.609 120.25C136.204 119.819 136.692 119.031 136.692 118.499C136.693 117.967 136.936 117.532 137.234 117.532C137.532 117.533 137.776 117.097 137.776 116.565C137.776 116.033 138.264 115.246 138.86 114.815C139.496 114.355 139.943 113.408 139.944 112.521C139.944 111.69 140.188 111.01 140.486 111.01C140.783 111.01 141.027 110.381 141.028 109.613C141.029 108.165 142.125 106.662 143.181 106.662C143.973 106.663 146.444 104.173 146.445 103.373C146.445 103.031 147.176 102.066 148.07 101.228C148.963 100.391 149.695 99.4255 149.695 99.0835C149.695 98.1686 152.219 95.7939 153.191 95.7944C153.651 95.7946 154.027 95.5501 154.028 95.2511C154.028 94.9518 154.515 94.7077 155.111 94.7081C155.706 94.7084 156.193 94.464 156.194 94.165C156.194 93.866 156.925 93.6217 157.818 93.6222C158.711 93.6227 159.442 93.3783 159.442 93.0794C159.442 92.7804 160.173 92.5361 161.066 92.5366C161.96 92.537 162.691 92.2928 162.691 91.9938C162.691 91.6947 163.666 91.4506 164.857 91.4513C166.047 91.4519 167.022 91.2077 167.022 90.9087C167.022 90.6097 167.753 90.3655 168.646 90.3659C169.54 90.3664 170.271 90.1221 170.271 89.8231C170.271 89.5241 171.002 89.2799 171.895 89.2803C172.788 89.2808 173.519 89.0365 173.519 88.7375C173.52 88.4384 174.738 88.1945 176.226 88.1953C177.715 88.1961 178.933 87.9521 178.933 87.6531C178.934 87.354 179.908 87.1099 181.099 87.1106C182.29 87.1112 183.265 86.867 183.265 86.568C183.265 86.269 183.996 86.0248 184.889 86.0252C185.782 86.0257 186.513 85.7814 186.513 85.4824C186.514 85.1834 187.245 84.9392 188.138 84.9397L189.762 84.9405L189.764 80.0475C189.766 77.148 189.987 75.1547 190.308 75.1549C190.606 75.155 190.85 73.9319 190.851 72.4369C190.852 70.9418 191.096 69.7186 191.394 69.7188C191.692 69.7189 191.936 69.0993 191.936 68.3418C191.937 66.8104 195.158 63.1968 196.522 63.1976C196.979 63.1978 197.352 62.9534 197.352 62.6544C197.353 61.847 198.94 61.9972 199.827 62.8887C200.441 63.5064 200.599 65.7369 200.595 73.7624L200.589 83.859L203.837 83.8607C205.642 83.8617 207.086 83.6207 207.086 83.3187C207.086 83.0195 207.573 82.7753 208.169 82.7757C208.764 82.776 209.251 83.0209 209.251 83.3199C209.251 83.6192 209.738 83.8638 210.333 83.8641C211.176 83.8646 211.416 84.2271 211.415 85.4957C211.415 86.3927 211.658 87.1268 211.956 87.127C212.253 87.1271 212.497 88.1058 212.496 89.3019L212.495 91.4766L206.54 91.4734L200.585 91.4703L200.582 96.9069C200.581 100.169 200.363 102.343 200.038 102.343C199.697 102.343 199.495 105.967 199.492 112.129C199.488 118.29 199.687 121.915 200.028 121.915C200.377 121.915 200.566 127.896 200.56 138.769C200.554 149.642 200.359 155.622 200.01 155.622C199.685 155.622 199.467 157.796 199.466 161.058C199.464 164.32 199.246 166.495 198.921 166.495C198.621 166.495 198.379 167.944 198.378 169.757C198.377 171.569 198.136 173.018 197.835 173.018C197.538 173.018 197.293 173.996 197.293 175.193C197.292 176.389 197.048 177.367 196.75 177.367C196.453 177.367 196.209 177.856 196.208 178.454C196.208 179.179 196.569 179.541 197.29 179.542C197.886 179.542 198.373 179.787 198.373 180.086C198.373 180.412 200.538 180.631 203.786 180.633C207.034 180.634 209.199 180.853 209.199 181.179C209.199 181.478 209.686 181.723 210.282 181.723C211.594 181.724 211.797 184.085 210.589 185.296C209.668 186.22 199.452 186.429 199.453 185.523C199.453 185.224 198.479 184.979 197.288 184.978C195.483 184.977 195.122 185.158 195.122 186.064C195.121 186.662 194.878 187.152 194.58 187.151C194.282 187.151 194.038 188.374 194.037 189.869C194.036 191.364 193.792 192.588 193.494 192.587C193.196 192.587 192.952 193.566 192.952 194.762C192.951 195.958 192.707 196.936 192.409 196.936C192.111 196.936 191.868 197.559 191.867 198.32ZM177.558 175.182C178.641 175.182 181.051 177.605 181.051 178.693C181.05 179.155 181.433 179.533 181.901 179.533C183.179 179.534 184.299 178.156 184.3 176.583C184.3 175.814 184.544 175.185 184.842 175.186C185.163 175.186 185.384 173.192 185.386 170.293C185.387 167.393 185.168 165.4 184.847 165.4C184.494 165.4 184.311 156.157 184.32 138.76C184.329 121.363 184.522 112.121 184.875 112.121C185.173 112.121 185.417 111.632 185.417 111.034C185.418 110.436 185.661 109.947 185.959 109.947C186.257 109.947 186.501 109.213 186.501 108.316C186.502 107.419 186.746 106.685 187.044 106.685C187.374 106.685 187.586 104.148 187.588 100.162L187.592 93.6376L185.546 93.6366C184.121 93.6358 183.263 93.9654 182.719 94.7224C182.29 95.3202 181.505 95.8091 180.975 95.8088C180.445 95.8085 180.012 96.053 180.012 96.352C180.011 96.6513 179.524 96.8954 178.929 96.8951C178.333 96.8947 177.846 97.1392 177.846 97.4381C177.846 97.7371 177.412 97.9816 176.882 97.9813C176.352 97.981 175.568 98.4699 175.138 99.0677C174.709 99.6655 173.924 100.154 173.394 100.154C172.864 100.154 172.431 100.398 172.431 100.697C172.43 100.996 171.997 101.241 171.467 101.24C170.937 101.24 170.152 101.729 169.723 102.327C169.293 102.925 168.606 103.414 168.196 103.413C167.786 103.413 166.767 104.146 165.932 105.043C165.097 105.94 164.143 106.673 163.812 106.673C162.966 106.673 154.017 115.74 154.016 116.598C154.016 116.985 153.529 117.653 152.933 118.084C152.337 118.515 151.85 119.303 151.849 119.835C151.849 120.367 151.605 120.802 151.307 120.802C151.01 120.801 150.766 121.291 150.766 121.889C150.765 122.487 150.521 122.976 150.224 122.976C149.926 122.975 149.682 123.709 149.681 124.606C149.681 125.503 149.437 126.237 149.139 126.237C148.841 126.237 148.597 127.215 148.597 128.411C148.596 129.607 148.352 130.586 148.054 130.586C147.717 130.586 147.511 133.666 147.509 138.74C147.506 143.815 147.709 146.895 148.046 146.896C148.343 146.896 148.587 147.63 148.586 148.527C148.586 149.424 148.829 150.158 149.126 150.158C149.424 150.158 149.668 150.648 149.667 151.246C149.667 151.844 149.91 152.333 150.208 152.333C150.506 152.334 150.749 152.823 150.749 153.421C150.748 154.019 150.992 154.508 151.29 154.509C151.587 154.509 151.831 154.895 151.83 155.367C151.83 155.839 152.804 157.166 153.994 158.316C155.185 159.466 156.158 160.675 156.158 161.003C156.158 161.914 163.059 168.65 163.994 168.651C164.446 168.651 164.816 168.896 164.815 169.195C164.815 169.494 165.302 169.739 165.898 169.739C166.493 169.739 166.98 169.984 166.98 170.283C166.98 170.583 167.467 170.827 168.063 170.827C168.658 170.828 169.145 171.073 169.145 171.372C169.145 171.671 169.632 171.916 170.227 171.916C170.823 171.916 171.31 172.161 171.31 172.46C171.31 172.759 171.797 173.004 172.392 173.004C172.988 173.005 173.475 173.25 173.475 173.549C173.474 173.848 174.205 174.093 175.098 174.093C175.992 174.094 176.722 174.339 176.722 174.638C176.722 174.937 177.098 175.182 177.558 175.182ZM352.104 199.506C352.104 200.275 351.755 201.253 351.33 201.68C350.442 202.571 348.853 202.719 348.853 201.912C348.853 201.613 348.366 201.368 347.771 201.368C347.049 201.367 346.688 201.005 346.689 200.28C346.689 199.682 346.446 199.192 346.148 199.192C345.821 199.192 345.608 196.914 345.61 193.445C345.613 187.518 345.162 186.144 343.216 186.143C342.748 186.142 342.366 185.897 342.366 185.599C342.366 185.299 341.635 185.054 340.742 185.054C339.849 185.054 339.118 184.808 339.118 184.509C339.118 184.21 338.144 183.965 336.953 183.965C335.762 183.964 334.788 183.719 334.788 183.42C334.788 183.121 334.301 182.876 333.706 182.876C333.11 182.875 332.623 182.63 332.623 182.331C332.623 182.032 331.893 181.787 331 181.787C330.106 181.786 329.376 181.541 329.376 181.242C329.376 180.943 328.645 180.698 327.752 180.698C326.859 180.697 326.128 180.452 326.128 180.153C326.129 179.854 325.641 179.609 325.046 179.609C324.45 179.609 323.963 179.364 323.964 179.065C323.964 178.766 323.233 178.521 322.34 178.52C321.447 178.52 320.716 178.275 320.716 177.976C320.716 177.676 320.229 177.432 319.634 177.432C319.038 177.431 318.551 177.186 318.551 176.887C318.551 176.588 318.064 176.343 317.469 176.343C316.873 176.343 316.386 176.098 316.386 175.799C316.387 175.5 315.9 175.255 315.304 175.255C314.709 175.254 314.221 175.009 314.222 174.71C314.222 174.411 313.789 174.166 313.259 174.166C312.729 174.166 311.945 173.676 311.516 173.078C311.087 172.48 310.4 171.99 309.99 171.99C309.58 171.99 308.562 171.255 307.728 170.358C306.894 169.46 305.94 168.726 305.608 168.725C304.692 168.725 296.906 160.702 296.907 159.759C296.907 159.306 296.664 158.935 296.366 158.935C296.068 158.935 295.825 157.956 295.825 156.76C295.826 155.564 295.583 154.585 295.285 154.585C294.97 154.585 294.745 152.772 294.746 150.235C294.748 147.698 294.523 145.886 294.207 145.886C293.907 145.885 293.667 144.436 293.668 142.623C293.669 140.811 293.429 139.361 293.128 139.361C292.797 139.361 292.588 136.824 292.59 132.837C292.592 128.85 292.804 126.313 293.135 126.313C293.432 126.313 293.677 125.824 293.677 125.226C293.677 124.628 293.921 124.139 294.219 124.139C294.516 124.139 294.76 123.65 294.761 123.052C294.761 122.454 295.005 121.965 295.303 121.965C295.601 121.965 295.844 121.53 295.844 120.998C295.845 120.466 296.332 119.678 296.928 119.248C297.524 118.817 298.011 118.083 298.012 117.617C298.012 117.151 298.499 116.417 299.095 115.987C299.731 115.527 300.179 114.58 300.179 113.693C300.18 112.862 300.423 112.182 300.721 112.182C301.019 112.182 301.263 111.448 301.263 110.551C301.264 109.654 301.508 108.92 301.806 108.921C302.103 108.921 302.347 108.432 302.348 107.834C302.348 107.219 302.709 106.746 303.178 106.747C304.111 106.747 307.763 103.292 307.764 102.408C307.764 102.093 309.344 100.251 311.275 98.3141C313.736 95.845 315.193 94.7925 316.149 94.7929C316.899 94.7934 317.512 94.549 317.512 94.25C317.513 93.951 318.243 93.7067 319.137 93.7072C320.03 93.7077 320.761 93.4634 320.761 93.1644C320.761 92.8653 321.736 92.6212 322.927 92.6219C324.118 92.6225 325.092 92.3783 325.092 92.0793C325.092 91.7803 326.067 91.5362 327.258 91.5369C328.449 91.5375 329.424 91.2933 329.424 90.9943C329.424 90.6953 330.155 90.4511 331.048 90.4516C331.941 90.452 332.672 90.2077 332.672 89.9087C332.672 89.6097 333.403 89.3655 334.297 89.366C335.19 89.3664 335.921 89.1221 335.921 88.8231C335.921 88.524 336.896 88.28 338.087 88.2806C339.278 88.2812 340.252 88.0371 340.252 87.7381C340.252 87.4391 340.983 87.1948 341.877 87.1953C342.77 87.1958 343.501 86.9515 343.501 86.6525C343.501 86.3534 344.232 86.1092 345.125 86.1097C346.018 86.1102 346.749 85.8658 346.75 85.5669C346.75 85.2679 347.481 85.0236 348.374 85.0241C349.908 85.0249 349.998 84.9041 349.999 82.8503C350 81.6542 350.244 80.6758 350.542 80.6759C350.851 80.6761 351.084 79.0452 351.085 76.8706C351.086 74.6959 351.319 73.0651 351.628 73.0653C351.926 73.0654 352.17 71.8423 352.171 70.3472C352.172 68.8521 352.416 67.6291 352.714 67.6292C353.011 67.6294 353.255 67.2514 353.256 66.7893C353.256 65.7017 355.669 63.2814 356.752 63.282C357.212 63.2823 357.588 63.0378 357.588 62.7388C357.589 61.9314 359.176 62.0816 360.063 62.9731C360.677 63.5908 360.834 65.8213 360.831 73.8468L360.827 83.9434L364.075 83.9451C365.879 83.946 367.323 83.7051 367.323 83.4032C367.324 82.5783 370.002 82.7551 370.88 83.6382C371.306 84.0656 371.653 84.7997 371.653 85.2696C371.653 85.7395 371.896 86.1241 372.194 86.1242C372.492 86.1244 372.735 86.6138 372.735 87.2119C372.734 87.8099 372.978 88.2993 373.275 88.2994C373.573 88.2996 373.817 88.7891 373.816 89.3871C373.816 90.1122 373.455 90.4742 372.733 90.4738C372.137 90.4735 371.65 90.7179 371.65 91.0169C371.65 91.3434 369.484 91.5595 366.236 91.5577L360.823 91.5549L360.82 95.9042C360.819 98.4412 360.593 100.253 360.277 100.253C359.944 100.253 359.734 102.971 359.732 107.32C359.729 111.67 359.936 114.388 360.269 114.388C360.622 114.389 360.805 122.906 360.798 138.853C360.789 154.801 360.596 163.318 360.243 163.318C359.934 163.318 359.701 164.949 359.7 167.123C359.699 169.298 359.466 170.929 359.157 170.929C358.859 170.929 358.615 171.662 358.615 172.559C358.614 173.456 358.37 174.19 358.072 174.19C357.775 174.19 357.531 174.659 357.53 175.232C357.53 175.805 357.225 176.416 356.853 176.591C356.312 176.844 356.311 176.971 356.853 177.225C357.225 177.4 357.529 177.906 357.529 178.351C357.528 180.238 358.941 180.715 364.551 180.718C369.644 180.72 370.121 180.814 371.356 182.056C372.968 183.677 373.081 185.071 371.6 185.071C371.005 185.07 370.517 185.315 370.517 185.614C370.517 185.94 368.352 186.156 365.103 186.154C361.855 186.153 359.69 185.934 359.69 185.608C359.69 185.309 358.716 185.064 357.525 185.063C355.48 185.062 355.36 185.153 355.359 186.693C355.359 187.59 355.115 188.324 354.817 188.324C354.519 188.323 354.275 189.547 354.274 191.042C354.273 192.537 354.029 193.76 353.731 193.76C353.434 193.759 353.189 194.738 353.189 195.934C353.188 197.13 352.944 198.109 352.646 198.108C352.349 198.108 352.105 198.737 352.104 199.506ZM337.907 175.292C338.428 175.306 339.706 176.274 340.748 177.443C342.834 179.784 344.536 180.274 344.536 178.532C344.537 177.934 344.781 177.445 345.078 177.445C345.376 177.445 345.62 176.222 345.621 174.727C345.622 173.232 345.866 172.009 346.164 172.009C346.462 172.009 346.706 171.52 346.706 170.922C346.706 170.324 346.463 169.835 346.165 169.834C345.849 169.834 345.625 168.022 345.626 165.485C345.627 162.948 345.403 161.136 345.087 161.135C344.741 161.135 344.549 156.242 344.553 147.543C344.558 138.845 344.755 133.952 345.101 133.952C345.445 133.952 345.645 129.784 345.649 122.536C345.653 115.287 345.853 111.119 346.196 111.119C346.494 111.119 346.738 110.385 346.738 109.488C346.739 108.591 346.983 107.857 347.281 107.858C347.59 107.858 347.823 106.227 347.824 104.052C347.825 101.878 348.058 100.247 348.367 100.247C348.665 100.247 348.909 99.7578 348.909 99.1598C348.91 98.5617 348.666 98.0723 348.368 98.0722C348.071 98.072 347.828 97.0933 347.828 95.8973L347.829 93.7226L345.664 93.7214C344.473 93.7208 343.499 93.965 343.498 94.264C343.498 94.5632 343.011 94.8074 342.415 94.807C341.82 94.8067 341.333 95.0512 341.332 95.3501C341.332 95.6491 340.845 95.8936 340.249 95.8932C339.654 95.8929 339.167 96.1374 339.166 96.4363C339.166 96.7353 338.679 96.9797 338.084 96.9794C337.488 96.9791 337.001 97.2235 337.001 97.5225C337 97.8215 336.567 98.0659 336.037 98.0656C335.507 98.0654 334.723 98.5542 334.293 99.152C333.863 99.7498 333.079 100.239 332.549 100.238C332.019 100.238 331.586 100.483 331.585 100.782C331.585 101.081 331.152 101.325 330.622 101.325C330.092 101.324 329.307 101.813 328.878 102.411C328.448 103.009 327.766 103.498 327.362 103.498C326.958 103.497 325.69 104.475 324.545 105.671C323.4 106.866 322.079 107.844 321.609 107.844C321.116 107.844 320.755 108.303 320.754 108.931C320.754 109.656 320.393 110.018 319.671 110.018C319.046 110.017 318.588 110.379 318.588 110.875C318.588 111.347 317.612 112.673 316.421 113.821C315.229 114.97 314.254 116.242 314.254 116.648C314.254 117.054 313.766 117.738 313.171 118.169C312.575 118.6 312.087 119.387 312.087 119.919C312.087 120.451 311.843 120.887 311.545 120.887C311.247 120.886 311.003 121.375 311.003 121.974C311.003 122.572 310.759 123.061 310.461 123.061C310.164 123.06 309.919 123.794 309.919 124.691C309.919 125.588 309.675 126.322 309.377 126.322C309.076 126.322 308.835 127.771 308.834 129.584C308.833 131.396 308.592 132.846 308.291 132.845C307.97 132.845 307.748 134.838 307.747 137.738C307.745 140.638 307.965 142.631 308.285 142.631C308.583 142.631 308.826 143.855 308.825 145.35C308.825 146.845 309.067 148.068 309.365 148.069C309.663 148.069 309.906 148.803 309.906 149.7C309.905 150.597 310.148 151.331 310.446 151.331C310.744 151.331 310.987 151.821 310.987 152.419C310.987 153.017 311.23 153.506 311.528 153.506C311.825 153.506 312.069 153.996 312.069 154.594C312.068 155.192 312.311 155.681 312.609 155.682C312.907 155.682 313.15 156.117 313.15 156.649C313.15 157.181 313.637 157.969 314.232 158.401C314.827 158.832 315.314 159.503 315.314 159.892C315.313 160.813 321.029 166.559 321.946 166.56C322.333 166.56 323.001 167.049 323.43 167.648C323.859 168.246 324.589 168.736 325.053 168.736C325.517 168.736 326.248 169.226 326.677 169.824C327.135 170.463 328.078 170.912 328.961 170.913C329.789 170.913 330.465 171.158 330.465 171.457C330.465 171.757 330.952 172.001 331.548 172.001C332.143 172.002 332.63 172.247 332.63 172.546C332.63 172.845 333.117 173.09 333.712 173.09C334.308 173.09 334.795 173.335 334.795 173.634C334.795 173.933 335.282 174.178 335.877 174.178C336.473 174.179 336.96 174.424 336.96 174.723C336.96 175.022 337.386 175.277 337.907 175.292ZM519.921 199.595C519.92 200.364 519.572 201.342 519.146 201.769C517.578 203.342 514.506 202.25 514.507 200.12C514.507 199.659 514.264 199.281 513.966 199.281C513.143 199.281 513.264 189.641 514.091 189.365C515.195 188.996 512.009 186.232 510.479 186.232C509.721 186.231 509.101 185.986 509.101 185.687C509.101 185.388 508.371 185.143 507.477 185.143C506.584 185.142 505.853 184.897 505.854 184.598C505.854 184.299 505.123 184.054 504.23 184.053C503.337 184.053 502.606 183.808 502.606 183.509C502.606 183.21 501.876 182.965 500.982 182.965C500.089 182.964 499.358 182.719 499.359 182.42C499.359 182.121 498.872 181.876 498.276 181.876C497.681 181.875 497.194 181.63 497.194 181.331C497.194 181.032 496.517 180.787 495.69 180.787C494.806 180.787 493.863 180.337 493.405 179.698C492.976 179.1 492.192 178.61 491.662 178.61C491.133 178.61 490.699 178.365 490.699 178.066C490.7 177.767 489.969 177.522 489.076 177.522C488.183 177.521 487.452 177.276 487.452 176.977C487.452 176.678 486.965 176.433 486.37 176.433C485.774 176.432 485.287 176.187 485.287 175.889C485.287 175.589 484.8 175.345 484.205 175.344C483.609 175.344 483.122 175.099 483.122 174.8C483.123 174.501 482.689 174.256 482.16 174.256C481.63 174.256 480.845 173.766 480.417 173.168C479.988 172.569 479.257 172.08 478.793 172.079C478.329 172.079 477.599 171.59 477.17 170.991C476.741 170.393 476.01 169.903 475.546 169.903C475.082 169.903 474.352 169.413 473.923 168.815C473.494 168.217 472.827 167.727 472.44 167.727C472.054 167.727 470.16 166.14 468.231 164.201C465.772 161.729 464.724 160.266 464.725 159.306C464.725 158.553 464.482 157.937 464.184 157.936C463.884 157.936 463.644 156.486 463.645 154.674C463.646 152.862 463.406 151.412 463.105 151.412C462.784 151.412 462.565 149.418 462.566 146.519C462.568 143.619 462.348 141.626 462.028 141.625C461.73 141.625 461.487 140.402 461.488 138.907C461.488 137.412 461.246 136.188 460.948 136.188C460.627 136.188 460.407 134.195 460.409 131.295C460.411 128.395 460.632 126.402 460.953 126.402C461.251 126.402 461.495 125.913 461.495 125.315C461.495 124.717 461.739 124.228 462.037 124.228C462.335 124.228 462.578 123.793 462.579 123.261C462.579 122.729 463.067 121.942 463.662 121.511C464.258 121.08 464.746 120.292 464.746 119.76C464.746 119.228 464.99 118.793 465.288 118.793C465.586 118.794 465.829 118.304 465.83 117.706C465.83 117.108 466.074 116.619 466.372 116.619C466.67 116.619 466.913 116.13 466.914 115.532C466.914 114.934 467.158 114.445 467.455 114.445C467.753 114.445 467.997 113.956 467.997 113.358C467.998 112.76 468.241 112.271 468.539 112.271C468.837 112.271 469.081 111.782 469.081 111.184C469.082 110.586 469.325 110.097 469.623 110.097C469.921 110.097 470.165 109.468 470.165 108.699C470.166 107.259 471.262 105.749 472.305 105.749C473.068 105.75 478.831 99.9803 478.832 99.2158C478.832 98.3338 481.379 95.968 482.328 95.9686C482.788 95.9688 483.164 95.7243 483.164 95.4253C483.165 95.1263 483.896 94.8821 484.789 94.8825C485.682 94.883 486.413 94.6387 486.413 94.3397C486.413 94.0407 487.144 93.7964 488.037 93.7969C488.931 93.7974 489.661 93.5531 489.662 93.2541C489.662 92.955 490.636 92.711 491.827 92.7116C493.018 92.7122 493.993 92.468 493.993 92.1691C493.993 91.8701 494.724 91.6258 495.617 91.6263C496.511 91.6268 497.242 91.3824 497.242 91.0835C497.242 90.7845 497.973 90.5402 498.866 90.5407C499.759 90.5412 500.49 90.2968 500.49 89.9979C500.49 89.6989 501.221 89.4546 502.115 89.4551C503.008 89.4556 503.739 89.2112 503.739 88.9123C503.739 88.6133 504.47 88.369 505.363 88.3695C506.257 88.3699 506.988 88.1256 506.988 87.8267C506.988 87.5275 507.962 87.2835 509.153 87.2841C510.344 87.2848 511.319 87.0406 511.319 86.7416C511.319 86.4426 512.05 86.1983 512.943 86.1988C513.837 86.1993 514.567 85.955 514.568 85.656C514.568 85.357 515.299 85.1128 516.192 85.1133C517.455 85.1139 517.816 84.8725 517.816 84.0268C517.817 83.4287 518.061 82.9396 518.358 82.9397C518.679 82.9399 518.901 80.9466 518.902 78.0471C518.904 75.1476 519.125 73.1543 519.446 73.1544C519.744 73.1546 519.988 72.1761 519.989 70.98C519.989 69.784 520.233 68.8055 520.531 68.8056C520.829 68.8058 521.073 68.3167 521.073 67.7187C521.073 67.1206 521.317 66.6314 521.615 66.6316C521.913 66.6318 522.157 66.2474 522.157 65.7776C522.158 64.5073 523.525 63.3706 525.052 63.3714C525.793 63.3718 526.541 63.0665 526.715 62.6927C526.968 62.1492 527.094 62.1493 527.346 62.6931C527.52 63.0669 528.129 63.373 528.699 63.3733C529.27 63.3736 529.737 63.6186 529.737 63.9176C529.737 64.2168 529.493 64.4611 529.195 64.461C528.87 64.4608 528.653 66.6353 528.651 69.8973C528.649 73.1593 528.865 75.334 529.189 75.3342C529.49 75.3344 529.73 76.7843 529.729 78.5965C529.728 80.4087 529.487 81.8583 529.186 81.8581C528.888 81.858 528.644 82.3472 528.644 82.9452C528.643 83.9114 529.004 84.0327 531.891 84.0342C533.696 84.0352 535.14 83.7943 535.14 83.4923C535.14 83.1932 535.76 82.949 536.518 82.9494C538.037 82.9502 540.552 85.1395 540.552 86.4606C540.551 86.9227 540.795 87.3009 541.092 87.3011C541.914 87.3015 541.738 89.9914 540.859 90.8736C540.301 91.433 538.703 91.6491 535.135 91.6472C531.568 91.6454 529.97 91.8613 529.412 92.4209C528.758 93.0773 528.635 98.5302 528.62 127.759C528.608 150.437 528.416 162.32 528.06 162.32C527.751 162.319 527.518 163.95 527.517 166.125C527.516 168.3 527.283 169.93 526.974 169.93C526.673 169.93 526.432 171.38 526.431 173.192C526.43 175.004 526.188 176.454 525.888 176.454C525.59 176.454 525.346 177.187 525.345 178.084C525.345 179.353 525.585 179.716 526.427 179.716C527.023 179.716 527.51 179.961 527.51 180.26C527.509 180.585 529.593 180.805 532.677 180.807C537.467 180.809 537.943 180.909 539.197 182.169L540.549 183.529L539.195 184.888C537.94 186.146 537.464 186.246 532.674 186.243C529.59 186.242 527.507 186.021 527.507 185.697C527.507 185.398 526.776 185.153 525.883 185.152C524.62 185.152 524.259 185.393 524.258 186.239C524.258 186.837 524.014 187.326 523.716 187.326C523.418 187.326 523.175 188.059 523.174 188.957C523.174 189.854 522.93 190.587 522.632 190.587C522.334 190.587 522.09 191.566 522.09 192.762C522.089 193.958 521.845 194.936 521.547 194.936C521.249 194.936 521.005 195.67 521.005 196.567C521.004 197.464 520.76 198.198 520.463 198.197C520.165 198.197 519.921 198.826 519.921 199.595ZM509.105 177.516C509.105 177.849 509.409 178.469 509.781 178.894C510.803 180.061 512.352 179.897 512.353 178.621C512.353 178.023 512.597 177.534 512.895 177.534C513.195 177.534 513.437 176.1 513.438 174.318C513.439 172.276 513.687 170.985 514.116 170.784C514.658 170.531 514.658 170.404 514.117 170.15C513.744 169.975 513.441 168.875 513.441 167.703C513.442 166.532 513.199 165.574 512.901 165.574C512.568 165.573 512.361 162.855 512.364 158.506C512.366 154.156 512.576 151.438 512.909 151.438C513.26 151.439 513.453 144.19 513.461 130.779C513.468 117.369 513.662 110.12 514.013 110.121C514.311 110.121 514.555 109.387 514.555 108.49C514.556 107.593 514.8 106.859 515.098 106.859C515.396 106.859 515.639 106.126 515.64 105.228C515.64 104.331 515.884 103.598 516.182 103.598C516.491 103.598 516.724 101.967 516.725 99.7924C516.727 97.6177 516.495 95.9867 516.186 95.9865C515.888 95.9863 515.645 95.4969 515.645 94.8989C515.646 94.053 515.285 93.8114 514.022 93.8107C513.129 93.8102 512.398 94.0545 512.397 94.3535C512.397 94.6524 511.91 94.8969 511.315 94.8966C510.719 94.8963 510.232 95.1407 510.232 95.4397C510.231 95.7388 509.554 95.983 508.727 95.9826C507.843 95.9821 506.9 96.4304 506.441 97.0687C506.012 97.6664 505.227 98.1553 504.697 98.155C504.167 98.1548 503.734 98.3993 503.734 98.6982C503.733 98.9971 503.246 99.2416 502.651 99.2413C502.055 99.2409 501.568 99.4854 501.568 99.7844C501.568 100.083 501.08 100.328 500.485 100.327C499.889 100.327 499.402 100.572 499.402 100.871C499.402 101.17 498.968 101.414 498.438 101.414C497.909 101.413 497.124 101.902 496.694 102.5C496.265 103.098 495.599 103.587 495.215 103.587C494.231 103.586 482.071 115.896 482.07 116.894C482.07 117.345 481.826 117.715 481.529 117.715C481.231 117.714 480.987 118.204 480.987 118.802C480.986 119.4 480.743 119.889 480.445 119.889C480.147 119.889 479.903 120.378 479.903 120.976C479.902 121.574 479.659 122.063 479.361 122.063C479.063 122.063 478.819 122.552 478.819 123.15C478.819 123.748 478.575 124.237 478.277 124.237C477.979 124.237 477.735 124.97 477.735 125.868C477.734 126.765 477.49 127.498 477.193 127.498C476.895 127.498 476.651 128.721 476.65 130.216C476.649 131.711 476.405 132.934 476.107 132.934C475.779 132.934 475.564 135.29 475.563 138.914C475.561 142.539 475.773 144.895 476.101 144.895C476.399 144.895 476.642 145.874 476.641 147.07C476.64 148.266 476.883 149.245 477.181 149.245C477.479 149.245 477.722 149.979 477.721 150.876C477.721 151.773 477.964 152.507 478.262 152.507C478.56 152.507 478.803 152.943 478.803 153.475C478.803 154.007 479.289 154.795 479.885 155.227C480.48 155.658 480.967 156.446 480.966 156.978C480.966 157.51 481.209 157.946 481.507 157.946C481.805 157.946 482.048 158.316 482.048 158.769C482.048 159.842 490.981 168.824 492.05 168.824C492.501 168.825 492.87 169.07 492.869 169.369C492.869 169.668 493.356 169.913 493.952 169.913C494.547 169.913 495.034 170.158 495.034 170.457C495.034 170.756 495.521 171.001 496.117 171.001C496.712 171.002 497.199 171.247 497.199 171.546C497.199 171.845 497.929 172.09 498.823 172.09C499.716 172.091 500.447 172.336 500.446 172.635C500.446 172.934 501.177 173.179 502.07 173.179C502.963 173.18 503.694 173.425 503.694 173.724C503.694 174.023 504.181 174.268 504.776 174.268C505.372 174.268 505.859 174.513 505.859 174.812C505.859 175.111 506.241 175.356 506.709 175.356C507.693 175.357 509.106 176.631 509.105 177.516ZM31.6304 196.618C31.6301 197.088 31.2817 197.822 30.8562 198.248C29.6486 199.46 27.2982 199.253 27.2989 197.936C27.2992 197.338 27.0559 196.848 26.7582 196.848C26.4604 196.848 26.2171 196.359 26.2174 195.761C26.2177 195.163 25.9744 194.673 25.6766 194.673C25.3673 194.673 25.1362 193.042 25.1373 190.867C25.1385 188.693 24.9073 187.061 24.598 187.061C24.3002 187.061 24.0573 185.838 24.0581 184.343C24.0589 182.848 23.8159 181.624 23.5182 181.624C23.2204 181.624 22.9775 180.401 22.9783 178.906C22.9791 177.41 22.7361 176.187 22.4384 176.187C22.1376 176.187 21.8978 174.737 21.8988 172.925C21.8997 171.112 21.6599 169.662 21.3592 169.662C21.0614 169.662 20.8185 168.439 20.8193 166.944C20.82 165.449 20.5771 164.225 20.2794 164.225C19.9816 164.225 19.7386 163.246 19.7392 162.05C19.7398 160.854 19.4967 159.875 19.199 159.875C18.9012 159.875 18.6583 158.652 18.6591 157.157C18.6599 155.662 18.4169 154.438 18.1192 154.438C17.8214 154.438 17.5785 153.215 17.5793 151.719C17.5801 150.224 17.3371 149.001 17.0394 149.001C16.7416 149.001 16.4987 147.777 16.4995 146.282C16.5003 144.787 16.2573 143.564 15.9596 143.564C15.6618 143.564 15.4189 142.34 15.4197 140.845C15.4205 139.35 15.1775 138.127 14.8798 138.126C14.582 138.126 14.3391 136.903 14.3399 135.408C14.3407 133.913 14.0977 132.689 13.8 132.689C13.5022 132.689 13.2591 131.71 13.2598 130.514C13.2604 129.318 13.0173 128.34 12.7196 128.339C12.4218 128.339 12.1788 127.36 12.1794 126.164C12.18 124.968 11.9369 123.99 11.6392 123.99C11.3414 123.989 11.0985 122.766 11.0993 121.271C11.1001 119.776 10.8571 118.552 10.5594 118.552C10.2616 118.552 10.0187 117.329 10.0195 115.834C10.0203 114.339 9.77734 113.115 9.47958 113.115C9.18185 113.115 8.93876 112.136 8.93939 110.94C8.94003 109.744 8.69695 108.765 8.3992 108.765C8.10146 108.765 7.8585 107.542 7.8593 106.047C7.86009 104.552 7.61715 103.328 7.3194 103.328C7.02162 103.328 6.77858 102.349 6.77921 101.153C6.77985 99.957 6.53677 98.9783 6.23902 98.9782C5.94125 98.978 5.69818 97.9993 5.69881 96.8032C5.69945 95.6072 5.45639 94.6285 5.15864 94.6283C4.8609 94.6281 4.6178 93.6494 4.61844 92.4533C4.61907 91.2573 4.376 90.2785 4.07825 90.2784C3.78048 90.2782 3.53742 89.2995 3.53806 88.1035C3.53869 86.9074 3.29561 85.9287 2.99786 85.9285C2.70009 85.9284 2.45704 84.9497 2.45768 83.7536C2.45831 82.5575 2.21524 81.5788 1.91749 81.5787C1.61973 81.5785 1.37653 80.8444 1.37701 79.9474C1.37748 79.0504 1.13428 78.3163 0.836533 78.3161C0.523455 78.3159 0.296105 76.586 0.297363 74.2136C0.299287 70.5831 0.452397 69.9581 1.629 68.7777C2.3602 68.0442 3.46781 67.4443 4.09035 67.4446C5.9166 67.4456 7.8785 69.8279 7.87733 72.043C7.87676 73.1032 8.11989 73.9707 8.41764 73.9709C8.7154 73.971 8.9586 74.7051 8.95812 75.6021C8.95765 76.4992 9.20085 77.2332 9.4986 77.2334C9.79635 77.2335 10.0397 77.723 10.0394 78.321C10.0391 78.919 10.2824 79.4084 10.5801 79.4086C10.8779 79.4088 11.1212 79.8982 11.1209 80.4962C11.1206 81.0943 11.3639 81.5836 11.6617 81.5838C11.9594 81.584 12.2027 82.0734 12.2024 82.6714C12.2021 83.2695 12.4455 83.7589 12.7432 83.7591C13.0409 83.7592 13.2843 84.2486 13.284 84.8467C13.2837 85.4447 13.527 85.9341 13.8247 85.9343C14.1225 85.9344 14.3658 86.4238 14.3655 87.0219C14.3652 87.6199 14.6085 88.1093 14.9063 88.1095C15.204 88.1096 15.4474 88.5991 15.447 89.1971C15.4467 89.7952 15.6901 90.2846 15.9878 90.2847C16.2856 90.2849 16.5289 90.7203 16.5286 91.2523C16.5284 91.7843 17.0151 92.5725 17.6104 93.0039C18.2056 93.4352 18.6924 94.2234 18.6922 94.7555C18.6919 95.2875 18.9352 95.7229 19.233 95.7231C19.5308 95.7232 19.7741 96.1586 19.7738 96.6906C19.7735 97.2226 20.2603 98.0109 20.8556 98.4423C21.4508 98.8736 21.9376 99.6618 21.9373 100.194C21.937 100.726 22.1804 101.161 22.4781 101.161C22.7759 101.162 23.0192 101.651 23.0189 102.249C23.0186 102.847 23.2619 103.336 23.5597 103.337C23.8574 103.337 24.1008 103.772 24.1005 104.304C24.1002 104.836 24.587 105.624 25.1823 106.056C25.7775 106.487 26.2643 107.221 26.2641 107.687C26.2638 108.153 26.7507 108.888 27.3459 109.319C27.9412 109.75 28.4279 110.538 28.4277 111.071C28.4274 111.603 28.6708 112.038 28.9685 112.038C29.2663 112.038 29.5096 112.409 29.5094 112.863C29.5089 113.806 37.2949 121.828 38.2109 121.829C38.5429 121.829 39.4967 122.564 40.3307 123.461C41.1646 124.359 42.1826 125.093 42.5929 125.093C43.0032 125.093 43.6898 125.583 44.1186 126.181C44.5475 126.78 45.3318 127.269 45.8616 127.27C46.3913 127.27 46.8246 127.515 46.8245 127.814C46.8243 128.113 47.3114 128.358 47.9069 128.358C48.5024 128.358 48.9894 128.603 48.9893 128.902C48.9891 129.201 49.4762 129.446 50.0717 129.446C50.6671 129.447 51.1542 129.692 51.1541 129.991C51.1539 130.29 51.8846 130.535 52.7778 130.535C53.671 130.536 54.4017 130.781 54.4015 131.08C54.4014 131.379 55.3757 131.624 56.5666 131.625C57.7576 131.625 58.7319 131.87 58.7317 132.169C58.7316 132.471 60.175 132.714 61.9795 132.715C63.784 132.716 65.2277 132.475 65.2278 132.173C65.228 131.874 66.4461 131.63 67.9348 131.631C69.4235 131.631 70.6417 131.387 70.6418 131.088C70.642 130.789 71.6165 130.545 72.8075 130.546C73.9985 130.547 74.973 130.302 74.9732 130.003C74.9733 129.704 75.7043 129.46 76.5975 129.461C77.4907 129.461 78.2216 129.217 78.2218 128.918C78.222 128.618 78.7093 128.374 79.3048 128.375C79.9003 128.375 80.3876 128.131 80.3877 127.832C80.3879 127.532 80.8753 127.288 81.4707 127.288C82.0662 127.289 82.5535 127.044 82.5537 126.745C82.5539 126.446 82.9229 126.202 83.3737 126.202C84.3104 126.203 93.3856 117.296 93.3861 116.376C93.3862 116.043 94.1176 115.085 95.0112 114.248C95.9049 113.41 96.6363 112.388 96.6365 111.976C96.6367 111.564 97.1243 110.874 97.72 110.444C98.3157 110.013 98.8033 109.225 98.8036 108.693C98.8039 108.161 99.0477 107.726 99.3454 107.726C99.6432 107.726 99.887 107.237 99.8874 106.639C99.8877 106.041 100.132 105.552 100.429 105.552C100.727 105.552 100.971 105.063 100.971 104.465C100.972 103.867 101.215 103.378 101.513 103.378C101.811 103.378 102.055 102.889 102.055 102.291C102.055 101.693 102.299 101.204 102.597 101.204C102.895 101.204 103.139 100.769 103.139 100.237C103.139 99.7048 103.627 98.9171 104.222 98.4865C104.818 98.0557 105.306 97.3768 105.306 96.9777C105.306 96.5786 106.769 94.8121 108.556 93.0521C110.343 91.2921 111.806 89.4715 111.806 89.0064C111.807 88.5414 112.05 88.161 112.348 88.1611C112.646 88.1613 112.89 87.6721 112.89 87.0741C112.89 86.4761 113.134 85.9869 113.432 85.9871C113.73 85.9872 113.974 85.2534 113.974 84.3563C113.975 83.4593 114.219 82.7255 114.516 82.7257C114.814 82.7258 115.058 82.2367 115.058 81.6386C115.059 81.0406 115.302 80.5514 115.6 80.5516C115.898 80.5517 116.142 80.0626 116.142 79.4646C116.142 78.8665 116.386 78.3774 116.684 78.3775C116.982 78.3777 117.226 77.8885 117.226 77.2905C117.226 76.6925 117.47 76.2033 117.768 76.2034C118.066 76.2036 118.309 75.7684 118.31 75.2364C118.31 74.7044 118.798 73.9167 119.393 73.486C119.989 73.0553 120.477 72.2676 120.477 71.7355C120.477 71.1449 120.881 70.7684 121.515 70.7688C122.086 70.7691 122.654 70.4659 122.777 70.0948C122.934 69.6211 123.309 69.7298 124.035 70.4595C124.761 71.1891 124.869 71.5658 124.397 71.7234C123.963 71.8684 123.724 73.0869 123.723 75.1646C123.722 76.9466 123.48 78.3811 123.18 78.381C122.864 78.3808 122.638 80.1929 122.636 82.73C122.635 85.2671 122.409 87.0791 122.093 87.079C121.783 87.0788 121.551 88.7097 121.549 90.8843C121.548 93.059 121.315 94.6898 121.006 94.6897C120.69 94.6895 120.464 96.5016 120.462 99.0387C120.461 101.576 120.235 103.388 119.919 103.388C119.603 103.388 119.376 105.2 119.375 107.737C119.374 110.274 119.147 112.086 118.831 112.086C118.511 112.086 118.289 114.079 118.288 116.978C118.286 119.878 118.064 121.871 117.744 121.871C117.434 121.871 117.201 123.502 117.2 125.676C117.199 127.851 116.966 129.482 116.657 129.482C116.347 129.482 116.115 131.113 116.114 133.287C116.112 135.462 115.879 137.093 115.57 137.093C115.261 137.092 115.028 138.723 115.027 140.898C115.026 143.072 114.793 144.703 114.483 144.703C114.168 144.703 113.941 146.515 113.94 149.052C113.938 151.589 113.712 153.401 113.396 153.401C113.08 153.401 112.854 155.213 112.852 157.75C112.851 160.287 112.625 162.099 112.309 162.099C111.999 162.099 111.767 163.73 111.765 165.905C111.764 168.079 111.531 169.71 111.222 169.71C110.906 169.71 110.68 171.522 110.678 174.059C110.677 176.596 110.451 178.408 110.135 178.408C109.834 178.408 109.593 179.857 109.592 181.67C109.591 183.482 109.349 184.932 109.049 184.931C108.739 184.931 108.506 186.562 108.505 188.737C108.503 192.462 108.474 192.542 107.111 192.542C105.545 192.541 104.173 191.416 104.174 190.132C104.174 189.663 103.931 189.278 103.633 189.278C103.298 189.278 103.093 186.378 103.096 181.666C103.098 176.954 103.306 174.055 103.641 174.055C103.984 174.055 104.184 170.069 104.188 163.182C104.192 156.296 104.392 152.309 104.735 152.309C105.081 152.309 105.279 147.598 105.283 139.262C105.287 132.085 105.163 126.214 105.007 126.214C104.851 126.214 101.079 129.881 96.6246 134.364C92.1703 138.847 88.2524 142.515 87.9182 142.515C87.5839 142.514 86.6274 143.248 85.7925 144.144C84.9577 145.041 83.9389 145.774 83.5286 145.774C83.1183 145.774 82.4312 146.263 82.0017 146.861C81.5722 147.458 80.7873 147.947 80.2576 147.947C79.7278 147.947 79.2943 148.191 79.2941 148.49C79.2939 148.79 78.8066 149.034 78.2111 149.033C77.6156 149.033 77.1283 149.277 77.1282 149.576C77.128 149.876 76.6407 150.12 76.0452 150.119C75.4497 150.119 74.9624 150.364 74.9622 150.663C74.9621 150.962 74.2311 151.206 73.3379 151.205C72.4447 151.205 71.7137 151.449 71.7136 151.748C71.7134 152.047 70.4953 152.291 69.0066 152.29C67.5179 152.29 66.2997 152.534 66.2996 152.833C66.2994 153.155 64.3143 153.375 61.4272 153.374C58.54 153.372 56.5552 153.149 56.5554 152.827C56.5555 152.525 55.1121 152.283 53.3076 152.282C51.5031 152.281 50.0597 152.039 50.0598 151.737C50.06 151.437 49.3293 151.193 48.4361 151.192C47.5429 151.192 46.8122 150.947 46.8124 150.648C46.8125 150.348 46.3792 150.104 45.8495 150.103C45.3197 150.103 44.5354 149.613 44.1065 149.015C43.6776 148.417 42.996 147.927 42.5918 147.927C42.1875 147.927 40.9211 146.948 39.7775 145.751C38.6339 144.554 37.4237 143.575 37.0882 143.575C36.7528 143.575 34.7975 141.861 32.7432 139.767C30.6889 137.673 28.6309 135.959 28.1699 135.959C27.7089 135.959 27.3319 135.714 27.3321 135.415C27.3322 135.116 27.0888 134.871 26.791 134.871C26.4932 134.871 26.2494 135.36 26.2491 135.958C26.2488 136.556 26.0049 137.045 25.7072 137.045C25.3864 137.045 25.1648 139.038 25.1632 141.938C25.1617 144.837 25.3812 146.831 25.702 146.831C26.0228 146.831 26.2423 148.825 26.2407 151.724C26.2392 154.624 26.4587 156.617 26.7795 156.617C27.0953 156.617 27.3199 158.43 27.3185 160.967C27.3172 163.504 27.5418 165.316 27.8576 165.316C28.1553 165.317 28.3983 166.54 28.3975 168.035C28.3967 169.53 28.6396 170.754 28.9374 170.754C29.2467 170.754 29.4778 172.385 29.4767 174.56C29.4755 176.734 29.7067 178.365 30.016 178.365C30.3168 178.366 30.5566 179.816 30.5556 181.628C30.5547 183.44 30.7945 184.89 31.0952 184.89C31.4046 184.89 31.6357 186.521 31.6346 188.696C31.6334 190.871 31.8645 192.502 32.1739 192.502C32.4717 192.502 32.7149 193.236 32.7144 194.133C32.7139 195.03 32.4699 195.764 32.1722 195.764C31.8744 195.764 31.6306 196.148 31.6304 196.618Z" fill="url(#paint0_linear_1140_77)"/>
<defs>
<linearGradient id="paint0_linear_1140_77" x1="270.96" y1="0" x2="270.96" y2="293.798" gradientUnits="userSpaceOnUse">
<stop stop-color="white"/>
<stop offset="1" stop-color="white" stop-opacity="0.51"/>
</linearGradient>
</defs>
</svg>
