<svg width="450" height="95" viewBox="0 0 450 95" fill="none" xmlns="http://www.w3.org/2000/svg">
<path fill-rule="evenodd" clip-rule="evenodd" d="M0 90.1001L90.1001 0H95V4.99959L4.99959 95H0V90.1001ZM0 70.1001L70.1001 0H79.9996L0 79.9996V70.1001ZM95 44.9996L44.9996 95H35.1001L95 35.1001V44.9996ZM95 24.9996L24.9996 95H15.1001L95 15.1001V24.9996Z" fill="url(#paint0_linear_1130_81)"/>
<path fill-rule="evenodd" clip-rule="evenodd" d="M0 50.1001L50.1001 0H59.9996L0 59.9996V50.1001Z" fill="url(#paint1_linear_1130_81)"/>
<path d="M126 86.9221V20H150.128C154.58 20 158.497 20.8384 161.881 22.5152C165.323 24.1321 167.994 26.5275 169.894 29.7015C171.793 32.8155 172.743 36.5583 172.743 40.93C172.743 45.2417 171.763 48.9546 169.805 52.0687C167.905 55.1827 165.264 57.5782 161.881 59.255C158.497 60.9318 154.58 61.7701 150.128 61.7701H136.506V86.9221H126ZM136.506 52.3382H150.395C152.77 52.3382 154.847 51.8591 156.628 50.9009C158.408 49.9428 159.803 48.6253 160.812 46.9485C161.821 45.2118 162.326 43.1757 162.326 40.8402C162.326 38.5046 161.821 36.4985 160.812 34.8217C159.803 33.085 158.408 31.7675 156.628 30.8692C154.847 29.9111 152.77 29.432 150.395 29.432H136.506V52.3382Z" fill="url(#paint2_linear_1130_81)"/>
<path d="M188.976 87.9999C185.712 87.9999 182.833 87.431 180.34 86.2932C177.906 85.0955 176.007 83.4785 174.642 81.4424C173.277 79.3464 172.594 76.8911 172.594 74.0765C172.594 71.4416 173.158 69.0761 174.286 66.9801C175.473 64.8841 177.283 63.1175 179.717 61.6802C182.15 60.243 185.207 59.2249 188.887 58.6261L205.626 55.8414V63.8361L190.846 66.4411C188.175 66.9202 186.216 67.7886 184.97 69.0462C183.723 70.2439 183.1 71.8009 183.1 73.7172C183.1 75.5737 183.783 77.1007 185.148 78.2984C186.572 79.4363 188.383 80.0052 190.579 80.0052C193.309 80.0052 195.683 79.4063 197.702 78.2086C199.779 77.0109 201.382 75.4239 202.509 73.4477C203.637 71.4116 204.201 69.1659 204.201 66.7106V54.2245C204.201 51.8291 203.311 49.8828 201.53 48.3856C199.809 46.8286 197.494 46.0501 194.585 46.0501C191.914 46.0501 189.57 46.7687 187.552 48.206C185.593 49.5833 184.139 51.3799 183.189 53.5957L174.82 49.3737C175.71 46.9783 177.164 44.8823 179.182 43.0858C181.201 41.2293 183.545 39.7921 186.216 38.774C188.947 37.756 191.825 37.2469 194.852 37.2469C198.651 37.2469 202.005 37.9656 204.913 39.4028C207.881 40.8401 210.166 42.8462 211.769 45.4213C213.431 47.9365 214.262 50.8709 214.262 54.2245V86.922H204.646V78.1188L206.694 78.3883C205.566 80.3645 204.112 82.0712 202.331 83.5085C200.61 84.9457 198.622 86.0536 196.366 86.8321C194.17 87.6106 191.707 87.9999 188.976 87.9999Z" fill="url(#paint3_linear_1130_81)"/>
<path d="M238.935 87.9999C234.009 87.9999 229.676 86.7722 225.936 84.3169C222.256 81.8616 219.674 78.5679 218.19 74.4358L225.936 70.7529C227.242 73.5076 229.023 75.6934 231.278 77.3103C233.593 78.9272 236.146 79.7357 238.935 79.7357C241.31 79.7357 243.239 79.1967 244.723 78.1188C246.206 77.0409 246.948 75.5737 246.948 73.7172C246.948 72.5195 246.622 71.5613 245.969 70.8427C245.316 70.0642 244.485 69.4354 243.476 68.9563C242.526 68.4772 241.547 68.1179 240.538 67.8784L232.97 65.7225C228.815 64.5248 225.699 62.7282 223.622 60.3328C221.603 57.8775 220.594 55.0329 220.594 51.7991C220.594 48.8647 221.336 46.3196 222.82 44.1637C224.304 41.9479 226.352 40.2412 228.964 39.0435C231.575 37.8458 234.513 37.2469 237.778 37.2469C242.17 37.2469 246.088 38.3548 249.53 40.5706C252.973 42.7265 255.407 45.7507 256.831 49.6432L249.085 53.3262C248.136 50.9907 246.622 49.1342 244.544 47.7568C242.526 46.3795 240.241 45.6908 237.689 45.6908C235.493 45.6908 233.742 46.2298 232.436 47.3077C231.13 48.3257 230.477 49.6732 230.477 51.35C230.477 52.4878 230.774 53.446 231.367 54.2245C231.961 54.9431 232.733 55.542 233.682 56.021C234.632 56.4402 235.611 56.7995 236.62 57.099L244.455 59.4345C248.432 60.5723 251.489 62.3689 253.626 64.8242C255.763 67.2196 256.831 70.0941 256.831 73.4477C256.831 76.3222 256.06 78.8674 254.516 81.0831C253.032 83.239 250.955 84.9457 248.284 86.2033C245.613 87.401 242.497 87.9999 238.935 87.9999Z" fill="url(#paint4_linear_1130_81)"/>
<path d="M282.626 87.461C277.581 87.461 273.663 86.0238 270.873 83.1493C268.084 80.2748 266.689 76.2325 266.689 71.0225V47.4875H258.231V38.325H259.566C261.822 38.325 263.573 37.6662 264.819 36.3487C266.066 35.0313 266.689 33.2347 266.689 30.9591V27.1863H276.75V38.325H287.701V47.4875H276.75V70.5733C276.75 72.2501 277.017 73.6874 277.551 74.8851C278.085 76.0229 278.946 76.9212 280.133 77.5799C281.32 78.1788 282.863 78.4782 284.763 78.4782C285.238 78.4782 285.772 78.4483 286.365 78.3884C286.959 78.3285 287.523 78.2686 288.057 78.2087V86.9221C287.226 87.0418 286.306 87.1616 285.297 87.2814C284.288 87.4011 283.398 87.461 282.626 87.461Z" fill="url(#paint5_linear_1130_81)"/>
<path d="M306.967 87.9999C303.702 87.9999 300.824 87.431 298.331 86.2932C295.897 85.0955 293.998 83.4785 292.633 81.4424C291.267 79.3464 290.585 76.8911 290.585 74.0765C290.585 71.4416 291.149 69.0761 292.276 66.9801C293.464 64.8841 295.274 63.1175 297.707 61.6802C300.141 60.243 303.198 59.2249 306.878 58.6261L323.616 55.8414V63.8361L308.837 66.4411C306.166 66.9202 304.207 67.7886 302.96 69.0462C301.714 70.2439 301.091 71.8009 301.091 73.7172C301.091 75.5737 301.773 77.1007 303.139 78.2984C304.563 79.4363 306.373 80.0052 308.57 80.0052C311.3 80.0052 313.674 79.4063 315.692 78.2086C317.77 77.0109 319.372 75.4239 320.5 73.4477C321.628 71.4116 322.192 69.1659 322.192 66.7106V54.2245C322.192 51.8291 321.301 49.8828 319.521 48.3856C317.799 46.8286 315.485 46.0501 312.576 46.0501C309.905 46.0501 307.561 46.7687 305.542 48.206C303.584 49.5833 302.13 51.3799 301.18 53.5957L292.811 49.3737C293.701 46.9783 295.155 44.8823 297.173 43.0858C299.191 41.2293 301.536 39.7921 304.207 38.774C306.937 37.756 309.816 37.2469 312.843 37.2469C316.642 37.2469 319.996 37.9656 322.904 39.4028C325.872 40.8401 328.157 42.8462 329.76 45.4213C331.422 47.9365 332.253 50.8709 332.253 54.2245V86.922H322.637V78.1188L324.685 78.3883C323.557 80.3645 322.103 82.0712 320.322 83.5085C318.601 84.9457 316.612 86.0536 314.357 86.8321C312.161 87.6106 309.697 87.9999 306.967 87.9999Z" fill="url(#paint6_linear_1130_81)"/>
<path d="M340.099 86.9221V20H350.605V49.4637H381.321V20H391.738V86.9221H381.321V58.8956H350.605V86.9221H340.099Z" fill="url(#paint7_linear_1130_81)"/>
<path d="M400.586 86.9221V20H424.714C429.166 20 433.084 20.8384 436.467 22.5152C439.85 24.1321 442.491 26.5275 444.391 29.7015C446.35 32.8155 447.329 36.5583 447.329 40.93C447.329 45.5412 446.172 49.4936 443.857 52.7873C441.601 56.081 438.544 58.4764 434.686 59.9736L450 86.9221H438.069L421.776 57.7279L428.632 61.7701H411.092V86.9221H400.586ZM411.092 52.3382H424.892C427.326 52.3382 429.433 51.8591 431.214 50.9009C432.995 49.9428 434.36 48.6253 435.309 46.9485C436.318 45.2118 436.823 43.1757 436.823 40.8402C436.823 38.5046 436.318 36.4985 435.309 34.8217C434.36 33.085 432.995 31.7675 431.214 30.8692C429.433 29.9111 427.326 29.432 424.892 29.432H411.092V52.3382Z" fill="url(#paint8_linear_1130_81)"/>
<defs>
<linearGradient id="paint0_linear_1130_81" x1="47.5" y1="0" x2="47.5" y2="95" gradientUnits="userSpaceOnUse">
<stop stop-color="white"/>
<stop offset="1" stop-color="white" stop-opacity="0.51"/>
</linearGradient>
<linearGradient id="paint1_linear_1130_81" x1="29.9998" y1="0" x2="29.9998" y2="59.9996" gradientUnits="userSpaceOnUse">
<stop stop-color="white"/>
<stop offset="1" stop-color="white" stop-opacity="0.51"/>
</linearGradient>
<linearGradient id="paint2_linear_1130_81" x1="149.371" y1="20" x2="149.371" y2="86.9221" gradientUnits="userSpaceOnUse">
<stop stop-color="white"/>
<stop offset="1" stop-color="white" stop-opacity="0.51"/>
</linearGradient>
<linearGradient id="paint3_linear_1130_81" x1="193.428" y1="37.2469" x2="193.428" y2="87.9999" gradientUnits="userSpaceOnUse">
<stop stop-color="white"/>
<stop offset="1" stop-color="white" stop-opacity="0.51"/>
</linearGradient>
<linearGradient id="paint4_linear_1130_81" x1="237.51" y1="37.2469" x2="237.51" y2="87.9999" gradientUnits="userSpaceOnUse">
<stop stop-color="white"/>
<stop offset="1" stop-color="white" stop-opacity="0.51"/>
</linearGradient>
<linearGradient id="paint5_linear_1130_81" x1="273.144" y1="27.1863" x2="273.144" y2="87.461" gradientUnits="userSpaceOnUse">
<stop stop-color="white"/>
<stop offset="1" stop-color="white" stop-opacity="0.51"/>
</linearGradient>
<linearGradient id="paint6_linear_1130_81" x1="311.419" y1="37.2469" x2="311.419" y2="87.9999" gradientUnits="userSpaceOnUse">
<stop stop-color="white"/>
<stop offset="1" stop-color="white" stop-opacity="0.51"/>
</linearGradient>
<linearGradient id="paint7_linear_1130_81" x1="365.919" y1="20" x2="365.919" y2="86.9221" gradientUnits="userSpaceOnUse">
<stop stop-color="white"/>
<stop offset="1" stop-color="white" stop-opacity="0.51"/>
</linearGradient>
<linearGradient id="paint8_linear_1130_81" x1="425.293" y1="20" x2="425.293" y2="86.9221" gradientUnits="userSpaceOnUse">
<stop stop-color="white"/>
<stop offset="1" stop-color="white" stop-opacity="0.51"/>
</linearGradient>
</defs>
</svg>
