<svg width="160" height="38" viewBox="0 0 160 38" fill="none" xmlns="http://www.w3.org/2000/svg">
<g filter="url(#filter0_b_36_60)">
<rect y="0.00012207" width="160" height="38" rx="19" fill="url(#paint0_linear_36_60)" fill-opacity="0.1"/>
<rect x="0.5" y="0.500122" width="159" height="37" rx="18.5" stroke="url(#paint1_linear_36_60)" stroke-opacity="0.3"/>
<path d="M24 24.8249L27.7123 21.2369C29.7626 19.2554 29.7626 16.0426 27.7123 14.061C25.6621 12.0795 22.3379 12.0795 20.2877 14.061C18.2374 16.0426 18.2374 19.2554 20.2877 21.2369L24 24.8249ZM24.695 26.2035C24.3074 26.5781 23.6926 26.5781 23.305 26.2035L19.227 22.2621C16.591 19.7143 16.591 15.5837 19.227 13.0359C21.8631 10.4882 26.1369 10.4882 28.773 13.0359C31.409 15.5837 31.409 19.7143 28.773 22.2621L24.695 26.2035ZM24 19.0987C24.8285 19.0987 25.5 18.4497 25.5 17.649C25.5 16.8483 24.8285 16.1992 24 16.1992C23.1715 16.1992 22.5 16.8483 22.5 17.649C22.5 18.4497 23.1715 19.0987 24 19.0987ZM24 20.5485C22.3431 20.5485 21 19.2503 21 17.649C21 16.0476 22.3431 14.7495 24 14.7495C25.6568 14.7495 27 16.0476 27 17.649C27 19.2503 25.6568 20.5485 24 20.5485Z" fill="white" fill-opacity="0.8"/>
<path d="M42.48 26.0001V12.0001H44.16V24.6601H50.68V26.0001H42.48ZM56.5078 26.2401C55.3345 26.2401 54.4011 25.8868 53.7078 25.1801C53.0145 24.4601 52.6678 23.3601 52.6678 21.8801V16.0801H54.3478V21.7001C54.3478 23.7668 55.1945 24.8001 56.8878 24.8001C57.7545 24.8001 58.4678 24.4935 59.0278 23.8801C59.6011 23.2535 59.8878 22.3668 59.8878 21.2201V16.0801H61.5678V26.0001H60.0478L59.9278 24.2201C59.6211 24.8468 59.1611 25.3401 58.5478 25.7001C57.9478 26.0601 57.2678 26.2401 56.5078 26.2401ZM68.2531 22.8801C67.6931 22.8801 67.1798 22.8068 66.7131 22.6601L65.7131 23.6001C65.8598 23.7068 66.0398 23.8001 66.2531 23.8801C66.4798 23.9468 66.7998 24.0135 67.2131 24.0801C67.6265 24.1335 68.2065 24.1935 68.9531 24.2601C70.2865 24.3535 71.2398 24.6601 71.8131 25.1801C72.3865 25.7001 72.6731 26.3801 72.6731 27.2201C72.6731 27.7935 72.5131 28.3401 72.1931 28.8601C71.8865 29.3801 71.4065 29.8068 70.7531 30.1401C70.1131 30.4735 69.2865 30.6401 68.2731 30.6401C67.3798 30.6401 66.5865 30.5201 65.8931 30.2801C65.1998 30.0535 64.6598 29.7001 64.2731 29.2201C63.8865 28.7535 63.6931 28.1601 63.6931 27.4401C63.6931 27.0668 63.7931 26.6601 63.9931 26.2201C64.1931 25.7935 64.5665 25.3868 65.1131 25.0001C64.8198 24.8801 64.5665 24.7535 64.3531 24.6201C64.1531 24.4735 63.9665 24.3135 63.7931 24.1401V23.6801L65.4931 22.0001C64.7065 21.3335 64.3131 20.4535 64.3131 19.3601C64.3131 18.7068 64.4665 18.1135 64.7731 17.5801C65.0798 17.0468 65.5265 16.6268 66.1131 16.3201C66.6998 16.0001 67.4131 15.8401 68.2531 15.8401C68.8265 15.8401 69.3465 15.9201 69.8131 16.0801H73.4731V17.3401L71.6131 17.4201C71.9998 17.9801 72.1931 18.6268 72.1931 19.3601C72.1931 20.0135 72.0331 20.6068 71.7131 21.1401C71.4065 21.6735 70.9598 22.1001 70.3731 22.4201C69.7998 22.7268 69.0931 22.8801 68.2531 22.8801ZM68.2531 21.5001C68.9598 21.5001 69.5198 21.3201 69.9331 20.9601C70.3598 20.5868 70.5731 20.0535 70.5731 19.3601C70.5731 18.6801 70.3598 18.1601 69.9331 17.8001C69.5198 17.4268 68.9598 17.2401 68.2531 17.2401C67.5331 17.2401 66.9598 17.4268 66.5331 17.8001C66.1198 18.1601 65.9131 18.6801 65.9131 19.3601C65.9131 20.0535 66.1198 20.5868 66.5331 20.9601C66.9598 21.3201 67.5331 21.5001 68.2531 21.5001ZM65.3331 27.2801C65.3331 27.9468 65.6131 28.4401 66.1731 28.7601C66.7331 29.0935 67.4331 29.2601 68.2731 29.2601C69.0998 29.2601 69.7598 29.0801 70.2531 28.7201C70.7598 28.3601 71.0131 27.8801 71.0131 27.2801C71.0131 26.8535 70.8398 26.4801 70.4931 26.1601C70.1465 25.8535 69.5065 25.6735 68.5731 25.6201C67.8398 25.5668 67.2065 25.5001 66.6731 25.4201C66.1265 25.7135 65.7665 26.0268 65.5931 26.3601C65.4198 26.7068 65.3331 27.0135 65.3331 27.2801ZM78.6683 26.2401C77.8416 26.2401 77.1549 26.1001 76.6083 25.8201C76.0616 25.5401 75.6549 25.1668 75.3883 24.7001C75.1216 24.2335 74.9883 23.7268 74.9883 23.1801C74.9883 22.1668 75.3749 21.3868 76.1483 20.8401C76.9216 20.2935 77.9749 20.0201 79.3083 20.0201H81.9883V19.9001C81.9883 19.0335 81.7616 18.3801 81.3083 17.9401C80.8549 17.4868 80.2483 17.2601 79.4883 17.2601C78.8349 17.2601 78.2683 17.4268 77.7883 17.7601C77.3216 18.0801 77.0283 18.5535 76.9083 19.1801H75.1883C75.2549 18.4601 75.4949 17.8535 75.9083 17.3601C76.3349 16.8668 76.8616 16.4935 77.4883 16.2401C78.1149 15.9735 78.7816 15.8401 79.4883 15.8401C80.8749 15.8401 81.9149 16.2135 82.6083 16.9601C83.3149 17.6935 83.6683 18.6735 83.6683 19.9001V26.0001H82.1683L82.0683 24.2201C81.7883 24.7801 81.3749 25.2601 80.8283 25.6601C80.2949 26.0468 79.5749 26.2401 78.6683 26.2401ZM78.9283 24.8201C79.5683 24.8201 80.1149 24.6535 80.5683 24.3201C81.0349 23.9868 81.3883 23.5535 81.6283 23.0201C81.8683 22.4868 81.9883 21.9268 81.9883 21.3401V21.3201H79.4483C78.4616 21.3201 77.7616 21.4935 77.3483 21.8401C76.9483 22.1735 76.7483 22.5935 76.7483 23.1001C76.7483 23.6201 76.9349 24.0401 77.3083 24.3601C77.6949 24.6668 78.2349 24.8201 78.9283 24.8201ZM86.1886 26.0001V16.0801H87.7086L87.8086 17.8601C88.1286 17.2335 88.5886 16.7401 89.1886 16.3801C89.7886 16.0201 90.4686 15.8401 91.2286 15.8401C92.4019 15.8401 93.3353 16.2001 94.0286 16.9201C94.7353 17.6268 95.0886 18.7201 95.0886 20.2001V26.0001H93.4086V20.3801C93.4086 18.3135 92.5553 17.2801 90.8486 17.2801C89.9953 17.2801 89.2819 17.5935 88.7086 18.2201C88.1486 18.8335 87.8686 19.7135 87.8686 20.8601V26.0001H86.1886ZM102.154 26.2401C101.221 26.2401 100.381 26.0268 99.6339 25.6001C98.8872 25.1735 98.2939 24.5735 97.8539 23.8001C97.4272 23.0135 97.2139 22.0935 97.2139 21.0401C97.2139 19.9868 97.4339 19.0735 97.8739 18.3001C98.3139 17.5135 98.9072 16.9068 99.6539 16.4801C100.414 16.0535 101.261 15.8401 102.194 15.8401C103.127 15.8401 103.967 16.0535 104.714 16.4801C105.461 16.9068 106.047 17.5135 106.474 18.3001C106.914 19.0735 107.134 19.9868 107.134 21.0401C107.134 22.0935 106.914 23.0135 106.474 23.8001C106.034 24.5735 105.434 25.1735 104.674 25.6001C103.927 26.0268 103.087 26.2401 102.154 26.2401ZM102.154 24.8001C102.727 24.8001 103.261 24.6601 103.754 24.3801C104.247 24.1001 104.647 23.6801 104.954 23.1201C105.261 22.5601 105.414 21.8668 105.414 21.0401C105.414 20.2135 105.261 19.5201 104.954 18.9601C104.661 18.4001 104.267 17.9801 103.774 17.7001C103.281 17.4201 102.754 17.2801 102.194 17.2801C101.621 17.2801 101.087 17.4201 100.594 17.7001C100.101 17.9801 99.7006 18.4001 99.3939 18.9601C99.0872 19.5201 98.9339 20.2135 98.9339 21.0401C98.9339 21.8668 99.0872 22.5601 99.3939 23.1201C99.7006 23.6801 100.094 24.1001 100.574 24.3801C101.067 24.6601 101.594 24.8001 102.154 24.8001ZM108.13 28.3801L109.29 23.9601H111.03L109.29 28.3801H108.13ZM124.558 26.2401C123.184 26.2401 121.998 25.9401 120.998 25.3401C120.011 24.7268 119.244 23.8801 118.698 22.8001C118.151 21.7068 117.878 20.4401 117.878 19.0001C117.878 17.5735 118.151 16.3201 118.698 15.2401C119.244 14.1468 120.011 13.2935 120.998 12.6801C121.998 12.0668 123.184 11.7601 124.558 11.7601C126.158 11.7601 127.458 12.1468 128.458 12.9201C129.471 13.6801 130.118 14.7468 130.398 16.1201H128.538C128.324 15.2535 127.884 14.5601 127.217 14.0401C126.564 13.5068 125.678 13.2401 124.558 13.2401C123.558 13.2401 122.684 13.4735 121.938 13.9401C121.191 14.3935 120.611 15.0535 120.198 15.9201C119.798 16.7735 119.598 17.8001 119.598 19.0001C119.598 20.2001 119.798 21.2335 120.198 22.1001C120.611 22.9535 121.191 23.6135 121.938 24.0801C122.684 24.5335 123.558 24.7601 124.558 24.7601C125.678 24.7601 126.564 24.5068 127.217 24.0001C127.884 23.4801 128.324 22.7935 128.538 21.9401H130.398C130.118 23.2868 129.471 24.3401 128.458 25.1001C127.458 25.8601 126.158 26.2401 124.558 26.2401ZM132.812 26.0001V12.0001H134.492V18.1801H141.752V12.0001H143.432V26.0001H141.752V19.5601H134.492V26.0001H132.812Z" fill="white" fill-opacity="0.8"/>
</g>
<defs>
<filter id="filter0_b_36_60" x="-39" y="-38.9999" width="238" height="116" filterUnits="userSpaceOnUse" color-interpolation-filters="sRGB">
<feFlood flood-opacity="0" result="BackgroundImageFix"/>
<feGaussianBlur in="BackgroundImageFix" stdDeviation="19.5"/>
<feComposite in2="SourceAlpha" operator="in" result="effect1_backgroundBlur_36_60"/>
<feBlend mode="normal" in="SourceGraphic" in2="effect1_backgroundBlur_36_60" result="shape"/>
</filter>
<linearGradient id="paint0_linear_36_60" x1="8.71145e-07" y1="19.0001" x2="160" y2="19.0001" gradientUnits="userSpaceOnUse">
<stop stop-color="#11F2B7"/>
<stop offset="1" stop-color="#847FF5"/>
</linearGradient>
<linearGradient id="paint1_linear_36_60" x1="8.71145e-07" y1="19.0001" x2="160" y2="19.0001" gradientUnits="userSpaceOnUse">
<stop stop-color="#11F2B7"/>
<stop offset="1" stop-color="#847FF5"/>
</linearGradient>
</defs>
</svg>
