<svg width="206" height="38" viewBox="0 0 206 38" fill="none" xmlns="http://www.w3.org/2000/svg">
<g filter="url(#filter0_b_36_71)">
<rect y="0.00012207" width="206" height="38" rx="19" fill="url(#paint0_linear_36_71)" fill-opacity="0.1"/>
<rect x="0.5" y="0.500122" width="205" height="37" rx="18.5" stroke="url(#paint1_linear_36_71)" stroke-opacity="0.3"/>
<path d="M20.85 11.1251C21.2849 11.1251 21.6375 11.4777 21.6375 11.9126V12.7001H26.3625V11.9126C26.3625 11.4777 26.7151 11.1251 27.15 11.1251C27.5849 11.1251 27.9375 11.4777 27.9375 11.9126V12.7001H31.0875C31.5224 12.7001 31.875 13.0527 31.875 13.4876V26.0876C31.875 26.5226 31.5224 26.8751 31.0875 26.8751H16.9125C16.4776 26.8751 16.125 26.5226 16.125 26.0876V13.4876C16.125 13.0527 16.4776 12.7001 16.9125 12.7001H20.0625V11.9126C20.0625 11.4777 20.4151 11.1251 20.85 11.1251ZM30.3 19.0001H17.7V25.3001H30.3V19.0001ZM22.2125 20.5751C22.7648 20.5751 23.2125 21.0228 23.2125 21.5751V22.7251C23.2125 23.2774 22.7648 23.7251 22.2125 23.7251H20.275C19.7227 23.7251 19.275 23.2774 19.275 22.7251V21.5751C19.275 21.0228 19.7227 20.5751 20.275 20.5751H22.2125ZM20.0625 14.2751H17.7V17.4251H30.3V14.2751H27.9375V15.0626C27.9375 15.4975 27.5849 15.8501 27.15 15.8501C26.7151 15.8501 26.3625 15.4975 26.3625 15.0626V14.2751H21.6375V15.0626C21.6375 15.4975 21.2849 15.8501 20.85 15.8501C20.4151 15.8501 20.0625 15.4975 20.0625 15.0626V14.2751Z" fill="white" fill-opacity="0.8"/>
<path d="M42.26 26.0001V24.8201C43.2067 24.0735 44.1 23.3201 44.94 22.5601C45.7933 21.7868 46.5467 21.0268 47.2 20.2801C47.8667 19.5335 48.3867 18.8001 48.76 18.0801C49.1467 17.3601 49.34 16.6668 49.34 16.0001C49.34 15.5068 49.2533 15.0468 49.08 14.6201C48.92 14.1935 48.6533 13.8535 48.28 13.6001C47.9067 13.3335 47.4 13.2001 46.76 13.2001C46.1467 13.2001 45.6333 13.3401 45.22 13.6201C44.8067 13.8868 44.4933 14.2468 44.28 14.7001C44.08 15.1535 43.98 15.6401 43.98 16.1601H42.36C42.36 15.2401 42.5533 14.4535 42.94 13.8001C43.3267 13.1335 43.8533 12.6268 44.52 12.2801C45.1867 11.9335 45.94 11.7601 46.78 11.7601C48.02 11.7601 49.0333 12.1135 49.82 12.8201C50.62 13.5135 51.02 14.5535 51.02 15.9401C51.02 16.7668 50.8133 17.5868 50.4 18.4001C49.9867 19.2001 49.46 19.9801 48.82 20.7401C48.18 21.4868 47.4933 22.1868 46.76 22.8401C46.04 23.4935 45.3667 24.0801 44.74 24.6001H51.5V26.0001H42.26ZM58.6853 26.2401C57.7253 26.2401 56.892 26.0668 56.1853 25.7201C55.4786 25.3735 54.912 24.9001 54.4853 24.3001C54.072 23.6868 53.8186 22.9935 53.7253 22.2201H55.3653C55.5253 22.9935 55.8986 23.6201 56.4853 24.1001C57.072 24.5668 57.812 24.8001 58.7053 24.8001C59.372 24.8001 59.9453 24.6468 60.4253 24.3401C60.9053 24.0201 61.272 23.5935 61.5253 23.0601C61.792 22.5268 61.9253 21.9335 61.9253 21.2801C61.9253 20.2401 61.632 19.4001 61.0453 18.7601C60.4586 18.1201 59.6986 17.8001 58.7653 17.8001C57.992 17.8001 57.332 17.9735 56.7853 18.3201C56.2386 18.6668 55.8386 19.1201 55.5853 19.6801H53.9853L55.1853 12.0001H62.5253V13.4601H56.4853L55.6653 17.7201C55.9853 17.3335 56.4253 17.0135 56.9853 16.7601C57.5586 16.5068 58.212 16.3801 58.9453 16.3801C59.8653 16.3801 60.6653 16.5935 61.3453 17.0201C62.0386 17.4468 62.5786 18.0268 62.9653 18.7601C63.352 19.4935 63.5453 20.3268 63.5453 21.2601C63.5453 22.1535 63.352 22.9801 62.9653 23.7401C62.592 24.5001 62.0386 25.1068 61.3053 25.5601C60.5853 26.0135 59.712 26.2401 58.6853 26.2401ZM65.8714 20.9001V19.4801H73.7914V20.9001H65.8714ZM76.2053 26.0001V24.8201C77.152 24.0735 78.0453 23.3201 78.8853 22.5601C79.7386 21.7868 80.492 21.0268 81.1453 20.2801C81.812 19.5335 82.332 18.8001 82.7053 18.0801C83.092 17.3601 83.2853 16.6668 83.2853 16.0001C83.2853 15.5068 83.1986 15.0468 83.0253 14.6201C82.8653 14.1935 82.5986 13.8535 82.2253 13.6001C81.852 13.3335 81.3453 13.2001 80.7053 13.2001C80.092 13.2001 79.5786 13.3401 79.1653 13.6201C78.752 13.8868 78.4386 14.2468 78.2253 14.7001C78.0253 15.1535 77.9253 15.6401 77.9253 16.1601H76.3053C76.3053 15.2401 76.4986 14.4535 76.8853 13.8001C77.272 13.1335 77.7986 12.6268 78.4653 12.2801C79.132 11.9335 79.8853 11.7601 80.7253 11.7601C81.9653 11.7601 82.9786 12.1135 83.7653 12.8201C84.5653 13.5135 84.9653 14.5535 84.9653 15.9401C84.9653 16.7668 84.7586 17.5868 84.3453 18.4001C83.932 19.2001 83.4053 19.9801 82.7653 20.7401C82.1253 21.4868 81.4386 22.1868 80.7053 22.8401C79.9853 23.4935 79.312 24.0801 78.6853 24.6001H85.4453V26.0001H76.2053ZM88.6986 26.0001L94.2586 13.4401H86.5786V12.0001H95.9786V13.2601L90.4786 26.0001H88.6986ZM109.856 26.2401C108.482 26.2401 107.276 25.9401 106.236 25.3401C105.209 24.7268 104.402 23.8735 103.816 22.7801C103.242 21.6868 102.956 20.4268 102.956 19.0001C102.956 17.5735 103.242 16.3201 103.816 15.2401C104.402 14.1468 105.209 13.2935 106.236 12.6801C107.276 12.0668 108.482 11.7601 109.856 11.7601C111.242 11.7601 112.449 12.0668 113.476 12.6801C114.516 13.2935 115.322 14.1468 115.896 15.2401C116.469 16.3201 116.756 17.5735 116.756 19.0001C116.756 20.4268 116.469 21.6868 115.896 22.7801C115.322 23.8735 114.516 24.7268 113.476 25.3401C112.449 25.9401 111.242 26.2401 109.856 26.2401ZM109.856 24.7601C110.882 24.7601 111.782 24.5335 112.556 24.0801C113.342 23.6135 113.949 22.9535 114.376 22.1001C114.816 21.2335 115.036 20.2001 115.036 19.0001C115.036 17.8001 114.816 16.7735 114.376 15.9201C113.949 15.0668 113.342 14.4135 112.556 13.9601C111.782 13.4935 110.882 13.2601 109.856 13.2601C108.829 13.2601 107.922 13.4935 107.136 13.9601C106.362 14.4135 105.756 15.0668 105.316 15.9201C104.889 16.7735 104.676 17.8001 104.676 19.0001C104.676 20.2001 104.889 21.2335 105.316 22.1001C105.756 22.9535 106.362 23.6135 107.136 24.0801C107.922 24.5335 108.829 24.7601 109.856 24.7601ZM123.639 26.2401C122.693 26.2401 121.839 26.0268 121.079 25.6001C120.333 25.1601 119.739 24.5535 119.299 23.7801C118.873 22.9935 118.659 22.0801 118.659 21.0401C118.659 20.0001 118.873 19.0935 119.299 18.3201C119.739 17.5335 120.333 16.9268 121.079 16.5001C121.839 16.0601 122.693 15.8401 123.639 15.8401C124.813 15.8401 125.799 16.1468 126.599 16.7601C127.413 17.3735 127.926 18.1935 128.139 19.2201H126.419C126.286 18.6068 125.959 18.1335 125.439 17.8001C124.919 17.4535 124.313 17.2801 123.619 17.2801C123.059 17.2801 122.533 17.4201 122.039 17.7001C121.546 17.9801 121.146 18.4001 120.839 18.9601C120.533 19.5201 120.379 20.2135 120.379 21.0401C120.379 21.8668 120.533 22.5601 120.839 23.1201C121.146 23.6801 121.546 24.1068 122.039 24.4001C122.533 24.6801 123.059 24.8201 123.619 24.8201C124.313 24.8201 124.919 24.6535 125.439 24.3201C125.959 23.9735 126.286 23.4868 126.419 22.8601H128.139C127.939 23.8601 127.433 24.6735 126.619 25.3001C125.806 25.9268 124.813 26.2401 123.639 26.2401ZM134.132 26.0001C133.225 26.0001 132.512 25.7801 131.992 25.3401C131.472 24.9001 131.212 24.1068 131.212 22.9601V17.5001H129.492V16.0801H131.212L131.432 13.7001H132.892V16.0801H135.812V17.5001H132.892V22.9601C132.892 23.5868 133.019 24.0135 133.272 24.2401C133.525 24.4535 133.972 24.5601 134.612 24.5601H135.652V26.0001H134.132ZM143.119 26.0001V24.8201C144.066 24.0735 144.959 23.3201 145.799 22.5601C146.653 21.7868 147.406 21.0268 148.059 20.2801C148.726 19.5335 149.246 18.8001 149.619 18.0801C150.006 17.3601 150.199 16.6668 150.199 16.0001C150.199 15.5068 150.113 15.0468 149.939 14.6201C149.779 14.1935 149.513 13.8535 149.139 13.6001C148.766 13.3335 148.259 13.2001 147.619 13.2001C147.006 13.2001 146.493 13.3401 146.079 13.6201C145.666 13.8868 145.353 14.2468 145.139 14.7001C144.939 15.1535 144.839 15.6401 144.839 16.1601H143.219C143.219 15.2401 143.413 14.4535 143.799 13.8001C144.186 13.1335 144.713 12.6268 145.379 12.2801C146.046 11.9335 146.799 11.7601 147.639 11.7601C148.879 11.7601 149.893 12.1135 150.679 12.8201C151.479 13.5135 151.879 14.5535 151.879 15.9401C151.879 16.7668 151.673 17.5868 151.259 18.4001C150.846 19.2001 150.319 19.9801 149.679 20.7401C149.039 21.4868 148.353 22.1868 147.619 22.8401C146.899 23.4935 146.226 24.0801 145.599 24.6001H152.359V26.0001H143.119ZM160.049 26.2401C158.809 26.2401 157.736 25.9401 156.829 25.3401C155.936 24.7268 155.249 23.8801 154.769 22.8001C154.289 21.7068 154.049 20.4401 154.049 19.0001C154.049 17.5601 154.289 16.3001 154.769 15.2201C155.249 14.1268 155.936 13.2801 156.829 12.6801C157.736 12.0668 158.809 11.7601 160.049 11.7601C161.289 11.7601 162.356 12.0668 163.249 12.6801C164.143 13.2801 164.829 14.1268 165.309 15.2201C165.789 16.3001 166.029 17.5601 166.029 19.0001C166.029 20.4401 165.789 21.7068 165.309 22.8001C164.829 23.8801 164.143 24.7268 163.249 25.3401C162.356 25.9401 161.289 26.2401 160.049 26.2401ZM160.049 24.7601C160.863 24.7601 161.589 24.5335 162.229 24.0801C162.883 23.6135 163.389 22.9535 163.749 22.1001C164.123 21.2335 164.309 20.2001 164.309 19.0001C164.309 17.8001 164.123 16.7735 163.749 15.9201C163.389 15.0668 162.883 14.4135 162.229 13.9601C161.589 13.4935 160.863 13.2601 160.049 13.2601C159.223 13.2601 158.489 13.4935 157.849 13.9601C157.209 14.4135 156.703 15.0668 156.329 15.9201C155.956 16.7735 155.769 17.8001 155.769 19.0001C155.769 20.2001 155.956 21.2335 156.329 22.1001C156.703 22.9535 157.209 23.6135 157.849 24.0801C158.489 24.5335 159.223 24.7601 160.049 24.7601ZM168.041 26.0001V24.8201C168.988 24.0735 169.881 23.3201 170.721 22.5601C171.575 21.7868 172.328 21.0268 172.981 20.2801C173.648 19.5335 174.168 18.8001 174.541 18.0801C174.928 17.3601 175.121 16.6668 175.121 16.0001C175.121 15.5068 175.035 15.0468 174.861 14.6201C174.701 14.1935 174.435 13.8535 174.061 13.6001C173.688 13.3335 173.181 13.2001 172.541 13.2001C171.928 13.2001 171.415 13.3401 171.001 13.6201C170.588 13.8868 170.275 14.2468 170.061 14.7001C169.861 15.1535 169.761 15.6401 169.761 16.1601H168.141C168.141 15.2401 168.335 14.4535 168.721 13.8001C169.108 13.1335 169.635 12.6268 170.301 12.2801C170.968 11.9335 171.721 11.7601 172.561 11.7601C173.801 11.7601 174.815 12.1135 175.601 12.8201C176.401 13.5135 176.801 14.5535 176.801 15.9401C176.801 16.7668 176.595 17.5868 176.181 18.4001C175.768 19.2001 175.241 19.9801 174.601 20.7401C173.961 21.4868 173.275 22.1868 172.541 22.8401C171.821 23.4935 171.148 24.0801 170.521 24.6001H177.281V26.0001H168.041ZM185.715 26.0001V23.0001H178.615V21.7001L185.415 12.0001H187.375V21.5201H189.455V23.0001H187.375V26.0001H185.715ZM180.475 21.5201H185.795V13.8601L180.475 21.5201Z" fill="white" fill-opacity="0.8"/>
</g>
<defs>
<filter id="filter0_b_36_71" x="-39" y="-38.9999" width="284" height="116" filterUnits="userSpaceOnUse" color-interpolation-filters="sRGB">
<feFlood flood-opacity="0" result="BackgroundImageFix"/>
<feGaussianBlur in="BackgroundImageFix" stdDeviation="19.5"/>
<feComposite in2="SourceAlpha" operator="in" result="effect1_backgroundBlur_36_71"/>
<feBlend mode="normal" in="SourceGraphic" in2="effect1_backgroundBlur_36_71" result="shape"/>
</filter>
<linearGradient id="paint0_linear_36_71" x1="1.1216e-06" y1="19.0001" x2="206" y2="19.0001" gradientUnits="userSpaceOnUse">
<stop stop-color="#11F2B7"/>
<stop offset="1" stop-color="#847FF5"/>
</linearGradient>
<linearGradient id="paint1_linear_36_71" x1="1.1216e-06" y1="19.0001" x2="206" y2="19.0001" gradientUnits="userSpaceOnUse">
<stop stop-color="#11F2B7"/>
<stop offset="1" stop-color="#847FF5"/>
</linearGradient>
</defs>
</svg>
