<svg width="355" height="62" viewBox="0 0 355 62" fill="none" xmlns="http://www.w3.org/2000/svg">
<path fill-rule="evenodd" clip-rule="evenodd" d="M62.1586 31C62.1586 48.1209 48.2439 62 31.0793 62C13.9146 62 0 48.1209 0 31C0 13.8791 13.9146 0 31.0793 0C48.2439 0 62.1586 13.8791 62.1586 31ZM28.2469 27.7536L28.2466 27.7534L28.2466 27.7533C27.9072 27.509 27.571 27.2669 27.2615 27.0394C34.5951 24.5035 42.0766 21.9742 49.5319 19.4538L51.6355 18.7426L48.2446 41.6642C48.1202 41.5849 48.0057 41.5133 47.8984 41.4461L47.8973 41.4454L47.8972 41.4453C47.6818 41.3105 47.4948 41.1935 47.3135 41.0686C46.1963 40.2986 45.0802 39.5269 43.9703 38.7463C43.7336 38.5799 43.5881 38.6102 43.4077 38.838C41.9888 40.6294 40.388 42.245 38.5599 43.6187C36.0796 45.4825 33.3505 46.8192 30.2332 47.2042C27.3917 47.5551 24.7354 46.954 22.2529 45.5289C20.9738 44.7945 19.6834 44.0797 18.393 43.365L18.3924 43.3646C17.8573 43.0683 17.3223 42.7719 16.7881 42.4742C16.4681 42.2958 16.1478 42.1182 15.8274 41.9405L15.8264 41.94C15.3335 41.6667 14.8407 41.3935 14.3494 41.1175C14.2681 41.0718 14.1946 41.0123 14.1211 40.9528C14.0872 40.9253 14.0533 40.8979 14.0186 40.8718L14.0267 40.8542L14.0611 40.7794C14.137 40.7912 14.2128 40.8035 14.2887 40.8159C14.4519 40.8424 14.6152 40.8689 14.779 40.8909C17.2766 41.2258 19.6625 40.787 21.9701 39.8393C25.738 38.2919 28.8407 35.8357 31.5355 32.831C31.7686 32.5709 31.9864 32.2971 32.2042 32.0233C32.3621 31.8247 32.5201 31.6262 32.684 31.4328C32.8877 31.1925 32.8545 31.0278 32.6 30.8502C31.7351 30.2462 30.8749 29.6355 30.0038 29.0171C29.7746 28.8544 29.5447 28.6911 29.3138 28.5274C28.9732 28.2765 28.6082 28.0137 28.2469 27.7536ZM9.40806 30.3833C9.16138 28.8813 9.23837 27.382 9.53664 25.8605C9.56328 25.6731 9.58752 25.517 9.617 25.3273C9.5759 25.3273 9.53873 25.3256 9.50442 25.324H9.50439H9.50437C9.43827 25.321 9.38278 25.3184 9.33018 25.3295C8.38458 25.5286 8.32099 25.5992 8.15743 26.5532C7.88256 28.157 7.81344 29.7708 7.89835 31.3943C7.97556 32.8704 8.32485 34.2986 9.02738 35.5766C10.8864 38.9586 13.9994 40.401 17.772 40.0114C19.6264 39.8199 21.3672 39.1976 23.0289 38.3627C24.7106 37.5179 26.2615 36.4779 27.7065 35.2725C29.0633 34.1405 30.2986 32.8935 31.4169 31.5285C31.5487 31.3677 31.5377 31.2396 31.3628 31.1209C31.2669 31.0557 31.1725 30.9877 31.0782 30.9197L31.0782 30.9197L31.0782 30.9197C30.8762 30.774 30.6743 30.6285 30.4569 30.5111C30.3411 30.4485 30.0984 30.4658 30.0008 30.5487C29.6772 30.8234 29.3646 31.111 29.0519 31.3985L29.0518 31.3986L29.0517 31.3987C28.8182 31.6134 28.5847 31.8282 28.3466 32.0377C26.5779 33.5938 24.7274 35.0351 22.6111 36.1061C21.4241 36.7067 20.1765 37.1464 18.8651 37.3225C18.1752 37.4151 17.4676 37.3932 16.7638 37.3714C16.6117 37.3667 16.4598 37.362 16.3083 37.3585C15.2757 37.3344 14.2868 37.077 13.3847 36.581C10.9412 35.2373 9.84033 33.0149 9.40806 30.3833ZM13.2858 35.4661C11.8022 34.4256 10.9634 32.9829 10.5227 31.296C10.0675 29.5539 10.0916 27.7953 10.4548 26.0377C10.4626 25.9998 10.4762 25.9631 10.4948 25.9132C10.5053 25.8847 10.5175 25.8519 10.5311 25.8121C10.5787 25.8326 10.6256 25.8506 10.6713 25.8682C10.7659 25.9047 10.8554 25.9392 10.9354 25.9887C11.8961 26.5834 12.8563 27.1788 13.8165 27.7742L13.8188 27.7756L13.8194 27.776C15.8081 29.0092 17.7967 30.2424 19.7898 31.4685C20.0596 31.6344 20.1285 31.8222 20.1125 32.1122C20.063 33.0138 20.0202 33.9161 20.0019 34.8187C19.9968 35.0696 20.0348 35.3221 20.0726 35.5736C20.0834 35.6455 20.0942 35.7174 20.104 35.7891C20.1342 36.0098 20.0799 36.1265 19.8365 36.1887C18.3756 36.5624 16.9133 36.6169 15.4276 36.3297C14.6586 36.181 13.962 35.8953 13.2858 35.4661ZM26.6965 26.1598L47.6158 19.133L50.3299 18.2143C50.6793 18.0952 50.7147 17.9529 50.4507 17.7242C50.37 17.6543 50.37 17.6543 50.328 17.6214C50.2859 17.5884 50.2019 17.5225 49.9531 17.3208C49.6834 17.102 49.4848 17.0853 49.1966 17.1806C47.8014 17.6421 45.0054 18.5483 45.0054 18.5483L25.0684 25.0838C25.1836 25.1922 25.2935 25.2938 25.3992 25.3916C25.6368 25.6113 25.8527 25.811 26.0577 26.0213C26.2505 26.2189 26.4297 26.2498 26.6965 26.1598Z" fill="url(#paint0_linear_1162_83)"/>
<path d="M75.7959 48.9151V8.69231C78.7289 8.14712 82.9722 7.78366 87.4028 7.78366C93.4558 7.78366 97.5123 8.75289 100.383 11.0548C102.691 12.9327 104.002 15.7797 104.002 19.2932C104.002 24.5633 100.32 28.1374 96.3262 29.47V29.6518C99.3837 30.7422 101.194 33.5892 102.192 37.5267C103.565 42.6152 104.688 47.3401 105.5 48.9151H97.6364C97.0132 47.7036 95.9521 44.3719 94.8289 39.2835C93.5808 33.9527 91.6464 32.2566 87.2781 32.1354H83.4091V48.9151H75.7959ZM83.4091 13.7807V26.6835H87.9645C93.1437 26.6835 96.3262 24.0182 96.3262 19.9595C96.3262 15.5375 93.1437 13.4172 88.1517 13.4172C85.7179 13.4172 84.1579 13.599 83.4091 13.7807ZM133.772 36.2546H113.428C113.616 41.5853 117.859 43.8872 122.789 43.8872C126.346 43.8872 128.842 43.3421 131.213 42.5546L132.336 47.643C129.716 48.7333 126.096 49.5208 121.729 49.5208C111.869 49.5208 106.065 43.6449 106.065 34.619C106.065 26.4412 111.182 18.748 120.917 18.748C130.777 18.748 134.022 26.6229 134.022 33.1046C134.022 34.4979 133.897 35.5883 133.772 36.2546ZM113.428 31.045H126.783C126.846 28.319 125.597 23.8364 120.481 23.8364C115.738 23.8364 113.741 28.0162 113.428 31.045ZM136.981 60.9092V29.2277C136.981 25.3508 136.857 22.2009 136.732 19.4143H143.471L143.846 23.9576H143.97C146.217 20.6259 149.774 18.748 154.391 18.748C161.38 18.748 167.184 24.5633 167.184 33.771C167.184 44.4324 160.257 49.5814 153.33 49.5814C149.524 49.5814 146.341 48.0064 144.782 45.644H144.657V60.9092H136.981ZM144.657 32.0142V36.5575C144.657 37.2844 144.719 37.9507 144.844 38.617C145.655 41.6459 148.338 43.8266 151.646 43.8266C156.513 43.8266 159.384 39.8892 159.384 34.0739C159.384 28.8643 156.763 24.6239 151.833 24.6239C148.65 24.6239 145.717 26.8652 144.906 30.1363C144.782 30.7422 144.657 31.4085 144.657 32.0142ZM193.877 31.2267V41.8277C193.877 44.493 194.002 47.0978 194.377 48.9151H187.45L186.889 45.644H186.701C184.891 47.9458 181.709 49.5814 177.715 49.5814C171.599 49.5814 168.168 45.2805 168.168 40.7979C168.168 33.4075 174.969 29.5912 186.202 29.6518V29.1671C186.202 27.2287 185.391 24.0182 180.024 24.0182C177.028 24.0182 173.909 24.9267 171.849 26.1989L170.351 21.3528C172.598 20.0201 176.529 18.748 181.334 18.748C191.069 18.748 193.877 24.7451 193.877 31.2267ZM186.389 38.5565V34.4979C180.96 34.4373 175.78 35.5277 175.78 40.0104C175.78 42.918 177.715 44.2507 180.149 44.2507C183.269 44.2507 185.453 42.3122 186.202 40.1921C186.389 39.6469 186.389 39.1017 186.389 38.5565ZM206.459 48.9151H198.783V19.4143H206.459V48.9151ZM202.652 7.11731C205.273 7.11731 206.895 8.874 206.957 11.1759C206.957 13.3567 205.273 15.174 202.59 15.174C200.031 15.174 198.347 13.3567 198.347 11.1759C198.347 8.874 200.093 7.11731 202.652 7.11731ZM211.555 48.9151V28.9249C211.555 24.9267 211.492 22.0191 211.304 19.4143H217.919L218.231 24.9873H218.419C219.916 20.8681 223.473 18.748 226.78 18.748C227.529 18.748 227.966 18.8086 228.59 18.9297V25.896C227.904 25.7748 227.217 25.7143 226.281 25.7143C222.662 25.7143 220.103 27.9556 219.416 31.3479C219.292 32.0142 219.229 32.8017 219.229 33.5892V48.9151H211.555ZM229.042 46.9766L230.789 40.7979C233.224 42.1911 237.029 43.4027 240.961 43.4027C245.829 43.4027 248.574 41.1613 248.574 37.8296C248.574 34.7402 246.453 32.9229 241.148 31.045C234.16 28.6219 229.728 25.0479 229.728 19.172C229.728 12.448 235.469 7.4202 244.643 7.4202C249.198 7.4202 252.506 8.38943 254.689 9.47983L252.88 15.4769C251.321 14.6894 248.386 13.5384 244.456 13.5384C239.589 13.5384 237.529 16.022 237.529 18.4451C237.529 21.595 239.962 23.0489 245.579 25.1691C252.88 27.8345 256.374 31.4085 256.374 37.2844C256.374 43.8872 251.258 49.5814 240.462 49.5814C235.969 49.5814 231.352 48.3699 229.042 46.9766ZM260.771 13.9018L268.322 11.8423V19.4143H275.622V24.9873H268.322V38.0113C268.322 41.6459 269.32 43.4632 272.253 43.4632C273.625 43.4632 274.375 43.4027 275.249 43.1603L275.373 48.7939C274.25 49.218 272.19 49.5814 269.82 49.5814C266.948 49.5814 264.64 48.6728 263.205 47.1583C261.52 45.4622 260.771 42.7362 260.771 38.8594V24.9873H256.465V19.4143H260.771V13.9018ZM291.63 18.748C300.679 18.748 306.732 24.9267 306.732 33.8921C306.732 44.7353 298.869 49.5814 291.132 49.5814C282.582 49.5814 275.905 43.8872 275.905 34.3767C275.905 24.6845 282.457 18.748 291.63 18.748ZM291.444 24.1393C286.014 24.1393 283.83 29.2883 283.83 34.195C283.83 39.8892 286.763 44.1901 291.381 44.1901C295.749 44.1901 298.806 40.0709 298.806 34.0739C298.806 29.47 296.685 24.1393 291.444 24.1393ZM309.867 48.9151V28.9249C309.867 24.9267 309.805 22.0191 309.618 19.4143H316.232L316.544 24.9873H316.732C318.23 20.8681 321.787 18.748 325.094 18.748C325.843 18.748 326.28 18.8086 326.904 18.9297V25.896C326.217 25.7748 325.531 25.7143 324.595 25.7143C320.976 25.7143 318.417 27.9556 317.731 31.3479C317.606 32.0142 317.544 32.8017 317.544 33.5892V48.9151H309.867ZM354.14 36.2546H333.796C333.983 41.5853 338.227 43.8872 343.157 43.8872C346.713 43.8872 349.21 43.3421 351.581 42.5546L352.704 47.643C350.083 48.7333 346.463 49.5208 342.096 49.5208C332.236 49.5208 326.433 43.6449 326.433 34.619C326.433 26.4412 331.55 18.748 341.285 18.748C351.144 18.748 354.39 26.6229 354.39 33.1046C354.39 34.4979 354.264 35.5883 354.14 36.2546ZM333.796 31.045H347.151C347.213 28.319 345.965 23.8364 340.848 23.8364C336.106 23.8364 334.108 28.0162 333.796 31.045Z" fill="url(#paint1_linear_1162_83)"/>
<defs>
<linearGradient id="paint0_linear_1162_83" x1="31.0793" y1="0" x2="31.0793" y2="62" gradientUnits="userSpaceOnUse">
<stop stop-color="white"/>
<stop offset="1" stop-color="white" stop-opacity="0.51"/>
</linearGradient>
<linearGradient id="paint1_linear_1162_83" x1="215.093" y1="7.11731" x2="215.093" y2="60.9092" gradientUnits="userSpaceOnUse">
<stop stop-color="white"/>
<stop offset="1" stop-color="white" stop-opacity="0.51"/>
</linearGradient>
</defs>
</svg>
