<svg width="378" height="103" viewBox="0 0 378 103" fill="none" xmlns="http://www.w3.org/2000/svg">
<path d="M247.698 40.725C245.257 39.8023 242.684 39.2789 240.078 39.1749C237.178 39.1749 234.908 39.935 234.908 42.575C234.908 48.815 250.968 44.9749 250.968 57.8149C250.968 66.5049 243.918 69.8149 235.968 69.8149C232.36 69.8085 228.772 69.2762 225.318 68.2349L225.948 60.615C229.065 61.6417 232.309 62.2372 235.588 62.3849C238.668 62.3849 241.188 61.3849 241.188 58.7349C241.188 52.0549 225.138 56.3349 225.138 43.5549C225.138 35.5549 231.868 32.285 239.298 32.285C242.722 32.2444 246.129 32.7784 249.378 33.865L247.698 40.725ZM218.348 40.725C215.909 39.8071 213.34 39.2839 210.738 39.1749C207.838 39.1749 205.508 39.935 205.508 42.575C205.508 48.815 221.628 44.9749 221.628 57.8149C221.628 66.5049 214.518 69.8149 206.628 69.8149C202.981 69.7997 199.355 69.2677 195.858 68.2349L196.548 60.615C199.686 61.6391 202.949 62.2344 206.248 62.3849C209.248 62.3849 211.788 61.3849 211.788 58.7349C211.788 52.0549 195.668 56.3349 195.668 43.5549C195.668 35.5549 202.468 32.285 209.828 32.285C213.294 32.2532 216.743 32.7868 220.038 33.865L218.348 40.725ZM366.698 32.225C373.698 32.225 377.778 36.005 377.778 44.225V69.035H368.458V46.1749C368.458 42.4649 367.388 40.005 363.458 40.005C359.528 40.005 356.028 43.4649 356.028 49.6949V69.0949H346.908V46.1749C346.908 42.7149 345.768 40.005 341.798 40.005C337.648 40.005 334.438 43.845 334.438 50.075V69.075H324.998V32.9849C331.158 32.2249 333.488 34.7449 333.748 38.7749C334.837 36.7483 336.467 35.0634 338.457 33.9071C340.446 32.7509 342.717 32.1686 345.018 32.225C351.498 32.225 354.078 35.815 355.018 39.225C356.588 35.645 360.618 32.225 366.728 32.225H366.698ZM176.858 32.9849C174.858 43.6849 169.678 60.5649 166.408 69.0649H156.588L149.658 45.0649H149.538L142.608 69.0649H132.848C129.698 60.6849 124.028 43.2449 122.398 32.9849H131.648L137.758 57.795H137.888L145.188 32.9849H154.448L161.558 57.6049H161.688L167.858 32.9849H176.858ZM116.858 40.725C114.417 39.8023 111.844 39.2789 109.238 39.1749C106.338 39.1749 104.138 39.935 104.138 42.575C104.138 48.815 120.138 44.9749 120.138 57.8149C120.138 66.5049 113.088 69.8149 105.138 69.8149C101.533 69.8094 97.9483 69.2771 94.4975 68.2349L95.0575 60.615C98.1964 61.6391 101.459 62.2344 104.758 62.3849C107.838 62.3849 110.358 61.3849 110.358 58.7349C110.358 52.0549 94.3575 56.3349 94.3575 43.5549C94.3575 35.5549 101.088 32.285 108.518 32.285C111.942 32.25 115.348 32.7839 118.598 33.865L116.858 40.725ZM301.968 69.8149C291.708 69.8149 284.528 64.2149 284.528 51.6249C284.528 40.3549 292.088 32.225 303.038 32.225C313.238 32.225 319.848 37.965 319.848 50.225C319.848 62.005 312.678 69.8049 301.968 69.8049V69.8149ZM302.348 40.1749C298.198 40.1749 294.228 43.2549 294.228 51.1749C294.228 58.0349 296.808 61.8749 302.228 61.8749C306.828 61.8749 310.358 58.1649 310.358 50.8749C310.358 43.8749 307.838 40.1749 302.358 40.1749H302.348ZM181.078 69.075H190.338V32.9849C185.988 32.5449 181.078 33.745 181.078 40.545V69.075ZM186.138 28.4549C186.91 28.4817 187.68 28.3537 188.402 28.0786C189.125 27.8035 189.785 27.3867 190.344 26.8529C190.903 26.3191 191.349 25.6789 191.657 24.97C191.965 24.2611 192.129 23.4978 192.138 22.7249C192.075 21.2218 191.434 19.801 190.349 18.7594C189.263 17.7179 187.817 17.1364 186.313 17.1364C184.808 17.1364 183.362 17.7179 182.276 18.7594C181.191 19.801 180.55 21.2218 180.488 22.7249C180.503 24.2262 181.1 25.6629 182.154 26.7319C183.209 27.8009 184.637 28.4187 186.138 28.4549ZM272.528 69.6949C261.818 69.6949 254.828 64.3449 254.828 51.5649C254.828 40.7249 260.828 32.3549 273.968 32.3549C276.971 32.3604 279.953 32.8709 282.788 33.865L280.788 41.4249C278.702 40.6039 276.488 40.157 274.248 40.1049C267.508 40.1049 264.738 44.505 264.738 51.1049C264.738 57.5349 267.258 61.8149 273.868 61.8149C276.383 61.7932 278.868 61.2554 281.168 60.2349L282.238 67.6649C280.438 68.8149 276.598 69.6949 272.568 69.6949H272.528Z" fill="url(#paint0_linear_985_73)"/>
<path d="M26.7976 85.845C27.1276 86.845 27.5076 87.755 27.9276 88.705C18.7276 83.515 14.5276 76.615 14.5276 71.135C14.5738 68.4514 15.3744 65.835 16.8376 63.585C20.8376 67.855 23.4476 72.325 24.3276 76.585C24.9531 79.721 25.7781 82.814 26.7976 85.845ZM44.5476 28.515C50.778 32.5523 56.7867 36.922 62.5476 41.605C62.8744 39.494 63.0382 37.361 63.0376 35.225C63.0376 21.585 54.5876 13.565 46.1876 10.705C44.0152 9.94669 41.7379 9.53171 39.4376 9.47495C38.5528 9.46868 37.6692 9.54232 36.7976 9.69496V23.105C38.7976 24.635 41.4976 26.455 44.5476 28.515ZM34.0476 0.114954C33.5616 0.010928 33.0632 -0.0227477 32.5676 0.0149554C31.3071 0.0864882 30.0638 0.342546 28.8776 0.774954C27.8174 1.14331 26.8318 1.69877 25.9676 2.41496C24.9917 3.2066 24.3145 4.30702 24.0476 5.53496C23.971 5.90683 23.9308 6.28529 23.9276 6.66496C23.9276 11.895 29.4476 17.195 34.0576 20.985L34.0476 0.114954ZM66.0476 48.685C64.7676 47.355 63.3776 46.015 61.8776 44.685C53.2476 36.955 40.0376 29.175 34.0476 24.445C28.8776 20.395 24.0476 15.855 22.4276 11.505L21.4276 12.275C18.8676 14.155 16.2876 16.015 13.7976 17.975C12.1576 19.275 10.5476 20.615 9.00763 22.035C7.4875 23.4009 6.06095 24.8676 4.73763 26.425C2.26763 29.425 0.317628 32.795 0.0376282 36.635C-0.0125427 37.2606 -0.0125427 37.8893 0.0376282 38.5149C0.0747485 39.1871 0.161652 39.8556 0.297627 40.5149C0.785903 42.8416 1.79064 45.0287 3.23763 46.915C4.86262 48.9904 6.7066 50.8847 8.73763 52.565L9.73763 53.455C12.0876 55.455 14.4776 57.455 16.7376 59.645C20.1162 62.7476 22.9135 66.4287 24.9976 70.515C26.8476 74.575 27.4276 78.955 28.6676 83.195C28.8076 83.645 28.9476 84.095 29.0976 84.545C29.3176 85.215 29.5576 85.885 29.8376 86.545C30.2335 87.5457 30.7471 88.4957 31.3676 89.375V72.175C27.5276 69.305 28.5076 63.305 26.3676 59.415C23.3676 54.035 13.3076 52.415 14.9376 44.665C16.0576 39.395 23.3076 40.295 26.1176 36.455C27.4676 34.615 27.9576 32.355 28.8776 30.305C29.3036 29.2297 30.013 28.2899 30.9303 27.5856C31.8477 26.8813 32.9388 26.4387 34.0876 26.305V102.125C36.0264 101.964 37.9556 101.704 39.8676 101.345C42.4159 100.876 44.9338 100.255 47.4076 99.485C49.5761 98.8085 51.7059 98.014 53.7876 97.1049C55.6554 96.2895 57.475 95.368 59.2376 94.345C61.5117 93.0372 63.6636 91.5278 65.6676 89.835C67.9187 87.934 69.9062 85.7413 71.5776 83.315C74.3555 79.294 75.9366 74.568 76.1376 69.685C76.229 67.689 76.0234 65.6905 75.5276 63.755C74.8303 61.1218 73.7234 58.6145 72.2476 56.325C70.4769 53.5769 68.4259 51.0199 66.1276 48.695" fill="url(#paint1_linear_985_73)"/>
<defs>
<linearGradient id="paint0_linear_985_73" x1="236.068" y1="17.1364" x2="236.068" y2="69.8149" gradientUnits="userSpaceOnUse">
<stop stop-color="white"/>
<stop offset="1" stop-color="white" stop-opacity="0.51"/>
</linearGradient>
<linearGradient id="paint1_linear_985_73" x1="38.0794" y1="0" x2="38.0794" y2="102.125" gradientUnits="userSpaceOnUse">
<stop stop-color="white"/>
<stop offset="1" stop-color="white" stop-opacity="0.51"/>
</linearGradient>
</defs>
</svg>
