<svg width="104" height="45" viewBox="0 0 104 45" fill="none" xmlns="http://www.w3.org/2000/svg">
<g clip-path="url(#clip0_301_70)">
<path d="M39.1238 21.2549L37.7257 19.267C38.1844 18.9612 39.648 18.0218 39.648 15.3568C39.648 14.9199 39.6043 14.4393 39.4296 14.0024C39.0582 13.0849 38.4029 12.932 37.9878 12.932C37.1796 12.932 36.8956 13.4782 36.7427 13.8714C36.6335 14.1553 36.6116 14.199 36.3495 15.3349L36.0218 16.8641C35.8252 17.6723 35.7378 18.0655 35.5849 18.4587C35.3446 19.0267 34.5801 20.5777 32.483 20.5777C30.0801 20.5777 28.5509 18.568 28.5509 15.5971C28.5509 12.8883 29.8835 11.4029 31.1068 10.5291L32.5485 12.4515C31.915 12.8883 30.6699 13.6966 30.6699 15.7282C30.6699 16.9951 31.2378 18.1092 32.199 18.1092C33.2694 18.1092 33.4878 16.9296 33.7063 15.7937L33.9903 14.483C34.3398 12.7791 35.0388 10.3981 37.7475 10.3981C40.6529 10.3981 41.8106 13.0849 41.8106 15.7718C41.8106 16.4709 41.7451 17.2573 41.5267 18.0218C41.2645 18.8301 40.6529 20.3155 39.1238 21.2549ZM40.1505 9.63349H28.8568V7.29611H38.1844C34.2087 3.21116 28.6383 0.655334 22.4781 0.655334C10.4199 0.677179 0.633465 10.4636 0.65531 22.5218C0.65531 28.4417 3.01453 33.7937 6.85919 37.7257C6.55337 37.2888 6.33492 36.8083 6.20385 36.3714C5.98541 35.6068 5.98541 35.0607 5.96356 32.8981V22.5218H9.21842V33.2257C9.21842 33.9684 9.19657 34.6893 9.43686 35.3447C10.0922 37.0267 11.9272 37.2233 12.9539 37.2233C13.4781 37.2233 14.7888 37.2015 15.75 36.3495C16.7111 35.4757 16.7111 34.4927 16.7111 33.051V22.5218H19.9878V33.4879C19.966 35.4539 19.966 37.0922 18.1092 38.6651C16.3398 40.216 14.0461 40.3689 12.8665 40.3689C11.7961 40.3689 10.7694 40.2379 9.78638 39.9102C9.37133 39.7791 9.02181 39.6044 8.6723 39.4078C12.4296 42.4879 17.2572 44.3447 22.5218 44.3447C34.5801 44.3228 44.3665 34.5364 44.3446 22.4782C44.3446 17.6723 42.7718 13.2379 40.1505 9.63349Z" fill="url(#paint0_linear_301_70)"/>
<path d="M60.5534 1.35437H52.0995V43.6238H60.5534V1.35437Z" fill="url(#paint1_linear_301_70)"/>
<path d="M102.823 1.35437V43.6456" stroke="url(#paint2_linear_301_70)" stroke-width="1.3656"/>
<path d="M67.5655 5.59224C67.5655 5.98544 67.5655 6.18204 67.4781 6.40049C67.3252 6.85923 66.801 7.44903 65.6869 7.44903C64.966 7.44903 64.1796 7.16505 63.9393 6.42233C63.8738 6.18204 63.8738 5.98544 63.8738 5.48301V2.77428H64.7257V5.57039C64.7257 5.83253 64.7257 5.94175 64.7694 6.07282C64.8568 6.33496 65.0971 6.61894 65.7087 6.61894C65.818 6.61894 66.4514 6.61894 66.6262 6.09466C66.6699 5.94175 66.6917 5.83253 66.6917 5.5267V2.77428H67.5437V5.59224H67.5655Z" fill="url(#paint3_linear_301_70)"/>
<path d="M69.4223 4.1068V4.47816C69.7063 4.04126 70.2961 3.99757 70.4272 3.99757C71.1044 3.99757 71.4757 4.43447 71.4757 5.06796V7.31796H70.7112V5.50486C70.7112 5.15534 70.6238 4.74029 70.1432 4.74029C70.0558 4.74029 69.9029 4.76214 69.7282 4.89321C69.4879 5.08981 69.4223 5.35194 69.4223 5.9199V7.31796H68.6359V4.1068H69.4223Z" fill="url(#paint4_linear_301_70)"/>
<path d="M72.3932 3.60437V2.81796H73.1578V3.60437H72.3932ZM72.3932 7.33981V4.1068H73.1578V7.33981H72.3932Z" fill="url(#paint5_linear_301_70)"/>
<path d="M75.6699 7.33981H74.8398L73.7913 4.1068H74.5995L75.2767 6.33495L75.932 4.1068H76.7403L75.6699 7.33981Z" fill="url(#paint6_linear_301_70)"/>
<path d="M77.898 5.87622C77.9199 6.02913 78.0509 6.68447 78.8155 6.68447C79.3616 6.68447 79.6019 6.3568 79.6675 6.24758L80.3228 6.61894C80.0607 6.96845 79.6019 7.44904 78.75 7.44904C77.7888 7.44904 77.0898 6.7937 77.0898 5.72331C77.0898 4.56554 77.8762 4.01942 78.7063 4.01942C79.9514 4.01942 80.3009 5.00243 80.3009 5.89807H77.898V5.87622ZM79.4272 5.30826C79.4053 5.15535 79.3179 4.63108 78.7063 4.63108C78.0728 4.63108 77.9417 5.17719 77.9199 5.30826H79.4272Z" fill="url(#paint7_linear_301_70)"/>
<path d="M81.8083 4.10679V4.56553C82.0486 4.0631 82.6165 4.04126 82.7694 4.04126H82.835V4.82767C82.6821 4.82767 82.0486 4.82767 81.8738 5.41747C81.8083 5.59223 81.8083 5.76699 81.8083 5.94174V7.31796H81.0437V4.10679H81.8083Z" fill="url(#paint8_linear_301_70)"/>
<path d="M85.6092 5.11166C85.4345 4.76214 85.1068 4.63108 84.7354 4.63108C84.5825 4.63108 84.1893 4.67476 84.1893 4.95875C84.1893 5.17719 84.3859 5.24273 84.8447 5.3301L85.3689 5.41748C85.8495 5.50486 86.2427 5.78884 86.2427 6.31311C86.2427 6.90292 85.6748 7.42719 84.7791 7.42719C83.8835 7.42719 83.4029 7.03399 83.2281 6.83739L83.818 6.3568C83.9709 6.55341 84.2548 6.77185 84.7573 6.77185C85.216 6.77185 85.3908 6.53156 85.3908 6.40049C85.3908 6.20389 85.216 6.13836 84.9102 6.09467L84.517 6.02913C84.2548 5.98544 83.4029 5.83253 83.4029 5.06797C83.4029 4.43447 84.0146 4.01942 84.801 4.01942C85.0631 4.01942 85.6966 4.06311 86.199 4.63108L85.6092 5.11166Z" fill="url(#paint9_linear_301_70)"/>
<path d="M87.0073 3.60437V2.81796H87.7718V3.60437H87.0073ZM87.0073 7.33981V4.1068H87.7718V7.33981H87.0073Z" fill="url(#paint10_linear_301_70)"/>
<path d="M88.3616 4.1068H88.8422V2.94904H89.6286V4.1068H90.3277V4.65292H89.6286V6.24758C89.6286 6.37865 89.6286 6.50972 89.716 6.59709C89.8034 6.68447 89.9781 6.68447 90 6.68447C90.1092 6.68447 90.2184 6.66263 90.3277 6.64078V7.29612C90.2184 7.31797 90.0437 7.33981 89.7815 7.33981C89.0825 7.33981 88.8641 7.07768 88.8641 6.5534V4.63107H88.3835V4.1068H88.3616Z" fill="url(#paint11_linear_301_70)"/>
<path d="M92.9272 7.33981L92.9054 7.07767C92.6869 7.25243 92.3593 7.40534 91.966 7.40534C91.2233 7.40534 90.7864 6.96845 90.7864 6.42233C90.7864 5.72331 91.3326 5.43932 91.9442 5.3301C92.4248 5.24272 92.7306 5.15534 92.9491 5.08981C92.9491 4.84952 92.8835 4.60923 92.4029 4.60923C91.8131 4.60923 91.7476 4.9369 91.7476 5.08981L90.9612 5.04612C90.983 4.82767 91.0267 3.99758 92.3811 3.99758C93.3204 3.99758 93.7355 4.34709 93.7355 4.91505V6.79369C93.7355 7.03399 93.7573 7.09952 93.8884 7.31797H92.9272V7.33981ZM92.2282 3.62622L91.5073 2.77428H92.4685L92.7961 3.62622H92.2282ZM92.9272 5.72331C92.7961 5.78884 92.5995 5.85437 92.3156 5.89806C91.966 5.94175 91.5947 6.02913 91.5947 6.33496C91.5947 6.5534 91.7476 6.72816 92.119 6.72816C92.4685 6.72816 92.9054 6.5534 92.9054 6.13835V5.72331H92.9272Z" fill="url(#paint12_linear_301_70)"/>
<path d="M65.9272 14.2864V13.9806C65.8616 14.068 65.5995 14.3956 65.0315 14.3956C64.3543 14.3956 63.5898 13.915 63.5898 12.7573C63.5898 11.5995 64.2888 10.9879 65.0534 10.9879C65.3155 10.9879 65.7087 11.0752 65.9272 11.3592V9.76456H66.6917V14.3301H65.9272V14.2864ZM65.1844 13.6966C65.5995 13.6966 65.9272 13.3471 65.9272 12.7573C65.9272 12.2767 65.7742 11.7087 65.1844 11.7087C64.7039 11.7087 64.398 12.1456 64.398 12.6917C64.4199 13.1286 64.6165 13.6966 65.1844 13.6966Z" fill="url(#paint13_linear_301_70)"/>
<path d="M68.3083 12.8228C68.3301 12.9757 68.4612 13.6311 69.2257 13.6311C69.7718 13.6311 70.0121 13.3034 70.0777 13.1942L70.733 13.5655C70.4709 13.915 70.0121 14.3956 69.1602 14.3956C68.199 14.3956 67.5 13.7403 67.5 12.6699C67.5 11.5121 68.2864 10.966 69.1165 10.966C70.3616 10.966 70.7112 11.949 70.7112 12.8447H68.3083V12.8228ZM69.8592 12.2549C69.8374 12.1019 69.75 11.5777 69.1383 11.5777C68.5049 11.5777 68.3738 12.1238 68.3519 12.2549H69.8592Z" fill="url(#paint14_linear_301_70)"/>
<path d="M71.4757 14.2864V9.72087H72.2621V14.2864H71.4757Z" fill="url(#paint15_linear_301_70)"/>
<path d="M73.2233 14.2864V9.72087H74.0097V14.2864H73.2233Z" fill="url(#paint16_linear_301_70)"/>
<path d="M76.8932 14.2864L76.8713 14.0243C76.6529 14.199 76.3252 14.3519 75.932 14.3519C75.1893 14.3519 74.7524 13.915 74.7524 13.3689C74.7524 12.6699 75.2985 12.3859 75.9101 12.2767C76.3907 12.1893 76.6966 12.1019 76.915 12.0364C76.915 11.7961 76.8495 11.5558 76.3689 11.5558C75.7791 11.5558 75.7135 11.8835 75.7135 12.0364L74.9271 11.9927C74.949 11.7743 74.9927 10.9442 76.347 10.9442C77.2864 10.9442 77.7014 11.2937 77.7014 11.8616V13.7621C77.7014 14.0024 77.7232 14.068 77.8543 14.2864H76.8932ZM76.8932 12.6917C76.7621 12.7573 76.5655 12.8228 76.2815 12.8665C75.932 12.9102 75.5606 12.9976 75.5606 13.3034C75.5606 13.5218 75.7135 13.6966 76.0849 13.6966C76.4344 13.6966 76.8713 13.5218 76.8713 13.1068V12.6917H76.8932Z" fill="url(#paint17_linear_301_70)"/>
<path d="M66.7136 18.0218C66.5606 17.7816 66.233 17.3447 65.5339 17.3447C65.3373 17.3447 64.682 17.4102 64.682 17.8908C64.682 18.2403 65.0315 18.3277 65.5121 18.4369L65.9927 18.5461C66.7136 18.699 67.4781 18.983 67.4781 19.9005C67.4781 21.0364 66.364 21.3641 65.5339 21.3641C64.7694 21.3641 63.9393 21.1019 63.5461 20.3811L64.267 19.8786C64.4636 20.1845 64.8349 20.5558 65.6869 20.5558C66.1893 20.5558 66.5606 20.3592 66.5606 19.9442C66.5606 19.5728 66.2548 19.4854 65.6869 19.3544L65.0971 19.2233C64.5072 19.0922 63.7864 18.8519 63.7864 17.9563C63.7864 17.1481 64.4417 16.5364 65.5995 16.5364C66.0145 16.5364 66.8009 16.6019 67.4344 17.4539L66.7136 18.0218Z" fill="url(#paint18_linear_301_70)"/>
<path d="M69.7281 21.2549H68.898L67.8495 18.0219H68.6577L69.3349 20.25L69.9903 18.0219H70.7985L69.7281 21.2549Z" fill="url(#paint19_linear_301_70)"/>
<path d="M71.3883 17.5194V16.733H72.1529V17.5194H71.3883ZM71.3883 21.2549V18.0219H72.1529V21.2549H71.3883Z" fill="url(#paint20_linear_301_70)"/>
<path d="M72.8738 21.2549V20.6651L74.6214 18.7209H73.0485V18.0219H75.648V18.6335L73.9442 20.5777H75.648V21.2549H72.8738Z" fill="url(#paint21_linear_301_70)"/>
<path d="M76.2379 21.2549V20.6651L77.9854 18.7209H76.4126V18.0219H79.0121V18.6335L77.3082 20.5777H79.0121V21.2549H76.2379Z" fill="url(#paint22_linear_301_70)"/>
<path d="M80.3665 19.7913C80.3883 19.9442 80.5194 20.5995 81.284 20.5995C81.8301 20.5995 82.0704 20.2718 82.1359 20.1626L82.7912 20.534C82.5291 20.8835 82.0704 21.3641 81.2184 21.3641C80.2573 21.3641 79.5582 20.7087 79.5582 19.6383C79.5582 18.4806 80.3446 17.9345 81.1747 17.9345C82.4199 17.9345 82.7694 18.9175 82.7694 19.8131H80.3665V19.7913ZM81.8956 19.2233C81.8738 19.0704 81.7864 18.5461 81.1747 18.5461C80.5412 18.5461 80.4102 19.0922 80.3883 19.2233H81.8956Z" fill="url(#paint23_linear_301_70)"/>
<path d="M84.2767 18.0218V18.4806C84.5169 17.9782 85.0849 17.9563 85.2378 17.9563H85.3034V18.7427C85.1504 18.7427 84.5169 18.7427 84.3422 19.3325C84.2767 19.5073 84.2767 19.682 84.2767 19.8568V21.233H83.5339V18.0218H84.2767Z" fill="url(#paint24_linear_301_70)"/>
<path d="M87.8592 21.2549L87.8374 20.9927C87.6189 21.1675 87.2913 21.3204 86.8981 21.3204C86.1553 21.3204 85.7184 20.8835 85.7184 20.3374C85.7184 19.6384 86.2646 19.3544 86.8762 19.2452C87.3568 19.1578 87.6626 19.0704 87.8811 19.0049C87.8811 18.7646 87.8155 18.5243 87.3349 18.5243C86.7451 18.5243 86.6796 18.8519 86.6796 19.0049L85.8932 18.9612C85.9151 18.7427 85.9587 17.9126 87.3131 17.9126C88.2524 17.9126 88.6675 18.2621 88.6675 18.8301V20.7087C88.6675 20.949 88.6893 21.0146 88.8204 21.233H87.8592V21.2549ZM87.8592 19.6384C87.7282 19.7039 87.5316 19.7694 87.2476 19.8131C86.8981 19.8568 86.5267 19.9442 86.5267 20.25C86.5267 20.4685 86.6796 20.6432 87.051 20.6432C87.4005 20.6432 87.8374 20.4685 87.8374 20.0534V19.6384H87.8592Z" fill="url(#paint25_linear_301_70)"/>
<path d="M63.7864 24.4879V23.7015H64.5509V24.4879H63.7864ZM63.7864 28.2233V24.9903H64.5509V28.2233H63.7864Z" fill="url(#paint26_linear_301_70)"/>
<path d="M65.1626 24.9903H65.6432V23.8325H66.4296V24.9903H67.1286V25.5364H66.4077V27.1311C66.4077 27.2621 66.4077 27.3932 66.4951 27.4806C66.5825 27.568 66.7573 27.568 66.7791 27.568C66.8883 27.568 66.9976 27.5461 67.1068 27.5243V28.1796C66.9976 28.2015 66.8228 28.2233 66.5607 28.2233C65.8616 28.2233 65.6432 27.9612 65.6432 27.4369V25.5146H65.1626V24.9903Z" fill="url(#paint27_linear_301_70)"/>
<path d="M69.7063 28.2233L69.6844 27.9612C69.466 28.1359 69.1383 28.2888 68.7451 28.2888C68.0024 28.2888 67.5655 27.8519 67.5655 27.3058C67.5655 26.6068 68.1116 26.3228 68.7233 26.2136C69.2038 26.1262 69.5097 26.0388 69.7281 25.9733C69.7281 25.733 69.6626 25.4927 69.182 25.4927C68.5922 25.4927 68.5267 25.8204 68.5267 25.9733L67.7403 25.9296C67.7621 25.7112 67.8058 24.8811 69.1602 24.8811C70.0995 24.8811 70.5145 25.2306 70.5145 25.7985V27.6772C70.5145 27.9175 70.5364 27.983 70.6674 28.2015H69.7063V28.2233ZM69.7063 26.6068C69.5752 26.6723 69.3786 26.7379 69.0946 26.7816C68.7451 26.8252 68.3737 26.9126 68.3737 27.2185C68.3737 27.4369 68.5267 27.6117 68.898 27.6117C69.2475 27.6117 69.6844 27.4369 69.6844 27.0218V26.6068H69.7063Z" fill="url(#paint28_linear_301_70)"/>
<path d="M71.4539 28.2233V23.6578H72.2403V28.2233H71.4539Z" fill="url(#paint29_linear_301_70)"/>
<path d="M73.1796 24.4879V23.7015H73.9441V24.4879H73.1796ZM73.1796 28.2233V24.9903H73.9441V28.2233H73.1796Z" fill="url(#paint30_linear_301_70)"/>
<path d="M76.8495 28.2233L76.8277 27.9612C76.6092 28.1359 76.2816 28.2888 75.8884 28.2888C75.1456 28.2888 74.7087 27.8519 74.7087 27.3058C74.7087 26.6068 75.2549 26.3228 75.8665 26.2136C76.3471 26.1262 76.6529 26.0388 76.8714 25.9733C76.8714 25.733 76.8058 25.4927 76.3252 25.4927C75.7354 25.4927 75.6699 25.8204 75.6699 25.9733L74.8835 25.9296C74.9053 25.7112 74.949 24.8811 76.3034 24.8811C77.2427 24.8811 77.6578 25.2306 77.6578 25.7985V27.6772C77.6578 27.9175 77.6796 27.983 77.8107 28.2015H76.8495V28.2233ZM76.8495 26.6068C76.7184 26.6723 76.5218 26.7379 76.2379 26.7816C75.8884 26.8252 75.517 26.9126 75.517 27.2185C75.517 27.4369 75.6699 27.6117 76.0413 27.6117C76.3908 27.6117 76.8277 27.4369 76.8277 27.0218V26.6068H76.8495Z" fill="url(#paint31_linear_301_70)"/>
<path d="M79.3398 24.9903V25.3617C79.6237 24.9248 80.2135 24.8811 80.3446 24.8811C81.0218 24.8811 81.3932 25.318 81.3932 25.9515V28.2015H80.6286V26.3884C80.6286 26.0388 80.5412 25.6238 80.0606 25.6238C79.9732 25.6238 79.8203 25.6456 79.6456 25.7767C79.4053 25.9733 79.3398 26.2354 79.3398 26.8034V28.2015H78.5533V24.9685H79.3398V24.9903Z" fill="url(#paint32_linear_301_70)"/>
<path d="M84.2549 28.2233L84.233 27.9612C84.0146 28.1359 83.6869 28.2888 83.2937 28.2888C82.551 28.2888 82.1141 27.8519 82.1141 27.3058C82.1141 26.6068 82.6602 26.3228 83.2718 26.2136C83.7524 26.1262 84.0582 26.0388 84.2767 25.9733C84.2767 25.733 84.2112 25.4927 83.7306 25.4927C83.1408 25.4927 83.0752 25.8204 83.0752 25.9733L82.2888 25.9296C82.3107 25.7112 82.3544 24.8811 83.7087 24.8811C84.6481 24.8811 85.0631 25.2306 85.0631 25.7985V27.6772C85.0631 27.9175 85.085 27.983 85.216 28.2015H84.2549V28.2233ZM84.2549 26.6068C84.1238 26.6723 83.9272 26.7379 83.6432 26.7816C83.2937 26.8252 82.9223 26.9126 82.9223 27.2185C82.9223 27.4369 83.0752 27.6117 83.4466 27.6117C83.7961 27.6117 84.233 27.4369 84.233 27.0218V26.6068H84.2549Z" fill="url(#paint33_linear_301_70)"/>
</g>
<defs>
<linearGradient id="paint0_linear_301_70" x1="22.5" y1="0.655334" x2="22.5" y2="44.3447" gradientUnits="userSpaceOnUse">
<stop stop-color="white"/>
<stop offset="1" stop-color="white" stop-opacity="0.51"/>
</linearGradient>
<linearGradient id="paint1_linear_301_70" x1="56.3264" y1="1.35437" x2="56.3264" y2="43.6238" gradientUnits="userSpaceOnUse">
<stop stop-color="white"/>
<stop offset="1" stop-color="white" stop-opacity="0.51"/>
</linearGradient>
<linearGradient id="paint2_linear_301_70" x1="103.323" y1="1.35437" x2="103.323" y2="43.6456" gradientUnits="userSpaceOnUse">
<stop stop-color="white"/>
<stop offset="1" stop-color="white" stop-opacity="0.51"/>
</linearGradient>
<linearGradient id="paint3_linear_301_70" x1="65.7197" y1="2.77428" x2="65.7197" y2="7.44903" gradientUnits="userSpaceOnUse">
<stop stop-color="white"/>
<stop offset="1" stop-color="white" stop-opacity="0.51"/>
</linearGradient>
<linearGradient id="paint4_linear_301_70" x1="70.0558" y1="3.99757" x2="70.0558" y2="7.31796" gradientUnits="userSpaceOnUse">
<stop stop-color="white"/>
<stop offset="1" stop-color="white" stop-opacity="0.51"/>
</linearGradient>
<linearGradient id="paint5_linear_301_70" x1="72.7755" y1="2.81796" x2="72.7755" y2="7.33981" gradientUnits="userSpaceOnUse">
<stop stop-color="white"/>
<stop offset="1" stop-color="white" stop-opacity="0.51"/>
</linearGradient>
<linearGradient id="paint6_linear_301_70" x1="75.2658" y1="4.1068" x2="75.2658" y2="7.33981" gradientUnits="userSpaceOnUse">
<stop stop-color="white"/>
<stop offset="1" stop-color="white" stop-opacity="0.51"/>
</linearGradient>
<linearGradient id="paint7_linear_301_70" x1="78.7063" y1="4.01942" x2="78.7063" y2="7.44904" gradientUnits="userSpaceOnUse">
<stop stop-color="white"/>
<stop offset="1" stop-color="white" stop-opacity="0.51"/>
</linearGradient>
<linearGradient id="paint8_linear_301_70" x1="81.9393" y1="4.04126" x2="81.9393" y2="7.31796" gradientUnits="userSpaceOnUse">
<stop stop-color="white"/>
<stop offset="1" stop-color="white" stop-opacity="0.51"/>
</linearGradient>
<linearGradient id="paint9_linear_301_70" x1="84.7354" y1="4.01942" x2="84.7354" y2="7.42719" gradientUnits="userSpaceOnUse">
<stop stop-color="white"/>
<stop offset="1" stop-color="white" stop-opacity="0.51"/>
</linearGradient>
<linearGradient id="paint10_linear_301_70" x1="87.3895" y1="2.81796" x2="87.3895" y2="7.33981" gradientUnits="userSpaceOnUse">
<stop stop-color="white"/>
<stop offset="1" stop-color="white" stop-opacity="0.51"/>
</linearGradient>
<linearGradient id="paint11_linear_301_70" x1="89.3446" y1="2.94904" x2="89.3446" y2="7.33981" gradientUnits="userSpaceOnUse">
<stop stop-color="white"/>
<stop offset="1" stop-color="white" stop-opacity="0.51"/>
</linearGradient>
<linearGradient id="paint12_linear_301_70" x1="92.3374" y1="2.77428" x2="92.3374" y2="7.40534" gradientUnits="userSpaceOnUse">
<stop stop-color="white"/>
<stop offset="1" stop-color="white" stop-opacity="0.51"/>
</linearGradient>
<linearGradient id="paint13_linear_301_70" x1="65.1408" y1="9.76456" x2="65.1408" y2="14.3956" gradientUnits="userSpaceOnUse">
<stop stop-color="white"/>
<stop offset="1" stop-color="white" stop-opacity="0.51"/>
</linearGradient>
<linearGradient id="paint14_linear_301_70" x1="69.1165" y1="10.966" x2="69.1165" y2="14.3956" gradientUnits="userSpaceOnUse">
<stop stop-color="white"/>
<stop offset="1" stop-color="white" stop-opacity="0.51"/>
</linearGradient>
<linearGradient id="paint15_linear_301_70" x1="71.8689" y1="9.72087" x2="71.8689" y2="14.2864" gradientUnits="userSpaceOnUse">
<stop stop-color="white"/>
<stop offset="1" stop-color="white" stop-opacity="0.51"/>
</linearGradient>
<linearGradient id="paint16_linear_301_70" x1="73.6165" y1="9.72087" x2="73.6165" y2="14.2864" gradientUnits="userSpaceOnUse">
<stop stop-color="white"/>
<stop offset="1" stop-color="white" stop-opacity="0.51"/>
</linearGradient>
<linearGradient id="paint17_linear_301_70" x1="76.3033" y1="10.9442" x2="76.3033" y2="14.3519" gradientUnits="userSpaceOnUse">
<stop stop-color="white"/>
<stop offset="1" stop-color="white" stop-opacity="0.51"/>
</linearGradient>
<linearGradient id="paint18_linear_301_70" x1="65.5121" y1="16.5364" x2="65.5121" y2="21.3641" gradientUnits="userSpaceOnUse">
<stop stop-color="white"/>
<stop offset="1" stop-color="white" stop-opacity="0.51"/>
</linearGradient>
<linearGradient id="paint19_linear_301_70" x1="69.324" y1="18.0219" x2="69.324" y2="21.2549" gradientUnits="userSpaceOnUse">
<stop stop-color="white"/>
<stop offset="1" stop-color="white" stop-opacity="0.51"/>
</linearGradient>
<linearGradient id="paint20_linear_301_70" x1="71.7706" y1="16.733" x2="71.7706" y2="21.2549" gradientUnits="userSpaceOnUse">
<stop stop-color="white"/>
<stop offset="1" stop-color="white" stop-opacity="0.51"/>
</linearGradient>
<linearGradient id="paint21_linear_301_70" x1="74.2609" y1="18.0219" x2="74.2609" y2="21.2549" gradientUnits="userSpaceOnUse">
<stop stop-color="white"/>
<stop offset="1" stop-color="white" stop-opacity="0.51"/>
</linearGradient>
<linearGradient id="paint22_linear_301_70" x1="77.625" y1="18.0219" x2="77.625" y2="21.2549" gradientUnits="userSpaceOnUse">
<stop stop-color="white"/>
<stop offset="1" stop-color="white" stop-opacity="0.51"/>
</linearGradient>
<linearGradient id="paint23_linear_301_70" x1="81.1747" y1="17.9345" x2="81.1747" y2="21.3641" gradientUnits="userSpaceOnUse">
<stop stop-color="white"/>
<stop offset="1" stop-color="white" stop-opacity="0.51"/>
</linearGradient>
<linearGradient id="paint24_linear_301_70" x1="84.4186" y1="17.9563" x2="84.4186" y2="21.233" gradientUnits="userSpaceOnUse">
<stop stop-color="white"/>
<stop offset="1" stop-color="white" stop-opacity="0.51"/>
</linearGradient>
<linearGradient id="paint25_linear_301_70" x1="87.2694" y1="17.9126" x2="87.2694" y2="21.3204" gradientUnits="userSpaceOnUse">
<stop stop-color="white"/>
<stop offset="1" stop-color="white" stop-opacity="0.51"/>
</linearGradient>
<linearGradient id="paint26_linear_301_70" x1="64.1687" y1="23.7015" x2="64.1687" y2="28.2233" gradientUnits="userSpaceOnUse">
<stop stop-color="white"/>
<stop offset="1" stop-color="white" stop-opacity="0.51"/>
</linearGradient>
<linearGradient id="paint27_linear_301_70" x1="66.1456" y1="23.8325" x2="66.1456" y2="28.2233" gradientUnits="userSpaceOnUse">
<stop stop-color="white"/>
<stop offset="1" stop-color="white" stop-opacity="0.51"/>
</linearGradient>
<linearGradient id="paint28_linear_301_70" x1="69.1165" y1="24.8811" x2="69.1165" y2="28.2888" gradientUnits="userSpaceOnUse">
<stop stop-color="white"/>
<stop offset="1" stop-color="white" stop-opacity="0.51"/>
</linearGradient>
<linearGradient id="paint29_linear_301_70" x1="71.8471" y1="23.6578" x2="71.8471" y2="28.2233" gradientUnits="userSpaceOnUse">
<stop stop-color="white"/>
<stop offset="1" stop-color="white" stop-opacity="0.51"/>
</linearGradient>
<linearGradient id="paint30_linear_301_70" x1="73.5618" y1="23.7015" x2="73.5618" y2="28.2233" gradientUnits="userSpaceOnUse">
<stop stop-color="white"/>
<stop offset="1" stop-color="white" stop-opacity="0.51"/>
</linearGradient>
<linearGradient id="paint31_linear_301_70" x1="76.2597" y1="24.8811" x2="76.2597" y2="28.2888" gradientUnits="userSpaceOnUse">
<stop stop-color="white"/>
<stop offset="1" stop-color="white" stop-opacity="0.51"/>
</linearGradient>
<linearGradient id="paint32_linear_301_70" x1="79.9732" y1="24.8811" x2="79.9732" y2="28.2015" gradientUnits="userSpaceOnUse">
<stop stop-color="white"/>
<stop offset="1" stop-color="white" stop-opacity="0.51"/>
</linearGradient>
<linearGradient id="paint33_linear_301_70" x1="83.665" y1="24.8811" x2="83.665" y2="28.2888" gradientUnits="userSpaceOnUse">
<stop stop-color="white"/>
<stop offset="1" stop-color="white" stop-opacity="0.51"/>
</linearGradient>
<clipPath id="clip0_301_70">
<rect width="103.981" height="45" fill="white"/>
</clipPath>
</defs>
</svg>
