<svg width="132" height="30" viewBox="0 0 132 30" fill="none" xmlns="http://www.w3.org/2000/svg">
<mask id="mask0_1008_71" style="mask-type:luminance" maskUnits="userSpaceOnUse" x="0" y="0" width="132" height="30">
<path d="M131.25 0H0V30H131.25V0Z" fill="white"/>
</mask>
<g mask="url(#mask0_1008_71)">
<path d="M14.9997 17C22.2297 17 28.6422 13.325 29.8097 12.6175C29.2439 9.09691 27.4426 5.89305 24.7286 3.58035C22.0145 1.26764 18.5654 -0.00259399 14.9997 -0.00259399C11.434 -0.00259399 7.98487 1.26764 5.27083 3.58035C2.55682 5.89305 0.755437 9.09691 0.189697 12.6175C1.3572 13.325 7.7697 17 14.9997 17Z" fill="url(#paint0_linear_1008_71)"/>
<path d="M14.9999 22.5C5.99996 22.5 0.267451 14.8625 0.0124512 14.5175C0.0124512 14.6775 0.0124512 14.8375 0.0124512 15C0.0124512 18.9782 1.59281 22.7936 4.40585 25.6066C7.21889 28.4196 11.0342 30 15.0124 30C18.9907 30 22.806 28.4196 25.619 25.6066C28.4321 22.7936 30.0125 18.9782 30.0125 15C30.0125 14.8375 30.0125 14.6775 30.0125 14.5175C29.7325 14.8625 24.0125 22.5 14.9999 22.5Z" fill="url(#paint1_linear_1008_71)"/>
<path d="M36.9998 25V5.46252H40.8248V12.5875C41.942 11.8879 43.2395 11.5308 44.5573 11.56C45.4249 11.5472 46.2855 11.7171 47.0832 12.0586C47.8809 12.4002 48.5978 12.9058 49.1873 13.5426C49.8116 14.1811 50.3022 14.9379 50.6302 15.7686C50.9582 16.5993 51.117 17.4871 51.0973 18.3801C51.1109 19.6028 50.8087 20.8083 50.2198 21.88C49.667 22.9123 48.8455 23.7761 47.8423 24.3801C46.8512 24.9773 45.7143 25.2888 44.5573 25.2801C43.238 25.3096 41.9395 24.9486 40.8248 24.2425V25H36.9998ZM40.8248 20.5C41.1728 20.9948 41.6388 21.3951 42.1805 21.6644C42.7223 21.9337 43.3226 22.0637 43.9273 22.0425C44.3873 22.0505 44.8434 21.9573 45.2633 21.7693C45.6833 21.5814 46.0568 21.3034 46.3573 20.955C47.0018 20.253 47.3526 19.3305 47.3373 18.3775C47.3512 17.439 46.9998 16.5318 46.3573 15.8475C46.0538 15.504 45.6794 15.2306 45.2598 15.0463C44.8402 14.862 44.3855 14.7711 43.9273 14.7801C43.3252 14.7597 42.7273 14.8877 42.1862 15.1527C41.6453 15.4178 41.1777 15.8118 40.8248 16.3V20.5Z" fill="url(#paint2_linear_1008_71)"/>
<path d="M52.455 18.4475C52.4416 17.2248 52.7438 16.0193 53.3325 14.9475C53.8867 13.9146 54.7099 13.0508 55.715 12.4475C56.7074 11.855 57.8442 11.5479 59 11.56C60.3247 11.5303 61.6289 11.8911 62.75 12.5975V11.8275H66.575V25H62.75V24.25C61.6273 24.952 60.3237 25.31 59 25.28C58.1324 25.2923 57.2719 25.1222 56.4743 24.7808C55.6767 24.4392 54.9598 23.9339 54.37 23.2975C53.7428 22.6581 53.2502 21.8995 52.9213 21.0665C52.5924 20.2334 52.4338 19.3429 52.455 18.4475ZM56.205 18.4475C56.1875 19.3865 56.5342 20.2959 57.1725 20.985C57.4794 21.329 57.8576 21.602 58.2807 21.785C58.7038 21.968 59.1616 22.0568 59.6225 22.045C60.2282 22.0676 60.8302 21.941 61.3756 21.6764C61.9209 21.4118 62.3929 21.0173 62.75 20.5275V16.325C62.3984 15.8289 61.9289 15.4281 61.3838 15.1589C60.8387 14.8895 60.2351 14.7602 59.6275 14.7825C59.1649 14.7717 58.7056 14.8628 58.2821 15.0495C57.8587 15.2361 57.4816 15.5137 57.1775 15.8625C56.5399 16.5706 56.1958 17.4948 56.215 18.4475H56.205Z" fill="url(#paint3_linear_1008_71)"/>
<path d="M69.2922 25V11.8275H73.1172V12.7675C74.1734 11.8964 75.498 11.4168 76.8675 11.41C78.6105 11.41 80.0108 11.9875 81.0675 13.1425C82.1243 14.2975 82.653 15.8376 82.6545 17.7625V25.0125H78.8295V18.0975C78.8295 17.0592 78.5798 16.2625 78.0795 15.7075C77.58 15.1525 76.8863 14.875 75.9998 14.875C74.9798 14.875 74.0172 15.4259 73.1123 16.5276V25H69.2922Z" fill="url(#paint4_linear_1008_71)"/>
<path d="M84.5153 18.4475C84.501 17.225 84.8025 16.0195 85.3905 14.9475C85.9455 13.9153 86.7683 13.0517 87.7725 12.4475C88.7648 11.8509 89.9025 11.5395 91.0605 11.5475C92.385 11.5178 93.6893 11.8786 94.8105 12.585V11.8275H98.6378V25H94.8128V24.25C93.69 24.9524 92.3865 25.3105 91.0628 25.28C90.195 25.2923 89.334 25.1221 88.536 24.7806C87.738 24.4391 87.0203 23.9338 86.43 23.2975C85.8038 22.6578 85.311 21.8991 84.9825 21.0662C84.6533 20.2332 84.4943 19.3428 84.5153 18.4475ZM88.2653 18.4475C88.2525 19.3889 88.6058 20.2985 89.25 20.985C89.5568 21.3289 89.934 21.6019 90.357 21.785C90.78 21.968 91.2375 22.0568 91.698 22.045C92.3025 22.067 92.904 21.9401 93.4485 21.6755C93.9923 21.4109 94.464 21.0167 94.8203 20.5275V16.325C94.4693 15.8285 93.9998 15.4273 93.4545 15.158C92.9093 14.8886 92.3055 14.7596 91.698 14.7825C91.2353 14.7716 90.7763 14.8626 90.3533 15.0493C89.9303 15.236 89.5538 15.5136 89.25 15.8625C88.6073 16.5683 88.2578 17.4928 88.2728 18.4475H88.2653Z" fill="url(#paint5_linear_1008_71)"/>
<path d="M101.35 25V11.8275H105.178V12.7675C106.234 11.896 107.559 11.4165 108.928 11.41C110.668 11.41 112.068 11.9875 113.128 13.1425C114.188 14.2975 114.717 15.8376 114.715 17.7625V25.0125H110.898V18.0975C110.898 17.0592 110.652 16.2625 110.16 15.7075C109.661 15.1525 108.968 14.875 108.065 14.875C107.045 14.875 106.083 15.4259 105.178 16.5276V25H101.35Z" fill="url(#paint6_linear_1008_71)"/>
<path d="M116.572 18.4475C116.56 17.2248 116.862 16.0193 117.45 14.9475C118.004 13.9146 118.828 13.0508 119.833 12.4475C120.824 11.8506 121.96 11.5391 123.118 11.5475C124.442 11.5178 125.746 11.8786 126.868 12.585V11.8275H130.693V25H126.868V24.25C125.745 24.952 124.441 25.31 123.118 25.28C122.251 25.289 121.393 25.1161 120.598 24.7724C119.802 24.4288 119.088 23.9221 118.5 23.285C117.872 22.6481 117.379 21.892 117.047 21.0612C116.716 20.2304 116.555 19.3417 116.572 18.4475ZM120.322 18.4475C120.305 19.3871 120.653 20.2967 121.293 20.985C121.6 21.3303 121.979 21.6042 122.404 21.7873C122.829 21.9704 123.288 22.0584 123.75 22.045C124.355 22.067 124.956 21.9401 125.5 21.6755C126.045 21.4109 126.516 21.0167 126.873 20.5275V16.325C126.521 15.8289 126.052 15.4281 125.506 15.1589C124.961 14.8895 124.358 14.7602 123.75 14.7825C123.288 14.7713 122.829 14.8624 122.406 15.0491C121.983 15.2357 121.606 15.5135 121.303 15.8625C120.661 16.5686 120.314 17.4935 120.333 18.4475H120.322Z" fill="url(#paint7_linear_1008_71)"/>
</g>
<defs>
<linearGradient id="paint0_linear_1008_71" x1="14.9997" y1="-0.00259399" x2="14.9997" y2="17" gradientUnits="userSpaceOnUse">
<stop stop-color="white"/>
<stop offset="1" stop-color="white" stop-opacity="0.51"/>
</linearGradient>
<linearGradient id="paint1_linear_1008_71" x1="15.0125" y1="14.5175" x2="15.0125" y2="30" gradientUnits="userSpaceOnUse">
<stop stop-color="white"/>
<stop offset="1" stop-color="white" stop-opacity="0.51"/>
</linearGradient>
<linearGradient id="paint2_linear_1008_71" x1="44.0493" y1="5.46252" x2="44.0493" y2="25.2818" gradientUnits="userSpaceOnUse">
<stop stop-color="white"/>
<stop offset="1" stop-color="white" stop-opacity="0.51"/>
</linearGradient>
<linearGradient id="paint3_linear_1008_71" x1="59.5141" y1="11.5583" x2="59.5141" y2="25.2817" gradientUnits="userSpaceOnUse">
<stop stop-color="white"/>
<stop offset="1" stop-color="white" stop-opacity="0.51"/>
</linearGradient>
<linearGradient id="paint4_linear_1008_71" x1="75.9734" y1="11.41" x2="75.9734" y2="25.0125" gradientUnits="userSpaceOnUse">
<stop stop-color="white"/>
<stop offset="1" stop-color="white" stop-opacity="0.51"/>
</linearGradient>
<linearGradient id="paint5_linear_1008_71" x1="91.5756" y1="11.5458" x2="91.5756" y2="25.2818" gradientUnits="userSpaceOnUse">
<stop stop-color="white"/>
<stop offset="1" stop-color="white" stop-opacity="0.51"/>
</linearGradient>
<linearGradient id="paint6_linear_1008_71" x1="108.032" y1="11.41" x2="108.032" y2="25.0125" gradientUnits="userSpaceOnUse">
<stop stop-color="white"/>
<stop offset="1" stop-color="white" stop-opacity="0.51"/>
</linearGradient>
<linearGradient id="paint7_linear_1008_71" x1="123.632" y1="11.5458" x2="123.632" y2="25.2817" gradientUnits="userSpaceOnUse">
<stop stop-color="white"/>
<stop offset="1" stop-color="white" stop-opacity="0.51"/>
</linearGradient>
</defs>
</svg>
