<svg width="503" height="173" viewBox="0 0 503 173" fill="none" xmlns="http://www.w3.org/2000/svg">
<g clip-path="url(#clip0_1129_71)">
<path d="M126 2.30005H47.1C22.4 2.30005 2.29999 22.4 2.29999 47.1V126C2.29999 150.7 22.4 170.8 47.1 170.8H126C150.7 170.8 170.8 150.7 170.8 126V47.1C170.8 22.4 150.7 2.30005 126 2.30005Z" stroke="url(#paint0_linear_1129_71)" stroke-width="4" stroke-miterlimit="10"/>
<path d="M41.9 121.3C41 121.3 40.3 122 40.3 122.9V129.6C40.3 130.5 41 131.2 41.9 131.2H59.8C77.2 131.2 91.4 117 91.4 99.6001V96.4001H81.5V99.6001C81.5 111.6 71.8 121.3 59.8 121.3H41.9ZM89.7 120.7C95.7 127.3 104.2 131.1 113.1 131.1H131C131.9 131.1 132.6 130.4 132.6 129.5V122.8C132.6 121.9 131.9 121.2 131 121.2H113.1C105.5 121.2 98.5 117.3 94.6 110.8C93.5 114.4 91.9 117.7 89.7 120.7ZM59.9 42.1001C42.5 42.1001 28.3 56.5001 28.3 74.2001V85.7001C28.3 88.8001 30.8 91.4001 34 91.4001H139.2C142.3 91.4001 144.9 88.9001 144.9 85.7001V74.1001C144.9 56.6001 130.9 42.3001 113.6 42.1001H113.3C95.9 42.1001 81.7 56.3001 81.7 73.7001V78.2001H91.6V73.7001C91.6 61.7001 101.3 52.0001 113.3 52.0001C125.3 52.0001 135 61.7001 135 73.7001V82.7001C135 83.0001 134.8 83.2001 134.5 83.2001H38.7C38.4 83.2001 38.2 83.0001 38.2 82.7001V73.7001C38.2 61.7001 47.9 52.0001 59.9 52.0001C67.5 52.0001 74.5 56.0001 78.5 62.5001C79.7 59.0001 81.3 55.7001 83.5 52.7001C77.6 46.1001 69.1 42.2001 60.2 42.2001L59.9 42.1001ZM129.9 78.1001V73.6001C129.9 64.4001 122.4 56.9001 113.2 56.9001C104 56.9001 96.5 64.4001 96.5 73.6001V78.1001H99.9C99.7 77.2001 99.6 76.3001 99.6 75.3001C99.6 68.0001 105.5 62.1001 112.8 62.1001C120.1 62.1001 126 68.0001 126 75.3001C126 76.2001 125.9 77.2001 125.7 78.1001H129.9ZM76.6 78.1001V74.1001C76.6 74.0001 76.6 73.9001 76.6 73.8001V73.7001V73.6001C76.6 64.4001 69.1 56.9001 59.9 56.9001C50.7 56.9001 43.2 64.4001 43.2 73.6001V78.1001H47.4C47.2 77.2001 47.1 76.3001 47.1 75.3001C47.1 68.0001 53 62.1001 60.3 62.1001C67.6 62.1001 73.5 68.0001 73.5 75.3001C73.5 76.2001 73.4 77.2001 73.2 78.1001H76.6Z" fill="url(#paint1_linear_1129_71)"/>
<path d="M198.3 90.2001C199.1 98.7001 205.7 103.8 213.8 103.8C218.8 103.8 224.8 101.8 227.6 98.2001L231.3 101.5C227.2 106.6 220.2 109.1 213.7 109.1C201.5 109.1 192.5 100.9 192.5 87.8001C192.5 75.5001 201.3 66.7001 213.5 66.7001C225.7 66.7001 235.5 74.1001 233.9 90.3001H198.3V90.2001ZM228.7 85.5001C228.5 76.5001 221.8 71.6001 213.6 71.6001C205.4 71.6001 199.3 76.6001 198.3 85.5001H228.7Z" fill="url(#paint2_linear_1129_71)"/>
<path d="M279.2 64.6001L283 67.7001L278.6 72.9001C281.7 76.3001 284.1 79.9001 284.1 86.5001C284.1 93.7001 280.1 101.3 271.7 103.7C279.4 105.8 283.8 110.3 283.8 117.1C283.8 127.4 273.6 132.7 262.7 132.7C251 132.7 241.9 126.5 242 115.8H247.6C247.5 123.5 255 127.3 262.8 127.3C270.3 127.3 278.2 124.4 278.2 117.1C278.2 109.9 270.4 106.6 262.8 106.6C250.2 106.6 241.3 99.2001 241.3 86.4001C241.3 73.0001 252.5 66.2001 262.8 66.2001C266.7 66.2001 271.8 67.4001 274.9 69.5001L279.2 64.6001ZM246.9 86.6001C246.9 96.7001 253.9 101.6 262.7 101.6C272.2 101.6 278.5 94.7001 278.5 86.6001C278.5 76.4001 270.8 71.7001 262.7 71.7001C255.2 71.6001 246.9 76.3001 246.9 86.6001Z" fill="url(#paint3_linear_1129_71)"/>
<path d="M334 88.0001C334 100.7 325 109.1 312.9 109.1C300.9 109.1 291.8 100.7 291.8 88.0001C291.8 75.3001 300.6 66.7001 312.9 66.7001C324.9 66.7001 334 75.3001 334 88.0001ZM297.4 88.0001C297.4 97.5001 303.9 103.8 312.9 103.8C322.1 103.8 328.4 97.5001 328.4 88.0001C328.4 78.5001 322 71.7001 312.9 71.7001C303.8 71.7001 297.4 78.5001 297.4 88.0001Z" fill="url(#paint4_linear_1129_71)"/>
<path d="M376.7 108.4V85.4001C376.7 76.6001 371.6 72.0001 363.3 72.0001C355.3 72.1001 349.9 78.2001 349.9 86.1001V108.4H344.3V67.4001H349.6L349.8 74.3001C353.2 69.1001 358.5 66.7001 364.1 66.7001C374.7 66.7001 382.3 73.0001 382.3 85.3001V108.4H376.7Z" fill="url(#paint5_linear_1129_71)"/>
<path d="M428.9 67.4001L402.9 128H396.8L405.4 107.9L389 67.4001H395.2L403.9 90.0001L408.5 101.8L413.2 90.0001L422.7 67.4001H428.9Z" fill="url(#paint6_linear_1129_71)"/>
<path d="M467.4 108.4V84.7001C467.4 77.5001 462.6 71.9001 455.4 71.9001C448.2 71.9001 443.4 77.5001 443.4 84.7001V108.4H437.8V67.4001H443L443.2 73.8001C445.9 68.7001 450.9 66.7001 455.9 66.7001C461.8 66.7001 467.9 69.3001 470.3 76.2001C473 69.7001 479 66.7001 485.1 66.7001C495.6 66.7001 502.3 73.7001 502.3 84.5001V108.4H496.7V84.5001C496.7 77.2001 492.1 71.9001 484.9 71.9001C477.7 71.9001 472.8 77.5001 472.8 84.7001V108.4H467.4Z" fill="url(#paint7_linear_1129_71)"/>
</g>
<defs>
<linearGradient id="paint0_linear_1129_71" x1="86.55" y1="2.30005" x2="86.55" y2="170.8" gradientUnits="userSpaceOnUse">
<stop stop-color="white"/>
<stop offset="1" stop-color="white" stop-opacity="0.51"/>
</linearGradient>
<linearGradient id="paint1_linear_1129_71" x1="86.6" y1="42.1001" x2="86.6" y2="131.2" gradientUnits="userSpaceOnUse">
<stop stop-color="white"/>
<stop offset="1" stop-color="white" stop-opacity="0.51"/>
</linearGradient>
<linearGradient id="paint2_linear_1129_71" x1="213.286" y1="66.7001" x2="213.286" y2="109.1" gradientUnits="userSpaceOnUse">
<stop stop-color="white"/>
<stop offset="1" stop-color="white" stop-opacity="0.51"/>
</linearGradient>
<linearGradient id="paint3_linear_1129_71" x1="262.7" y1="64.6001" x2="262.7" y2="132.7" gradientUnits="userSpaceOnUse">
<stop stop-color="white"/>
<stop offset="1" stop-color="white" stop-opacity="0.51"/>
</linearGradient>
<linearGradient id="paint4_linear_1129_71" x1="312.9" y1="66.7001" x2="312.9" y2="109.1" gradientUnits="userSpaceOnUse">
<stop stop-color="white"/>
<stop offset="1" stop-color="white" stop-opacity="0.51"/>
</linearGradient>
<linearGradient id="paint5_linear_1129_71" x1="363.3" y1="66.7001" x2="363.3" y2="108.4" gradientUnits="userSpaceOnUse">
<stop stop-color="white"/>
<stop offset="1" stop-color="white" stop-opacity="0.51"/>
</linearGradient>
<linearGradient id="paint6_linear_1129_71" x1="408.95" y1="67.4001" x2="408.95" y2="128" gradientUnits="userSpaceOnUse">
<stop stop-color="white"/>
<stop offset="1" stop-color="white" stop-opacity="0.51"/>
</linearGradient>
<linearGradient id="paint7_linear_1129_71" x1="470.05" y1="66.7001" x2="470.05" y2="108.4" gradientUnits="userSpaceOnUse">
<stop stop-color="white"/>
<stop offset="1" stop-color="white" stop-opacity="0.51"/>
</linearGradient>
<clipPath id="clip0_1129_71">
<rect width="502.6" height="173" fill="white"/>
</clipPath>
</defs>
</svg>
