<svg width="240" height="63" viewBox="0 0 240 63" fill="none" xmlns="http://www.w3.org/2000/svg">
<path fill-rule="evenodd" clip-rule="evenodd" d="M92.0509 0.0549545L93.4126 4.16099L97.8378 4.15253C97.8618 4.15253 97.883 4.16803 97.8914 4.19199C97.8985 4.21594 97.89 4.23989 97.8689 4.25539L94.2861 6.78186L95.6619 10.8808C95.669 10.9034 95.6619 10.9287 95.6421 10.9428C95.6224 10.9569 95.597 10.9569 95.5758 10.9428L92.0001 8.39947L88.4215 10.9428C88.4017 10.9569 88.3763 10.9569 88.3566 10.9414C88.3382 10.9273 88.3298 10.9034 88.3368 10.8808L89.7127 6.78186L86.1299 4.25539C86.1101 4.23989 86.1016 4.21594 86.1087 4.1934C86.1143 4.16944 86.1369 4.15253 86.1609 4.15253L90.5861 4.16099L91.9464 0.0549545C91.9535 0.0338184 91.9747 0.0169067 91.9987 0.0169067C92.0226 0.0169067 92.0438 0.0324093 92.0509 0.0549545ZM110.146 0.0394516L111.507 4.14548L115.932 4.13703C115.956 4.13703 115.978 4.15113 115.985 4.17508C115.993 4.20044 115.985 4.22298 115.964 4.23708L112.381 6.76495L113.755 10.8639C113.764 10.8879 113.755 10.9118 113.737 10.9259C113.716 10.94 113.69 10.94 113.67 10.9259L110.095 8.38256L106.516 10.9259C106.496 10.94 106.471 10.94 106.451 10.9245C106.431 10.9104 106.424 10.8865 106.431 10.8639L107.807 6.76495L104.223 4.23708C104.203 4.22298 104.195 4.20044 104.203 4.17648C104.209 4.15253 104.23 4.13703 104.256 4.13703L108.681 4.14548L110.041 0.0394516C110.048 0.0169065 110.069 0 110.093 0C110.117 0 110.138 0.0154974 110.146 0.0394516ZM129.475 0.0394516L130.837 4.14548L135.262 4.13703C135.286 4.13703 135.307 4.15113 135.315 4.17508C135.323 4.20044 135.314 4.22298 135.293 4.23708L131.71 6.76495L133.086 10.8639C133.093 10.8879 133.086 10.9118 133.066 10.9259C133.045 10.94 133.02 10.94 133.001 10.9259L129.423 8.38256L125.846 10.9259C125.826 10.94 125.8 10.94 125.781 10.9245C125.761 10.9104 125.752 10.8865 125.761 10.8639L127.137 6.76495L123.554 4.23708C123.533 4.22298 123.524 4.20044 123.531 4.17648C123.538 4.15253 123.56 4.13703 123.585 4.13703L128.01 4.14548L129.37 0.0394516C129.378 0.0169065 129.397 0 129.423 0C129.447 0 129.468 0.0154974 129.475 0.0394516ZM147.57 0.0394516L148.931 4.14548L153.357 4.13703C153.38 4.13703 153.402 4.15113 153.41 4.17508C153.417 4.20044 153.409 4.22298 153.388 4.23708L149.805 6.76495L151.181 10.8639C151.189 10.8879 151.181 10.9118 151.159 10.9259C151.14 10.94 151.116 10.94 151.094 10.9259L147.517 8.38256L143.94 10.9259C143.92 10.94 143.895 10.94 143.875 10.9245C143.856 10.9104 143.847 10.8865 143.855 10.8639L145.231 6.76495L141.649 4.23708C141.627 4.22298 141.619 4.20044 141.626 4.17648C141.633 4.15253 141.656 4.13703 141.68 4.13703L146.105 4.14548L147.465 0.0394516C147.472 0.0169065 147.493 0 147.517 0C147.543 0 147.562 0.0154974 147.57 0.0394516ZM73.7897 46.7008H165.728V45.5947H73.7897V46.7008ZM137.743 58.2298C137.743 57.6535 137.826 57.1167 137.991 56.6179C138.156 56.1177 138.438 55.6555 138.836 55.2328C139.234 54.81 139.714 54.4817 140.274 54.2492C140.837 54.0153 141.469 53.8984 142.179 53.8984C143.491 53.8984 144.534 54.2549 145.31 54.9678C146.086 55.6808 146.475 56.6531 146.475 57.886C146.475 58.7526 146.284 59.5332 145.904 60.2223C145.525 60.9155 144.979 61.4524 144.269 61.8357C143.559 62.2203 142.762 62.4106 141.879 62.4106C141.252 62.4106 140.673 62.3077 140.147 62.0992C139.621 61.8892 139.172 61.5778 138.799 61.1621C138.431 60.7493 138.16 60.2688 137.994 59.722C137.826 59.1781 137.743 58.6807 137.743 58.2298ZM138.942 57.8508C138.942 58.3186 139.02 58.8231 139.171 59.3627C139.322 59.9024 139.549 60.3646 139.849 60.7493C140.153 61.1354 140.501 61.4228 140.895 61.6116C141.289 61.8004 141.737 61.8948 142.243 61.8948C142.839 61.8948 143.369 61.7567 143.833 61.4862C144.3 61.2128 144.653 60.7901 144.894 60.2166C145.137 59.6417 145.258 58.9964 145.258 58.2834C145.258 57.507 145.121 56.8067 144.843 56.1782C144.565 55.5554 144.172 55.1003 143.659 54.8157C143.149 54.531 142.583 54.3887 141.959 54.3887C141.025 54.3887 140.288 54.6818 139.749 55.2652C139.212 55.8499 138.942 56.7095 138.942 57.8508ZM128.03 62.2401L127.978 62.1879V61.923L128.03 61.8765C128.267 61.8723 128.452 61.8596 128.593 61.8357C128.733 61.8131 128.823 61.7751 128.864 61.7215C128.905 61.6666 128.93 61.582 128.944 61.4622C128.958 61.3411 128.971 61.0748 128.984 60.6563C128.998 60.2364 129.004 59.9376 129.004 59.7573V55.1045C129.004 54.9073 128.97 54.7607 128.898 54.6677C128.827 54.5761 128.731 54.5155 128.606 54.4902C128.484 54.4662 128.273 54.4521 127.978 54.4479L127.933 54.4014V54.1295L127.978 54.0773C128.508 54.0985 128.855 54.1083 129.022 54.1083C129.411 54.1083 129.73 54.0985 129.98 54.0773L131.819 56.4629L134.524 59.8503C134.851 60.2603 135.184 60.6492 135.523 61.017V56.5615C135.523 56.4234 135.516 56.1289 135.502 55.6766C135.489 55.2271 135.474 54.9383 135.452 54.8185C135.435 54.6973 135.4 54.617 135.354 54.5733C135.304 54.531 135.212 54.4986 135.083 54.4789C134.95 54.4578 134.768 54.4465 134.542 54.4423L134.497 54.3944V54.1295L134.542 54.0773C134.853 54.0985 135.299 54.1083 135.876 54.1083C136.401 54.1083 136.786 54.0985 137.023 54.0773L137.075 54.1295V54.3944L137.029 54.4423C136.776 54.4465 136.578 54.4592 136.44 54.4845C136.303 54.5085 136.214 54.5494 136.18 54.6085C136.145 54.6649 136.121 54.7509 136.107 54.8622C136.094 54.9721 136.083 55.237 136.069 55.6555C136.053 56.0754 136.048 56.3755 136.048 56.5615V59.2951L136.053 60.8803C136.061 61.3988 136.069 61.9188 136.076 62.4416C135.884 62.3767 135.553 62.295 135.078 62.1992L134.668 61.7159L133.44 60.218L129.53 55.3412V59.7573C129.53 59.9334 129.536 60.249 129.55 60.7014C129.562 61.1565 129.579 61.4284 129.599 61.5242C129.619 61.6215 129.644 61.6877 129.674 61.7229C129.705 61.761 129.773 61.7948 129.871 61.8258C129.974 61.8554 130.186 61.8723 130.504 61.8765L130.552 61.923V62.1936L130.504 62.2401C130.306 62.2133 129.981 62.1992 129.536 62.1992C128.963 62.1992 128.46 62.2133 128.03 62.2401ZM118.715 62.2443L118.664 62.1992V61.9005L118.715 61.854C118.995 61.8497 119.175 61.8357 119.257 61.8089C119.337 61.7863 119.409 61.7356 119.473 61.6609C119.535 61.5863 119.663 61.3397 119.857 60.9268L120.464 59.6136L122.031 56.0655C122.328 55.3694 122.621 54.6762 122.915 53.9801H123.289L125.751 59.7629L126.081 60.5337C126.177 60.7535 126.287 60.9916 126.413 61.2495C126.537 61.5059 126.623 61.6581 126.671 61.7032C126.72 61.7483 126.78 61.7863 126.85 61.8089C126.921 61.8357 127.082 61.8497 127.326 61.854L127.372 61.9005V62.1992L127.326 62.2443C126.919 62.2105 126.551 62.1936 126.224 62.1936C125.586 62.2133 124.948 62.2302 124.31 62.2443L124.264 62.1992V61.9005L124.31 61.854C124.739 61.8455 125.009 61.8272 125.117 61.799C125.226 61.7708 125.278 61.7032 125.278 61.6003C125.278 61.5144 125.251 61.4045 125.199 61.2664L124.491 59.5107H121.148L120.52 60.9832C120.409 61.2495 120.353 61.4425 120.353 61.5665C120.353 61.6623 120.404 61.7342 120.509 61.7779C120.613 61.8258 120.876 61.8497 121.293 61.854L121.345 61.9005V62.1992L121.298 62.2443C120.802 62.2147 120.369 62.1992 119.995 62.1992C119.572 62.1992 119.147 62.2147 118.715 62.2443ZM121.345 59.0147H124.264L122.816 55.5399L121.345 59.0147ZM118.087 59.0598V59.2317L118.063 59.3022L117.78 59.4684C117.712 59.5135 117.672 59.5431 117.66 59.5671C117.648 59.5896 117.634 59.7037 117.616 59.9095C117.599 60.1152 117.591 60.3646 117.591 60.6619C117.591 60.9958 117.61 61.358 117.654 61.7483L117.619 61.8075C116.565 62.2105 115.482 62.4106 114.372 62.4106C113.517 62.4106 112.746 62.2499 112.059 61.9272C111.372 61.6046 110.824 61.1283 110.421 60.4956C110.017 59.8616 109.815 59.1091 109.815 58.2355C109.815 56.9081 110.27 55.8513 111.178 55.0693C112.089 54.2873 113.275 53.8927 114.74 53.8927C115.817 53.8927 116.785 54.0759 117.641 54.4423L117.684 54.5043C117.612 54.7607 117.531 55.3004 117.441 56.1219L117.393 56.1642H117.128L117.083 56.1162L117.053 55.5075C117.042 55.306 117.03 55.1905 117.016 55.1553C117.002 55.12 116.961 55.0749 116.892 55.02C116.823 54.9636 116.647 54.8763 116.359 54.7551C116.072 54.6353 115.786 54.5465 115.496 54.4902C115.209 54.4338 114.9 54.407 114.568 54.407C113.864 54.407 113.241 54.5522 112.698 54.8453C112.156 55.1355 111.747 55.5625 111.473 56.1205C111.198 56.6785 111.06 57.2999 111.06 57.9819C111.06 58.6906 111.209 59.3458 111.506 59.956C111.801 60.5633 112.225 61.0395 112.779 61.3819C113.335 61.7229 113.978 61.8948 114.713 61.8948C115.032 61.8948 115.357 61.8638 115.688 61.799C116.021 61.7356 116.298 61.6468 116.512 61.5299C116.545 61.4087 116.563 61.1607 116.563 60.7887V60.149C116.563 59.8461 116.543 59.6572 116.507 59.5797C116.467 59.5065 116.371 59.4557 116.22 59.4233C116.068 59.3923 115.741 59.3726 115.237 59.367L115.185 59.3134V59.0598L115.237 59.0077L115.588 59.0203C116.192 59.0401 116.685 59.0471 117.066 59.0471C117.284 59.0471 117.606 59.0386 118.028 59.0147L118.087 59.0598ZM100.431 54.1013L100.477 54.059C101.431 54.0914 101.981 54.1083 102.126 54.1083C102.257 54.1083 102.809 54.0914 103.781 54.059L103.827 54.1013V54.3887L103.781 54.4296C103.516 54.438 103.312 54.4507 103.168 54.4648C103.024 54.4789 102.919 54.5085 102.853 54.5493C102.788 54.593 102.744 54.6917 102.723 54.8467C102.703 55.0017 102.691 55.2187 102.691 55.4948L102.679 56.8194V58.6497C102.679 59.2542 102.693 59.6967 102.719 59.9799C102.741 60.2603 102.798 60.4985 102.88 60.6929C102.963 60.8874 103.089 61.0522 103.255 61.1945C103.426 61.334 103.667 61.4482 103.985 61.5369C104.299 61.6257 104.656 61.668 105.057 61.668C105.479 61.668 105.874 61.6116 106.244 61.4933C106.608 61.3777 106.889 61.2058 107.082 60.9832C107.273 60.7619 107.398 60.4689 107.459 60.1053C107.518 59.7418 107.548 59.2387 107.548 58.5934V56.8194C107.548 56.5206 107.543 56.1092 107.535 55.5836C107.525 55.0594 107.501 54.7579 107.464 54.6804C107.428 54.6001 107.361 54.5423 107.263 54.5C107.164 54.462 106.893 54.438 106.448 54.4296L106.4 54.3831V54.114L106.448 54.059C107.016 54.0914 107.471 54.1083 107.814 54.1083C108.105 54.1083 108.559 54.0914 109.175 54.059L109.227 54.1083V54.3831L109.175 54.4296C108.813 54.438 108.578 54.4521 108.468 54.4718C108.36 54.4944 108.283 54.5254 108.238 54.5677C108.193 54.6114 108.16 54.6762 108.139 54.7635C108.119 54.8523 108.102 55.1073 108.095 55.523L108.08 56.8194V58.5708C108.08 59.2712 108.053 59.8193 107.999 60.2223C107.944 60.6267 107.824 60.9592 107.638 61.2171C107.452 61.4749 107.232 61.6933 106.975 61.8681C106.719 62.0414 106.391 62.1767 105.991 62.2725C105.592 62.3641 105.176 62.4106 104.745 62.4106C104.208 62.4106 103.731 62.3528 103.317 62.2344C102.904 62.1146 102.579 61.9568 102.341 61.761C102.102 61.5665 101.931 61.3594 101.827 61.141C101.723 60.9254 101.656 60.6704 101.624 60.3773C101.594 60.0828 101.579 59.6333 101.579 59.033V56.8194L101.567 55.6963C101.563 55.2595 101.553 54.9763 101.535 54.8509C101.517 54.7227 101.49 54.6395 101.454 54.5959C101.418 54.5536 101.349 54.5212 101.244 54.493C101.14 54.4662 100.883 54.4465 100.477 54.4296L100.431 54.3887V54.1013ZM93.2545 54.1013L93.3025 54.059C94.255 54.0914 94.8068 54.1083 94.9521 54.1083C95.0819 54.1083 95.6337 54.0914 96.6073 54.059L96.6539 54.1013V54.3887L96.6073 54.4296C96.342 54.438 96.1374 54.4507 95.9935 54.4648C95.8482 54.4789 95.7437 54.5085 95.6788 54.5493C95.6139 54.593 95.5716 54.6917 95.549 54.8467C95.5264 55.0017 95.5166 55.2187 95.5166 55.4948L95.5053 56.8194V59.367C95.5053 60.0025 95.5095 60.4477 95.5166 60.7014L95.5448 61.6976H96.7231C97.6614 61.6976 98.2456 61.6863 98.4785 61.6652C98.7113 61.6398 98.9357 61.5834 99.1516 61.4975C99.1925 61.4003 99.2532 61.179 99.3322 60.8352C99.4112 60.4886 99.4535 60.2885 99.4564 60.235L99.5072 60.1899H99.7908L99.8303 60.235C99.8007 60.39 99.7696 60.6859 99.7358 61.1283C99.7019 61.5708 99.6864 61.9258 99.6864 62.1992L99.6412 62.2443C98.9089 62.2217 97.9507 62.2105 96.764 62.2105L95.0791 62.1992C94.6939 62.1992 94.303 62.2147 93.9022 62.2443L93.8557 62.1992V62.0076L93.9022 61.9512C94.1407 61.83 94.272 61.7525 94.2945 61.7286C94.3157 61.699 94.3411 61.4524 94.3665 60.9832C94.3919 60.5168 94.4018 59.9503 94.4018 59.2895V56.8194L94.3933 55.6963C94.3891 55.2595 94.3778 54.9763 94.3594 54.8509C94.3439 54.7227 94.3157 54.6395 94.279 54.5959C94.2437 54.5536 94.1732 54.5212 94.0688 54.493C93.9657 54.4662 93.7103 54.4465 93.3025 54.4296L93.2545 54.3887V54.1013ZM225.151 38.2041L225.068 38.1168V37.68L225.151 37.6081C225.539 37.601 225.847 37.5771 226.075 37.539C226.305 37.5024 226.455 37.4404 226.521 37.3516C226.586 37.2629 226.633 37.122 226.654 36.9247C226.678 36.7302 226.696 36.2906 226.719 35.603C226.741 34.9154 226.751 34.425 226.751 34.1277V26.4877C226.751 26.1664 226.692 25.9269 226.576 25.7705C226.459 25.6197 226.301 25.5211 226.099 25.4816C225.897 25.4394 225.552 25.4168 225.068 25.4098L224.993 25.3323V24.887L225.068 24.8039C225.94 24.8349 226.508 24.8518 226.781 24.8518C227.42 24.8518 227.943 24.8349 228.354 24.8039L231.372 28.7183L235.813 34.2785C236.351 34.9548 236.897 35.5931 237.452 36.1976V28.8803C237.452 28.6535 237.444 28.1687 237.42 27.4276C237.396 26.6892 237.373 26.2172 237.339 26.0199C237.308 25.8198 237.253 25.6888 237.175 25.6169C237.095 25.5493 236.945 25.4943 236.729 25.4633C236.512 25.4267 236.215 25.407 235.843 25.4013L235.768 25.3238V24.887L235.843 24.8039C236.354 24.8349 237.085 24.8518 238.032 24.8518C238.895 24.8518 239.524 24.8349 239.917 24.8039L240 24.887V25.3238L239.925 25.4013C239.509 25.407 239.186 25.4295 238.959 25.4704C238.733 25.5112 238.59 25.5789 238.532 25.6747C238.475 25.7677 238.436 25.9072 238.413 26.0918C238.393 26.2721 238.37 26.7075 238.348 27.3951C238.326 28.0828 238.317 28.576 238.317 28.8803V33.3696L238.326 35.9708C238.335 36.8233 238.348 37.6757 238.362 38.5325C238.047 38.4268 237.502 38.2943 236.722 38.1365L236.05 37.3418L234.034 34.8829L227.615 26.8752V34.1277C227.615 34.418 227.625 34.9337 227.646 35.6777C227.67 36.4231 227.694 36.8698 227.728 37.029C227.759 37.1882 227.802 37.2967 227.85 37.3545C227.903 37.4165 228.011 37.4714 228.176 37.5221C228.344 37.5715 228.69 37.601 229.215 37.6081L229.291 37.68V38.1266L229.215 38.2041C228.888 38.159 228.357 38.1365 227.625 38.1365C226.683 38.1365 225.859 38.159 225.151 38.2041ZM213.372 24.8419L213.447 24.7743C215.613 24.8137 216.999 24.8321 217.604 24.8321C219.676 24.8321 221.517 24.8137 223.134 24.7743L223.182 24.8419C223.024 25.4464 222.907 26.3961 222.834 27.6897L222.775 27.7629H222.313L222.226 27.6897C222.233 27.6319 222.236 27.5783 222.236 27.5375C222.236 27.0006 222.193 26.4919 222.111 26.003C221.715 25.8297 221.165 25.7127 220.46 25.6592C219.756 25.607 219.226 25.5789 218.873 25.5789C218.376 25.5789 217.737 25.6141 216.961 25.6845L216.926 27.1951L216.896 28.9254L216.868 30.846C217.548 30.884 218.176 30.9037 218.752 30.9037C219.333 30.9037 219.817 30.884 220.209 30.846C220.6 30.8065 220.829 30.7671 220.896 30.729C220.963 30.6882 221.014 30.6064 221.047 30.4909C221.081 30.3739 221.109 30.1668 221.136 29.8695L221.174 29.2861L221.249 29.2086H221.687L221.763 29.2861C221.752 29.9738 221.735 30.6642 221.715 31.3546L221.763 33.4852L221.687 33.5598H221.249L221.174 33.4852L221.107 32.9173C221.052 32.4748 221.009 32.2142 220.985 32.1268C220.963 32.0423 220.901 31.969 220.81 31.9042C220.72 31.8422 220.483 31.7915 220.106 31.752C219.728 31.7168 219.207 31.6971 218.541 31.6971C218.176 31.6971 217.617 31.7125 216.868 31.7449C216.834 32.2748 216.818 33.1554 216.818 34.3912C216.818 35.7157 216.834 36.6894 216.868 37.3136H218.609C220.144 37.3136 221.101 37.2939 221.489 37.2587C221.873 37.2192 222.238 37.1262 222.584 36.9825C222.642 36.8387 222.736 36.502 222.866 35.9764C222.995 35.4466 223.07 35.1183 223.089 34.9858L223.182 34.921H223.638L223.712 34.9858C223.658 35.2578 223.599 35.7326 223.548 36.4062C223.493 37.0811 223.466 37.6588 223.466 38.1365L223.398 38.2098C222.193 38.1745 220.617 38.1548 218.667 38.1548L216.092 38.1365C215.489 38.1365 214.867 38.1619 214.218 38.2098L214.139 38.1365V37.8223L214.218 37.7293C214.587 37.5391 214.802 37.4221 214.853 37.3756C214.909 37.3291 214.953 36.7767 214.987 35.7199C215.022 34.6631 215.042 33.8586 215.042 33.3048V29.8357L215.032 27.6897C215.032 27.2218 215.025 26.84 215.011 26.5497C214.998 26.2552 214.977 26.0467 214.943 25.9213C214.91 25.7944 214.875 25.7029 214.837 25.655C214.795 25.6028 214.727 25.562 214.637 25.5253C214.545 25.4943 214.388 25.4633 214.168 25.4365L213.447 25.3816L213.372 25.3125V24.8419ZM212.225 24.7743L212.313 24.8616C212.253 25.4267 212.225 26.4173 212.225 27.8306L212.15 27.9052H211.704L211.631 27.8207L211.522 26.9499C211.474 26.4849 211.436 26.1974 211.407 26.096C211.378 25.9917 211.333 25.9142 211.268 25.8691C211.208 25.8198 210.999 25.7818 210.655 25.7494C210.305 25.717 209.918 25.7 209.488 25.7H207.7C207.648 27.1274 207.624 27.9503 207.624 28.1687V33.6824L207.642 35.5255C207.648 36.2385 207.664 36.6992 207.694 36.912C207.722 37.122 207.767 37.2629 207.825 37.3291C207.887 37.3939 208 37.4517 208.171 37.4982C208.343 37.5461 208.767 37.5799 209.442 37.6081L209.507 37.6659V38.1365L209.442 38.2098C207.825 38.1619 206.925 38.1365 206.733 38.1365C206.528 38.1365 205.632 38.1619 204.035 38.2098L203.96 38.1365V37.6659L204.035 37.6081C204.631 37.5799 205.02 37.5489 205.215 37.5123C205.407 37.4742 205.534 37.4263 205.603 37.3643C205.666 37.3066 205.721 37.1769 205.766 36.9825C205.813 36.788 205.836 36.3512 205.836 35.6777L205.851 33.6824V28.1687C205.851 28.0701 205.829 27.2458 205.776 25.7H204.368C203.787 25.7 203.286 25.7127 202.861 25.7395C202.438 25.7649 202.192 25.8297 202.127 25.9325C202.06 26.0368 201.997 26.375 201.944 26.9499L201.846 27.8207L201.762 27.9052H201.326L201.251 27.8306C201.238 26.3102 201.21 25.3196 201.165 24.8616L201.251 24.7743C202.349 24.825 204.176 24.8518 206.733 24.8518C209.342 24.8518 211.171 24.825 212.225 24.7743ZM188.239 24.8419L188.312 24.7743C189.471 24.825 190.368 24.8518 191.012 24.8518C191.726 24.8518 192.69 24.8292 193.902 24.7841C194.352 24.7715 194.674 24.7644 194.878 24.7644C196.474 24.7644 197.557 25.0547 198.125 25.6366C198.693 26.2172 198.976 26.9048 198.976 27.6981C198.976 28.2279 198.837 28.7479 198.56 29.2579C198.282 29.7666 197.874 30.2034 197.331 30.5684C196.788 30.9291 196.038 31.2039 195.084 31.3856C195.262 31.6294 195.583 32.055 196.041 32.6623L197.386 34.4377C197.822 35.0253 198.289 35.6439 198.789 36.2962C199.288 36.9486 199.61 37.3206 199.755 37.4038C199.898 37.4883 200.023 37.5391 200.126 37.5574C200.231 37.5771 200.399 37.587 200.626 37.587L200.703 37.6659V38.1069L200.615 38.1943C200.311 38.1548 199.953 38.1365 199.535 38.1365C199.086 38.1365 198.598 38.1548 198.067 38.1943C197.633 37.6659 196.946 36.7443 196.012 35.4424C194.926 33.9262 193.819 32.527 192.68 31.2321L192.773 30.939C193.103 30.9587 193.359 30.9686 193.542 30.9686C194.636 30.9686 195.488 30.7065 196.11 30.1837C196.727 29.6609 197.037 28.9339 197.037 28.0081C197.037 27.1753 196.759 26.5497 196.203 26.1228C195.647 25.6986 194.897 25.4845 193.95 25.4845C193.288 25.4845 192.66 25.576 192.076 25.7578C191.979 25.8973 191.933 27.0781 191.933 29.3059V33.6824L191.943 35.5255C191.949 36.2385 191.966 36.6993 191.998 36.9064C192.031 37.1163 192.076 37.2558 192.137 37.3235C192.194 37.3939 192.312 37.4517 192.482 37.4982C192.65 37.5461 193.071 37.5799 193.74 37.6081L193.819 37.6659V38.1365L193.74 38.2098C193.707 38.2098 193.155 38.1943 192.076 38.1548C191.626 38.1435 191.277 38.1365 191.022 38.1365C190.827 38.1365 189.927 38.1619 188.312 38.2098L188.239 38.1365V37.6659L188.312 37.6081C188.901 37.5799 189.293 37.5489 189.489 37.5123C189.684 37.4742 189.817 37.4263 189.882 37.3643C189.948 37.3066 190.002 37.1769 190.043 36.9825C190.085 36.788 190.107 36.3512 190.114 35.6777L190.123 33.6824V29.3059L190.105 27.46C190.098 26.7442 190.081 26.2792 190.052 26.072C190.023 25.8635 189.98 25.724 189.92 25.655C189.862 25.5845 189.745 25.5295 189.574 25.4845C189.403 25.4394 188.986 25.407 188.312 25.3816L188.239 25.3125V24.8419ZM173.174 38.2098L173.091 38.1365V37.6461L173.174 37.5672C173.634 37.5616 173.93 37.539 174.065 37.4982C174.196 37.4573 174.316 37.3756 174.419 37.2516C174.523 37.129 174.732 36.726 175.049 36.0468L176.044 33.8924L178.618 28.0659C179.105 26.9245 179.588 25.7846 180.067 24.6418H180.683L184.725 34.1376L185.266 35.4015C185.424 35.7636 185.605 36.1539 185.812 36.5767C186.015 36.9966 186.158 37.2488 186.235 37.3235C186.316 37.3967 186.413 37.4573 186.53 37.4982C186.646 37.539 186.907 37.5616 187.311 37.5672L187.385 37.6461V38.1365L187.311 38.2098C186.643 38.1548 186.038 38.1266 185.502 38.1266C184.455 38.159 183.407 38.1872 182.359 38.2098L182.283 38.1365V37.6461L182.359 37.5672C183.065 37.556 183.508 37.5264 183.685 37.4771C183.863 37.4334 183.949 37.3235 183.949 37.1516C183.949 37.0135 183.904 36.8317 183.818 36.6034L182.654 33.7205H177.17L176.137 36.1413C175.954 36.5767 175.864 36.8937 175.864 37.0966C175.864 37.2558 175.948 37.3714 176.119 37.4446C176.291 37.5221 176.72 37.5616 177.406 37.5672L177.492 37.6461V38.1365L177.414 38.2098C176.6 38.1619 175.89 38.1365 175.275 38.1365C174.581 38.1365 173.882 38.1619 173.174 38.2098ZM177.492 32.9088H182.283L179.907 27.2049L177.492 32.9088ZM172.143 32.9807V33.2668L172.104 33.3795L171.64 33.6528C171.526 33.7247 171.461 33.7754 171.441 33.8135C171.423 33.8529 171.4 34.0403 171.371 34.3771C171.342 34.7153 171.328 35.1253 171.328 35.6129C171.328 36.161 171.362 36.7542 171.431 37.3967L171.374 37.494C169.645 38.1548 167.867 38.4845 166.044 38.4845C164.643 38.4845 163.377 38.2196 162.246 37.6898C161.119 37.1614 160.22 36.378 159.557 35.3381C158.895 34.2982 158.565 33.0624 158.565 31.6294C158.565 29.4524 159.309 27.715 160.802 26.4299C162.296 25.1463 164.245 24.4995 166.649 24.4995C168.417 24.4995 170.008 24.7996 171.413 25.4013L171.482 25.5042C171.364 25.9269 171.232 26.8118 171.083 28.1603L171.007 28.2279H170.569L170.494 28.1504L170.446 27.15C170.427 26.8203 170.408 26.63 170.384 26.5723C170.363 26.5145 170.295 26.4398 170.183 26.3482C170.07 26.2594 169.776 26.1129 169.306 25.9142C168.836 25.717 168.365 25.5718 167.891 25.4816C167.418 25.3886 166.91 25.3435 166.367 25.3435C165.21 25.3435 164.19 25.5803 163.298 26.0622C162.409 26.5398 161.736 27.2402 161.287 28.1575C160.835 29.0734 160.607 30.0935 160.607 31.2137C160.607 32.3762 160.854 33.4527 161.338 34.4532C161.823 35.4508 162.522 36.2314 163.429 36.7937C164.341 37.3545 165.397 37.6363 166.603 37.6363C167.128 37.6363 167.66 37.5841 168.207 37.4771C168.753 37.3756 169.205 37.2291 169.557 37.0374C169.612 36.8388 169.642 36.4329 169.642 35.8186V34.7702C169.642 34.2714 169.608 33.9628 169.548 33.8374C169.483 33.7148 169.327 33.6303 169.079 33.5782C168.831 33.5274 168.292 33.495 167.463 33.4852L167.379 33.3978V32.9807L167.463 32.8976L168.042 32.9173C169.034 32.9497 169.841 32.9624 170.466 32.9624C170.825 32.9624 171.355 32.9469 172.047 32.9088L172.143 32.9807ZM146.803 24.8419L146.878 24.7743C149.043 24.8137 150.43 24.8321 151.034 24.8321C153.105 24.8321 154.948 24.8137 156.564 24.7743L156.612 24.8419C156.454 25.4464 156.338 26.3961 156.263 27.6897L156.204 27.7629H155.743L155.657 27.6897C155.664 27.6319 155.665 27.5783 155.665 27.5375C155.665 27.0006 155.624 26.4919 155.544 26.003C155.144 25.8297 154.595 25.7127 153.891 25.6592C153.187 25.607 152.657 25.5789 152.304 25.5789C151.806 25.5789 151.166 25.6141 150.39 25.6845L150.355 27.1951L150.325 28.9254L150.297 30.846C150.979 30.884 151.607 30.9037 152.181 30.9037C152.764 30.9037 153.248 30.884 153.639 30.846C154.03 30.8065 154.258 30.7671 154.326 30.729C154.392 30.6882 154.443 30.6064 154.477 30.4909C154.512 30.3739 154.542 30.1668 154.566 29.8695L154.607 29.2861L154.679 29.2086H155.116L155.194 29.2861C155.181 29.9738 155.164 30.6642 155.144 31.3546L155.194 33.4852L155.116 33.5598H154.679L154.607 33.4852L154.538 32.9173C154.483 32.4748 154.44 32.2142 154.415 32.1268C154.392 32.0423 154.33 31.969 154.241 31.9042C154.15 31.8422 153.914 31.7915 153.536 31.752C153.158 31.7168 152.637 31.6971 151.971 31.6971C151.607 31.6971 151.047 31.7125 150.297 31.7449C150.265 32.2748 150.249 33.1554 150.249 34.3912C150.249 35.7157 150.265 36.6894 150.297 37.3136H152.039C153.574 37.3136 154.532 37.2939 154.919 37.2587C155.304 37.2192 155.668 37.1262 156.015 36.9825C156.073 36.8387 156.166 36.502 156.296 35.9764C156.426 35.4466 156.499 35.1183 156.519 34.9858L156.612 34.921H157.069L157.143 34.9858C157.087 35.2578 157.03 35.7326 156.977 36.4062C156.922 37.0811 156.897 37.6588 156.897 38.1365L156.829 38.2098C155.624 38.1745 154.047 38.1548 152.096 38.1548L149.521 38.1365C148.92 38.1365 148.296 38.1619 147.647 38.2098L147.568 38.1365V37.8223L147.647 37.7293C148.018 37.5391 148.231 37.4221 148.284 37.3756C148.339 37.3291 148.382 36.7767 148.416 35.7199C148.451 34.6631 148.471 33.8586 148.471 33.3048V29.8357L148.461 27.6897C148.461 27.2218 148.454 26.84 148.44 26.5497C148.429 26.2552 148.406 26.0467 148.374 25.9213C148.341 25.7944 148.306 25.7029 148.267 25.655C148.224 25.6028 148.157 25.562 148.068 25.5253C147.976 25.4943 147.818 25.4633 147.598 25.4365L146.878 25.3816L146.803 25.3125V24.8419ZM134.957 24.8419L135.03 24.7743C137.198 24.8137 138.584 24.8321 139.188 24.8321C141.26 24.8321 143.102 24.8137 144.718 24.7743L144.767 24.8419C144.609 25.4464 144.492 26.3961 144.417 27.6897L144.359 27.7629H143.896L143.809 27.6897C143.816 27.6319 143.819 27.5783 143.819 27.5375C143.819 27.0006 143.778 26.4919 143.696 26.003C143.3 25.8297 142.749 25.7127 142.045 25.6592C141.339 25.607 140.81 25.5789 140.458 25.5789C139.961 25.5789 139.32 25.6141 138.544 25.6845L138.509 27.1951L138.481 28.9254L138.45 30.846C139.133 30.884 139.76 30.9037 140.335 30.9037C140.916 30.9037 141.402 30.884 141.792 30.846C142.185 30.8065 142.413 30.7671 142.481 30.729C142.546 30.6882 142.598 30.6064 142.631 30.4909C142.666 30.3739 142.694 30.1668 142.721 29.8695L142.759 29.2861L142.834 29.2086H143.27L143.348 29.2861C143.335 29.9738 143.318 30.6642 143.3 31.3546L143.348 33.4852L143.27 33.5598H142.834L142.759 33.4852L142.691 32.9173C142.636 32.4748 142.594 32.2142 142.569 32.1268C142.546 32.0423 142.485 31.969 142.394 31.9042C142.303 31.8422 142.068 31.7915 141.689 31.752C141.313 31.7168 140.791 31.6971 140.126 31.6971C139.76 31.6971 139.202 31.7125 138.45 31.7449C138.418 32.2748 138.402 33.1554 138.402 34.3912C138.402 35.7157 138.418 36.6894 138.45 37.3136H140.194C141.729 37.3136 142.684 37.2939 143.074 37.2587C143.456 37.2192 143.823 37.1262 144.169 36.9825C144.227 36.8387 144.32 36.502 144.45 35.9764C144.579 35.4466 144.654 35.1183 144.673 34.9858L144.767 34.921H145.221L145.296 34.9858C145.241 35.2578 145.183 35.7326 145.133 36.4062C145.078 37.0811 145.051 37.6588 145.051 38.1365L144.983 38.2098C143.778 38.1745 142.2 38.1548 140.252 38.1548L137.675 38.1365C137.074 38.1365 136.45 38.1619 135.799 38.2098L135.723 38.1365V37.8223L135.799 37.7293C136.172 37.5391 136.385 37.4221 136.437 37.3756C136.492 37.3291 136.537 36.7767 136.57 35.7199C136.605 34.6631 136.624 33.8586 136.624 33.3048V29.8357L136.615 27.6897C136.615 27.2218 136.609 26.84 136.595 26.5497C136.583 26.2552 136.559 26.0467 136.528 25.9213C136.495 25.7944 136.46 25.7029 136.42 25.655C136.379 25.6028 136.312 25.562 136.22 25.5253C136.13 25.4943 135.972 25.4633 135.752 25.4365L135.03 25.3816L134.957 25.3125V24.8419ZM124.834 34.8829L124.911 34.8083H125.374L125.45 34.8829C125.483 35.6889 125.525 36.1835 125.576 36.3653C125.631 36.5414 125.803 36.7331 126.091 36.9289C126.379 37.129 126.76 37.2896 127.234 37.4165C127.714 37.5419 128.195 37.6081 128.679 37.6081C129.348 37.6081 129.95 37.4841 130.484 37.2389C131.017 36.9937 131.431 36.6316 131.728 36.1539C132.026 35.6791 132.173 35.145 132.173 34.5546C132.173 34.1376 132.102 33.7726 131.961 33.4654C131.819 33.1554 131.621 32.9088 131.363 32.7243C131.106 32.5369 130.815 32.3974 130.487 32.3072C130.159 32.2156 129.672 32.1169 129.019 32.0099C128.388 31.907 127.894 31.8168 127.539 31.7365C127.183 31.652 126.828 31.5266 126.472 31.3546C126.119 31.187 125.826 30.9714 125.586 30.7093C125.35 30.4486 125.163 30.1245 125.021 29.7455C124.879 29.3636 124.807 28.9536 124.807 28.5182C124.807 27.3402 125.218 26.375 126.039 25.6239C126.856 24.8687 127.959 24.4911 129.342 24.4911C129.891 24.4911 130.489 24.5587 131.136 24.694C131.783 24.8292 132.372 25.0293 132.905 25.2928L132.97 25.4098C132.831 25.9889 132.744 26.8132 132.713 27.8855L132.629 27.963H132.135L132.06 27.8954C132.047 27.1401 132.029 26.6624 132.002 26.468C131.975 26.2721 131.692 26.0298 131.143 25.7395C130.594 25.4492 129.996 25.3027 129.352 25.3027C128.814 25.3027 128.315 25.4126 127.846 25.6268C127.381 25.8395 127.025 26.1777 126.787 26.6371C126.547 27.0992 126.427 27.5699 126.427 28.0461C126.427 28.4181 126.499 28.7479 126.643 29.0353C126.79 29.3228 126.976 29.5482 127.207 29.7159C127.439 29.8836 127.707 30.0062 128.01 30.0907C128.318 30.1696 128.877 30.2711 129.691 30.3937C130.808 30.5487 131.624 30.7389 132.132 30.9657C132.639 31.187 133.046 31.542 133.353 32.0268C133.657 32.5129 133.813 33.0977 133.813 33.7853C133.813 35.1281 133.264 36.2483 132.167 37.1417C131.075 38.0393 129.746 38.4845 128.189 38.4845C126.88 38.4845 125.735 38.252 124.749 37.787L124.694 37.6659C124.756 37.2643 124.803 36.3371 124.834 34.8829ZM104.447 31.621C104.447 30.6741 104.583 29.7934 104.855 28.9733C105.128 28.1546 105.589 27.3951 106.241 26.7005C106.894 26.003 107.683 25.4647 108.605 25.0843C109.526 24.6996 110.566 24.5108 111.73 24.5108C113.882 24.5108 115.595 25.0941 116.869 26.2665C118.145 27.4332 118.783 29.0325 118.783 31.0545C118.783 32.4777 118.468 33.7585 117.845 34.8928C117.221 36.0285 116.326 36.9106 115.162 37.539C113.995 38.1717 112.686 38.4845 111.235 38.4845C110.208 38.4845 109.261 38.314 108.394 37.9716C107.531 37.6264 106.794 37.1163 106.183 36.4357C105.575 35.7538 105.132 34.9675 104.858 34.0699C104.583 33.1752 104.447 32.3593 104.447 31.621ZM106.416 30.9967C106.416 31.7647 106.542 32.5946 106.791 33.4795C107.04 34.3658 107.412 35.1253 107.906 35.758C108.403 36.3892 108.976 36.8613 109.623 37.1713C110.27 37.4813 111.006 37.6363 111.833 37.6363C112.813 37.6363 113.682 37.4094 114.445 36.9656C115.211 36.5161 115.79 35.8214 116.186 34.8801C116.584 33.9375 116.785 32.8778 116.785 31.7069C116.785 30.4317 116.559 29.2833 116.103 28.2533C115.647 27.2261 115.001 26.4821 114.16 26.0143C113.323 25.5493 112.392 25.3125 111.368 25.3125C109.835 25.3125 108.627 25.7945 107.741 26.754C106.859 27.7108 106.416 29.1241 106.416 30.9967ZM89.2668 24.8419L89.3415 24.7743C90.4337 24.825 91.1802 24.8518 91.5781 24.8518L96.009 24.756C97.2706 24.756 98.3063 24.8743 99.1149 25.111C99.9234 25.3492 100.64 25.7578 101.267 26.3398C101.898 26.9245 102.373 27.6023 102.699 28.373C103.022 29.1452 103.187 29.9709 103.187 30.846C103.187 31.697 103.039 32.5397 102.741 33.3696C102.444 34.2024 102.023 34.9478 101.477 35.6058C100.931 36.2652 100.309 36.7965 99.613 37.2009C98.9145 37.6039 98.2132 37.8716 97.5161 38.0069C96.8134 38.1435 96.0965 38.2098 95.3656 38.2098C94.8703 38.2098 93.9446 38.1943 92.58 38.1548C92.1341 38.1435 91.8364 38.1365 91.691 38.1365C91.2536 38.1365 90.7273 38.1619 90.1106 38.2098L90.033 38.1365V37.8223L90.1106 37.7293C90.4831 37.5391 90.6948 37.4221 90.747 37.3756C90.802 37.3291 90.8472 36.7767 90.8796 35.7199C90.9149 34.6631 90.9347 33.8586 90.9347 33.3048V29.8357L90.9248 27.6897C90.9248 27.2218 90.9178 26.84 90.9051 26.5497C90.8924 26.2552 90.8698 26.0467 90.8373 25.9213C90.8063 25.7944 90.7696 25.7029 90.7315 25.655C90.6892 25.6028 90.6214 25.562 90.5297 25.5253C90.4394 25.4943 90.2813 25.4633 90.0626 25.4365L89.3415 25.3816L89.2668 25.3125V24.8419ZM92.7705 37.1812C93.414 37.3066 94.1562 37.3714 94.9944 37.3714C96.4648 37.3714 97.6417 37.1262 98.5236 36.6316C99.4027 36.1413 100.062 35.4128 100.499 34.4461C100.931 33.4851 101.151 32.3974 101.151 31.187C101.151 29.4017 100.673 28.018 99.7202 27.0372C98.7663 26.0523 97.2663 25.562 95.2146 25.562C94.3665 25.562 93.5523 25.624 92.7705 25.7494C92.7183 26.7822 92.6929 27.9503 92.6929 29.2481V32.2156L92.7127 34.9957C92.7127 35.5382 92.731 36.2667 92.7705 37.1812ZM83.0099 24.7743L84.1924 24.8137C84.9671 24.8391 85.4793 24.8518 85.7178 24.8518C85.9323 24.8518 86.8368 24.825 88.4356 24.7743L88.5104 24.8419V25.3125L88.4356 25.3816C87.9996 25.3943 87.6637 25.4126 87.4281 25.4365C87.1882 25.4633 87.0174 25.5112 86.9102 25.5789C86.8044 25.6493 86.7324 25.8114 86.6971 26.065C86.6618 26.32 86.6463 26.6751 86.6463 27.1302L86.6266 29.3059V33.6824L86.6364 35.5255C86.6421 36.2385 86.6618 36.6993 86.6943 36.9064C86.7239 37.1163 86.7677 37.2558 86.8298 37.3235C86.8919 37.3939 87.0047 37.4517 87.1755 37.4982C87.3462 37.5461 87.7667 37.5799 88.4356 37.6081L88.5104 37.6659V38.1365L88.4356 38.2098C88.4046 38.2098 87.8486 38.1943 86.7677 38.1548C86.3189 38.1435 85.9704 38.1365 85.7178 38.1365C85.5217 38.1365 84.6186 38.1619 83.0099 38.2098L82.9323 38.1365V37.6659L83.0099 37.6081C83.5941 37.5799 83.9892 37.5489 84.1825 37.5123C84.3801 37.4742 84.5085 37.4263 84.5776 37.3643C84.6411 37.3066 84.6976 37.1769 84.7385 36.9825C84.7766 36.788 84.8034 36.3512 84.8105 35.6777L84.8161 33.6824V29.3059L84.8006 27.46C84.7935 26.7442 84.7738 26.2792 84.7456 26.072C84.7187 25.8635 84.6736 25.724 84.6129 25.655C84.5536 25.5845 84.4379 25.5295 84.27 25.4845C84.0993 25.4394 83.6788 25.407 83.0099 25.3816L82.9323 25.3125V24.8419L83.0099 24.7743ZM70.9534 24.8419L71.031 24.7743C72.5945 24.825 73.5004 24.8518 73.7389 24.8518C73.9534 24.8518 74.8579 24.825 76.4581 24.7743L76.5315 24.8419V25.3125L76.4581 25.3816C76.0221 25.3943 75.6848 25.4126 75.4492 25.4365C75.2093 25.4633 75.0385 25.5112 74.9327 25.5789C74.8255 25.6493 74.7549 25.8114 74.7182 26.065C74.6829 26.32 74.6674 26.6751 74.6674 27.1302L74.6477 29.3059V33.4852C74.6477 34.5307 74.6533 35.2606 74.6674 35.6777L74.7112 37.3136H76.6444C78.1867 37.3136 79.1463 37.2939 79.5273 37.2587C79.9083 37.2192 80.278 37.1262 80.6336 36.9825C80.7013 36.8261 80.8015 36.4611 80.9313 35.8961C81.0597 35.3268 81.1289 34.9985 81.1345 34.9126L81.2192 34.8379H81.6849L81.7484 34.9126C81.7004 35.1634 81.6482 35.6509 81.5931 36.378C81.5381 37.1022 81.5127 37.687 81.5127 38.1365L81.4379 38.2098C80.2357 38.1745 78.6623 38.1548 76.7135 38.1548L73.9463 38.1365C73.3156 38.1365 72.6735 38.1619 72.0159 38.2098L71.9397 38.1365V37.8223L72.0159 37.7293C72.4082 37.5292 72.6213 37.4038 72.6594 37.3615C72.6961 37.3164 72.737 36.9106 72.7765 36.1413C72.8189 35.3733 72.8372 34.4447 72.8372 33.3597V29.3059L72.8217 27.46C72.8146 26.7442 72.7949 26.2792 72.7667 26.072C72.7398 25.8635 72.6961 25.724 72.634 25.655C72.5762 25.5845 72.459 25.5295 72.2883 25.4845C72.1204 25.4394 71.6999 25.407 71.031 25.3816L70.9534 25.3125V24.8419ZM54.9782 24.8419L55.0572 24.7743C56.6222 24.825 57.5267 24.8518 57.7652 24.8518C57.9782 24.8518 58.8842 24.825 60.483 24.7743L60.5577 24.8419V25.3125L60.483 25.3816C60.0469 25.3943 59.7111 25.4126 59.4754 25.4365C59.2355 25.4633 59.0648 25.5112 58.9575 25.5789C58.8517 25.6493 58.7797 25.8114 58.7445 26.065C58.7092 26.32 58.6937 26.6751 58.6937 27.1302L58.6739 29.3059V33.4852C58.6739 34.5307 58.681 35.2606 58.6937 35.6777L58.7388 37.3136H60.6706C62.213 37.3136 63.1725 37.2939 63.5535 37.2587C63.9359 37.2192 64.3042 37.1262 64.6598 36.9825C64.7276 36.8261 64.8278 36.4611 64.9562 35.8961C65.086 35.3268 65.1537 34.9985 65.1608 34.9126L65.244 34.8379H65.7097L65.7746 34.9126C65.7266 35.1634 65.6744 35.6509 65.6194 36.378C65.5644 37.1022 65.539 37.687 65.539 38.1365L65.4642 38.2098C64.2619 38.1745 62.6885 38.1548 60.7384 38.1548L57.9726 38.1365C57.3418 38.1365 56.6984 38.1619 56.0422 38.2098L55.9646 38.1365V37.8223L56.0422 37.7293C56.4331 37.5292 56.6476 37.4038 56.6857 37.3615C56.7209 37.3164 56.7633 36.9106 56.8014 36.1413C56.8437 35.3733 56.8635 34.4447 56.8635 33.3597V29.3059L56.8465 27.46C56.8409 26.7442 56.8211 26.2792 56.7929 26.072C56.7661 25.8635 56.7209 25.724 56.6603 25.655C56.601 25.5845 56.4853 25.5295 56.3145 25.4845C56.1466 25.4394 55.7261 25.407 55.0572 25.3816L54.9782 25.3125V24.8419ZM43.4763 24.8419L43.5496 24.7743C45.7157 24.8137 47.1014 24.8321 47.7068 24.8321C49.7783 24.8321 51.6212 24.8137 53.2369 24.7743L53.2849 24.8419C53.1268 25.4464 53.0097 26.3961 52.9363 27.6897L52.8785 27.7629H52.4156L52.3282 27.6897C52.3352 27.6319 52.338 27.5783 52.338 27.5375C52.338 27.0006 52.2971 26.4919 52.2153 26.003C51.8173 25.8297 51.2684 25.7127 50.5643 25.6592C49.8601 25.607 49.3295 25.5789 48.9768 25.5789C48.4786 25.5789 47.8394 25.6141 47.0633 25.6845L47.028 27.1951L46.9984 28.9254L46.9702 30.846C47.6517 30.884 48.2783 30.9037 48.854 30.9037C49.4354 30.9037 49.9208 30.884 50.3117 30.846C50.7026 30.8065 50.9312 30.7671 51.0003 30.729C51.0652 30.6882 51.116 30.6064 51.1485 30.4909C51.1852 30.3739 51.2134 30.1668 51.2388 29.8695L51.2783 29.2861L51.3531 29.2086H51.7891L51.8667 29.2861C51.854 29.9738 51.8371 30.6642 51.8173 31.3546L51.8667 33.4852L51.7891 33.5598H51.3531L51.2783 33.4852L51.2106 32.9173C51.1555 32.4748 51.1132 32.2142 51.0878 32.1268C51.0652 32.0423 51.0031 31.969 50.9128 31.9042C50.8225 31.8422 50.5868 31.7915 50.2087 31.752C49.8305 31.7168 49.3098 31.6971 48.6437 31.6971C48.2783 31.6971 47.7195 31.7125 46.9702 31.7449C46.9377 32.2748 46.9208 33.1554 46.9208 34.3912C46.9208 35.7157 46.9377 36.6894 46.9702 37.3136H48.7115C50.2468 37.3136 51.2035 37.2939 51.5916 37.2587C51.9768 37.2192 52.3409 37.1262 52.6866 36.9825C52.7444 36.8387 52.839 36.502 52.9688 35.9764C53.0972 35.4466 53.172 35.1183 53.1918 34.9858L53.2849 34.921H53.7407L53.8155 34.9858C53.7604 35.2578 53.7026 35.7326 53.6504 36.4062C53.5953 37.0811 53.5699 37.6588 53.5699 38.1365L53.5022 38.2098C52.2971 38.1745 50.7181 38.1548 48.7707 38.1548L46.1941 38.1365C45.5929 38.1365 44.9692 38.1619 44.3187 38.2098L44.2425 38.1365V37.8223L44.3187 37.7293C44.6898 37.5391 44.9043 37.4221 44.9551 37.3756C45.0116 37.3291 45.0553 36.7767 45.0892 35.7199C45.1244 34.6631 45.1442 33.8586 45.1442 33.3048V29.8357L45.1329 27.6897C45.1329 27.2218 45.1273 26.84 45.1146 26.5497C45.1005 26.2552 45.0793 26.0467 45.0454 25.9213C45.0144 25.7944 44.9791 25.7029 44.9396 25.655C44.8973 25.6028 44.8295 25.562 44.7392 25.5253C44.6489 25.4943 44.4909 25.4633 44.2707 25.4365L43.5496 25.3816L43.4763 25.3125V24.8419ZM42.3276 24.7743L42.4151 24.8616C42.3573 25.4267 42.3276 26.4173 42.3276 27.8306L42.2528 27.9052H41.8069L41.7335 27.8207L41.6263 26.9499C41.5783 26.4849 41.5388 26.1974 41.5106 26.096C41.481 25.9917 41.4358 25.9142 41.3709 25.8691C41.3102 25.8198 41.1028 25.7818 40.7571 25.7494C40.4085 25.717 40.0205 25.7 39.5901 25.7H37.8036C37.7514 27.1274 37.7246 27.9503 37.7246 28.1687V33.6824L37.7443 35.5255C37.7514 36.2385 37.7669 36.6992 37.7966 36.912C37.8262 37.122 37.8699 37.2629 37.9292 37.3291C37.9899 37.3939 38.1028 37.4517 38.2749 37.4982C38.4457 37.5461 38.869 37.5799 39.5449 37.6081L39.6098 37.6659V38.1365L39.5449 38.2098C37.9292 38.1619 37.0275 38.1365 36.837 38.1365C36.6324 38.1365 35.7335 38.1619 34.1375 38.2098L34.0628 38.1365V37.6659L34.1375 37.6081C34.7316 37.5799 35.1239 37.5489 35.3172 37.5123C35.5077 37.4742 35.6376 37.4263 35.7053 37.3643C35.7702 37.3066 35.8238 37.1769 35.8704 36.9825C35.9155 36.788 35.9381 36.3512 35.9381 35.6777L35.9536 33.6824V28.1687C35.9536 28.0701 35.9311 27.2458 35.8803 25.7H34.4706C33.8892 25.7 33.3882 25.7127 32.9635 25.7395C32.5416 25.7649 32.2946 25.8297 32.2297 25.9325C32.1634 26.0368 32.1013 26.375 32.0463 26.9499L31.9489 27.8207L31.8657 27.9052H31.4296L31.3548 27.8306C31.3407 26.3102 31.3125 25.3196 31.2674 24.8616L31.3548 24.7743C32.4499 24.825 34.2801 24.8518 36.837 24.8518C39.4447 24.8518 41.2749 24.825 42.3276 24.7743ZM16.1092 31.621C16.1092 30.6741 16.2447 29.7934 16.5156 28.9733C16.788 28.1546 17.2508 27.3951 17.9027 26.7005C18.5547 26.003 19.3449 25.4647 20.2649 25.0843C21.1864 24.6996 22.2278 24.5108 23.3905 24.5108C25.5439 24.5108 27.2556 25.0941 28.5298 26.2665C29.8069 27.4332 30.4433 29.0325 30.4433 31.0545C30.4433 32.4777 30.13 33.7585 29.5063 34.8928C28.8812 36.0285 27.9865 36.9106 26.8224 37.539C25.6568 38.1717 24.3459 38.4845 22.8952 38.4845C21.868 38.4845 20.9211 38.314 20.0547 37.9716C19.1925 37.6264 18.4559 37.1163 17.8449 36.4357C17.2367 35.7538 16.7936 34.9675 16.5199 34.0699C16.2447 33.1752 16.1092 32.3593 16.1092 31.621ZM18.0777 30.9967C18.0777 31.7647 18.2033 32.5946 18.4531 33.4795C18.7014 34.3658 19.0725 35.1253 19.5678 35.758C20.0646 36.3892 20.6375 36.8613 21.2838 37.1713C21.93 37.4813 22.6666 37.6363 23.4936 37.6363C24.4729 37.6363 25.3421 37.4094 26.1055 36.9656C26.8717 36.5161 27.4503 35.8214 27.8468 34.8801C28.2448 33.9375 28.4451 32.8778 28.4451 31.7069C28.4451 30.4317 28.2194 29.2833 27.7636 28.2533C27.3078 27.2261 26.6615 26.4821 25.8205 26.0143C24.9837 25.5493 24.0524 25.3125 23.0279 25.3125C21.4968 25.3125 20.2875 25.7945 19.4027 26.754C18.5208 27.7108 18.0777 29.1241 18.0777 30.9967ZM0.077611 24.7743C1.68769 24.825 2.58938 24.8518 2.78553 24.8518C2.99296 24.8518 3.89748 24.825 5.50332 24.7743L5.57811 24.8419V25.3125L5.50332 25.3816C5.06729 25.3943 4.73145 25.4126 4.49579 25.4365C4.2559 25.4633 4.08516 25.5112 3.97933 25.5789C3.87208 25.6493 3.80012 25.8114 3.76484 26.065C3.72956 26.32 3.71404 26.6751 3.71404 27.1302L3.69428 29.3059V30.629C5.07717 30.6684 6.38668 30.6839 7.62422 30.6839C9.31473 30.6839 10.6045 30.6684 11.4864 30.629V29.3059L11.4681 27.46C11.461 26.7442 11.4413 26.2792 11.4116 26.072C11.3806 25.8635 11.3354 25.724 11.2804 25.655C11.2225 25.5845 11.1097 25.5295 10.9375 25.4845C10.7668 25.4394 10.3463 25.407 9.67033 25.3816L9.6026 25.3125V24.8419L9.67033 24.7743C11.2875 24.825 12.1906 24.8518 12.3853 24.8518C12.6026 24.8518 13.5071 24.825 15.1031 24.7743L15.1807 24.8419V25.3125L15.1031 25.3816C14.6642 25.3943 14.3242 25.4126 14.0857 25.4365C13.85 25.4633 13.6779 25.5112 13.572 25.5789C13.462 25.6493 13.3942 25.8114 13.3618 26.065C13.3293 26.32 13.3138 26.6751 13.3068 27.1302L13.287 29.3059V33.6824L13.3068 35.5255C13.3138 36.2385 13.3293 36.6993 13.3618 36.9064C13.3942 37.1163 13.4394 37.2558 13.5001 37.3235C13.5579 37.3939 13.6722 37.4517 13.8402 37.4982C14.0081 37.5461 14.4286 37.5799 15.1031 37.6081L15.1807 37.6659V38.1365L15.1031 38.2098C13.4888 38.1619 12.5829 38.1365 12.3853 38.1365C12.1849 38.1365 11.2804 38.1619 9.67033 38.2098L9.6026 38.1365V37.6659L9.67033 37.6081C10.263 37.5799 10.6567 37.5489 10.8528 37.5123C11.0476 37.4742 11.176 37.4263 11.2409 37.3643C11.303 37.3066 11.358 37.1769 11.4032 36.9825C11.4441 36.788 11.4681 36.3512 11.4681 35.6777L11.4864 33.6824V31.5266C9.61812 31.4871 8.31002 31.4716 7.55649 31.4716C6.78743 31.4716 5.5005 31.4871 3.69428 31.5266V33.6824L3.70416 35.5255C3.70981 36.2385 3.72956 36.6993 3.76202 36.9064C3.79165 37.1163 3.83681 37.2558 3.89748 37.3235C3.95957 37.3939 4.07246 37.4517 4.2432 37.4982C4.41395 37.5461 4.83446 37.5799 5.50332 37.6081L5.57811 37.6659V38.1365L5.50332 38.2098C3.89466 38.1619 2.98591 38.1365 2.78553 38.1365C2.58938 38.1365 1.68769 38.1619 0.077611 38.2098L0 38.1365V37.6659L0.077611 37.6081C0.66181 37.5799 1.05692 37.5489 1.25024 37.5123C1.4478 37.4742 1.57621 37.4263 1.64535 37.3643C1.70885 37.3066 1.7653 37.1769 1.80622 36.9825C1.84573 36.788 1.87113 36.3512 1.87819 35.6777L1.88383 33.6824V29.3059L1.86831 27.46C1.86125 26.7442 1.8415 26.2792 1.81327 26.072C1.78646 25.8635 1.74131 25.724 1.68063 25.655C1.62278 25.5845 1.50565 25.5295 1.33773 25.4845C1.16699 25.4394 0.746477 25.407 0.077611 25.3816L0 25.3125V24.8419L0.077611 24.7743Z" fill="url(#paint0_linear_1105_82)"/>
<defs>
<linearGradient id="paint0_linear_1105_82" x1="120" y1="0" x2="120" y2="62.4416" gradientUnits="userSpaceOnUse">
<stop stop-color="white"/>
<stop offset="1" stop-color="white" stop-opacity="0.51"/>
</linearGradient>
</defs>
</svg>
