<svg width="158" height="87" viewBox="0 0 158 87" fill="none" xmlns="http://www.w3.org/2000/svg">
<g clip-path="url(#clip0_1156_71)">
<path fill-rule="evenodd" clip-rule="evenodd" d="M116.88 23.7101C118.85 23.7101 119.75 24.9301 120.14 25.5701H120.16L122.09 24.1301C120.35 21.7801 118.16 21.6001 117.04 21.6001C113.89 21.6001 112.1 23.2901 112.1 25.5001C112.1 27.9401 114.09 28.6201 115.68 28.9701L117.27 29.3201L117.287 29.3238C118.856 29.6714 119.68 29.8539 119.68 30.9301C119.68 32.0101 118.63 32.5801 117.27 32.5801C114.97 32.5801 113.94 31.5201 113.39 30.7001L111.42 32.0601C112.53 34.0001 114.8 34.7401 116.89 34.7401C119.12 34.7401 122.2 33.8001 122.2 30.7001C122.2 28.1901 120.11 27.4201 118.14 27.0001L116.83 26.7201C115.5 26.4401 114.54 26.2001 114.54 25.2301C114.54 23.9001 116.35 23.7101 116.88 23.7101ZM109.82 31.8702C110.01 31.2502 110.03 30.7202 110.03 29.6602H110.02V21.9202H107.68V29.4802C107.68 30.3202 107.66 30.6502 107.52 31.0602C107.01 32.4802 105.29 32.4802 104.99 32.4802C103.32 32.4802 102.65 31.7302 102.42 30.9902C102.3 30.6202 102.3 30.3502 102.3 29.6103V29.6102V21.9202H99.9399V29.3602V29.3602C99.9399 30.6902 99.9399 31.2702 100.14 31.9102C100.8 33.9602 102.91 34.7402 104.91 34.7402C107.98 34.7402 109.41 33.1302 109.82 31.8702ZM124 34.4202V21.9102H126.3V34.4202H124ZM104.42 42.89C106.39 42.89 107.29 44.11 107.68 44.75H107.7L109.63 43.31C107.89 40.96 105.7 40.78 104.58 40.78C101.43 40.78 99.64 42.47 99.64 44.68C99.64 47.12 101.63 47.8 103.22 48.15L104.81 48.5L104.827 48.5038C106.396 48.8513 107.22 49.0339 107.22 50.11C107.22 51.19 106.17 51.76 104.81 51.76C102.51 51.76 101.48 50.7 100.93 49.88L98.96 51.24C100.07 53.18 102.34 53.92 104.43 53.92C106.66 53.92 109.74 52.98 109.74 49.88C109.74 47.37 107.65 46.6 105.68 46.18L104.37 45.9C103.04 45.62 102.08 45.38 102.08 44.41C102.08 43.08 103.89 42.89 104.42 42.89ZM110.43 44.7501H111.71V41.6001H113.84V44.7501H115.74V46.2601H113.84V50.6501C113.84 50.9901 113.86 51.3801 114.05 51.5901C114.3 51.8601 114.76 51.8601 114.85 51.8601C115.15 51.8601 115.47 51.8201 115.74 51.7501V53.5401L115.704 53.5454L115.659 53.5522L115.6 53.5613L115.6 53.5613L115.6 53.5613C115.301 53.6076 114.833 53.6801 114.22 53.6801C112.32 53.6801 111.72 52.9901 111.72 51.5401V46.2601H110.43V44.7501ZM122.18 52.92L122.23 53.61H122.24H124.76C124.41 53.05 124.37 52.85 124.37 52.18V47.01C124.37 45.45 123.25 44.49 120.65 44.49C116.965 44.49 116.812 46.7176 116.771 47.3232L116.77 47.34L118.93 47.46C118.93 47 119.11 46.13 120.72 46.13C122.05 46.13 122.24 46.79 122.24 47.46C121.67 47.66 120.84 47.87 119.51 48.12C117.83 48.42 116.36 49.18 116.36 51.11C116.36 52.6 117.56 53.82 119.58 53.82C120.66 53.82 121.6 53.38 122.18 52.92ZM120.55 49.7C121.36 49.57 121.88 49.38 122.23 49.2V50.39C122.23 51.5 121.02 52 120.05 52C118.99 52 118.6 51.5 118.6 50.92C118.6 50.04 119.58 49.84 120.55 49.7ZM128.68 44.7501V46.0101C129.35 44.6101 130.89 44.5601 131.32 44.5601H131.5V46.7401C131.06 46.7401 129.36 46.7401 128.84 48.3701C128.68 48.8701 128.68 49.3101 128.68 49.8201V53.6101H126.63V44.7501H128.68ZM133.12 44.7501H131.84V46.2601H133.13V51.5401C133.13 52.9901 133.73 53.6801 135.63 53.6801C136.243 53.6801 136.711 53.6076 137.01 53.5613L137.01 53.5613L137.01 53.5613L137.011 53.5612L137.012 53.5611C137.063 53.5531 137.109 53.546 137.15 53.5401V51.7501C136.88 51.8201 136.56 51.8601 136.26 51.8601C136.17 51.8601 135.71 51.8601 135.46 51.5901C135.27 51.3801 135.25 50.9901 135.25 50.6501V46.2601H137.15V44.7501H135.25V41.6001H133.12V44.7501ZM144.33 53.61V52.71C143.89 53.12 143 53.83 141.46 53.83C139.92 53.83 139.26 53.19 138.91 52.66C138.43 51.95 138.4 51.14 138.4 50.32V44.76H140.54V49.86C140.54 50.71 140.75 51.83 142.28 51.83C143.31 51.83 143.84 51.16 144 50.84C144.32 50.22 144.34 49.39 144.34 48.71V44.76H146.47V53.62H144.34L144.33 53.61ZM150.88 45.55V44.75V44.74H148.75V56.49H150.88V52.88C151.84 53.76 152.76 53.87 153.29 53.87C153.96 53.87 155.4 53.71 156.44 52.24C157.29 51.06 157.33 49.73 157.33 49.25C157.33 47.48 156.6 46.33 156.14 45.78C155.14 44.6 153.88 44.49 153.31 44.49C151.96 44.49 151.23 45.18 150.88 45.55ZM150.84 49.12C150.84 47.9 151.47 46.52 152.97 46.52C154 46.52 155.15 47.3 155.15 49.14C155.15 51.35 153.85 51.85 153.02 51.85C151.58 51.85 150.84 50.63 150.84 49.12ZM110.44 69.3102C110.03 70.3702 108.63 73.1202 105.04 73.1202C102.08 73.1202 99.1899 71.1002 99.1899 66.4202C99.1899 63.6402 100.77 59.9702 105.12 59.9702C108.34 59.9702 109.67 62.0402 110.2 63.8302L107.88 64.4302C107.74 63.0702 106.59 62.1102 105.21 62.1102C103.17 62.1102 101.72 63.6702 101.72 66.4502C101.72 68.1502 102.41 70.9002 105.19 70.9002C106.8 70.9002 107.85 69.6602 108.22 68.3802L110.43 69.3002L110.44 69.3102ZM116.07 70.9902C114.01 70.9902 113.61 69.2302 113.57 68.7902H113.59H120.14C120.14 66.3802 119.16 63.6702 115.78 63.6702C113.47 63.6702 111.33 65.1402 111.33 68.3102C111.33 71.2502 113.24 73.0602 115.88 73.0602C118.2 73.0602 119.49 71.7702 120.2 70.8102L118.39 69.7702C118.21 70.0702 117.58 70.9902 116.07 70.9902ZM115.81 65.3702C117.47 65.3702 117.75 66.7902 117.79 67.2302H113.65C113.72 66.8802 114.06 65.3702 115.81 65.3702ZM123.93 63.9402V64.9802C124.73 63.7702 126.3 63.6702 126.66 63.6702C128.54 63.6702 129.53 64.8902 129.53 66.6302V72.8002H127.44V67.8202C127.44 66.8502 127.19 65.7502 125.88 65.7502C125.65 65.7502 125.21 65.7902 124.76 66.1602C124.12 66.6902 123.93 67.4402 123.93 68.9602V72.8002H121.79V63.9402H123.93ZM131.98 63.94H130.7V65.45H131.99V70.73C131.99 72.18 132.59 72.87 134.49 72.87C135.103 72.87 135.571 72.7975 135.87 72.7513C135.922 72.7432 135.968 72.736 136.01 72.73V70.94C135.74 71.01 135.42 71.05 135.12 71.05C135.03 71.05 134.57 71.05 134.32 70.78C134.13 70.57 134.11 70.18 134.11 69.84V65.45H136.01V63.94H134.11V60.79H131.98V63.94ZM139.35 63.94V65.2C140.02 63.8 141.56 63.75 141.99 63.75H142.17V65.93C141.73 65.93 140.03 65.93 139.51 67.56C139.35 68.06 139.35 68.4999 139.35 69.0099V69.01V72.8H137.3V63.94H139.35ZM147.79 70.9902C145.73 70.9902 145.33 69.2302 145.29 68.7902H145.31H151.86C151.86 66.3802 150.88 63.6702 147.5 63.6702C145.19 63.6702 143.05 65.1402 143.05 68.3102C143.05 71.2502 144.96 73.0602 147.6 73.0602C149.92 73.0602 151.21 71.7702 151.92 70.8102L150.11 69.7702C149.93 70.0702 149.3 70.9902 147.79 70.9902ZM147.53 65.3702C149.19 65.3702 149.47 66.7902 149.51 67.2302H145.37C145.44 66.8802 145.78 65.3702 147.53 65.3702Z" fill="url(#paint0_linear_1156_71)"/>
<path d="M57.3901 73.7501L26.3301 21.9701H57.3901V29.0601H38.8401L57.3901 59.9801L80.5301 21.4001C73.0001 8.55007 59.0301 -0.0599325 43.0701 6.74618e-05C19.2001 0.0900675 -0.0899305 19.5101 6.95124e-05 43.3901C0.0900695 67.2701 19.5101 86.5501 43.3901 86.4601C67.2601 86.3701 86.5501 66.9501 86.4601 43.0701C86.4401 38.2101 85.6101 33.5501 84.1201 29.1901L57.3901 73.7501Z" fill="url(#paint1_linear_1156_71)"/>
</g>
<defs>
<linearGradient id="paint0_linear_1156_71" x1="128.145" y1="21.6001" x2="128.145" y2="73.1202" gradientUnits="userSpaceOnUse">
<stop stop-color="white"/>
<stop offset="1" stop-color="white" stop-opacity="0.51"/>
</linearGradient>
<linearGradient id="paint1_linear_1156_71" x1="43.2301" y1="-0.000244141" x2="43.2301" y2="86.4604" gradientUnits="userSpaceOnUse">
<stop stop-color="white"/>
<stop offset="1" stop-color="white" stop-opacity="0.51"/>
</linearGradient>
<clipPath id="clip0_1156_71">
<rect width="157.33" height="86.46" fill="white"/>
</clipPath>
</defs>
</svg>
